<svg width="28" height="28" viewBox="0 0 28 28" fill="none" xmlns="http://www.w3.org/2000/svg">
<path d="M3 22.6851C3.36741 22.6747 3.75064 22.7695 4.07605 22.5661C4.14425 22.5235 4.19837 22.5137 4.25432 22.4481C4.20446 22.3963 4.01531 22.3743 3.91905 22.3367C3.677 22.2424 3.49603 22.0349 3.36501 21.8183L3.3659 21.7966C3.47808 21.8052 3.62401 22.0185 3.79654 22.0697C4.01994 22.136 4.17837 22.1666 4.40746 22.0766C4.61319 21.9958 4.85665 21.2515 4.91083 21.0464C5.0147 20.6535 5.16497 19.9827 5.19468 19.5718C5.22327 19.1769 5.20238 18.7636 5.27305 18.3467C5.42012 17.4792 5.59184 16.6198 5.71026 15.7465L6.05999 13.1684C6.18783 12.2628 6.32325 11.3108 6.61695 10.4421C6.84666 9.76273 7.01791 9.17633 7.1706 8.47668C7.37484 7.54069 7.87744 6.73008 8.42256 5.96233C9.05641 5.06961 9.69035 4.30905 10.6813 3.78694C11.5747 3.31273 12.7881 2.89993 13.7531 3.38867C14.5409 2.96931 15.4646 2.8854 16.3151 3.15595C16.8599 3.32489 17.726 3.86287 17.9675 4.37165C18.2467 4.95969 18.4634 5.08312 18.8398 5.55901C19.7834 6.75172 20.3072 8.33131 20.8992 9.71654C21.6306 11.3896 22.373 13.0684 23.0839 14.7492C23.3933 15.4807 23.594 15.9782 23.7216 16.7543C23.8772 17.7014 23.9016 18.1548 23.4487 19.0205C23.1485 19.5944 23.0043 20.0793 22.3321 20.3399C22.4379 20.2513 22.525 20.1731 22.6273 20.0813C22.6255 19.9063 22.6535 19.8558 22.7182 19.6957C22.3494 20.033 21.3548 20.7248 20.8371 20.4384C20.9797 20.3807 21.4423 20.3161 21.4755 20.2438C21.381 20.1698 20.9774 20.2268 20.7776 20.1867C20.8583 20.1416 20.9403 20.0942 21.0233 20.0538C21.0101 19.9597 21.0163 19.9283 21.0292 19.8331C20.688 20.1354 19.7792 20.5178 19.3142 20.4707C19.1959 20.4587 19.0172 20.4471 18.9026 20.4832L18.8542 20.6075C18.9215 20.6153 19.0151 20.643 19.0786 20.6472C19.1886 20.6544 19.2405 20.6445 19.354 20.6659L19.3662 20.6942C19.2921 20.751 18.9327 20.7909 18.8282 20.7927C18.2349 20.8029 17.9945 20.6777 17.5207 20.3574C17.3163 20.2192 17.2506 20.2612 17.005 20.0314C17.1097 20.046 17.2297 20.0748 17.3343 20.0972L17.3269 19.9818C17.2171 19.9638 17.1657 19.9562 17.0553 19.9557C16.5317 19.6346 16.7373 18.9941 16.9505 18.5357C16.2251 19.1844 15.1039 19.968 14.2328 20.3388C12.997 20.8648 11.7186 20.0659 10.8141 19.2852C10.7688 19.2461 10.5891 19.0946 10.545 19.0979C10.466 19.2766 10.6375 19.9671 10.6496 20.1888C10.6625 20.4242 10.6989 20.7894 10.6907 21.0158C10.6417 22.38 9.33643 24.1634 8.07096 24.6437C7.65354 24.802 7.02103 24.8575 6.58839 24.7333L6.56443 24.7019L6.48038 24.6406C6.29847 24.6517 5.94595 24.6356 5.78569 24.5518L5.78833 24.5247C5.89159 24.4922 6.04905 24.4905 6.16572 24.4799L6.24994 24.3727L6.23735 24.3452C5.86798 24.3647 5.30927 24.2714 4.97488 24.1193C4.77495 24.0284 4.62162 23.9438 4.4074 23.8614C4.91088 23.7952 4.92283 23.8226 5.36517 23.5665L5.31767 23.5152C5.31197 23.44 5.36587 23.3967 5.41994 23.3251C5.34603 23.3552 5.25368 23.4071 5.1809 23.4244C4.55263 23.573 3.96686 23.2722 3.4079 23.0521C3.8274 23.0259 4.00078 23.0088 4.39948 22.8703L4.587 22.7136C4.10576 22.8661 3.46918 22.8974 3 22.6851ZM8.03427 18.2729C8.01248 18.357 8.02787 18.3487 7.97228 18.4004C7.9456 18.6348 7.76004 20.0036 7.79864 20.1439C7.86849 19.9678 8.02233 18.6551 8.0604 18.3886L8.03427 18.2729ZM8.27066 19.7251L8.19747 19.6785C8.20439 19.744 8.1979 19.7998 8.23338 19.8427C8.26291 19.7922 8.26364 19.7835 8.27066 19.7251ZM21.8662 15.5263L21.8855 15.4402L21.8239 15.332L21.7685 15.245L21.7507 15.2489C21.7651 15.3056 21.7698 15.3219 21.7958 15.3742C21.8159 15.4171 21.8498 15.4844 21.8662 15.5263ZM12.1731 6.68084C11.9534 6.62494 11.3176 6.42591 11.1277 6.58888C11.1853 6.67267 11.3294 6.65507 11.324 6.71419C11.2045 6.76604 10.9962 6.8172 10.9158 6.85875C10.6203 7.01153 10.347 7.44211 10.2309 7.74618C9.98621 8.38688 9.95894 9.07819 9.88084 9.75247C9.84739 10.0414 9.79586 10.3308 9.79481 10.6193C10.1355 10.316 10.3282 10.3083 10.7744 10.3356C11.0305 10.3513 11.2539 10.3798 11.5051 10.4272C12.045 10.5292 12.2709 10.5746 12.5355 11.0931L12.5343 11.1425L12.4528 11.1932C12.0089 11.0742 11.513 10.9198 11.059 10.8565C10.7205 10.8094 10.1389 10.6701 9.85061 10.887C9.66783 11.0246 9.64649 11.2798 9.61914 11.4882C9.7015 11.5415 9.87306 11.6946 9.93292 11.6998C9.94511 11.6401 9.86781 11.4509 9.84411 11.372L9.85813 11.3461C9.95933 11.3843 9.9445 11.5046 10.0527 11.4829C10.0574 11.4453 10.0618 11.4077 10.066 11.37C10.3164 11.3684 10.1789 11.2474 10.3208 11.1581L10.3584 11.1666L10.4045 11.3245C10.4574 11.3902 10.3779 11.4432 10.4332 11.4554L10.4758 11.408C10.9171 11.2319 10.9215 11.2345 11.4125 11.267L11.4896 11.2787C11.5892 11.3063 11.7023 11.3031 11.7403 11.3158C11.7992 11.3569 11.8258 11.3699 11.8895 11.4007L11.8614 11.4834C11.9609 11.5943 12.0617 11.6029 12.1641 11.6929C12.2279 11.8914 12.2612 11.9913 12.3838 12.1671C12.3139 12.1521 11.9989 12.0939 11.9681 12.0583C12.0435 12.0088 12.0511 12.0217 12.0778 11.9526C12.0544 11.8461 11.9396 11.7827 11.8519 11.7263C11.6179 12.1217 11.4234 12.3595 10.9259 12.0977C10.7914 12.0269 10.85 11.817 10.7676 11.7146C10.6551 11.7037 10.5257 11.7587 10.4685 11.8588C10.4711 11.9722 10.5269 11.9852 10.6211 12.0399C10.4468 12.0862 10.0085 12.2857 9.94007 12.265C9.95591 12.1863 10.0248 12.1786 10.0917 12.0828L10.0718 12.0666C9.93584 12.0924 9.73261 12.1837 9.63501 12.1828L9.59638 12.1472C9.64379 12.0409 9.89223 12.0268 9.93953 11.8912C9.8741 11.8112 9.74685 11.7618 9.64917 11.8195C9.69677 11.8981 9.77093 11.8733 9.80459 11.9415C9.66613 12.0187 9.51538 11.8481 9.49785 12.0146C9.46493 12.3269 9.44337 12.6127 9.39469 12.925C9.34708 13.2337 9.29226 13.5413 9.23029 13.8474C9.10284 14.4843 8.99716 14.7714 9.281 15.4017C9.27147 15.4312 9.26443 15.4612 9.24661 15.4861C9.13171 15.2751 9.08375 15.1652 8.99565 14.9445C9.00304 15.2898 9.00411 15.5759 9.07521 15.9196C9.29329 16.9737 10.0425 17.8868 10.7951 18.6212C11.4455 19.2558 12.4318 20.0135 13.3823 19.9959C13.6224 19.9917 13.8594 19.9419 14.0808 19.849C14.7916 19.5464 16.3246 18.334 16.878 17.7638C17.3792 17.2471 17.8988 16.3258 18.0528 15.6207C18.1132 15.3445 18.1764 15.0265 18.2458 14.7529C18.1084 14.8931 18.0262 15.0181 17.9225 15.1847L17.8683 15.1691C18.0528 14.7353 18.2629 14.3329 18.3541 13.8633C18.4016 13.5754 18.5189 13.0494 18.4669 12.7624C18.3235 11.9703 18.0295 11.1206 17.8292 10.3401C17.5432 9.22625 17.4425 7.60334 16.3702 6.95276C16.279 6.89748 15.8974 6.85518 15.8501 6.78112C15.9529 6.75051 16.1085 6.74726 16.2258 6.73201C15.8936 6.62965 15.7278 6.63727 15.3873 6.64399C15.3192 6.64534 15.2432 6.66023 15.183 6.65746L15.1785 6.62554C15.256 6.52875 15.396 6.59978 15.4552 6.46301C15.3075 6.40771 14.5052 6.78278 14.396 6.71187C14.4219 6.65793 14.702 6.50461 14.7769 6.46104L14.809 6.40673C14.4413 6.52555 14.1045 6.77772 13.7817 6.98309C13.75 7.0033 13.7676 7.00599 13.7377 6.99415L13.7132 7.01476C13.8718 6.83285 13.9228 6.80277 14.1209 6.66395C14.177 6.62807 14.1923 6.61972 14.238 6.56727L14.2351 6.53354C14.1699 6.5353 14.137 6.57548 14.0845 6.61977C14.0066 6.66582 13.7243 6.84424 13.6601 6.84412C13.4295 6.84362 13.5686 6.83302 13.3998 6.96608L13.3835 6.93487C13.4314 6.83644 13.4374 6.81674 13.4018 6.71688L13.3772 6.71013C13.3491 6.76778 13.3345 6.80032 13.2958 6.85327C13.2292 6.81707 13.1477 6.50501 13.0537 6.43437C13.0359 6.45717 13.0659 6.7365 13.0624 6.83237C12.8352 6.58024 12.867 6.53889 12.5341 6.39636C12.6199 6.49663 12.7468 6.62257 12.8398 6.72169C12.5525 6.62629 12.2301 6.31978 12.0795 6.33514L11.9094 6.3914C11.7225 6.3435 11.5345 6.31379 11.341 6.31847C11.6716 6.4253 11.8897 6.47322 12.1731 6.68084ZM19.7549 16.7207L19.8018 16.7145C19.8045 16.5316 19.8133 16.3959 19.7596 16.2184C19.7381 16.2868 19.753 16.6307 19.7549 16.7207ZM13.4153 3.80383C13.5633 3.85798 13.6636 3.91271 13.7943 4.0036L13.7961 3.95959C13.4922 3.64493 12.7377 3.54062 12.3257 3.60667C12.216 3.62426 12.0803 3.65398 11.9706 3.67805C11.7324 3.7198 11.6499 3.7109 11.465 3.85752L11.4723 3.87376C11.651 3.83934 11.8022 3.7643 11.9625 3.72822C12.401 3.62953 12.9919 3.65122 13.4153 3.80383ZM13.3392 3.45499C13.4135 3.48232 13.5029 3.52517 13.5777 3.51084L13.5643 3.50862C13.5353 3.46086 13.31 3.41147 13.2458 3.39312C13.0038 3.32395 12.4238 3.30353 12.193 3.39784C11.9942 3.45682 11.8898 3.496 11.7029 3.59012C12.3413 3.48127 12.6668 3.37255 13.3392 3.45499ZM9.6316 8.54251C9.64761 8.42497 9.65206 8.2911 9.65892 8.17155C9.61309 8.32609 9.59888 8.40962 9.5835 8.56836C9.53653 8.81841 9.25292 10.8531 9.26962 10.9044L9.30062 10.9104C9.4264 10.7416 9.49079 8.90289 9.6316 8.54251ZM14.1164 4.22002C14.0951 4.14695 14.0922 4.13622 14.0434 4.07502C14.043 4.36124 14.0472 4.64832 13.9542 4.92258C13.9391 4.96736 13.8804 5.10816 13.8787 5.14355C14.0373 5.06637 14.1312 4.39776 14.1164 4.22002ZM5.95758 14.8044C5.94853 14.8695 5.93148 14.9111 5.9528 14.9649C5.97751 14.9042 5.98764 14.8817 5.9993 14.8149L6.0052 14.7967C6.04452 14.6712 6.17878 13.9364 6.12776 13.8416L6.14159 13.8069L6.14688 13.83L6.13149 13.8277L6.12963 13.8251L6.14411 13.8523L6.14351 13.8498L6.11955 13.8591C6.05676 14.1191 6.00423 14.5268 5.95758 14.8044ZM6.87216 18.3402C6.8824 18.1931 6.98004 17.3208 6.9549 17.2598C6.92353 17.4379 6.75507 18.2263 6.87216 18.3402ZM7.75027 20.6128C7.7734 20.5141 7.83286 20.2748 7.77953 20.19C7.74647 20.3044 7.6924 20.5026 7.75027 20.6128ZM20.5641 15.1164C20.5361 15.0478 20.4937 14.9266 20.4273 14.893C20.4252 14.9632 20.4925 15.0785 20.5261 15.1466L20.5641 15.1164ZM6.8188 20.3786C6.85774 20.2341 6.84188 19.3667 6.76558 19.27C6.74857 19.3616 6.78273 20.3143 6.8188 20.3786ZM13.9951 3.78904L14.0028 3.7924L14.0218 3.78317L14.0106 3.6268C13.9823 3.54841 13.9567 3.53086 13.8956 3.47459L13.8811 3.48774C13.9146 3.60066 13.9741 3.70867 13.9951 3.78904ZM20.632 11.2085L20.5889 11.2853C20.728 11.5356 20.7881 11.6255 20.9463 11.8611C20.9396 11.7861 20.6903 11.3452 20.632 11.2085ZM4.33144 23.1812C4.42814 23.2228 4.6223 23.1888 4.71747 23.1466C4.60711 23.0954 4.452 23.1487 4.33144 23.1812ZM6.75315 23.7022C6.90709 23.7664 7.00846 23.8016 7.17557 23.8301L7.19427 23.7796C7.03084 23.7435 6.91892 23.7215 6.75315 23.7022ZM7.80474 8.79409L7.72739 8.77411C7.66639 8.99943 7.60714 9.21396 7.55968 9.443C7.60728 9.40598 7.77169 8.89301 7.80474 8.79409ZM14.7063 3.27197L14.6851 3.23215C14.622 3.24541 14.5792 3.24113 14.5466 3.28168C14.6122 3.29866 14.6418 3.28704 14.7063 3.27197ZM6.74537 15.476C6.76762 15.4095 6.80143 15.3316 6.79281 15.2649L6.77491 15.2458C6.74463 15.3112 6.70624 15.3722 6.71702 15.4413L6.74537 15.476ZM17.7686 4.37421C17.8256 4.45918 17.9088 4.59971 17.9872 4.65609L17.996 4.63007L17.992 4.65616L17.9564 4.63634L17.9813 4.58958C17.9468 4.51287 17.8504 4.38624 17.7959 4.31969L17.7686 4.37421ZM11.1123 4.95109L11.0255 4.9252C10.9173 4.96467 10.8307 4.97945 10.7566 5.06217L10.7347 5.06222C10.8322 5.0618 11.0085 4.98588 11.1123 4.95109ZM9.75585 19.2528L9.82154 19.2688C9.79086 19.1826 9.76971 19.1078 9.71305 19.0353C9.70064 19.088 9.7392 19.1917 9.75585 19.2528ZM15.4681 5.69218C15.5735 5.71568 15.6613 5.7376 15.7699 5.74558L15.8535 5.67499C15.7201 5.68502 15.6018 5.68945 15.4681 5.69218ZM20.1332 11.249C20.124 11.3256 20.138 11.3128 20.094 11.3529C20.1281 11.4559 20.4347 11.9704 20.5064 12.0683C20.4892 11.9654 20.1993 11.4222 20.1332 11.249ZM20.1729 13.0419L20.1546 13.1012C20.2398 13.2034 20.3667 13.3515 20.4783 13.4222C20.4277 13.3223 20.2544 13.1337 20.1729 13.0419ZM9.28515 10.9891C9.25244 11.1195 9.19848 11.3163 9.26399 11.442C9.2859 11.3314 9.33631 11.0852 9.28515 10.9891ZM21.4638 16.1097L21.501 16.0476C21.4103 15.8913 21.3529 15.8053 21.2442 15.6608C21.3003 15.8197 21.3831 15.962 21.4638 16.1097ZM21.7294 16.7216C21.7405 16.9647 21.8623 17.2464 21.947 17.4801L21.9934 17.5145C21.9484 17.2382 21.8461 16.9741 21.7294 16.7216ZM16.3557 4.427L16.2971 4.4704C16.4703 4.56933 16.5752 4.62832 16.7655 4.68723C16.6313 4.59678 16.4947 4.51 16.3557 4.427ZM8.99073 20.6042C8.96297 20.378 8.9277 20.0502 8.85978 19.8414C8.85606 19.9961 8.90506 20.3815 8.91602 20.5654L8.99073 20.6042ZM9.00401 17.824L9.07402 17.8558C9.04642 17.6898 9.01301 17.4745 8.95788 17.3185C8.9696 17.4873 8.98498 17.6559 9.00401 17.824ZM8.61835 16.397C8.67208 16.4552 8.67612 16.5161 8.69158 16.5943C8.69265 16.5004 8.65718 16.0503 8.62655 15.9651C8.63057 16.1345 8.59838 16.1845 8.61835 16.397ZM19.0485 6.35903L19.0975 6.3312C18.9846 6.12882 18.8861 5.95283 18.732 5.77911C18.7344 5.84244 19.0026 6.25177 19.0485 6.35903Z" fill="black"/>
<path d="M7.97228 18.4004C8.02787 18.3487 8.01248 18.357 8.03427 18.2729L8.0604 18.3886C8.02233 18.6551 7.86849 19.9678 7.79864 20.1439C7.76004 20.0036 7.9456 18.6348 7.97228 18.4004Z" fill="#EBEBEC" fill-opacity="0.976471"/>
<path d="M19.7549 16.7207C19.753 16.6307 19.7381 16.2868 19.7596 16.2184C19.8133 16.3959 19.8045 16.5316 19.8018 16.7145L19.7549 16.7207Z" fill="#CBCBCB" fill-opacity="0.968627"/>
<path d="M8.19747 19.6785L8.27066 19.7251C8.26364 19.7835 8.26291 19.7922 8.23338 19.8427C8.1979 19.7998 8.20439 19.744 8.19747 19.6785Z" fill="#F9F9FA" fill-opacity="0.988235"/>
<path d="M21.8239 15.332L21.8855 15.4402L21.8662 15.5263C21.8498 15.4844 21.8159 15.4171 21.7958 15.3742L21.8239 15.332Z" fill="#A6A6A8" fill-opacity="0.984314"/>
<path d="M21.7958 15.3742C21.7698 15.3219 21.7651 15.3056 21.7507 15.2489L21.7685 15.245L21.8239 15.332L21.7958 15.3742Z" fill="#61606E" fill-opacity="0.980392"/>
<path d="M8.8653 9.76727C8.93861 9.68137 8.9555 9.59804 8.98698 9.49257C8.99885 9.58775 8.99581 9.64461 9.01539 9.74121L9.00904 9.76424C8.86553 10.2894 8.19572 14.291 8.29092 14.5816C8.27771 14.596 8.26471 14.6105 8.25192 14.6253C8.32868 14.74 8.21945 14.9122 8.28165 15.0383C8.19587 15.6673 8.13361 16.3064 8.04645 16.9383C8.00351 17.2497 7.89051 17.9695 7.8862 18.2568L7.90219 18.2721C7.97895 18.1141 7.99669 17.971 8.04965 17.8156C8.21434 17.3323 8.29606 16.7337 8.44729 16.2636C8.49419 17.0418 8.48255 17.8225 8.41248 18.599C8.37555 18.9729 8.30048 19.3708 8.27066 19.7251L8.19747 19.6785C8.19045 19.2425 8.17604 18.9847 8.13013 18.5529C8.11171 18.4819 8.107 18.4455 8.0604 18.3886L8.03427 18.2729C8.01248 18.357 8.02787 18.3487 7.97228 18.4004L7.93013 18.4025C7.87532 18.5105 7.80358 19.0104 7.75861 19.1685C7.64849 19.5559 7.59837 19.9685 7.49351 20.3559C7.24908 21.2589 6.80677 22.1671 6.19134 22.8741C6.05117 23.0352 5.56814 23.5136 5.36517 23.5665L5.31767 23.5152C5.31197 23.44 5.36587 23.3967 5.41994 23.3251C5.43774 23.3184 5.50766 23.2555 5.53326 23.2392C5.77964 23.0824 6.32279 22.57 6.44637 22.3236C6.21562 22.5373 6.13667 22.6085 5.86033 22.7558L5.8114 22.7333L5.79365 22.6681C6.92223 22.1228 7.34495 20.8597 7.5134 19.7096C7.52122 19.6561 7.54506 19.5906 7.51564 19.5484C7.48282 19.5844 7.31845 19.9661 7.26371 20.0614C6.81661 20.8397 6.59853 21.2417 5.86526 21.7491L5.76281 21.7226C5.79554 21.7042 5.8278 21.6849 5.85955 21.6647C6.38853 21.3291 6.50575 21.0906 6.83475 20.6067C7.73826 19.2779 7.76088 17.8232 7.95079 16.2964C7.99862 15.9117 8.01496 15.4922 8.09999 15.1119C8.11383 15.0786 8.07647 14.8886 8.06919 14.8357C8.23599 14.2136 8.18733 13.2558 8.35671 12.6209L8.36167 12.6027L8.33237 12.5889L8.29284 12.5091C8.29466 12.4467 8.38782 12.1655 8.40736 12.0772C8.57659 11.312 8.71111 10.5361 8.8653 9.76727Z" fill="#F9F9FA"/>
<path d="M8.03427 18.2729L8.05302 18.2098L8.07675 18.2113C8.10591 18.2966 8.13104 18.4622 8.13013 18.5529C8.11171 18.4819 8.107 18.4455 8.0604 18.3886L8.03427 18.2729Z" fill="#19241D"/>
<path d="M9.00904 9.76424C9.04152 9.7689 9.08435 9.77272 9.1135 9.78399C9.04352 11.0285 8.81515 13.4951 8.29092 14.5816C8.19572 14.291 8.86553 10.2894 9.00904 9.76424Z" fill="black"/>
<path d="M9.4289 6.80909C9.43623 6.79552 9.44363 6.782 9.4511 6.76849C9.76854 6.195 10.3417 5.52021 10.998 5.33166L11.088 5.41561C10.9472 5.50763 10.7868 5.60734 10.6735 5.7311C10.6697 5.77744 10.6637 5.75732 10.6906 5.79379C10.6784 5.83228 10.6747 5.83782 10.6793 5.87945C10.5827 5.9729 10.3303 6.20078 10.2573 6.29482C9.74354 6.9568 9.52104 7.72596 9.38415 8.53803C9.36358 8.6601 9.2739 9.28692 9.24656 9.37104C9.1983 9.32667 9.19023 9.22708 9.18033 9.1634L9.14255 9.1392L9.02406 9.09451C9.02578 9.05647 9.09925 8.78967 9.1152 8.73594C9.32592 8.02642 9.56783 7.30213 9.91038 6.64442C9.98364 6.50375 10.0551 6.36068 10.1352 6.22404C10.1895 6.13144 10.2573 6.07141 10.2979 5.97103L10.2775 5.96394C10.0455 6.07298 9.61413 6.60925 9.47532 6.83624L9.4289 6.80909Z" fill="#919192"/>
<path d="M19.7549 16.7207L19.8018 16.7145C19.7627 17.6641 19.5518 18.2068 19.0187 18.9935C18.967 19.0697 18.7748 19.267 18.7694 19.3033C18.8689 19.2917 18.9859 19.1581 19.0458 19.0826C19.1068 19.0049 19.1669 18.9265 19.226 18.8474L19.3204 18.8804C18.9804 19.4016 18.477 19.985 17.8387 20.1087C17.6657 20.1423 17.5009 20.1648 17.3343 20.0972L17.3269 19.9818C17.4095 19.9503 17.5074 19.9394 17.5963 19.9133C17.8528 19.8378 18.112 19.7014 18.319 19.5294C19.297 18.7171 19.6086 17.925 19.7549 16.7207Z" fill="#F9F9FA"/>
<path d="M7.62054 15.4288C7.78517 15.0909 7.81652 14.7182 7.88895 14.3523C7.91715 14.2098 7.89972 14.0806 7.96783 13.9513L7.98499 13.9607C8.01264 14.0609 7.92624 14.8502 7.90391 14.9928L7.96021 15.0684L7.94092 15.1189L7.97001 15.1727C7.96082 15.2479 7.97094 15.2188 7.9164 15.2858C7.79114 15.4553 7.57505 16.7099 7.49775 17.0096C7.16217 18.3108 6.81683 19.205 5.97568 20.2596L5.91424 20.2252C6.9642 18.7214 7.37448 17.3874 7.66357 15.6057C7.71737 15.5162 7.67693 15.4993 7.62054 15.4288Z" fill="#F9F9FA"/>
<path d="M7.9164 15.2858C7.86886 15.156 7.88524 15.1285 7.90391 14.9928L7.96021 15.0684L7.94092 15.1189L7.97001 15.1727C7.96082 15.2479 7.97094 15.2188 7.9164 15.2858Z" fill="#18191B"/>
<path d="M21.8855 15.4402C22.4935 16.5175 23.4494 17.9012 23.1719 19.2429C23.1245 19.4724 22.8265 19.9623 22.6273 20.0813C22.6255 19.9063 22.6535 19.8558 22.7182 19.6957C22.7951 19.596 22.9915 19.2957 23.0188 19.1724C23.2251 18.2432 22.5963 17.0888 22.2048 16.2809C22.0738 16.0106 21.9882 15.7722 21.8662 15.5263L21.8855 15.4402Z" fill="#F9F9FA"/>
<path d="M9.14255 9.1392L9.18033 9.1634C9.19023 9.22708 9.1983 9.32667 9.24656 9.37104C9.06198 10.9316 9.07523 12.5239 8.5899 14.0316C8.47568 14.3865 8.32222 14.6627 8.28165 15.0383C8.21945 14.9122 8.32868 14.74 8.25192 14.6253C8.26471 14.6105 8.27771 14.596 8.29092 14.5816C8.81515 13.4951 9.04352 11.0285 9.1135 9.78399C9.08435 9.77272 9.04152 9.7689 9.00904 9.76424L9.01539 9.74121C9.04443 9.58273 9.07039 9.47578 9.11463 9.3207C9.12499 9.27744 9.13564 9.18686 9.14255 9.1392Z" fill="#EBEBEC"/>
<path d="M9.11463 9.3207C9.21174 9.45057 9.09837 9.62792 9.1135 9.78399C9.08435 9.77272 9.04152 9.7689 9.00904 9.76424L9.01539 9.74121C9.04443 9.58273 9.07039 9.47578 9.11463 9.3207Z" fill="#18191B"/>
<path d="M9.4289 6.80909L9.47532 6.83624C9.32598 7.11688 9.19951 7.40911 9.0971 7.71007C9.07638 7.77078 9.05287 7.82726 9.07957 7.88109C9.1455 7.84418 9.28323 7.44915 9.37972 7.35434C9.32622 7.64144 9.19828 7.88085 9.10523 8.14522C8.91379 8.68908 8.67477 9.20956 8.47741 9.74836C8.49936 9.04773 9.05892 7.43355 9.4289 6.80909Z" fill="#8C8C8D"/>
<path d="M6.48038 24.6406C6.63978 24.5594 6.87915 24.507 7.03288 24.4271C7.45021 24.2101 7.68525 24.1168 8.14668 24.0229L8.21135 24.1061C7.61782 24.5485 7.30109 24.6597 6.56443 24.7019L6.48038 24.6406Z" fill="#F9F9FA"/>
<path d="M10.998 5.33166C11.7264 4.96044 12.8001 5.02379 13.237 5.82104C13.3579 6.04179 13.3549 6.43235 13.3596 6.68261C13.2136 6.13174 13.2662 5.73648 12.7047 5.38819C12.2994 5.13685 11.4584 5.1121 11.088 5.41561L10.998 5.33166Z" fill="#EBEBEC"/>
<path d="M7.21603 14.6677C7.26413 14.5262 7.35639 14.3667 7.44218 14.2447C7.81955 13.7085 8.00248 13.081 8.29284 12.5091L8.33237 12.5889C8.24771 12.7761 8.1776 12.9947 8.09187 13.1899C7.85678 13.714 7.56294 14.2098 7.21603 14.6677Z" fill="#CBCBCB"/>
<path d="M17.7513 20.3469C18.125 20.367 18.5288 20.431 18.9026 20.4832L18.8542 20.6075C18.4655 20.6794 18.0899 20.5268 17.7513 20.3469Z" fill="#EBEBEC"/>
<path d="M5.73496 22.1516C5.32977 22.5941 4.96927 22.756 4.39948 22.8703L4.587 22.7136C4.70145 22.6273 5.08118 22.5 5.23545 22.4276C5.43052 22.3361 5.55009 22.2643 5.73496 22.1516Z" fill="#EBEBEC"/>
<path d="M21.5237 19.211L21.5988 19.2653C21.4966 19.478 21.239 19.9411 21.0233 20.0538C21.0101 19.9597 21.0163 19.9283 21.0292 19.8331C21.1426 19.668 21.3826 19.4006 21.5237 19.211Z" fill="#EBEBEC"/>
<path d="M6.23735 24.3452C6.65281 24.2632 6.98391 24.1284 7.36021 24.0517C6.99394 24.306 6.6156 24.4714 6.16572 24.4799L6.24994 24.3727L6.23735 24.3452Z" fill="#EBEBEC"/>
<path d="M6.80478 16.6408C6.93801 16.401 7.09055 16.2488 7.24824 16.0289C7.38024 15.8448 7.50249 15.6244 7.62054 15.4288C7.67693 15.4993 7.71737 15.5162 7.66357 15.6057C7.55873 15.6917 7.33937 16.0206 7.23757 16.1459C7.09384 16.3227 6.95861 16.4719 6.80478 16.6408Z" fill="#CBCBCB"/>
<path d="M9.02406 9.09451L9.14255 9.1392C9.13564 9.18686 9.12499 9.27744 9.11463 9.3207C9.07039 9.47578 9.04443 9.58273 9.01539 9.74121C8.99581 9.64461 8.99885 9.58775 8.98698 9.49257C8.9555 9.59804 8.93861 9.68137 8.8653 9.76727C8.90157 9.57259 8.97374 9.28789 9.02406 9.09451Z" fill="#CBCBCB"/>
<path d="M5.21497 22.8755C5.44632 22.8085 5.57195 22.7648 5.79365 22.6681L5.8114 22.7333L5.86033 22.7558C5.60481 22.8281 5.47863 22.861 5.21497 22.8755Z" fill="#CBCBCB"/>
<path d="M19.226 18.8474C19.3161 18.7122 19.4853 18.5065 19.603 18.3918C19.5082 18.5687 19.4272 18.7107 19.3204 18.8804L19.226 18.8474Z" fill="#CBCBCB"/>
<path d="M5.31592 21.9266C5.40481 21.8715 5.65599 21.7691 5.76281 21.7226L5.86526 21.7491C5.64764 21.8611 5.5576 21.8942 5.31592 21.9266Z" fill="#CBCBCB"/>
<path d="M8.06919 14.8357C8.07647 14.8886 8.11383 15.0786 8.09999 15.1119C8.0467 15.1212 8.01641 15.1447 7.97001 15.1727L7.94092 15.1189L7.96021 15.0684C7.99714 15.0103 8.0402 14.9022 8.06919 14.8357Z" fill="#EBEBEC"/>
<path d="M10.6906 5.79379C10.818 5.69774 10.9549 5.61505 11.0992 5.547C10.948 5.68713 10.7838 5.78242 10.6793 5.87945C10.6747 5.83782 10.6784 5.83228 10.6906 5.79379Z" fill="#A6A6A8"/>
<path d="M5.91424 20.2252L5.97568 20.2596C5.87771 20.3882 5.82025 20.4631 5.70611 20.5763C5.78001 20.4308 5.82149 20.3592 5.91424 20.2252Z" fill="#CBCBCB"/>
<path d="M8.14668 24.0229C8.255 23.9718 8.36231 23.9233 8.46601 23.8632C8.38619 23.9438 8.2995 24.0365 8.21135 24.1061L8.14668 24.0229Z" fill="#EBEBEC"/>
<path d="M21.5237 19.211C21.5851 19.1228 21.6573 19.0127 21.7231 18.9303C21.6954 19.0063 21.63 19.2005 21.5988 19.2653L21.5237 19.211Z" fill="#CBCBCB"/>
<path d="M11.3549 14.6685L11.3992 14.6712L11.4047 14.6976C11.2775 14.8731 11.0179 15.0866 10.8437 15.2209C10.7797 15.2702 10.5985 15.3886 10.5585 15.4404C10.742 15.788 12.1357 15.575 12.5268 15.6179C13.0703 15.6775 13.6742 15.6658 14.2253 15.6936C14.5806 15.7116 15.6225 15.9303 15.8752 15.6513C15.945 15.3925 15.2277 15.0887 15.3197 14.8291L15.3563 14.834C15.5741 15.1192 16.1851 15.3308 16.4018 15.6251C16.3639 15.8413 16.2077 16.1476 16.0442 16.2875L16.0094 16.2825L16.0229 16.2366C16.0735 16.1334 16.1735 15.8801 15.9989 15.8499C15.8002 15.9158 15.3131 16.5449 15.1582 16.7262C14.5469 17.4416 13.778 17.7918 12.8405 17.6386C11.862 17.4788 11.4456 16.6945 10.8473 16.0039C10.697 15.8308 10.5159 15.7481 10.3704 15.5457C10.3786 15.6336 10.4339 15.8398 10.3758 15.8992C10.3139 15.8814 10.2637 15.8086 10.22 15.7566C10.3155 15.0963 10.8794 15.0586 11.3549 14.6685ZM11.7817 16.4884C12.5009 16.827 12.961 16.8881 13.7774 16.809C13.9154 16.7956 14.0333 16.7496 14.1611 16.7311C14.2013 16.7074 14.2664 16.617 14.2987 16.5763C14.3503 16.4915 14.421 16.3093 14.4015 16.209C14.3023 16.0676 14.185 16.1507 14.0492 16.2054L13.8026 16.0859C13.6708 16.0944 13.4645 16.1487 13.3475 16.1413C13.1042 16.126 12.8886 16.0332 12.6184 15.9882C12.4561 16.341 12.446 15.9676 12.2158 15.9633C12.0853 16.0277 12.0401 16.1246 11.9792 16.2485C11.8846 15.9661 11.8476 15.9266 11.5338 15.9985C11.5667 16.0652 11.7537 16.4568 11.7817 16.4884Z" fill="black"/>
<path d="M11.7131 16.6409C11.7593 16.6573 11.8154 16.6887 11.863 16.7077C12.6249 17.0118 13.3956 17.0405 14.194 16.8853C14.4038 16.8445 14.5925 16.8279 14.7953 16.7489L14.528 16.9644C14.4609 17.013 14.392 17.0639 14.3226 17.1088C13.513 17.6321 12.258 17.473 11.7131 16.6409Z" fill="#F9F9FA"/>
<path d="M14.2987 16.5763L14.3765 16.5682C14.5229 16.4839 14.4506 16.233 14.5695 16.098C14.6373 16.0211 14.7438 16.0261 14.8451 16.0177L14.8839 16.0185C14.9741 16.0152 14.988 16.0146 15.073 16.0434C15.099 16.0704 15.1277 16.091 15.1185 16.1302C15.0214 16.5456 14.4873 16.6962 14.1611 16.7311C14.2013 16.7074 14.2664 16.617 14.2987 16.5763Z" fill="#F9F9FA"/>
<path d="M14.8451 16.0177L14.8839 16.0185C14.8935 16.1152 14.8871 16.1922 14.8526 16.282L14.8271 16.2921C14.7994 16.2161 14.8304 16.1014 14.8451 16.0177Z" fill="#18191B"/>
<path d="M11.1946 15.845C11.3401 15.8771 11.4397 15.8816 11.5338 15.9985C11.5667 16.0652 11.7537 16.4568 11.7817 16.4884C11.4801 16.3746 11.3521 16.1125 11.1946 15.845Z" fill="#EBEBEC"/>
<path d="M15.0756 11.3842C15.5025 11.1652 15.9169 11.138 16.387 11.2144C16.5553 11.2417 16.861 11.3104 16.9935 11.4157C16.9595 11.5067 16.886 11.4568 16.915 11.5283C17.0458 11.5876 17.2287 11.5543 17.3114 11.6044L17.3043 11.6355C17.2571 11.6591 17.1741 11.6908 17.15 11.7281C17.1963 11.7777 17.3863 11.797 17.4593 11.8063C17.4064 11.8442 17.3769 11.855 17.3169 11.8736L17.2834 11.9331C17.3242 12.0361 17.4329 12.0584 17.5306 12.0862C17.5322 12.1548 17.5135 12.2019 17.4935 12.2672C17.4161 12.2952 17.3422 12.3019 17.2624 12.2803C16.9189 12.187 16.533 12.3947 16.218 12.2433C16.188 12.2497 16.158 12.2557 16.1279 12.2613C15.9058 12.3035 15.7219 12.34 15.5177 12.201C15.4854 12.0952 15.4243 11.8318 15.3463 11.7762C15.1813 11.762 14.7598 12.0063 14.8748 12.1846L14.8904 12.2077C14.8004 12.2408 14.7358 12.2288 14.6629 12.2573C14.7433 11.7143 15.4663 11.4093 15.9575 11.3862C16.0336 11.3826 16.1098 11.379 16.1859 11.3765C16.2852 11.3833 16.3526 11.4006 16.4319 11.3501C16.37 11.3106 16.352 11.3233 16.2676 11.3189C15.9341 11.2558 15.5894 11.2903 15.275 11.4181C15.1969 11.4075 15.1711 11.3915 15.0756 11.3842ZM16.1926 12.212C16.3233 12.2034 16.4494 12.1987 16.5777 12.1716C16.6467 12.1547 16.735 12.1433 16.775 12.0891C16.7686 11.9734 16.5393 11.8293 16.4431 11.7882C16.357 11.9881 16.3378 12.0448 16.1926 12.212Z" fill="black"/>
<path d="M15.882 11.5791C15.928 11.5449 15.9931 11.5543 16.0275 11.6002C16.0618 11.6461 16.0526 11.7112 16.0068 11.7458C15.9608 11.7805 15.8953 11.7712 15.8608 11.725C15.8262 11.6789 15.8357 11.6135 15.882 11.5791Z" fill="#EBEBEC"/>
<path d="M14.7862 10.9814C15.0007 10.772 15.0721 10.6086 15.3814 10.5308C16.0058 10.3739 16.902 10.3287 17.4556 10.7019C17.513 10.8292 17.5197 10.8241 17.5354 10.9642C17.5285 10.9764 17.5193 10.9957 17.5102 11.0044C17.3906 10.9735 17.2532 10.9295 17.1329 10.9126C16.3726 10.8151 15.5725 11.0847 14.8483 11.2895C14.6973 11.3323 14.4629 11.3579 14.3507 11.4498L14.3206 11.4448C14.2558 11.1196 14.5064 10.8333 14.7253 10.638C14.6553 10.7638 14.5867 10.8484 14.5248 10.9863C14.5008 11.0594 14.4812 11.0744 14.5012 11.1357C14.5545 11.1103 14.5712 11.0558 14.5891 10.9992C14.6389 10.9341 14.7926 10.7188 14.8584 10.705C14.8798 10.777 14.8151 10.9114 14.7862 10.9814Z" fill="black" fill-opacity="0.988235"/>
<path d="M11.9099 14.273C11.939 14.3177 11.9543 14.3507 11.9995 14.3781C12.0648 14.8743 12.4669 14.5648 12.7744 14.6502C12.9365 14.6951 13.0605 14.8515 13.2006 14.9356L13.4639 14.8603C13.638 14.6669 14.0287 14.302 14.2902 14.5583L14.2913 14.5878C14.102 14.6822 13.8969 14.5736 13.8157 14.7654L13.8329 14.796C14.3614 14.7708 14.7038 14.9518 14.5417 14.2757L14.6639 14.2295C14.8311 14.5179 14.8983 14.8253 14.5148 14.9542C14.3249 15.018 14.1152 15.002 13.93 15.0708C13.7361 15.1427 13.569 15.3182 13.347 15.3225C13.1045 15.3312 12.9661 15.2857 12.8477 15.0695C12.8079 15.0181 12.7651 14.9105 12.6977 14.8921C12.176 14.7498 11.9203 14.9615 11.9099 14.273Z" fill="black" fill-opacity="0.980392"/>
<path d="M10.357 12.2065C10.586 12.1523 10.8164 12.3995 11.0547 12.4271C11.1114 12.4337 11.1873 12.4568 11.2441 12.4716C11.0157 12.5952 10.5234 12.3856 10.357 12.2065Z" fill="black" fill-opacity="0.929412"/>
<path d="M15.5865 12.584C15.7525 12.5696 15.9304 12.6412 16.092 12.6397C16.2234 12.6385 16.5236 12.5537 16.6479 12.5914L16.6563 12.6298C16.4506 12.6861 15.7059 12.7894 15.5865 12.584Z" fill="black"/>
<path d="M17.4556 10.7019C17.5696 10.7613 17.9235 11.0318 17.8896 11.1769C17.849 11.1753 17.6443 11.0457 17.5102 11.0044C17.5193 10.9957 17.5285 10.9764 17.5354 10.9642C17.5197 10.8241 17.513 10.8292 17.4556 10.7019Z" fill="black" fill-opacity="0.929412"/>
<path d="M14.3128 11.4974C14.339 11.5524 14.302 11.7603 14.2865 11.8173C14.2422 11.9814 14.276 12.4494 14.1976 12.562C14.107 12.4275 14.2121 11.6402 14.3128 11.4974Z" fill="black" fill-opacity="0.886275"/>
<path d="M12.626 11.6861C12.833 11.8032 12.7202 12.3103 12.6217 12.4885L12.6054 12.4941C12.5761 12.4082 12.6557 12.2728 12.6558 12.1752C12.656 11.9947 12.6149 11.872 12.626 11.6861Z" fill="black" fill-opacity="0.921569"/>
<path d="M14.6782 11.7719C14.8051 11.5606 14.86 11.4865 15.0756 11.3842C15.1711 11.3915 15.1969 11.4075 15.275 11.4181C15.0727 11.4907 14.8628 11.6568 14.6782 11.7719Z" fill="black" fill-opacity="0.937255"/>
<path d="M14.2315 13.7697C14.377 13.9112 14.5275 14.0785 14.6639 14.2295L14.5417 14.2757C14.411 14.0984 14.3303 13.9648 14.2315 13.7697Z" fill="black" fill-opacity="0.878431"/>
<path d="M11.9099 14.273C11.9792 14.0875 12.0918 13.9864 12.2249 13.8422C12.1413 14.0165 12.0468 14.1919 11.9995 14.3781C11.9543 14.3507 11.939 14.3177 11.9099 14.273Z" fill="black" fill-opacity="0.835294"/>
<path d="M17.5306 12.0862C17.6216 12.0443 17.6843 11.9919 17.7678 12.0177L17.7219 12.0119L17.7364 12.0672C17.6774 12.1182 17.5543 12.2308 17.4935 12.2672C17.5135 12.2019 17.5322 12.1548 17.5306 12.0862Z" fill="black" fill-opacity="0.905882"/>
<path d="M14.8748 12.1846C14.9774 12.1607 15.0833 12.1342 15.1875 12.1627C15.0649 12.2118 14.7951 12.2765 14.6629 12.2573C14.7358 12.2288 14.8004 12.2408 14.8904 12.2077L14.8748 12.1846Z" fill="black" fill-opacity="0.913725"/>
<path d="M17.4593 11.8063L17.527 11.754L17.5617 11.7585C17.5531 11.894 17.3886 11.9141 17.2834 11.9331L17.3169 11.8736C17.3769 11.855 17.4064 11.8442 17.4593 11.8063Z" fill="black" fill-opacity="0.972549"/>
<path d="M16.2676 11.3189C16.352 11.3233 16.37 11.3106 16.4319 11.3501C16.3526 11.4006 16.2852 11.3833 16.1859 11.3765L16.2676 11.3189Z" fill="black" fill-opacity="0.12549"/>
<path d="M14.5248 10.9863L14.5891 10.9992C14.5712 11.0558 14.5545 11.1103 14.5012 11.1357C14.4812 11.0744 14.5008 11.0594 14.5248 10.9863Z" fill="black" fill-opacity="0.494118"/>
<path d="M15.0096 5.18155C15.7063 4.88974 15.8568 5.05074 16.5011 5.18812L16.5491 5.22528C16.6161 5.21491 16.5995 5.19053 16.6634 5.14255C16.6509 5.13746 16.6331 5.11806 16.6221 5.10763L16.6417 5.06633L16.6972 4.99313C17.2223 5.24662 17.8593 5.62477 18.2068 6.10629C19.0477 7.15741 19.5812 8.90528 20.1395 10.1412C20.2389 10.3612 20.5093 11.043 20.632 11.2085L20.5889 11.2853C20.1697 10.676 19.8335 10.1719 19.4514 9.54184C19.5231 9.91074 19.9648 10.8657 20.1332 11.249C20.124 11.3256 20.138 11.3128 20.094 11.3529C19.9566 11.1757 19.7885 10.8391 19.6763 10.6297C18.784 8.96525 18.5461 6.65665 16.8849 5.52846C16.4146 5.20911 15.6099 5.13251 15.0864 5.24171L15.0096 5.18155Z" fill="#F9F9FA"/>
<path d="M16.6972 4.99313C17.2223 5.24662 17.8593 5.62477 18.2068 6.10629L18.1698 6.157C18.3191 6.3601 18.4874 6.58941 18.5959 6.81672C18.9365 7.52978 19.1774 8.29315 19.4557 9.03236C19.4959 9.13925 19.534 9.24746 19.5651 9.35707L19.5276 9.4023C18.6888 8.16395 17.9771 5.87105 16.6634 5.14255C16.6509 5.13746 16.6331 5.11806 16.6221 5.10763L16.6417 5.06633L16.6972 4.99313Z" fill="black"/>
<path d="M16.6972 4.99313C17.2223 5.24662 17.8593 5.62477 18.2068 6.10629L18.1698 6.157C17.8764 5.81282 17.0741 5.14895 16.6417 5.06633L16.6972 4.99313Z" fill="#CBCBCB"/>
<path d="M19.5651 9.35707C19.5984 9.42252 19.6515 9.50763 19.6491 9.57651C19.5952 9.54099 19.5605 9.46184 19.5276 9.4023L19.5651 9.35707Z" fill="#19241D"/>
<path d="M19.0975 6.3312C19.4901 6.97248 19.8347 7.81903 20.1309 8.51487C20.4761 9.32025 20.8259 10.1237 21.1802 10.9251C21.4987 11.6362 21.8263 12.3432 22.1628 13.046C22.4823 13.7203 22.8395 14.4909 23.0595 15.2058C23.1763 15.5856 23.1142 16.2671 23.0555 16.656C23.2623 16.2272 23.241 15.7502 23.145 15.2955C23.5457 16.0356 23.8579 17.5095 23.6139 18.3306C23.5729 18.4697 23.5173 18.604 23.4481 18.7314C23.3705 18.3028 23.2568 17.8901 23.1772 17.4706C23.3134 17.6425 23.4935 17.9452 23.6107 18.0746C23.5157 17.8046 23.4002 17.5423 23.2651 17.29C23.2047 17.1781 23.0077 16.894 22.9837 16.7915C22.9134 16.49 22.9488 16.1325 22.9192 15.8208C22.8309 14.8902 22.4266 14.0243 22.0333 13.1905C21.6987 12.4814 21.3673 11.7826 21.0566 11.0654C20.7159 10.2935 20.3913 9.51448 20.083 8.729C19.8564 8.15587 19.6409 7.57774 19.3803 7.01888C19.3051 6.8577 19.145 6.4982 19.0485 6.35903L19.0975 6.3312Z" fill="#F9F9FA"/>
<path d="M15.8535 5.67499C17.4662 5.8376 17.9345 7.26043 18.4736 8.55567C18.756 9.23404 19.0921 9.89272 19.4033 10.561C20.1764 12.2214 21.1483 13.8742 22.5748 15.0575C22.6004 15.0787 22.6659 15.1537 22.675 15.1822C22.5099 15.1763 21.8772 14.5642 21.7508 14.4287C20.771 13.3783 20.0514 12.1191 19.3498 10.8748C18.9044 10.0989 18.6716 9.22091 18.2513 8.45624C18.3232 8.77542 18.4228 9.07207 18.516 9.38736C18.8108 10.3841 19.1773 11.4341 19.6768 12.3486C19.8074 12.5876 20.0273 12.8218 20.1729 13.0419L20.1546 13.1012C19.5325 12.3478 19.2064 11.7648 18.8438 10.8458C18.2967 9.459 18.133 7.5938 17.1967 6.42853C16.7839 5.91484 16.3883 5.79612 15.7699 5.74558L15.8535 5.67499Z" fill="#F9F9FA"/>
<path d="M19.0943 13.5239C19.211 13.6331 19.3523 14.0181 19.5075 14.1947C19.4794 14.2879 19.4411 14.4116 19.4007 14.4987C19.3338 14.643 19.1264 14.5874 19.0473 14.7534L19.0664 14.7726C19.1742 14.7888 19.2561 14.7715 19.3628 14.7561C19.2178 15.0642 19.1394 16.1551 18.5302 15.8475C18.3327 15.6351 18.3514 14.9888 18.5175 14.8C18.844 14.4287 18.8313 14.3768 18.9115 13.9085C18.9497 14.0812 19.0403 14.3887 19.2317 14.4404C19.338 14.2856 19.1208 13.7659 19.0961 13.5411L19.0943 13.5239Z" fill="#F9F9FA"/>
<path d="M18.4914 15.0871C18.6981 15.108 18.8245 15.1543 19.0029 15.2526C18.9762 15.467 18.9812 15.622 18.8124 15.7586C18.7455 15.7717 18.6754 15.795 18.6171 15.7639C18.6236 15.6929 18.7485 15.6983 18.8063 15.5756C18.8163 15.3961 18.5917 15.3278 18.4914 15.0871Z" fill="black"/>
<path d="M8.61835 16.397C8.67208 16.4552 8.67612 16.5161 8.69158 16.5943C8.91822 18.2399 8.81487 19.9874 8.19358 21.5337C8.1029 21.7595 7.92631 21.9786 7.85717 22.2056C8.04567 21.9762 8.36308 21.6274 8.49979 21.387L8.54521 21.4553C8.17984 22.2425 7.36916 23.2654 6.42587 23.32C6.37958 23.2984 6.39833 23.3141 6.36996 23.2687C6.65741 23.2257 7.0911 22.9658 7.2989 22.7539C8.55367 21.4743 8.62356 19.3137 8.65082 17.6225C8.65778 17.1902 8.61041 16.8089 8.61835 16.397Z" fill="#F9F9FA"/>
<path d="M20.1822 18.3581C20.3412 18.1889 20.488 18.0374 20.5565 17.8086C20.7213 17.258 20.6398 16.637 20.4824 16.0946C20.437 15.938 20.3382 15.7289 20.3292 15.5745C20.6542 16.1188 20.8612 17.2293 20.9008 17.86C20.9312 18.3444 20.8025 18.9112 20.5616 19.3365C20.6111 19.1027 20.6775 18.8255 20.6855 18.5893C20.6948 18.3146 20.6584 18.1728 20.7004 17.893L20.6785 17.892C20.6086 18.0255 20.589 18.2762 20.5411 18.4289C20.3973 18.8877 20.1616 19.2681 19.8808 19.6509L19.7881 19.6511C20.0129 19.2537 20.0355 19.0791 20.0667 18.6388C20.013 18.7165 19.9588 18.7939 19.9041 18.871L19.8194 18.8459L20.2451 17.7705C20.2435 18.0115 20.2176 18.1231 20.1822 18.3581Z" fill="#F9F9FA"/>
<path d="M7.72739 8.77411C8.19084 7.03753 8.6299 6.05953 9.99101 4.85253L10.0475 4.89689C9.85276 5.09602 9.29148 5.692 9.13188 5.90841L9.16067 5.97407C9.29943 5.8393 9.42123 5.70696 9.55175 5.56496C9.47419 5.72375 9.10345 6.34046 8.98285 6.45525C8.98395 6.46621 8.9928 6.55426 8.9928 6.55426C8.93964 6.67535 8.4118 7.56141 8.32924 7.58352C8.1727 7.71334 7.88036 8.57094 7.80474 8.79409L7.72739 8.77411Z" fill="#969596"/>
<path d="M8.32924 7.58352C8.34563 7.26055 8.75054 6.69266 8.98285 6.45525C8.98395 6.46621 8.9928 6.55426 8.9928 6.55426C8.93964 6.67535 8.4118 7.56141 8.32924 7.58352Z" fill="#3B3B3D"/>
<path d="M9.13188 5.90841L9.16067 5.97407C9.11143 6.01897 9.11653 6.03085 9.06304 6.02999C9.07175 5.95592 9.0737 5.97381 9.13188 5.90841Z" fill="#3B3B3D"/>
<path d="M14.5043 3.85362C14.7013 3.67676 14.8954 3.46938 15.1491 3.38155C15.4026 3.29376 16.0735 3.49753 16.3004 3.62367C16.107 3.58575 15.5404 3.49754 15.3766 3.65229C15.4053 3.69864 15.4307 3.69415 15.4937 3.71652C15.5204 3.7444 15.544 3.77546 15.5774 3.79042C15.7887 3.93143 16.0784 3.98325 16.3654 4.17616C15.774 4.00695 15.4866 3.97942 14.9024 4.26671L14.9163 4.31641L14.7447 4.38479L14.7096 4.34064C14.6486 4.20453 14.9799 4.18207 15.0219 4.05313C14.8732 4.03167 14.679 4.10866 14.5419 4.15943C14.7258 3.95681 14.9725 3.83262 15.2079 3.68717C14.9424 3.75771 14.7754 3.80253 14.5043 3.85362Z" fill="#F9F9FA"/>
<path d="M14.7096 4.34064C14.7887 4.30296 14.8184 4.29022 14.9024 4.26671L14.9163 4.31641L14.7447 4.38479L14.7096 4.34064Z" fill="#3B3B3D"/>
<path d="M20.5641 15.1164C20.8798 15.5699 21.1493 16.2551 21.3155 16.7811C21.3747 16.9686 21.3974 17.2313 21.4369 17.4292C21.5063 17.7776 21.5441 18.0335 21.4665 18.386C21.4002 17.9866 21.3451 17.6303 21.2381 17.24C21.1925 17.7134 21.3134 18.1342 21.2798 18.614C21.2091 18.5064 21.1987 18.0566 21.1628 17.8809C21.0264 17.2132 20.9413 16.7563 20.6838 16.1204C20.9032 16.3856 20.9919 16.7328 21.227 17.0004C21.1012 16.6459 21.0027 16.2842 20.883 15.9339C20.8119 15.7259 20.627 15.3537 20.5261 15.1466L20.5641 15.1164Z" fill="#F9F9FA"/>
<path d="M7.90917 9.14907C8.07641 8.49948 8.31093 8.03937 8.68904 7.48851C8.79144 7.33934 9.07787 6.92876 9.14698 6.78268L9.17114 6.79187C9.16078 6.86871 9.14261 6.88203 9.11512 6.94666C8.77704 7.7415 8.33366 8.74 8.16427 9.58199L8.07283 9.54538C8.1104 9.37198 8.15903 9.21579 8.21041 9.04665L8.15895 9.01113C8.1418 9.04993 8.07704 9.20401 8.05761 9.22934C7.96005 9.20856 7.96938 9.21514 7.90917 9.14907Z" fill="#8A8A8A"/>
<path d="M8.15895 9.01113C8.18612 8.95067 8.19523 8.90026 8.24278 8.87008C8.25668 8.93209 8.23115 8.98643 8.21041 9.04665L8.15895 9.01113Z" fill="#3B3B3D"/>
<path d="M21.501 16.0476C21.99 16.7368 22.432 17.3156 22.5656 18.181C22.6819 18.9344 22.5299 19.4002 21.928 19.8987C21.9837 19.8162 22.0395 19.7336 22.0931 19.6498C22.8558 18.4586 22.0418 17.1709 21.4638 16.1097L21.501 16.0476Z" fill="#F9F9FA"/>
<path d="M18.09 9.51325C18.158 9.61269 18.3926 10.4689 18.4763 10.6816C18.9972 11.9787 19.6101 13.4647 20.7238 14.3604C20.9857 14.5711 21.2841 14.6195 21.5275 14.7809C21.457 14.791 21.356 14.7623 21.2877 14.7388C20.2317 14.3758 19.6088 13.3253 19.1062 12.3984C18.7555 11.7517 18.491 11.1026 18.2958 10.3979C18.2092 10.0852 18.1207 9.83701 18.09 9.51325Z" fill="#F9F9FA"/>
<path d="M7.90917 9.14907C7.96938 9.21514 7.96005 9.20856 8.05761 9.22934C7.80533 9.78782 7.63425 11.0411 7.48198 11.6788C7.2767 12.5384 7.04881 13.3518 6.75997 14.1908C6.68171 14.418 6.53667 14.9727 6.4437 15.1324L6.41776 15.1386C6.39849 15.0838 6.73258 14.0105 6.77628 13.8715C7.15811 12.657 7.49056 11.4469 7.65175 10.1812C7.69662 9.82886 7.8265 9.49442 7.90917 9.14907Z" fill="#EBEBEC"/>
<path d="M8.91602 20.5654L8.99073 20.6042C9.16238 21.6829 9.36359 23.6379 7.87342 23.8486C7.62148 23.8842 7.42545 23.8809 7.17557 23.8301L7.19427 23.7796C9.23431 23.9449 9.0431 21.9586 8.91602 20.5654Z" fill="#F9F9FA"/>
<path d="M5.01772 21.4223C5.20561 21.2663 5.31157 21.1367 5.48163 20.9689C5.52298 21.2077 4.99663 21.8366 4.7436 21.9201L4.72548 21.8914C4.73635 21.8229 4.75446 21.7769 4.78311 21.714C5.0262 21.1803 5.17665 20.6274 5.30742 20.0587C5.39072 20.1323 5.36889 20.1262 5.40426 20.2482C5.51079 20.9295 5.22202 20.8988 5.02183 21.4115L5.01772 21.4223Z" fill="#F9F9FA"/>
<path d="M14.2776 5.20727C14.629 4.8621 14.927 4.61152 15.4481 4.61908C15.8016 4.62423 16.3666 4.84239 16.6972 4.99313L16.6417 5.06633L16.6221 5.10763C16.6331 5.11806 16.6509 5.13746 16.6634 5.14255C16.5995 5.19053 16.6161 5.21491 16.5491 5.22528L16.5011 5.18812C16.3738 5.01037 15.9409 4.86957 15.7272 4.83654C15.1875 4.75309 14.7962 4.8903 14.3633 5.21158L14.2776 5.20727Z" fill="#EBEBEC"/>
<path d="M14.6851 3.23215C15.6438 3.06064 16.3345 3.16796 17.1794 3.70943C17.3788 3.83729 17.6581 4.12613 17.7959 4.31969L17.7686 4.37421C17.7285 4.32763 17.6869 4.28236 17.6438 4.23852C16.7508 3.33176 15.9087 3.28135 14.7063 3.27197L14.6851 3.23215Z" fill="#F9F9FA"/>
<path d="M9.75585 19.2528L9.82154 19.2688C9.92843 19.4597 9.9541 19.6792 10.0096 19.8874C10.2362 20.7369 10.4634 21.9543 9.93146 22.7366C10.2362 21.5046 10.1514 20.4554 9.75585 19.2528Z" fill="#F9F9FA"/>
<path d="M9.00401 17.824L9.07402 17.8558C9.23434 19.0244 9.43542 20.1334 9.62299 21.2949C9.30424 20.5432 9.03648 18.6651 9.00401 17.824Z" fill="#F9F9FA"/>
<path d="M5.9735 15.8112L6.0064 15.838C6.00714 15.9135 5.95272 16.1632 5.93809 16.2598C5.82556 17.0015 5.59985 17.721 5.4391 18.4522C5.38804 18.6845 5.3951 18.9502 5.34622 19.1958C5.3359 19.1852 5.32798 19.1772 5.32214 19.1634C5.16312 18.787 5.82199 16.2951 5.9735 15.8112Z" fill="#F9F9FA"/>
<path d="M8.28295 6.32797L8.30238 6.3388C8.28831 6.4052 8.06817 6.80946 8.01587 6.94397C7.78035 7.5495 7.4947 8.19519 7.29854 8.81117C7.29197 8.81007 7.27402 8.79335 7.26736 8.78792C7.22727 8.42468 7.65299 7.38543 7.83927 7.03382C7.96544 6.79567 8.12457 6.54905 8.28295 6.32797Z" fill="#EDEDEE"/>
<path d="M14.9163 4.31641C15.4282 4.12752 15.8842 4.10331 16.3557 4.427L16.2971 4.4704C15.44 4.13568 14.7858 4.34174 14.1401 4.98755L14.1249 4.98395C14.1398 4.78497 14.5854 4.4836 14.7447 4.38479L14.9163 4.31641Z" fill="#F0EFF0"/>
<path d="M5.96019 17.5571C6.03387 17.7969 5.82244 19.6825 5.74365 19.984C5.55671 19.7822 5.93336 17.8534 5.96019 17.5571Z" fill="#F9F9FA"/>
<path d="M11.2492 4.82015C12.0716 4.55548 12.6758 4.72631 13.2621 5.35641C12.5179 4.86775 12.2333 4.73363 11.3363 4.89897L11.1123 4.95109L11.0255 4.9252C11.1059 4.8909 11.1712 4.85984 11.2492 4.82015Z" fill="#EBEBEC"/>
<path d="M11.2492 4.82015C11.3159 4.8718 11.3466 4.86488 11.4272 4.86231L11.3363 4.89897L11.1123 4.95109L11.0255 4.9252C11.1059 4.8909 11.1712 4.85984 11.2492 4.82015Z" fill="#EBEBEC"/>
<path d="M6.955 10.0963C6.9875 10.238 6.51323 11.6614 6.44919 11.8813C6.41915 11.9845 6.30879 12.427 6.27319 12.5061L6.26125 12.4825C6.32444 11.931 6.67147 10.5599 6.955 10.0963Z" fill="#EBEBEC"/>
<path d="M6.73344 15.5314C6.7466 15.5521 6.75785 15.597 6.75458 15.6212C6.64945 16.3991 6.60035 17.1828 6.52397 17.9638C6.50921 18.1148 6.49884 18.3139 6.45507 18.4569C6.44609 18.4448 6.42869 18.4221 6.42852 18.4079C6.42419 18.0442 6.61413 15.7498 6.73344 15.5314Z" fill="#F9F9FA"/>
<path d="M7.57474 10.0164C7.59577 10.0348 7.58959 10.0326 7.60142 10.0624C7.51447 10.4293 7.13982 11.2175 6.97831 11.6106C6.82897 11.9742 6.6039 12.6166 6.4406 12.9453L6.4344 12.9511C6.612 12.2926 6.96073 11.4907 7.21099 10.85C7.28241 10.667 7.48411 10.1656 7.57474 10.0164Z" fill="#CBCBCB"/>
<path d="M6.50194 19.7734L6.53379 19.8107C6.51652 20.3061 6.12912 21.1263 5.7737 21.4771L5.76102 21.471C5.7525 21.4223 5.86279 21.2542 5.89449 21.1877C6.09322 20.7706 6.39631 20.2128 6.50194 19.7734Z" fill="#EBEBEC"/>
<path d="M19.0196 16.8301C19.0225 16.844 19.029 16.8811 19.0269 16.8935C18.8982 17.6733 18.5872 18.402 18.0029 18.941C17.988 18.8854 18.1991 18.5979 18.2445 18.5473C18.6955 18.045 18.766 17.3884 19.0196 16.8301Z" fill="#EBEBEC"/>
<path d="M11.7458 3.9739C12.2686 3.80348 13.0983 3.7906 13.5636 4.12223C13.4942 4.13039 13.3262 4.07125 13.2499 4.04863C12.8114 3.93181 12.2158 3.9312 11.7748 4.03698C11.6506 4.06678 11.4505 4.15971 11.3455 4.16253L11.3422 4.13635C11.4423 4.05934 11.6252 4.00605 11.7458 3.9739Z" fill="#EBEBEC"/>
<path d="M12.1361 4.28977C12.7096 4.19695 13.0074 4.37971 13.4687 4.70506C13.4982 4.72589 13.5089 4.73552 13.5322 4.76473C12.9949 4.56656 12.7914 4.40799 12.1475 4.38225C12.1555 4.35377 12.1432 4.32013 12.1361 4.28977Z" fill="#EBEBEC"/>
<path d="M11.9706 3.67805C12.0803 3.65398 12.216 3.62426 12.3257 3.60667C12.7377 3.54062 13.4922 3.64493 13.7961 3.95959L13.7943 4.0036C13.6636 3.91271 13.5633 3.85798 13.4153 3.80383C12.9919 3.65122 12.401 3.62953 11.9625 3.72822C11.8022 3.7643 11.651 3.83934 11.4723 3.87376L11.465 3.85752C11.6499 3.7109 11.7324 3.7198 11.9706 3.67805Z" fill="#CBCBCB" fill-opacity="0.984314"/>
<path d="M15.4937 3.71652C15.7896 3.64344 16.5247 3.89113 16.7906 4.07145C17.0744 4.26398 17.353 4.42359 17.5684 4.69687C17.1669 4.38835 16.7528 4.06615 16.2595 3.92187C16.137 3.88604 15.6814 3.76618 15.5774 3.79042C15.544 3.77546 15.5204 3.7444 15.4937 3.71652Z" fill="#CBCBCB"/>
<path d="M12.193 3.39784C12.4238 3.30353 13.0038 3.32395 13.2458 3.39312C13.31 3.41147 13.5353 3.46086 13.5643 3.50862L13.5777 3.51084C13.5029 3.52517 13.4135 3.48232 13.3392 3.45499C12.6668 3.37255 12.3413 3.48127 11.7029 3.59012C11.8898 3.496 11.9942 3.45682 12.193 3.39784Z" fill="#CBCBCB" fill-opacity="0.988235"/>
<path d="M14.809 6.40673C14.8523 6.35526 14.9958 6.28307 15.06 6.25436C15.6018 6.01238 16.2408 5.96666 16.7602 6.28911C16.7849 6.30449 16.808 6.34931 16.8051 6.37886C15.968 5.91985 15.5799 6.1395 14.7769 6.46104L14.809 6.40673Z" fill="#CBCBCB"/>
<path d="M10.4045 11.3245C10.6176 10.9753 11.2828 11.0324 11.6113 11.1807L11.4896 11.2787L11.4125 11.267C11.4305 11.249 11.4246 11.2536 11.4341 11.227C11.3116 11.0987 10.5306 11.176 10.4758 11.408L10.4332 11.4554C10.3779 11.4432 10.4574 11.3902 10.4045 11.3245Z" fill="black" fill-opacity="0.980392"/>
<path d="M17.378 18.7702L17.4604 18.8021C17.2931 19.222 17.2224 19.4759 17.5745 19.7953C17.4114 19.7484 17.251 19.7145 17.1946 19.5312C17.1189 19.2855 17.2726 18.9853 17.378 18.7702Z" fill="#F9F9FA"/>
<path d="M9.5835 8.56836L9.6316 8.54251C9.49079 8.90289 9.4264 10.7416 9.30062 10.9104L9.26962 10.9044C9.25292 10.8531 9.53653 8.81841 9.5835 8.56836Z" fill="#CBCBCB" fill-opacity="0.984314"/>
<path d="M10.2781 4.1931L10.326 4.18628C10.2901 4.23212 10.24 4.26572 10.1925 4.29933C9.85505 4.53858 9.53739 4.78613 9.22361 5.05558L9.18419 5.05655C9.42473 4.73815 9.89618 4.34259 10.2781 4.1931Z" fill="#CBCBCB"/>
<path d="M12.5355 11.0931L12.5998 11.0686C12.6566 10.9025 12.4431 10.8123 12.4351 10.6757L12.4641 10.6492C12.5727 10.6934 12.8097 11.1045 12.8019 11.2362C12.7378 11.3367 12.5675 11.2284 12.4528 11.1932L12.5343 11.1425L12.5355 11.0931Z" fill="black" fill-opacity="0.917647"/>
<path d="M11.0168 4.69402C11.3874 4.44941 11.7017 4.33992 12.1361 4.28977C12.1432 4.32013 12.1555 4.35377 12.1475 4.38225C11.5725 4.45798 11.522 4.55157 11.0168 4.69402Z" fill="#CBCBCB"/>
<path d="M9.99101 4.85253C10.225 4.64927 11.0241 4.00247 11.2837 3.93372C11.1987 4.00921 10.9144 4.19112 10.7931 4.28042C10.517 4.48374 10.3047 4.6816 10.0475 4.89689L9.99101 4.85253Z" fill="#919192"/>
<path d="M13.7028 5.37527C13.7162 5.42666 13.6755 5.56717 13.6604 5.62555C13.5735 5.96085 13.5446 6.29365 13.5105 6.63742C13.3642 6.42309 13.5637 5.59339 13.7028 5.37527Z" fill="#EBEBEC"/>
<path d="M8.65274 21.8987L8.67732 21.9406C8.58908 22.2722 8.38794 22.9276 8.13898 23.1622L8.12542 23.1457C8.37046 22.7131 8.48707 22.3654 8.65274 21.8987Z" fill="#CBCBCB"/>
<path d="M10.4758 11.408C10.5306 11.176 11.3116 11.0987 11.4341 11.227C11.4246 11.2536 11.4305 11.249 11.4125 11.267C10.9215 11.2345 10.9171 11.2319 10.4758 11.408Z" fill="black" fill-opacity="0.0352941"/>
<path d="M9.55093 22.5751C9.56682 22.5891 9.57471 22.5898 9.57354 22.604C9.54101 22.993 9.29704 23.3469 9.07271 23.6204L9.05993 23.6159C9.04544 23.5745 9.12317 23.4899 9.15826 23.4384C9.3449 23.1645 9.4481 22.8869 9.55093 22.5751Z" fill="#CBCBCB"/>
<path d="M14.0434 4.07502C14.0922 4.13622 14.0951 4.14695 14.1164 4.22002C14.1312 4.39776 14.0373 5.06637 13.8787 5.14355C13.8804 5.10816 13.9391 4.96736 13.9542 4.92258C14.0472 4.64832 14.043 4.36124 14.0434 4.07502Z" fill="#CBCBCB" fill-opacity="0.988235"/>
<path d="M5.95758 14.8044C6.00423 14.5268 6.05676 14.1191 6.11955 13.8591L6.14351 13.8498L6.14411 13.8523L6.12963 13.8251L6.13149 13.8277L6.14688 13.83L6.14159 13.8069L6.12776 13.8416C6.17878 13.9364 6.04452 14.6712 6.0052 14.7967L5.9993 14.8149L5.95758 14.8044Z" fill="#CBCBCB" fill-opacity="0.984314"/>
<path d="M8.07283 9.54538L8.16427 9.58199C8.10876 9.79041 8.05517 10.0984 8.0133 10.3148L7.98359 10.3174L7.99508 10.3562C7.95877 10.2308 8.05036 9.69784 8.07283 9.54538Z" fill="#A6A6A8"/>
<path d="M6.8188 20.3786C6.85774 20.2341 6.84188 19.3667 6.76558 19.27C6.74857 19.3616 6.78273 20.3143 6.8188 20.3786Z" fill="#CBCBCB" fill-opacity="0.968627"/>
<path d="M6.87216 18.3402C6.8824 18.1931 6.98004 17.3208 6.9549 17.2598C6.92353 17.4379 6.75507 18.2263 6.87216 18.3402Z" fill="#EBEBEC" fill-opacity="0.984314"/>
<path d="M20.1332 11.249C20.1993 11.4222 20.4892 11.9654 20.5064 12.0683C20.4347 11.9704 20.1281 11.4559 20.094 11.3529C20.138 11.3128 20.124 11.3256 20.1332 11.249Z" fill="#CBCBCB" fill-opacity="0.980392"/>
<path d="M21.947 17.4801C21.8623 17.2464 21.7405 16.9647 21.7294 16.7216C21.8461 16.9741 21.9484 17.2382 21.9934 17.5145L21.947 17.4801Z" fill="#CBCBCB" fill-opacity="0.980392"/>
<path d="M11.9094 6.3914L12.0795 6.33514C12.1555 6.41379 12.3011 6.52457 12.352 6.58748L12.3308 6.66952C12.2062 6.56937 12.0537 6.45914 11.9094 6.3914Z" fill="black" fill-opacity="0.933333"/>
<path d="M8.91602 20.5654C8.90506 20.3815 8.85606 19.9961 8.85978 19.8414C8.9277 20.0502 8.96297 20.378 8.99073 20.6042L8.91602 20.5654Z" fill="#A6A6A8" fill-opacity="0.968627"/>
<path d="M7.72739 8.77411L7.80474 8.79409C7.77169 8.89301 7.60728 9.40598 7.55968 9.443C7.60714 9.21396 7.66639 8.99943 7.72739 8.77411Z" fill="#A6A6A8" fill-opacity="0.988235"/>
<path d="M20.5889 11.2853L20.632 11.2085C20.6903 11.3452 20.9396 11.7861 20.9463 11.8611C20.7881 11.6255 20.728 11.5356 20.5889 11.2853Z" fill="#CBCBCB" fill-opacity="0.984314"/>
<path d="M19.0485 6.35903C19.0026 6.25177 18.7344 5.84244 18.732 5.77911C18.8861 5.95283 18.9846 6.12882 19.0975 6.3312L19.0485 6.35903Z" fill="#CBCBCB" fill-opacity="0.980392"/>
<path d="M17.6813 18.2998C17.6081 18.4655 17.5303 18.6355 17.4604 18.8021L17.378 18.7702C17.4796 18.5899 17.5486 18.4591 17.6813 18.2998Z" fill="#CBCBCB"/>
<path d="M14.5329 5.40589C14.6916 5.31376 14.8392 5.24788 15.0096 5.18155L15.0864 5.24171C14.8905 5.30739 14.7357 5.35882 14.5329 5.40589Z" fill="#CBCBCB"/>
<path d="M9.3838 15.5685C9.44272 15.6388 9.52343 15.7634 9.5778 15.8429C9.43275 15.7727 9.3933 15.706 9.29156 15.582L9.3838 15.5685Z" fill="black" fill-opacity="0.611765"/>
<path d="M8.61835 16.397C8.59838 16.1845 8.63057 16.1345 8.62655 15.9651C8.65718 16.0503 8.69265 16.5004 8.69158 16.5943C8.67612 16.5161 8.67208 16.4552 8.61835 16.397Z" fill="#CBCBCB" fill-opacity="0.984314"/>
<path d="M8.75583 20.9188C8.6847 21.1493 8.64827 21.2386 8.54521 21.4553L8.49979 21.387C8.58295 21.2223 8.67708 21.0744 8.75583 20.9188Z" fill="#CBCBCB"/>
<path d="M9.00401 17.824C8.98498 17.6559 8.9696 17.4873 8.95788 17.3185C9.01301 17.4745 9.04642 17.6898 9.07402 17.8558L9.00401 17.824Z" fill="#CBCBCB" fill-opacity="0.980392"/>
<path d="M11.8895 11.4007C12.0603 11.4429 12.1485 11.4875 12.2913 11.5907C12.1528 11.5554 11.9999 11.5131 11.8614 11.4834L11.8895 11.4007Z" fill="black" fill-opacity="0.937255"/>
<path d="M20.1729 13.0419C20.2544 13.1337 20.4277 13.3223 20.4783 13.4222C20.3667 13.3515 20.2398 13.2034 20.1546 13.1012L20.1729 13.0419Z" fill="#A6A6A8" fill-opacity="0.988235"/>
<path d="M14.0106 3.6268C14.0612 3.8215 14.0965 4.01983 14.1164 4.22002C14.0951 4.14695 14.0922 4.13622 14.0434 4.07502C14.022 3.97156 14.0072 3.89514 13.9951 3.78904L14.0028 3.7924L14.0218 3.78317L14.0106 3.6268Z" fill="#A6A6A8"/>
<path d="M16.3557 4.427C16.4947 4.51 16.6313 4.59678 16.7655 4.68723C16.5752 4.62832 16.4703 4.56933 16.2971 4.4704L16.3557 4.427Z" fill="#CBCBCB" fill-opacity="0.988235"/>
<path d="M17.7959 4.31969C17.8504 4.38624 17.9468 4.51287 17.9813 4.58958L17.9564 4.63634L17.992 4.65616L17.996 4.63007L17.9872 4.65609C17.9088 4.59971 17.8256 4.45918 17.7686 4.37421L17.7959 4.31969Z" fill="#CBCBCB" fill-opacity="0.968627"/>
<path d="M11.6113 11.1807C11.699 11.2236 11.7134 11.2134 11.7403 11.3158C11.7023 11.3031 11.5892 11.3063 11.4896 11.2787L11.6113 11.1807Z" fill="black" fill-opacity="0.027451"/>
<path d="M21.4638 16.1097C21.3831 15.962 21.3003 15.8197 21.2442 15.6608C21.3529 15.8053 21.4103 15.8913 21.501 16.0476L21.4638 16.1097Z" fill="#CBCBCB" fill-opacity="0.988235"/>
<path d="M9.26399 11.442C9.2859 11.3314 9.33631 11.0852 9.28515 10.9891C9.25244 11.1195 9.19848 11.3163 9.26399 11.442Z" fill="#CBCBCB" fill-opacity="0.976471"/>
<path d="M5.30742 20.0587C5.32211 19.9605 5.33651 19.8414 5.35513 19.7456C5.37806 19.8804 5.40855 20.1119 5.40426 20.2482C5.36889 20.1262 5.39072 20.1323 5.30742 20.0587Z" fill="#EBEBEC"/>
<path d="M13.9951 3.78904C13.9741 3.70867 13.9146 3.60066 13.8811 3.48774L13.8956 3.47459C13.9567 3.53086 13.9823 3.54841 14.0106 3.6268L14.0218 3.78317L14.0028 3.7924L13.9951 3.78904Z" fill="#F9F9FA" fill-opacity="0.988235"/>
<path d="M14.0296 5.55168C14.0764 5.43844 14.1974 5.30353 14.2776 5.20727L14.3633 5.21158C14.2547 5.32875 14.1428 5.43908 14.0296 5.55168Z" fill="#A6A6A8"/>
<path d="M7.75027 20.6128C7.7734 20.5141 7.83286 20.2748 7.77953 20.19C7.74647 20.3044 7.6924 20.5026 7.75027 20.6128Z" fill="#CBCBCB" fill-opacity="0.984314"/>
<path d="M21.947 17.4801L21.9934 17.5145C22.0233 17.6738 22.0497 17.7884 22.0467 17.9507C22.0091 17.8405 21.9684 17.6019 21.947 17.4801Z" fill="#19241D"/>
<path d="M11.1123 4.95109C11.0085 4.98588 10.8322 5.0618 10.7347 5.06222L10.7566 5.06217C10.8307 4.97945 10.9173 4.96467 11.0255 4.9252L11.1123 4.95109Z" fill="#737573" fill-opacity="0.988235"/>
<path d="M19.8808 19.6509C19.8268 19.7305 19.7369 19.846 19.6525 19.8907C19.6525 19.8395 19.753 19.7064 19.7881 19.6511L19.8808 19.6509Z" fill="#CBCBCB"/>
<path d="M6.75315 23.7022C6.91892 23.7215 7.03084 23.7435 7.19427 23.7796L7.17557 23.8301C7.00846 23.8016 6.90709 23.7664 6.75315 23.7022Z" fill="#CBCBCB" fill-opacity="0.980392"/>
<path d="M4.71747 23.1466C4.60711 23.0954 4.452 23.1487 4.33144 23.1812C4.42814 23.2228 4.6223 23.1888 4.71747 23.1466Z" fill="#919192" fill-opacity="0.87451"/>
<path d="M19.6364 19.1531L19.8194 18.8459L19.9041 18.871C19.8189 18.9753 19.7318 19.0587 19.6364 19.1531Z" fill="#CBCBCB"/>
<path d="M20.5261 15.1466C20.4925 15.0785 20.4252 14.9632 20.4273 14.893C20.4937 14.9266 20.5361 15.0478 20.5641 15.1164L20.5261 15.1466Z" fill="#A6A6A8" fill-opacity="0.988235"/>
<path d="M6.42587 23.32C6.36732 23.3325 6.21248 23.3458 6.15881 23.3186C6.21225 23.2791 6.30023 23.277 6.36996 23.2687C6.39833 23.3141 6.37958 23.2984 6.42587 23.32Z" fill="#737573"/>
<path d="M9.281 15.4017L9.3838 15.5685L9.29156 15.582L9.24661 15.4861C9.26443 15.4612 9.27147 15.4312 9.281 15.4017Z" fill="black" fill-opacity="0.847059"/>
<path d="M9.5835 8.56836C9.59888 8.40962 9.61309 8.32609 9.65892 8.17155C9.65206 8.2911 9.64761 8.42497 9.6316 8.54251L9.5835 8.56836Z" fill="#3B3B3D" fill-opacity="0.976471"/>
<path d="M15.4681 5.69218C15.6018 5.68945 15.7201 5.68502 15.8535 5.67499L15.7699 5.74558C15.6613 5.7376 15.5735 5.71568 15.4681 5.69218Z" fill="#CBCBCB" fill-opacity="0.968627"/>
<path d="M9.75585 19.2528C9.7392 19.1917 9.70064 19.088 9.71305 19.0353C9.76971 19.1078 9.79086 19.1826 9.82154 19.2688L9.75585 19.2528Z" fill="#CBCBCB" fill-opacity="0.980392"/>
<path d="M14.0845 6.61977C14.137 6.57548 14.1699 6.5353 14.2351 6.53354L14.238 6.56727C14.1923 6.61972 14.177 6.62807 14.1209 6.66395L14.0845 6.61977Z" fill="black" fill-opacity="0.235294"/>
<path d="M11.1425 4.16096L11.2006 4.16356L11.2197 4.18838L11.1384 4.27891L11.0825 4.27346L11.0703 4.25047L11.1425 4.16096Z" fill="#737573"/>
<path d="M6.77491 15.2458L6.79281 15.2649C6.80143 15.3316 6.76762 15.4095 6.74537 15.476L6.71702 15.4413C6.70624 15.3722 6.74463 15.3112 6.77491 15.2458Z" fill="#A6A6A8" fill-opacity="0.988235"/>
<path d="M12.352 6.58748C12.4168 6.66634 12.4228 6.64757 12.4249 6.73058C12.3682 6.72229 12.3772 6.71585 12.3308 6.66952L12.352 6.58748Z" fill="black" fill-opacity="0.670588"/>
<path d="M17.8683 15.1691L17.9225 15.1847C17.9165 15.2039 17.8894 15.248 17.8779 15.268L17.8423 15.276C17.8266 15.2197 17.831 15.2385 17.8683 15.1691Z" fill="black" fill-opacity="0.631373"/>
<path d="M14.7063 3.27197C14.6418 3.28704 14.6122 3.29866 14.5466 3.28168C14.5792 3.24113 14.622 3.24541 14.6851 3.23215L14.7063 3.27197Z" fill="#919192" fill-opacity="0.984314"/>
<path d="M5.9993 14.8149C5.98764 14.8817 5.97751 14.9042 5.9528 14.9649C5.93148 14.9111 5.94853 14.8695 5.95758 14.8044L5.9993 14.8149Z" fill="#737573" fill-opacity="0.94902"/>
</svg>
