<svg preserveAspectRatio="none" width="100%" height="100%" overflow="visible" style="display: block;" viewBox="0 0 15.3954 21.3172" fill="none" xmlns="http://www.w3.org/2000/svg">
<g id="Group 7">
<path id="Vector" d="M6.36213 0.00776054C6.43479 -0.00865787 6.51727 -0.0038386 6.54773 0.0708548C6.53992 0.169586 6.41677 0.280949 6.35375 0.367256C6.41674 0.347713 6.48803 0.313093 6.54937 0.287006C6.62965 0.252872 6.71066 0.227419 6.7909 0.198252C7.30018 0.0131103 7.81793 0.122527 8.30385 0.325399C8.47703 0.397661 8.64726 0.525928 8.83826 0.546134C9.23354 0.582611 9.44106 0.399562 9.84326 0.567799C10.2035 0.718468 10.2039 1.03886 10.5304 1.16141C10.7788 1.24849 11.0463 1.24322 11.304 1.28627C11.4866 1.31678 12.0326 1.48881 11.6331 1.68276C11.7821 1.79028 11.9959 1.89448 12.1641 1.97632C12.2257 2.00631 12.2863 1.97626 12.3691 2.04885C12.444 2.11437 12.5019 2.18404 12.5694 2.25555C12.8012 2.50146 13.0783 2.75649 13.1611 3.09607C13.1978 3.24667 13.2059 3.46534 13.2891 3.58625C13.3729 3.70833 13.5439 3.78634 13.6553 3.89095C13.8776 4.09972 13.8267 4.32172 13.9146 4.58005C13.9772 4.76466 14.1937 4.92528 14.2547 5.12261C14.4217 5.66293 14.4948 6.27881 14.535 6.84246C14.5485 7.03086 14.5249 7.24291 14.5381 7.43406C14.5533 7.65234 14.6509 7.84596 14.6593 8.05907C14.6625 8.14311 14.6244 8.18123 14.5694 8.2367C14.5685 8.44323 14.6009 8.7107 14.5899 8.91C14.5501 9.6242 14.465 10.5021 14.3225 11.2049C14.3679 11.1889 14.414 11.1705 14.4609 11.1596C14.6416 11.1177 14.8493 11.1381 15.0084 11.2372C15.2022 11.3579 15.3067 11.5796 15.3526 11.7961C15.5529 12.7419 15.0142 14.6505 14.4938 15.4357C14.3215 15.6954 14.0978 15.8561 13.7912 15.9171C13.6437 16.6094 13.4857 17.24 13.1554 17.8764C13.0751 18.0282 12.9883 18.1765 12.8954 18.3208C12.6474 18.705 12.3557 19.0629 12.0376 19.3915C11.8213 19.612 11.592 19.8193 11.351 20.0124C10.1528 20.9754 8.91623 21.4535 7.36827 21.2833C6.26034 21.153 5.31467 20.6011 4.43288 19.9523C2.07231 18.2152 2.29608 17.4923 1.69082 15.8881C1.57838 15.8693 1.46895 15.8356 1.36548 15.7878C0.779181 15.5103 0.778385 14.9578 0.610767 14.4235C0.406171 13.7715 0.132423 13.1834 0.0442732 12.4893C-0.0214152 11.9718 -0.10336 11.1989 0.524902 10.9772C0.741687 10.9007 0.978501 10.9742 1.17277 11.0728C1.078 10.3851 1.04158 9.6696 1.0209 8.97563C1.00768 8.53164 0.985163 8.12177 1.04188 7.67701C1.06127 7.52497 1.08106 7.29855 1.08895 7.14082C1.0901 7.11802 1.01112 7.04218 1.00329 7.01207C0.92705 6.71895 1.09881 6.28541 1.20102 6.03289C1.11319 6.0905 1.03686 6.16531 0.932931 6.12377C0.730501 5.89314 1.29436 5.31334 1.39608 5.12532L1.38438 5.10498C1.3133 5.06637 1.24431 5.0977 1.18594 5.08033C0.76064 4.95381 1.44249 4.49007 1.57335 4.41622C1.49612 4.33098 1.35144 4.14617 1.34768 4.03272C1.34097 3.8299 1.66355 3.86174 1.79071 3.86361C1.70146 3.67794 1.47285 3.04747 1.77879 2.95797C1.87266 2.98579 1.95055 3.15592 2.01739 3.25538C2.02764 2.95908 2.11828 2.59513 2.24636 2.32682C2.30873 2.19615 2.57666 1.68903 2.76095 1.79816C2.84752 1.95109 2.67344 2.37807 2.82288 2.47612C2.86218 2.40818 2.88992 2.22769 2.91923 2.13433C3.18203 1.29724 4.05376 0.564881 4.92517 0.460829C4.9712 0.455346 5.00599 0.478662 5.03512 0.509333C5.04063 0.60382 4.97295 0.612206 4.92044 0.733177C4.9662 0.753767 5.08437 0.621328 5.12602 0.584689C5.47488 0.278826 5.90364 0.0787105 6.36213 0.00776054Z" fill="var(--fill-0, #242320)"/>
<path id="Vector_2" d="M7.95801 3.42585C8.35417 3.39846 8.56493 3.5588 8.93766 3.58924C9.01474 3.59551 9.06382 3.55569 9.1154 3.50474C9.32734 3.55697 9.53146 3.65114 9.73647 3.72113C11.3356 4.26678 12.4107 4.94748 13.0222 6.61131C12.9815 6.65541 12.9814 6.59112 12.9087 6.64468C12.8576 6.83052 13.0765 6.96822 13.1276 7.16873C13.0645 7.17638 13.0339 7.15452 12.9751 7.18714C12.8539 7.39953 13.535 7.91239 13.5182 8.12577C13.5075 8.26142 13.6567 8.58762 13.6986 8.73968C13.8028 9.11956 13.8487 9.50667 13.8893 9.89744C13.8593 9.84543 13.8135 9.76054 13.7714 9.72069C13.5725 9.53214 12.9898 9.49501 12.8008 9.32009C12.7801 9.10203 12.3911 8.71008 12.232 8.53955C12.1476 8.44922 12.0681 8.3746 11.9559 8.31824C11.6003 8.13969 10.6495 7.99347 10.2295 7.981C9.93161 7.97216 9.65173 7.98331 9.42726 8.19778C9.33323 8.2876 9.16065 8.50441 9.17553 8.63933C9.17936 8.67296 9.18998 8.70202 9.22034 8.72068C9.28902 8.76283 9.61783 8.63595 9.71746 8.61853L9.70184 8.62997C9.64391 8.67271 9.60707 8.68779 9.59734 8.75259L9.62048 8.78391C9.71156 8.82068 10.0135 8.74636 10.1481 8.73538C10.1652 8.78226 10.1767 8.81493 10.2314 8.81857C10.7376 8.85224 11.2429 8.89906 11.7367 9.02164C11.8866 9.05885 12.0072 9.0869 12.1502 9.14995C11.4853 9.03794 11.1325 8.99372 10.4411 9.05117C9.77007 9.07854 9.29255 9.27117 8.74547 9.63024C8.64643 9.61285 8.52956 9.5694 8.42801 9.54452C8.09861 9.4638 7.76965 9.46986 7.43568 9.516C7.37039 9.52501 7.09796 9.63357 7.05162 9.61513C6.89133 9.55134 6.72754 9.40482 6.56246 9.3348C5.99212 9.05903 5.32244 9.01378 4.69779 9.01145C4.60532 9.01216 4.50809 9.02242 4.41648 9.02541C3.75016 9.04709 3.12777 9.25149 2.50914 9.48095C2.38766 9.52602 2.16686 9.55891 2.0628 9.62571C1.93898 9.70521 1.76619 9.90664 1.65967 10.0182C1.69453 9.36849 1.87015 8.58959 2.21995 8.04247C2.30701 7.9063 2.60892 7.58432 2.60633 7.46006C2.5483 7.36927 2.42624 7.45918 2.35088 7.49878C2.44931 7.36568 2.62288 7.18233 2.64456 7.0244C2.62658 6.9728 2.64292 6.99112 2.59442 6.96717C2.52471 6.96263 2.49359 6.98686 2.43097 7.01899C2.50247 6.90194 2.72381 6.66095 2.68992 6.53736C2.65013 6.51372 2.62901 6.50685 2.60869 6.46555C2.60667 6.36502 2.74297 6.1195 2.78434 6.02199C3.20511 5.03019 3.9478 4.34484 4.96663 3.99632C5.06471 3.96278 5.34222 3.89852 5.39715 3.82206L5.39212 3.7964L5.33967 3.76601C5.44207 3.62674 6.03441 3.81165 6.10793 3.669C6.09157 3.55602 5.92522 3.547 5.84178 3.5261C6.15562 3.48716 6.47787 3.52894 6.80856 3.54502C7.15885 3.55787 7.52352 3.68275 7.8709 3.63685C7.96036 3.62506 7.92322 3.48352 7.95801 3.42585Z" fill="var(--fill-0, white)"/>
<path id="Vector_3" d="M5.32635 7.9842C5.39373 7.97615 5.45899 7.98212 5.52394 7.97574C5.75022 7.95352 6.49695 8.05292 6.4089 8.39792C6.44971 8.47014 6.52407 8.61205 6.4869 8.69323C6.41198 8.85688 6.14391 8.59711 5.98649 8.64363C6.0186 8.68377 6.04036 8.7038 6.05318 8.75374L6.03461 8.78004C5.88975 8.82904 5.81859 8.7594 5.65821 8.75338C5.64832 8.76699 5.61553 8.80965 5.59609 8.80993C5.11062 8.81669 4.59312 8.87474 4.11819 8.96681C3.888 9.01859 3.65093 9.06642 3.42289 9.12341C3.27191 9.16114 3.13279 9.21958 2.97515 9.2515C2.92787 9.23389 2.94964 9.24717 2.91393 9.20126C2.91604 9.14025 2.98336 9.03455 3.02622 8.99289C3.3024 8.72446 3.55982 8.31011 3.94957 8.20865C4.39955 8.09152 4.86622 8.02293 5.32635 7.9842Z" fill="var(--fill-0, black)"/>
<path id="Vector_4" d="M7.78948 9.87085C7.97872 9.84889 8.32271 9.88039 8.48719 9.99262C8.6328 10.0919 8.57724 10.2849 8.59375 10.452C8.62912 10.81 8.75041 11.2232 8.87775 11.5606C8.92447 11.6841 9.06095 11.8569 9.08821 11.9919C9.04592 12.0286 9.03589 12.0338 9.00966 12.0849C9.00303 12.151 9.07628 12.3947 9.1395 12.4975C9.24356 12.6667 9.2776 13.2487 8.9485 13.1624C8.86198 13.1397 8.80834 13.0888 8.67422 13.0744C8.51092 13.0567 8.23325 13.1579 8.42116 13.3323C8.49308 13.3573 8.58785 13.3139 8.67068 13.3324C8.81246 13.3604 8.95159 13.5146 9.10619 13.4529C9.61923 13.2477 9.48939 12.7137 9.35984 12.3312C9.46286 12.4221 9.54097 12.4959 9.66006 12.5715C10.2213 12.9276 11.0074 12.9786 11.6444 12.8439C12.6465 12.6319 13.0322 11.8263 13.2117 10.8967C13.2432 10.7336 13.2678 10.4265 13.3457 10.2844C13.395 10.1941 13.5543 10.1608 13.6504 10.1396C13.7352 10.2443 13.831 10.3765 13.9135 10.4853C13.9166 11.8327 13.9334 13.1675 13.6435 14.4951C13.612 14.6393 13.4062 15.4104 13.2955 15.4679C13.1433 15.4533 13.165 15.4998 13.1051 15.6265C13.0403 15.7637 12.905 16.0705 12.7589 16.1395C12.7122 16.067 12.7334 15.9802 12.6418 15.9727C12.497 16.0368 12.36 16.4978 12.1906 16.5155C12.0964 16.4603 12.1172 16.2714 12.0513 16.1775C12.0334 16.1298 11.9359 16.109 11.9121 16.1474C11.7744 16.3678 11.7358 16.5477 11.511 16.7026C11.4984 16.6323 11.4873 16.5299 11.4373 16.4801C11.3793 16.4222 11.3629 16.4757 11.2819 16.4712C11.2429 16.2932 11.2133 15.9097 11.217 15.7196C11.2173 15.7018 11.2628 15.6487 11.2705 15.6267C11.2985 15.5454 11.2351 15.3296 11.2051 15.2497C10.9937 14.6912 10.5582 14.574 10.0484 14.3977C9.90383 14.3478 9.76219 14.2701 9.62321 14.2184C9.52638 14.1824 9.50324 14.187 9.40184 14.1374L9.38372 14.1285C9.13788 13.9833 8.8636 13.8542 8.588 13.7792C8.3236 13.7071 8.15455 13.81 7.91638 13.9C7.72065 13.8437 7.48897 13.7006 7.2747 13.7669C7.10863 13.8182 6.8633 13.8979 6.70221 13.9678C6.5929 14.0194 6.48503 14.1 6.3716 14.1407C5.95057 14.292 5.52803 14.4568 5.10457 14.5995C4.75925 14.7159 4.32918 15.3056 4.41644 15.6745C4.44512 15.695 4.45215 15.6996 4.47656 15.7246C4.46477 15.9077 4.39159 16.3287 4.35774 16.5156C4.1373 16.3389 4.21018 16.648 4.10773 16.723C3.87133 16.7088 3.77769 16.1917 3.62737 16.1367C3.42798 16.1962 3.52792 16.4603 3.38724 16.5592C3.19436 16.5656 3.06393 16.1514 2.90718 16.0413C2.85532 16.0332 2.87959 16.0288 2.83273 16.0589C2.79248 16.1171 2.79479 16.167 2.78689 16.2387C2.64137 16.1078 2.55149 15.9968 2.4642 15.8222C2.42382 15.7414 2.35256 15.5572 2.27626 15.519C2.24253 15.5327 2.22952 15.5379 2.19444 15.5466C2.12912 15.5 1.98434 15.1032 1.95912 15.0133C1.5695 13.6234 1.53868 11.996 1.62172 10.5654C1.77513 10.4136 1.9331 10.2665 2.09546 10.1243C2.50871 10.1984 2.46747 10.3457 2.53043 10.7319C2.62033 11.2834 2.78235 11.9096 3.17956 12.3236C3.92237 13.0978 5.60595 13.0985 6.36728 12.3468C6.89098 11.8209 7.19475 10.8408 7.19551 10.1027C7.32596 9.89713 7.56885 9.89249 7.78948 9.87085Z" fill="var(--fill-0, #FBFBFA)"/>
<path id="Vector_5" d="M7.13644 13.0631C7.26074 13.0524 7.51339 13.0959 7.52311 13.2511C7.44868 13.3625 7.25759 13.3049 7.08407 13.3626L7.06329 13.3697C6.96863 13.4191 6.79885 13.5234 6.73 13.3864C6.73266 13.188 6.97908 13.108 7.13644 13.0631Z" fill="var(--fill-0, black)"/>
<path id="Vector_6" d="M7.28512 14.8626C7.55065 14.8274 7.68476 14.9567 7.9166 14.9596C8.12426 14.9623 8.29124 14.809 8.55167 14.8727C9.11084 15.008 9.78128 15.2255 10.2918 15.48C10.6007 15.634 10.6678 16.6729 10.5729 16.9808C10.558 17.029 10.5497 17.0648 10.499 17.0831C10.4096 17.1154 10.4057 17.2273 10.3671 17.3017C10.292 17.4983 10.2245 17.6772 10.0898 17.8429C10.0603 17.8293 10.037 17.8214 10.0062 17.8104C9.85689 17.8495 9.77671 18.1992 9.54178 18.2386C9.48593 18.2023 9.49197 18.1692 9.43876 18.1005C9.2706 18.0348 9.20855 18.336 9.06913 18.3677C8.73663 18.4435 8.51217 17.7359 8.45852 17.5279C8.61239 17.306 8.72455 17.3322 8.86353 17.1652C8.96522 17.0432 9.13678 16.6389 8.95535 16.5223C8.86309 16.5054 8.75108 16.5388 8.65513 16.5525C8.13251 16.6274 7.57747 16.6264 7.05649 16.5402C7.00482 16.5316 6.868 16.4931 6.8304 16.5301C6.68389 16.6578 6.85029 17.0345 6.94855 17.163C7.1673 17.4305 7.48654 17.3415 7.289 17.8125C7.20083 18.0227 6.9954 18.5708 6.68989 18.2837C6.50967 18.0541 6.45949 18.0387 6.33642 18.3098C6.12633 18.1941 6.10139 18.136 5.95258 17.958C5.9034 17.899 5.8756 17.8701 5.80262 17.8663C5.75296 17.8902 5.74508 17.925 5.72106 17.9762C5.56766 17.8075 5.4656 17.6672 5.38955 17.4511C5.36268 17.3748 5.2977 17.1888 5.2457 17.141C5.19981 17.132 5.17895 17.1332 5.14777 17.099C5.00102 16.7337 5.07013 15.7536 5.40595 15.5129C5.47502 15.5343 5.54396 15.5685 5.60604 15.6044C6.08214 15.8799 6.65269 15.7561 7.17501 15.7783C7.43996 15.7895 7.72205 15.851 7.98778 15.8405C8.27503 15.8171 8.37791 15.7903 8.68785 15.7754C9.11718 15.7549 9.74532 15.8912 10.1012 15.5748C10.1257 15.5531 10.1189 15.5063 10.1138 15.4793C10.0458 15.3962 9.97936 15.4248 9.88784 15.446C9.75342 15.4774 9.56389 15.53 9.42565 15.5315C9.18188 15.534 8.93088 15.5107 8.68475 15.5102C8.41165 15.5097 8.15418 15.5702 7.88358 15.5693C7.62846 15.5686 7.35787 15.5136 7.10303 15.5116C6.79037 15.5091 6.47281 15.5468 6.16003 15.5147C5.97525 15.4957 5.82425 15.4419 5.64993 15.3836C5.75265 15.3324 5.89582 15.2852 6.00602 15.2432C6.41243 15.0881 6.85776 14.9468 7.28512 14.8626Z" fill="var(--fill-0, #FBFBFA)"/>
<path id="Vector_7" d="M4.61025 9.28105C5.10105 9.23301 6.15632 9.35623 6.54588 9.67492C7.18947 10.2014 6.70955 11.4875 6.29519 12.0262C6.00788 12.3997 5.53833 12.5773 5.06935 12.624C5.05695 12.6256 5.04451 12.6271 5.03206 12.6284C4.53712 12.6796 3.87584 12.5823 3.48689 12.2484C3.01921 11.8372 2.87795 11.2143 2.80038 10.6316C2.63861 9.41617 3.66693 9.35358 4.61025 9.28105Z" fill="var(--fill-0, #FBFBFA)"/>
<path id="Vector_8" d="M4.93396 9.72335C5.24807 9.69554 5.63159 9.77457 5.9074 9.93519C5.99026 9.98343 6.15599 10.0929 6.1929 10.1809C6.18515 10.2361 6.19616 10.2125 6.1581 10.2539C6.12372 10.264 6.10531 10.2754 6.07001 10.2575C5.82351 10.1322 5.63939 10.0333 5.36182 9.98319C5.44829 10.1678 5.48828 10.3217 5.38717 10.514C5.2425 10.7893 4.92192 10.8317 4.66171 10.6975C4.41657 10.5271 4.40851 10.3115 4.48702 10.049C4.28528 10.1296 4.14313 10.2129 3.97064 10.3471C3.86073 10.4325 3.70535 10.637 3.56942 10.5935C3.52621 10.5521 3.53857 10.5761 3.52697 10.5209C3.54368 10.4608 3.56228 10.4326 3.60286 10.3845C3.95861 9.96343 4.3928 9.76981 4.93396 9.72335Z" fill="var(--fill-0, #242320)"/>
<path id="Vector_9" d="M5.10104 10.0191C5.16297 9.9985 5.23 10.0311 5.2521 10.0924C5.27423 10.1538 5.24336 10.2217 5.18255 10.2453C5.14183 10.2612 5.09572 10.2537 5.0621 10.2257C5.02848 10.1978 5.01265 10.1539 5.02074 10.1109C5.02883 10.068 5.05958 10.0328 5.10104 10.0191Z" fill="var(--fill-0, #FBFBFA)"/>
<path id="Vector_10" d="M10.9038 9.29547C11.3915 9.28536 12.4023 9.37148 12.7357 9.72026C13.2655 10.2747 12.83 11.706 12.3444 12.1865C11.9988 12.5286 11.4873 12.6468 11.0254 12.6494C10.5481 12.6561 10.0004 12.5591 9.6284 12.2141C9.12214 11.7448 8.59127 10.3362 9.14616 9.75271C9.51005 9.37019 10.3851 9.30964 10.9038 9.29547Z" fill="var(--fill-0, #FBFBFA)"/>
<path id="Vector_11" d="M10.5496 9.73674C10.6312 9.72754 10.806 9.73274 10.8881 9.74102C11.3755 9.78717 11.824 10.0273 12.1325 10.4075C12.1848 10.4727 12.1935 10.4792 12.1846 10.5557C12.1494 10.6048 12.1712 10.5861 12.1152 10.6126C11.9981 10.6023 11.7531 10.3285 11.6041 10.2422C11.4356 10.1447 11.4162 10.1234 11.2205 10.0458C11.2865 10.2241 11.3045 10.318 11.2339 10.4977C11.0866 10.754 10.8088 10.8576 10.5371 10.7267C10.4211 10.6715 10.3329 10.5711 10.2931 10.4489C10.237 10.2775 10.2794 10.1438 10.3562 9.99361C10.2153 10.0213 10.0864 10.0676 9.95489 10.1234C9.86705 10.1607 9.71068 10.2539 9.62726 10.2703C9.5745 10.248 9.5941 10.2656 9.56639 10.2154C9.56757 10.1851 9.56978 10.1554 9.59204 10.1322C9.85305 9.86239 10.2021 9.77377 10.5496 9.73674Z" fill="var(--fill-0, black)"/>
<path id="Vector_12" d="M10.9282 10.0485C10.9848 10.0226 11.0517 10.0463 11.0796 10.1019C11.1074 10.1576 11.086 10.2253 11.0315 10.2551C10.9944 10.2753 10.9491 10.2736 10.9136 10.2508C10.8781 10.2279 10.8579 10.1875 10.861 10.1453C10.8639 10.1032 10.8897 10.066 10.9282 10.0485Z" fill="var(--fill-0, #FBFBFA)"/>
<path id="Vector_13" d="M14.5291 11.414C14.8901 11.3832 15.059 11.5856 15.1007 11.9225C15.2212 12.8986 14.7495 14.622 14.2018 15.3848C14.0814 15.5234 14.0009 15.5696 13.8369 15.6335C14.0286 14.2851 14.1526 12.9278 14.2086 11.567C14.3309 11.482 14.3878 11.4553 14.5291 11.414Z" fill="var(--fill-0, #FBFBFA)"/>
<path id="Vector_14" d="M0.661598 11.2228C0.935406 11.1952 1.0856 11.3166 1.30097 11.4598C1.30719 11.7131 1.31515 11.9664 1.32485 12.2196C1.21635 12.0709 0.795172 11.6425 0.596869 11.7558C0.561055 11.8016 0.564253 11.8029 0.55544 11.8583C0.580185 11.9668 0.722733 12.0099 0.843631 12.0858C0.974389 12.1679 1.33906 12.638 1.34697 12.7502C1.39688 13.4576 1.43696 14.1521 1.5332 14.8573C1.55757 15.104 1.60009 15.3644 1.63314 15.6123C0.944367 15.3235 1.04777 14.8701 0.83893 14.2557C0.56555 13.4516 0.226688 12.6464 0.277771 11.7774C0.293806 11.5046 0.387629 11.3034 0.661598 11.2228Z" fill="var(--fill-0, #FBFBFA)"/>
</g>
</svg>
