<svg preserveAspectRatio="none" width="100%" height="100%" overflow="visible" style="display: block;" viewBox="0 0 14.7458 14.7458" fill="none" xmlns="http://www.w3.org/2000/svg">
<g id="Group">
<path id="Vector" d="M11.257 3.49487H3.49487V11.257H11.257V3.49487Z" fill="var(--fill-0, white)"/>
<path id="Vector_2" d="M11.2512 14.7458L14.7458 11.2512H11.2512V14.7458Z" fill="var(--fill-0, #EA4335)"/>
<path id="Vector_3" d="M14.7458 3.49487H11.2512V11.257H14.7458V3.49487Z" fill="var(--fill-0, #FBBC04)"/>
<path id="Vector_4" d="M11.257 11.2512H3.49487V14.7458H11.257V11.2512Z" fill="var(--fill-0, #34A853)"/>
<path id="Vector_5" d="M0.000120354 11.2512V13.578C0.000120354 14.224 0.521976 14.7458 1.16508 14.7458H3.49183V11.2512H0.000120354Z" fill="var(--fill-0, #188038)"/>
<path id="Vector_6" d="M14.7457 3.49471V1.16479C14.7457 0.521976 14.2238 0.000120354 13.5807 0.000120354H11.254V3.49471H14.7457Z" fill="var(--fill-0, #1967D2)"/>
<path id="Vector_7" d="M11.2513 0.000244141H1.1652C0.5221 0.000244141 0.000244141 0.5221 0.000244141 1.1652V11.2541H3.49484V3.49484H11.257L11.2513 0.000244141Z" fill="var(--fill-0, #4285F4)"/>
<path id="Vector_8" d="M5.0845 9.51393C4.79247 9.31924 4.5949 9.03326 4.48287 8.65281L5.15823 8.37546C5.22015 8.60846 5.32642 8.78846 5.47676 8.91806C5.62998 9.04478 5.81286 9.1067 6.02828 9.1067C6.24658 9.1067 6.4381 9.0419 6.59449 8.90625C6.75375 8.7706 6.83324 8.59953 6.83324 8.39303C6.83324 8.18366 6.75058 8.0097 6.58268 7.87406C6.41449 7.74129 6.20511 7.67361 5.95455 7.67361H5.56518V7.00718H5.91308C6.1285 7.00718 6.3111 6.94814 6.45855 6.83034C6.60601 6.71543 6.67974 6.553 6.67974 6.35255C6.67974 6.16967 6.61494 6.02826 6.48217 5.92199C6.3494 5.81572 6.1815 5.75985 5.98076 5.75985C5.78319 5.75985 5.62681 5.81284 5.50902 5.91911C5.3941 6.02538 5.3054 6.15786 5.25529 6.30849L4.58886 6.03114C4.67727 5.78058 4.83942 5.5594 5.07558 5.36759C5.31433 5.17895 5.61817 5.07844 5.98681 5.07844C6.26098 5.07844 6.50578 5.13143 6.72121 5.2377C6.93663 5.34398 7.11058 5.49143 7.23442 5.67431C7.35826 5.86007 7.42018 6.07233 7.42018 6.30532C7.42018 6.54407 7.36114 6.74193 7.24623 6.90983C7.13132 7.07486 6.98962 7.20186 6.82143 7.29028V7.33146C7.03686 7.41988 7.2255 7.56734 7.36402 7.75626C7.50572 7.9449 7.5734 8.17214 7.5734 8.4345C7.5734 8.70004 7.5086 8.93303 7.37295 9.13924C7.24018 9.34574 7.05442 9.50788 6.81855 9.62596C6.58268 9.74404 6.31714 9.80596 6.02223 9.80596C5.68902 9.80596 5.37337 9.70862 5.0845 9.51393ZM9.21903 6.17255L8.47887 6.70938L8.11023 6.14894L9.43446 5.19335H9.94479V9.70574H9.21903V6.17255Z" fill="var(--fill-0, #4285F4)"/>
</g>
</svg>
