<svg preserveAspectRatio="none" width="100%" height="100%" overflow="visible" style="display: block;" viewBox="0 0 176.176 166.905" fill="none" xmlns="http://www.w3.org/2000/svg">
<g id="Illustration_home">
<g id="Illustration Body">
<path id="Vector" d="M90.7892 5.89348C91.9801 5.94131 96.2159 6.9323 96.5777 8.11898C96.5528 8.19528 96.5279 8.27157 96.503 8.34786C95.603 8.78965 95.0378 8.95575 94.2638 9.59579L94.1414 9.6985C97.2926 8.91071 100.403 8.97361 102.889 11.2715C104.917 13.1459 105.798 14.3465 108.637 14.9911C109.321 15.1464 110.016 15.3827 110.737 15.4044C110.857 15.2756 110.959 15.1474 111.061 15.0045C112.721 14.4364 115.412 18.9168 116.159 19.9578C116.156 19.7427 116.161 19.5274 116.175 19.3126C116.211 18.8138 116.358 17.6207 116.738 17.2957C117.317 17.2592 117.793 18.134 118.018 18.5931C119.115 20.824 121.245 21.7607 123.076 23.2276C125.368 25.0642 126.868 27.8513 127.48 30.6957C127.682 31.6364 127.723 32.5588 127.991 33.4831C128.469 33.0322 128.315 31.3102 128.715 30.7208C129.245 30.7747 129.655 31.2714 129.868 31.7369C131.014 34.2473 131.047 36.4648 130.19 39.0551C131.687 39.5177 132.779 40.0522 133.9 41.1873C134.478 41.7734 136.074 44.0906 135.276 44.6751C135.059 44.6379 133.618 43.6887 133.248 43.4764C134.241 45.294 134.826 46.3497 135.211 48.447C135.781 51.5517 134.832 53.9396 134.525 56.9369C134.409 58.0709 135.056 60.9816 134.398 61.9183C134.068 61.9761 134.094 61.8977 133.717 61.6761L133.611 61.7083C133.324 62.8772 133.163 64.1271 132.824 65.2666C132.346 66.8781 131.742 68.5295 131.177 70.1148C129.857 73.9201 128.36 77.6618 126.692 81.3277C134.659 83.0079 130.476 93.3581 127.737 97.8024C124.995 102.253 119.757 108.927 113.923 105.294C111.755 110.018 108.552 115.126 104.495 118.508C99.7971 122.424 94.1923 125.655 88.4333 127.69C86.8647 128.244 84.8435 129.123 83.1905 129.254C79.2678 130.609 74.084 130.781 69.9875 130.232C58.2171 128.657 51.5172 121.194 47.2615 110.637C43.3689 100.979 42.8418 94.0789 44.7096 84.0318C42.0643 80.21 42.0775 66.5662 46.2294 63.2749C47.1023 62.5829 48.0736 62.5301 49.1337 62.7195C49.1788 62.3688 49.384 61.1133 49.3278 60.7655C48.9837 58.6405 47.522 56.3485 49.0145 54.2798C49.4777 53.6376 50.3979 53.5773 51.154 53.5244C51.6128 51.2631 51.9394 48.9962 52.4473 46.7234C52.9462 44.4909 53.4474 42.3899 54.0597 40.1842C54.3831 39.0195 54.1899 37.842 54.7361 36.5291C55.4379 34.8419 56.0686 33.8295 57.2489 32.4583C56.9447 31.2996 56.7537 30.293 56.7791 29.0891C56.8395 26.681 57.8644 24.3979 59.6236 22.7521C60.0476 22.3568 60.5813 21.8746 61.1752 21.8915C61.4741 22.1122 61.3959 22.2627 61.4756 22.7629C61.7784 23.169 62.2185 23.3992 62.6521 23.6798C61.5259 18.8644 63.2422 14.0108 68.0304 11.9075C68.5182 11.6932 69.06 11.5068 69.5885 11.6436C69.8308 11.9242 69.6749 12.0897 69.4279 12.5586C68.4461 14.4225 68.3669 15.2837 68.548 17.349C69.2104 14.9962 69.6828 13.4944 71.213 11.5002C73.2218 8.88242 76.0896 6.98767 79.4013 6.58291C80.3506 6.46686 82.2897 6.36838 83.0619 6.95595C83.216 7.3703 83.0429 7.46323 82.5796 7.80502C81.0236 8.95276 80.3876 10.3025 79.8261 12.1264C80.6437 10.9465 81.2086 10.0587 82.2799 9.06229C84.5854 6.92201 87.6453 5.7826 90.7892 5.89348Z" fill="var(--fill-0, black)"/>
<path id="Vector_2" d="M53.4873 53.5713C53.5953 53.135 53.7429 52.696 53.8697 52.2816C55.0458 48.4367 56.9032 45.1597 59.3721 42.0069C59.68 41.6136 60.0385 40.317 60.2949 39.7811C60.661 38.9416 61.118 38.0857 61.592 37.3075C66.0659 29.964 74.2645 26.1697 82.6977 26.0708C83.4264 26.0623 86.2035 26.4123 86.6818 26.1679C86.4778 25.9238 86.3758 25.8174 86.2225 25.5311C87.1812 25.5362 92.1498 28.8776 92.7773 27.6672C92.7567 27.2121 92.4728 26.8701 92.2229 26.4668C95.0682 28.4857 96.6779 29.2815 100.03 29.8569C100.997 30.0229 104.013 31.5369 104.95 32.0619C106.745 33.0759 108.454 34.2332 110.063 35.5225C113.336 38.1454 114.115 39.4733 118.171 41.0428C117.375 45.6957 120.084 46.9904 120.99 51.2407C121.535 53.8015 120.381 56.016 120.294 58.3898C120.241 59.7926 121.37 62.2346 121.696 63.7921C122.647 68.3401 121.81 72.5133 121.089 76.9987C120.299 76.1168 117.311 72.337 116.596 72.1282C116.312 72.4366 115.9 73.4444 115.683 73.9042C116.068 74.473 116.971 75.4253 117.462 75.9706L120.655 79.5079L120.42 79.7326C119.665 81.5822 119.36 84.0673 118.638 85.955C116.98 90.301 115.267 94.6411 112.748 98.5713C112.046 99.6672 111.556 100.873 110.769 101.955L110.672 101.918L110.708 101.403C110.436 101.658 110.087 102.233 109.853 102.558C109.069 103.642 107.39 106.1 106.178 106.593C106.024 106.332 106.041 106.315 105.795 106.149C104.826 106.195 104.213 107.698 102.995 107.788C101.996 107.861 102.621 107.398 102.007 106.942C101.054 106.885 100.463 107.576 99.5903 107.904C99.1979 108.051 98.8424 108.106 98.4334 108.174C98.5964 107.542 98.8021 107.145 98.2908 106.649C97.1489 106.411 95.3476 109.165 93.8176 109.436C89.7098 110.161 92.1377 104.25 92.3862 102.14C92.5177 101.056 92.4192 99.9572 92.0967 98.9153C91.124 95.8744 87.255 94.1492 84.7575 92.6335C82.3316 91.1608 80.2887 89.0034 77.6843 87.8223C76.4878 87.2808 75.3003 87.7996 74.081 87.5215C72.8179 87.1504 72.1268 86.2111 70.6517 86.3282C68.4556 86.5036 66.3701 87.4226 64.2167 87.8174C62.5987 88.1136 60.9464 88.1822 59.3586 88.7252C57.1129 89.5104 55.3005 91.2717 54.6768 93.6539C54.353 94.8907 54.0383 98.7505 52.4087 99.3495C51.0741 99.4717 51.4442 97.7177 50.4657 97.18C49.9 96.8695 50.46 93.7669 49.3734 93.6978C48.9908 93.9071 48.8817 94.1963 48.6571 94.5799C48.4514 94.0459 48.1529 92.9743 47.8493 92.5701L47.3759 92.5448C47.1585 92.3902 47.1617 91.9728 47.0437 91.5725C46.5871 91.2555 47.0438 91.5997 46.4811 91.6049C44.5832 87.8026 48.7228 74.1111 49.7229 69.6763C50.6561 72.6123 53.2994 74.1087 56.0801 74.9843C60.6037 76.4071 65.9207 77.9176 70.3873 75.7598C70.1726 76.1136 69.7253 76.7732 70.1232 77.1225C71.7374 76.8383 76.3574 68.8462 76.9667 67.0725C77.4442 64.9152 77.3174 63.4533 80.1799 63.8785C81.8275 64.1234 83.4165 64.5416 84.5233 65.9892C83.9028 69.9455 83.6405 76.684 85.9724 80.1335C88.2594 83.5181 94.8349 85.2293 98.7692 86.034C106.165 87.5482 108.722 84.5889 111.758 78.1955C112.178 77.5508 112.83 75.1505 113.294 74.7001C114.376 73.6498 115.949 73.7758 116.274 71.7438C116.591 69.7594 114.055 68.8209 112.579 68.096C105.405 64.5712 97.0726 61.5638 88.971 61.9938C87.5892 62.0677 86.666 62.6395 85.6459 63.4481C85.0601 63.2631 83.9026 62.7084 83.2547 62.463C81.339 61.7375 79.9585 61.6696 77.9743 61.6225C77.0216 59.992 76.126 59.0148 74.4299 58.1621C67.9701 54.9145 60.5809 53.7801 53.4873 53.5713Z" fill="var(--fill-0, white)"/>
<path id="Vector_3" d="M95.721 54.9587C99.4218 55.2458 105.475 58.0687 108.271 60.6336C109.156 61.4458 112.288 65.3536 110.978 66.4422C110.363 66.4774 108.474 65.0762 107.643 64.6307C105.182 63.2127 102.389 62.1411 99.6424 61.4113C97.4263 60.8223 95.1118 60.4341 92.9003 59.8037C92.7381 59.7577 92.4144 59.3505 92.2666 59.2288C91.8637 58.8969 92.0738 59.2356 91.5686 59.2898C89.85 58.0217 91.4886 54.7012 93.8153 54.7556L93.9235 54.8698L93.6912 55.302C94.0647 55.3369 94.9273 54.9966 95.721 54.9587Z" fill="var(--fill-0, black)"/>
<path id="Vector_4" d="M69.0419 49.2094C69.0761 49.2117 69.1103 49.214 69.1445 49.2163L69.3151 49.2315C70.4475 49.3215 72.2732 49.8076 73.3895 50.2009C73.5548 50.2591 74.3357 50.9947 74.6064 51.1792L74.8722 50.983C75.2306 50.9942 75.1472 51.0321 75.4158 51.2868C76.4566 52.4689 76.3834 55.5172 74.3443 55.5263C73.7584 55.5288 72.9784 55.3755 72.4115 55.2389C70.1283 54.6888 67.8557 53.9425 65.5433 53.5197C64.0647 53.2696 62.4464 53.1313 60.939 53.1047C60.092 53.0898 58.8679 53.4656 58.0269 53.2706C57.7822 52.9648 57.8659 53.1358 57.7976 52.7248C58.0126 51.9916 58.6413 51.3951 59.2331 50.9403C62.1461 48.7016 65.5926 48.7709 69.0419 49.2094Z" fill="var(--fill-0, black)"/>
<path id="Vector_5" d="M69.2634 80.1095C69.9238 80.407 70.4586 81.7829 70.9802 82.4057C71.4265 82.9367 71.8772 83.503 72.3339 84.0389C72.7759 84.5577 73.3497 84.9491 72.6476 85.5119C72.0957 85.5922 72.324 85.6083 71.7666 85.4017C71.1831 84.9218 70.5255 84.1806 69.8876 83.6175C69.0563 83.685 68.446 83.6972 67.8382 82.9704C67.4908 82.5549 67.8657 81.7767 68.315 81.5499C69.1434 81.1321 68.5919 80.8501 69.2634 80.1095Z" fill="var(--fill-0, black)"/>
<path id="Vector_6" d="M79.513 84.0652L79.6846 84.0867C80.8477 84.2342 82.9556 84.916 82.6823 86.4354C81.999 87.3563 81.038 86.5828 80.3372 86.1226C78.7413 85.4557 78.0558 86.1993 76.7324 85.5084C76.593 85.4356 76.6241 85.3589 76.6051 85.1862C77.2124 84.2131 78.4829 84.1068 79.513 84.0652Z" fill="var(--fill-0, black)"/>
<path id="Vector_7" d="M72.4006 93.0473C73.2738 93.239 73.75 94.066 74.7142 94.4756C76.6636 95.3056 78.5263 96.4064 80.4469 97.3396C82.3654 98.2724 84.2292 99.1283 86.1822 99.984C87.1504 100.408 87.761 100.906 88.0794 101.966C88.7961 104.357 87.9896 107.093 86.9941 109.288C86.8306 109.664 86.4892 109.903 86.2655 110.236C85.8376 110.874 85.3814 112.649 84.6015 112.919C84.4993 112.774 84.4467 112.684 84.3561 112.533C83.3777 112.702 82.3701 115.14 81.0527 114.946C80.8756 114.727 80.8296 114.674 80.6202 114.486C79.9959 114.403 79.2358 115.287 78.6423 115.512C78.3399 115.626 78.1086 115.67 77.7948 115.733C76.6264 114.598 76.4833 114.453 75.0793 115.357C73.859 114.728 73.4079 114.052 72.4287 113.118C70.9953 107.954 77.3803 110.276 76.5436 105.839C76.4811 105.508 76.043 105.297 75.7309 105.17C75.0094 104.985 74.1691 104.857 73.4189 104.721C71.2612 104.328 69.1119 103.866 67.0732 103.037C65.6015 102.438 64.3217 102.042 64.0838 104.114C63.9031 105.688 64.9459 106.661 65.6389 107.907C65.7214 108.056 65.8363 108.912 65.8674 109.133C64.984 111.06 63.7723 111.901 61.5951 111.818C61.2721 110.206 60.9072 110.462 59.4959 110.86C58.3869 109.548 58.5893 108.167 57.7696 107.705C57.6398 107.71 57.4846 107.725 57.3535 107.713C56.2084 107.602 57.1389 103.493 56.4609 102.771L56.0901 102.805C55.6794 101.443 57.0726 97.1117 57.8828 95.8321C59.4838 93.3034 60.6469 94.1453 62.9294 93.8583C65.9789 93.4746 69.4964 93.7405 72.4006 93.0473Z" fill="var(--fill-0, white)"/>
<path id="Vector_8" d="M61.0545 94.292C61.7261 94.4698 62.7109 95.1823 63.6559 95.3951C65.2417 95.7525 66.8107 95.9301 68.3896 96.2958C69.4237 96.4497 70.7759 97.2112 71.7618 97.3562C75.7466 97.9429 79.4721 99.4009 83.4299 100.042C84.2443 100.174 85.0449 100.054 85.8343 100.238C86.0847 100.295 86.1596 100.492 86.2332 100.684C86.1005 101.103 86.2099 100.912 85.8242 101.231C84.8421 101.488 83.822 101.559 82.8142 101.444C80.5062 101.203 78.4263 100.509 76.1921 100.031C73.2066 99.3926 70.3851 98.8027 67.481 97.8338C65.9937 97.3384 61.2191 96.7379 60.6986 95.0397C60.7182 94.6418 60.7991 94.5952 61.0545 94.292Z" fill="var(--fill-0, black)"/>
<path id="Vector_9" d="M94.0446 63.7189C98.9571 64.3361 107.085 66.6053 111.008 69.5851C113.988 71.8495 108.983 81.2252 106.852 83.1862C105.444 84.481 104.315 84.9338 102.383 84.9121C102.08 84.9164 101.491 84.8975 101.172 84.8605C97.0778 84.3849 90.2005 82.7976 87.3987 79.6627C86.4712 78.5605 85.6295 75.8362 85.8938 74.4954C86.2917 72.4649 86.8185 71.4433 85.9414 69.4418C85.8098 69.1421 85.8805 68.2985 85.9114 67.9007C86.3051 62.7279 90.187 63.2873 94.0446 63.7189Z" fill="var(--fill-0, white)"/>
<path id="Vector_10" d="M95.4702 66.5497C98.2617 66.6508 101.457 68.5137 103.155 70.6888C103.69 71.3723 104.983 73.2086 104.574 74.0738C104.5 74.1375 104.014 74.443 103.931 74.3263C103.134 73.1972 99.6185 68.6978 98.1191 69.0768C98.326 70.7934 97.9138 72.6791 96.2259 73.5107C95.572 73.8363 94.8135 73.8827 94.124 73.6397C93.3808 73.3846 92.7813 72.825 92.4765 72.1011C91.9583 70.877 92.2646 69.8203 92.7539 68.6936C92.0782 69.1087 91.0197 70.1091 90.2701 69.8939C89.8868 69.344 90.5192 68.5627 90.9268 68.1799C92.26 66.926 93.6909 66.5489 95.4702 66.5497Z" fill="var(--fill-0, black)"/>
<path id="Vector_11" d="M59.072 55.5402C63.8202 55.9327 70.4349 57.6471 74.5715 60.0902C78.5057 62.4138 73.7836 69.2681 72.1005 71.8853C70.8009 73.906 69.1484 74.9968 66.6992 75.3605C66.2835 75.3906 65.8662 75.4026 65.4493 75.3937C61.945 75.3121 54.5904 73.7523 52.0819 71.1309C50.1221 69.0816 50.5346 63.5781 50.961 60.9928C51.21 59.4821 51.5405 57.159 52.8087 56.1005C54.3541 54.9158 57.2501 55.384 59.072 55.5402Z" fill="var(--fill-0, white)"/>
<path id="Vector_12" d="M63.7509 59.1081C67.0457 59.4141 70.166 60.9329 71.6651 64.079C71.8722 64.5138 72.1369 65.2495 71.9535 65.7037C71.6645 65.8068 71.3214 65.7091 71.1453 65.486C69.5739 63.4955 68.7475 62.3118 66.2449 61.402C66.4632 62.6438 66.4459 63.0901 66.0695 64.241C65.6053 65.0706 65.1785 65.7559 64.266 66.1635C63.6312 66.4508 62.9038 66.4531 62.2671 66.17C60.2884 65.2841 60.4175 63.0183 61.1595 61.3264C60.3873 61.8392 58.8536 63.5185 58.1254 63.0192C57.914 62.3344 58.3921 61.6273 58.8499 61.1425C60.2185 59.6928 61.8015 59.2029 63.7509 59.1081Z" fill="var(--fill-0, black)"/>
<path id="Vector_13" d="M126.28 83.0503C131.771 83.3552 129.281 91.3024 127.804 94.1685C125.791 98.0747 122.832 103.002 118.491 104.52C116.812 104.903 115.872 104.832 114.693 103.468C115.656 101.1 116.433 98.4212 117.445 96.1229C119.642 91.1311 119.48 83.6059 126.28 83.0503Z" fill="var(--fill-0, white)"/>
<path id="Vector_14" d="M126.91 86.6946C127.464 86.8703 127.661 87.053 127.75 87.6205C127.444 88.3772 126.436 88.3512 125.5 88.7862C123.789 89.5815 122.05 92.9633 121.172 93.5281C119.832 93.352 120.365 92.1836 120.848 91.4417C122.26 89.271 124.193 87.0412 126.91 86.6946Z" fill="var(--fill-0, black)"/>
<path id="Vector_15" d="M47.9616 64.2666C48.3311 64.2789 48.7152 64.3525 48.9971 64.5985C49.245 65.2325 48.6778 67.5807 48.4735 68.3346C47.3365 72.5292 46.3609 76.7699 45.2957 80.9784L45.1898 80.9654L45.0957 80.6475C44.7539 79.0494 44.4462 76.7175 44.5136 75.105C44.6351 72.1974 44.7956 65.3763 47.9616 64.2666Z" fill="var(--fill-0, white)"/>
<path id="Vector_16" d="M120.655 79.5078C121.43 80.3122 122.007 80.8684 122.648 81.8033C121.706 81.1185 121.157 80.3084 120.42 79.7324L120.655 79.5078Z" fill="var(--fill-0, white)"/>
</g>
<path id="Vector_17" d="M13.4556 112.291C14.4083 111.322 21.5289 104.876 22.2364 104.749C22.4806 104.706 22.7191 104.738 22.9031 104.917C23.1563 105.163 23.1923 105.521 23.2309 105.851C22.4832 106.687 15.2448 113.149 14.5598 113.448C13.6672 113.408 13.5957 113.114 13.4556 112.291Z" fill="var(--fill-0, #E89D01)"/>
<path id="Vector_18" d="M158.948 30.6835C159.648 30.7668 160.016 30.9279 160.055 31.6887C159.635 32.5817 154.277 38.8301 153.355 39.7566C153.039 39.7608 152.724 39.7631 152.469 39.5358C152.252 39.3425 152.195 39.1231 152.216 38.8402C152.267 38.1685 158.003 31.4612 158.948 30.6835Z" fill="var(--fill-0, #E89D01)"/>
<path id="Vector_19" d="M9.60939 100.478C9.68289 100.322 9.8875 99.8881 9.99833 99.8507C11.1471 99.4633 19.1321 97.5028 19.8671 97.6874C20.2248 97.9006 20.2665 98.1134 20.4371 98.4983C20.3478 98.7103 20.1957 99.1088 19.9514 99.176C16.9562 99.9995 13.8846 100.651 10.8471 101.315C10.0781 101.483 9.88761 101.081 9.60939 100.478Z" fill="var(--fill-0, #E89D01)"/>
<path id="Vector_20" d="M168.544 41.6098C168.97 41.7403 169.037 41.7798 169.31 42.0926C169.372 42.352 169.428 42.4932 169.286 42.7453C168.768 43.6639 162.738 45.887 161.373 46.4522C160.963 46.3176 160.774 46.1604 160.584 45.7921C160.582 45.5972 160.552 45.4766 160.642 45.2975C161.105 44.3716 167.292 41.9851 168.544 41.6098Z" fill="var(--fill-0, #E89D01)"/>
<g id="Illustration Head">
<path id="Vector_21" d="M15.1303 26.7453C15.3108 26.7465 15.4993 26.7442 15.6746 26.7887C16.1713 26.9144 16.5015 27.2861 16.7011 27.7426C16.9817 28.3829 17.0336 29.1468 17.155 29.8333C17.4896 31.7177 18.02 33.569 19.0944 35.1753C21.3551 38.5546 26.5191 39.0701 27.6385 41.0637C27.8927 41.5171 27.8763 42.0786 27.7174 42.5631C27.259 43.9582 25.3344 44.4409 24.1588 45.088C23.4958 45.4529 22.8428 45.8972 22.2339 46.3468C19.2931 48.5184 17.1499 51.4832 15.7007 54.8161C15.3266 55.6773 15.1579 56.6709 14.7027 57.4852C14.4415 57.9529 14.1455 58.1772 13.6739 58.4171C12.9497 58.4081 12.376 58.2103 12.0759 57.4836C11.6863 56.5403 11.6303 55.452 11.3509 54.4641C10.8766 52.7888 10.2518 51.1907 9.42429 49.6584C8.40582 47.7566 7.06515 46.0475 5.46155 44.6053C4.91828 44.1255 4.29494 43.6641 3.69356 43.2516C2.90121 42.7083 1.79478 42.3735 1.33203 41.4598C1.11115 41.0232 1.09055 40.6361 1.239 40.1822C1.35578 39.8235 1.72695 39.3586 2.05943 39.2065C3.74479 38.4352 5.3527 38.2909 7.10159 37.4627C10.2681 35.9638 11.9889 33.5983 13.1513 30.352C13.4266 29.5838 13.6168 28.8515 13.8763 28.0894C14.1358 27.3276 14.4261 27.0629 15.1303 26.7453Z" fill="var(--fill-0, #005BAB)"/>
<path id="Vector_22" d="M15.2886 27.9976C15.4937 28.0783 15.6194 28.1324 15.6698 28.3619C15.7746 28.8397 15.8411 29.3299 15.9226 29.8132C16.0515 30.5812 16.2145 31.3429 16.4117 32.0962C17.8648 37.443 21.1342 38.8925 25.7624 40.9295C26.3839 41.2033 26.9751 42.0392 26.2416 42.5883C25.3803 43.272 24.156 43.596 23.2473 44.1784C19.3115 46.7009 16.2368 50.1203 14.5168 54.5082C14.2201 55.2658 13.8915 56.5977 13.4724 57.1612L13.3024 57.0946C12.9845 56.7563 12.9757 56.2965 12.8998 55.8887C11.7792 49.869 8.23711 44.1385 2.73146 41.2302C2.55408 41.1364 2.43599 40.8896 2.37568 40.6942C2.43279 40.3804 2.64515 40.2845 2.96623 40.1768C5.16098 39.4452 7.37882 38.9731 9.34142 37.6426C11.7412 36.0155 13.3756 33.5121 14.3088 30.7941C14.6086 29.9227 14.801 28.772 15.2886 27.9976Z" fill="var(--fill-0, white)"/>
<path id="Vector_23" opacity="0.5" d="M23.4942 51.4436C24.1294 51.7061 24.087 52.7105 24.2754 53.3685C24.6553 54.6937 25.4239 54.7141 26.4842 55.3359C26.6742 55.4474 26.7687 55.499 26.8279 55.7104C26.0966 56.2727 24.8683 56.0307 24.1714 57.2061C23.7448 57.9267 23.676 58.6638 23.3065 59.2283C23.2428 59.2202 22.9937 59.1682 22.9765 59.1387C22.5966 58.4847 22.6543 57.4576 22.1975 56.7387C21.7006 55.9574 20.4 55.7557 19.9346 55.1993L19.9801 55.0692C20.7666 54.5626 21.6475 54.746 22.3457 53.9717C23.0835 53.1535 23.0363 52.3435 23.4942 51.4436Z" fill="var(--fill-0, #005BAB)"/>
<path id="Vector_24" opacity="0.5" d="M4.22057 54.6994C4.60605 54.6013 5.01374 54.7191 5.28755 55.0062C5.56212 55.2934 5.66059 55.7065 5.54547 56.086C5.42953 56.4663 5.11848 56.7545 4.73072 56.8409C4.14323 56.972 3.56011 56.6067 3.42041 56.0217C3.28077 55.4359 3.63729 54.8476 4.22057 54.6994Z" fill="var(--fill-0, #005BAB)"/>
<path id="Vector_25" opacity="0.5" d="M2.78734 31.6478C3.04995 31.5899 3.32247 31.6803 3.4986 31.8836C3.67397 32.0868 3.72454 32.37 3.62954 32.6214C3.53454 32.8727 3.30893 33.0516 3.04245 33.0874C2.65392 33.1398 2.29278 32.8763 2.22465 32.4901C2.15576 32.1039 2.40429 31.7324 2.78734 31.6478Z" fill="var(--fill-0, #005BAB)"/>
<path id="Vector_26" opacity="0.5" d="M21.7585 23.0449C21.9476 23.0104 22.1403 23.0816 22.2619 23.2307C22.3835 23.3799 22.4142 23.5833 22.3425 23.7617C22.2708 23.9401 22.1069 24.0653 21.9163 24.0883C21.6331 24.1225 21.3739 23.9253 21.3309 23.6432C21.2887 23.3612 21.478 23.0961 21.7585 23.0449Z" fill="var(--fill-0, #005BAB)"/>
</g>
<g id="User Profile Image">
<path id="Vector_27" opacity="0.3" d="M159.74 129.225C160.313 129.716 160.577 130.304 160.682 131.046C160.823 132.038 160.439 132.629 159.843 133.369C157.985 135.677 156.095 137.96 154.216 140.251C151.139 144.042 148.04 147.814 144.918 151.568L140.76 156.607C140.124 157.381 139.426 158.31 138.743 159.012C137.965 159.81 136.203 159.883 135.315 159.204C133.803 158.048 132.384 156.804 130.907 155.614L118.927 145.796C117.827 144.771 117.66 143.155 118.606 141.973C120.099 140.105 121.631 138.271 123.149 136.423L131.936 125.714L137.308 119.143C137.899 118.424 139.329 116.6 139.926 116.037C140.332 115.657 140.849 115.418 141.401 115.354C143.03 115.165 143.951 116.252 145.108 117.212C146.098 118.037 147.093 118.857 148.091 119.672L159.74 129.225Z" fill="var(--fill-0, #7237AE)"/>
<path id="Vector_28" d="M158.997 130.511C159.371 130.938 159.38 131.751 159.032 132.189C157.995 133.493 156.879 134.748 155.824 136.038C153.264 139.212 150.681 142.366 148.076 145.502L141.074 153.994C140.014 155.283 138.993 156.609 137.895 157.864C137.244 158.608 136.487 158.292 135.823 157.763C134.039 156.342 132.293 154.871 130.53 153.425L119.733 144.598C119.271 144.049 119.252 143.429 119.696 142.859C120.366 141.999 121.073 141.164 121.768 140.322L125.909 135.286L139.173 119.092C139.658 118.5 141.181 116.423 141.767 116.714C143.686 117.666 147.163 120.779 148.701 122.046L158.997 130.511Z" fill="var(--fill-0, white)"/>
<path id="Vector_29" d="M139.045 133.917C140.687 135.535 136.807 135.533 135.997 135.688C135.477 135.786 133.171 136.058 132.823 135.82C132.443 135.211 132.49 134.309 132.456 133.565C132.43 133.318 132.31 132.352 132.456 132.202C133.923 130.696 133.91 134.038 133.964 134.551C135.608 134.304 137.393 134.062 139.045 133.917Z" fill="var(--fill-0, #7237AE)"/>
<path id="Vector_30" d="M133.344 141.116C133.574 141.441 133.64 141.705 133.495 142.089C133.109 142.539 127.518 143.282 126.977 142.999C126.565 142.412 126.588 141.368 126.534 140.616C126.474 140.033 126.372 139.253 126.983 138.916C128.032 139.03 127.979 140.88 128.025 141.684C129.091 141.536 132.483 140.982 133.344 141.116Z" fill="var(--fill-0, #7237AE)"/>
<path id="Vector_31" d="M145.09 126.954C145.25 127.275 145.315 127.361 145.28 127.722C145.219 127.846 145.083 128.086 144.96 128.115C143.875 128.371 139.515 129.044 138.709 128.755C138.333 128.206 138.332 127.078 138.276 126.37C138.273 126.333 138.27 126.296 138.267 126.259L138.256 126.083C138.214 125.45 138.299 125.031 138.879 124.677C139.809 124.691 139.721 126.778 139.773 127.484C140.877 127.32 144.162 126.777 145.09 126.954Z" fill="var(--fill-0, #7237AE)"/>
<path id="Vector_32" d="M151.559 135.239C152.154 135.838 151.536 136.895 150.412 136.086C149.799 135.642 149.181 135.135 148.592 134.644L145.478 132.06C145.231 131.806 145.177 131.661 145.215 131.309C145.941 130.047 147.514 131.86 148.267 132.486L151.559 135.239Z" fill="var(--fill-0, #7237AE)"/>
<path id="Vector_33" d="M139.855 149.324L140.065 149.547C140.213 150.021 140.138 150.357 139.668 150.574C138.899 150.63 134.847 147.027 133.921 146.258C133.439 145.837 133.383 145.348 134.021 145.045C134.608 145.05 135 145.278 135.447 145.646C136.921 146.865 138.388 148.097 139.855 149.324Z" fill="var(--fill-0, #7237AE)"/>
<path id="Vector_34" d="M145.516 142.066C145.8 142.307 145.806 142.29 145.961 142.618C145.982 143.34 145.411 143.673 144.827 143.277C144.225 142.869 143.644 142.353 143.079 141.886L139.97 139.313C139.86 139.222 139.435 138.819 139.437 138.71C139.485 136.886 141.411 138.619 141.981 139.093C143.163 140.077 144.343 141.071 145.516 142.066Z" fill="var(--fill-0, #7237AE)"/>
</g>
<path id="Vector_35" d="M160.467 94.5452C160.361 93.6975 161.478 91.4529 161.999 90.0775C163.596 85.8576 164.508 81.3578 164.727 76.8528C164.802 75.3219 164.261 67.0938 164.427 66.7173L165.092 66.469C165.136 66.5911 165.208 66.7926 165.238 66.931C167.191 75.9104 165.989 85.5126 161.72 93.6699C161.345 94.3851 161.054 94.4221 160.467 94.5452Z" fill="var(--fill-0, #05210B)"/>
<path id="Vector_36" d="M65.5239 154.119C66.313 153.792 68.7737 154.272 70.2381 154.409C74.7307 154.828 79.311 154.511 83.7123 153.526C85.2081 153.191 92.9971 150.485 93.404 150.545L93.8199 151.119C93.714 151.194 93.539 151.318 93.4134 151.383C85.2753 155.651 75.699 157.043 66.7006 155.094C65.9115 154.923 65.7985 154.652 65.5239 154.119Z" fill="var(--fill-0, #05210B)"/>
<path id="Vector_37" d="M167.066 89.699C166.775 88.83 167.666 86.3918 167.923 85.2935C168.248 83.9493 168.503 82.5901 168.689 81.2209C168.864 79.8862 168.838 76.7657 169.603 75.88C170.69 78.08 169.268 88.465 167.066 89.699Z" fill="var(--fill-0, #05210B)"/>
<path id="Vector_38" d="M71.9491 159.194C72.7094 158.682 75.2968 158.893 76.4239 158.849C77.8061 158.806 79.1842 158.691 80.5537 158.506C81.8869 158.321 84.8884 157.467 85.9455 157.969C84.1132 159.601 73.7236 160.989 71.9491 159.194Z" fill="var(--fill-0, #05210B)"/>
</g>
</svg>
