<svg width="41" height="41" viewBox="0 0 41 41" fill="none" xmlns="http://www.w3.org/2000/svg">
<path d="M23.494 5.9117C23.9543 5.35214 24.4412 5.24813 25.0573 5.71177C25.1303 5.76669 25.2174 5.87589 25.2865 5.94338C25.5077 5.79035 25.6746 5.65027 25.9326 5.55739C26.4172 5.38278 26.874 5.59926 27.1903 5.96965C27.2144 5.99781 27.2019 6.06929 27.1988 6.10401L27.2382 6.17448C27.3175 6.13718 27.3317 6.12807 27.4049 6.08053C27.7207 5.87993 28.1022 5.80999 28.4688 5.88548C29.0145 5.99387 28.9562 6.36506 29.1392 6.49674C29.6344 6.24661 30.0286 6.04635 30.5956 6.21095C31.0949 6.35581 31.3146 6.85967 31.1536 7.33897C31.08 7.55869 30.962 7.68944 30.8175 7.8602C31.0321 8.07843 31.1338 8.31229 31.1355 8.61958C31.1378 9.04842 30.8685 9.26842 30.5899 9.54184C30.8571 9.71527 31.144 9.8759 31.2122 10.2144C31.3288 10.7941 30.8033 11.2129 30.3367 11.4156C31.0332 11.9143 30.7122 12.7385 30.0281 13.0925C30.4226 13.5233 30.5517 14.1596 30.0916 14.6215C30.0258 14.6877 29.7874 14.8307 29.7 14.8522C30.2165 15.2131 30.5458 15.7374 30.1863 16.3863C30.1023 16.5383 29.9325 16.6185 29.7815 16.6962C30.2573 17.1808 30.2819 18.1048 29.6165 18.4265C31.3186 19.2179 31.8389 21.0644 31.0096 22.6944C30.5047 23.6872 29.6287 24.2967 28.6989 24.8463C28.6607 25.528 28.7185 26.2239 28.6751 26.9129C28.5563 28.8034 28.0812 30.9303 26.6396 32.2685C25.8979 32.9568 25.2398 33.1157 24.2651 32.9587C23.7756 33.7901 23.2919 34.4888 22.2979 34.7574C21.6242 34.9396 20.9651 34.6849 20.3391 34.4616C20.1836 34.6066 19.9928 34.8211 19.8273 34.9377C19.2836 35.3206 18.1493 35.4892 17.5488 35.1955L17.5394 35.12C17.4333 35.069 17.4165 35.1339 17.335 35.0777C17.1836 34.9736 17.2222 34.866 17.0271 34.8573C16.8866 34.7083 16.7518 34.3512 16.5203 34.3774C15.8558 34.4527 15.3497 34.4078 14.8426 33.9267C14.5618 33.6602 14.5581 33.626 14.3527 33.3158C14.0213 32.8154 14.0873 32.5161 13.9751 31.9621C13.9414 31.819 13.2959 31.7147 13.229 31.5584C12.4879 30.8271 12.2403 30.1851 12.2958 29.1195C12.3008 29.0272 12.3064 28.9349 12.3127 28.8429C12.1911 28.7093 11.9879 28.5457 11.8871 28.413C11.4585 27.8496 11.4765 27.2181 11.4716 26.565C11.4664 25.8695 11.6463 25.2291 11.6704 24.5724L11.603 24.5257L11.2924 24.5469C9.59526 23.6582 8.59938 21.5559 9.81526 19.8247C10.0189 19.5349 10.2594 19.3753 10.6002 19.277C10.8213 19.213 11.0474 19.1674 11.2761 19.1407C11.3841 19.1283 11.6043 19.182 11.7182 19.206C11.6225 19.0966 11.6065 18.9949 11.5549 18.8642C11.4367 18.5651 11.5501 18.2831 11.6512 18.002C11.4486 17.9104 11.3745 17.8389 11.209 17.752C10.961 17.1212 10.9197 17.0296 11.3993 16.482C11.1652 16.2998 11.0537 16.217 10.8718 15.9896C10.8274 15.6886 10.7706 15.4478 10.8847 15.1531C10.9143 15.1496 10.9403 15.1461 10.9701 15.1416C10.9464 15.095 10.9505 15.1015 10.921 15.0614C10.98 14.9761 11.2249 14.7523 11.3321 14.7128C11.2114 14.6343 11.1217 14.6198 11.0017 14.5615C10.8092 14.468 10.668 14.176 10.6225 13.9761C10.5694 13.7436 10.6419 13.5625 10.7607 13.3659C10.8336 13.2452 10.9935 13.0953 10.971 12.9697C10.8279 12.8142 10.5916 12.6516 10.5293 12.4952L10.512 12.4532C10.451 12.3021 10.39 12.0015 10.4357 11.8481C10.5153 11.7659 10.5413 11.7674 10.5598 11.6751L10.5126 11.5905C10.5347 11.5181 10.7128 11.3941 10.7807 11.3577C10.3506 11.0728 10.0928 10.9067 9.97207 10.3421C9.90857 10.0451 9.93265 9.65909 10.079 9.38279C10.1295 9.28752 10.2208 9.23197 10.245 9.10941C10.1912 8.97451 10.0994 8.84275 10.0349 8.71301C9.67823 7.9948 9.90147 6.9458 10.7199 6.65803C11.3635 6.43173 11.7404 6.49919 12.2945 6.8486C12.4977 6.45715 12.7658 6.18387 13.1943 6.05744C13.8281 5.87042 14.2735 6.06879 14.628 6.59319C14.8749 6.18149 15.1434 5.9046 15.6203 5.78556C16.2157 5.63691 16.4893 5.79663 16.8745 6.19933C17.0152 6.13232 17.0939 6.00237 17.2124 5.93649C17.7697 5.62674 18.557 5.55809 18.9461 6.16654C19.4429 5.85904 19.9638 5.32516 20.6191 5.46693C21.0192 5.55354 21.1891 5.85505 21.4221 6.1122C21.7611 5.74181 22.0071 5.5327 22.5382 5.50128C22.8066 5.48539 22.8597 5.60998 23.0223 5.56305C23.1864 5.69413 23.3207 5.79285 23.494 5.9117Z" fill="black"/>
<path d="M11.6032 24.5258C11.6198 24.4193 11.6505 24.2965 11.6258 24.1962C11.5455 24.0954 11.4704 24.0959 11.373 24.0331C10.1822 23.2629 9.51472 21.7951 10.1695 20.4475C10.4031 19.9666 11.1562 19.6388 11.6717 19.8689C11.7837 19.919 11.8684 20.0622 11.8738 20.1812C11.8576 20.7938 11.8823 21.3105 11.9639 21.9214C11.9478 21.9438 11.9318 21.9665 11.9157 21.9891C11.9521 22.2431 12.016 22.6069 12.0036 22.8531C11.9849 23.2265 11.8727 23.5667 11.7959 23.9231C11.7482 24.1443 11.72 24.3534 11.6706 24.5725L11.6032 24.5258Z" fill="#FBFBFA"/>
<path d="M18.4532 12.168C18.6435 12.1593 18.8524 12.1601 19.0429 12.1667C19.8738 12.1955 20.7304 12.1362 21.5588 12.1776L23.4276 12.2573C23.6676 12.2663 24.1098 12.3048 24.3262 12.2739C24.4216 12.7284 24.8946 15.1503 24.8337 15.4645C24.8666 15.5186 25.0443 15.7462 25.0745 15.7505C25.3708 15.7929 26.2111 15.6866 26.4665 15.6355C26.5425 15.9744 26.5989 16.2364 26.6818 16.576L26.6396 16.6114C26.7559 17.1333 26.8104 17.7136 26.9707 18.2416C26.9901 18.3054 26.9629 18.3612 26.9452 18.4379L26.92 18.4324C26.3856 18.3204 25.6304 18.3696 25.0689 18.3677C24.2601 18.3629 23.4514 18.3624 22.6427 18.3665C21.9959 18.3692 21.317 18.3786 20.6738 18.4667C20.5607 18.4822 20.3452 18.5982 20.2515 18.665C19.8568 19.206 20.2307 19.3562 19.4808 19.355C19.415 19.1137 19.2915 18.8005 19.0808 18.6518C18.9364 18.5767 18.7394 18.4751 18.5766 18.5038C18.2147 18.5676 17.7799 18.5207 17.411 18.5163C16.508 18.5011 15.6049 18.504 14.702 18.525C14.2399 18.533 13.7259 18.5409 13.2606 18.6148C12.981 18.6592 12.732 19.0975 12.5798 19.1514L12.5454 19.1321C12.5333 19.0927 12.5231 19.0531 12.5292 19.0102C12.8325 16.8897 13.676 14.7985 15.0042 13.1114C15.1748 12.8946 15.3991 12.6545 15.5991 12.4752C16.4083 12.3525 17.645 12.1735 18.4532 12.168Z" fill="#FBFBFA"/>
<path d="M15.1721 16.9387C15.1807 16.9408 15.7577 16.9614 15.8666 16.9746C16.5151 17.0534 17.206 17.3056 17.7881 17.5987C17.9322 17.6712 18.2834 17.9516 18.3199 18.0846C18.11 18.2359 18.0251 18.3356 17.7487 18.3451C17.0739 18.1145 16.4693 17.7829 15.7563 17.6421C15.5987 17.611 14.7955 17.5713 14.7605 17.5202C14.3952 16.9862 14.8955 17.014 15.1721 16.9387Z" fill="black"/>
<path d="M23.9827 16.9118C24.1361 16.8863 24.4439 16.9846 24.5525 17.0928C24.5804 17.2701 24.2938 17.5348 24.1765 17.5486C23.279 17.6544 22.5723 17.8968 21.7494 18.2483C21.4203 18.4105 21.3467 18.2821 21.1763 18.0134C21.2091 17.955 21.2376 17.8854 21.265 17.8235C22.1115 17.2593 22.975 16.9993 23.9827 16.9118Z" fill="black"/>
<path d="M12.4086 20.1663C12.5001 20.1752 12.5975 20.1738 12.672 20.2231C12.6762 20.2307 12.7891 21.0243 12.8112 21.1426C12.9322 21.7894 12.9059 22.679 13.6922 22.9094C14.2845 23.0145 15.3205 22.9857 15.937 22.9805C16.6472 22.9743 17.4958 23.0187 18.183 22.9776C17.9137 23.4613 17.5302 24.2096 17.686 24.7764C17.8906 25.5204 18.6105 25.5011 19.2314 25.3335C19.4878 25.2643 19.9062 25.2914 19.7242 24.7846C19.6966 24.7072 19.601 24.6416 19.5153 24.6338L19.4478 24.6921C19.4201 24.6794 19.3925 24.6661 19.3652 24.6527C19.2312 24.6909 18.9944 24.765 18.8729 24.7957C17.0718 25.2508 19.09 22.3556 19.3885 21.9083C19.4839 21.7653 19.7344 21.3977 19.565 21.2398C19.356 21.2278 19.1455 21.63 19.0224 21.7946C19.1127 21.4544 19.2602 20.0794 19.7969 20.3053C20.0832 20.4259 20.3554 21.4466 20.4486 21.7856C20.7982 23.057 21.0683 22.8816 22.2259 22.8882L23.9628 22.8908C24.483 22.8872 25.0151 22.8941 25.5353 22.8811C26.5072 22.8566 26.7069 22.9418 27.043 21.9367L27.0938 21.9093C27.0867 22.1102 27.0893 22.3226 27.0794 22.5188C26.3467 22.878 26.0931 23.8041 25.9699 24.5516C25.2535 24.7818 24.9032 25.078 24.5267 25.7357C23.4982 25.6543 23.4265 25.9439 22.8236 26.5909C22.5368 26.4712 22.2752 26.3022 21.9898 26.1903C21.196 25.879 20.4104 25.6087 19.6871 26.2144C18.8582 25.5874 17.3438 26.3768 16.6719 26.9422C16.2957 26.458 16.1582 26.331 15.5408 26.2309C15.1683 25.545 14.7893 25.303 14.0351 25.1873C13.923 24.5797 13.7114 24.088 13.195 23.7356C13.1734 23.721 13.1516 23.7063 13.1298 23.6917C13.0097 23.28 12.8609 22.7591 12.4749 22.5256C12.4415 22.1272 12.4127 21.7379 12.4081 21.3378C12.4037 20.9511 12.4359 20.5494 12.4086 20.1663Z" fill="#FBFBFA"/>
<path d="M20.9923 18.8908C21.3001 18.8632 21.7328 18.8946 22.0519 18.9018C22.5089 18.9077 22.9657 18.91 23.4227 18.9088L25.5122 18.9053C26.9085 18.9061 27.1896 18.7679 26.8091 20.3201C26.709 20.7289 26.6549 21.1505 26.5232 21.5641C26.395 21.9668 26.4545 22.1025 26.0502 22.348C25.807 22.4726 25.0665 22.4302 24.763 22.4297L22.5885 22.421C22.3781 22.4212 22.1315 22.3785 21.9275 22.4276C21.8654 22.4424 21.822 22.4542 21.7583 22.4453C21.6461 22.4294 21.5163 22.4252 21.4127 22.3775C21.2548 22.3046 21.1917 22.1726 21.1346 22.0156C20.9505 21.5093 20.3101 19.5325 20.5879 19.0752C20.6668 18.9453 20.8547 18.9171 20.9923 18.8908Z" fill="#FBFBFA"/>
<path d="M21.8574 19.0996C21.924 19.0974 21.9776 19.0991 22.0453 19.1033C23.0006 19.1628 23.9635 19.5546 24.6372 20.2449C24.7123 20.3188 24.7366 20.4607 24.8128 20.5291C24.9316 20.6271 24.9589 20.8752 24.8041 20.9514C24.7366 20.9845 24.7302 21.0317 24.6658 21.0435C24.5411 20.9955 24.5253 20.9717 24.387 20.988C24.2602 21.0029 23.9843 20.6488 23.8797 20.5522L23.6243 20.3589C23.5403 20.7408 23.3162 21.1735 22.9426 21.347C22.5996 21.5064 22.2217 21.3071 22.0909 20.9623C21.929 20.535 22.0588 20.1989 22.2264 19.8073C21.8282 19.7056 21.6507 19.9114 21.53 19.2989C21.598 19.1918 21.742 19.1461 21.8574 19.0996Z" fill="black"/>
<path d="M13.8363 19.0532C14.6814 19.1111 15.5756 19.0639 16.4225 19.0832C16.5857 19.0869 16.9493 19.1307 17.0681 19.0505C17.1714 19.041 17.1536 19.0909 17.2462 19.0962C17.6609 19.1202 18.3717 18.9458 18.7276 19.1669C18.7678 19.2674 18.8084 19.344 18.8576 19.4396C18.7975 20.1813 18.4551 21.3733 18.2854 22.1403C18.1488 22.3501 17.9996 22.4391 17.746 22.4394C16.585 22.4403 15.4225 22.4523 14.2618 22.4467C13.9173 22.4283 13.6933 22.3645 13.5808 21.9944C13.4052 21.4163 13.3048 20.7698 13.2445 20.1678C13.2173 19.8966 13.1999 19.5688 13.3068 19.3177C13.3709 19.1671 13.6826 19.1004 13.8363 19.0532Z" fill="#FBFBFA"/>
<path d="M17.7126 19.3198C17.9406 19.3014 18.4464 19.4119 18.1417 19.7351C18.0281 19.8554 17.6357 19.9831 17.4737 19.9461C17.5065 20.0292 17.5623 20.0714 17.572 20.1597C17.5946 20.363 17.6342 20.5601 17.6566 20.7652C17.6112 20.777 17.6282 20.7647 17.6028 20.7982C17.5635 21.1148 17.4803 21.3022 17.2449 21.5283C16.6954 22.0559 16.041 21.2557 16.1255 20.6845C16.1204 20.6656 16.1032 20.628 16.095 20.6084C15.8753 20.6743 15.614 21.1584 15.3811 21.2647C15.1568 21.3669 15.1616 21.2071 14.9589 21.1511C14.9145 20.937 15.1745 20.6358 15.313 20.4819C15.9641 19.7588 16.7384 19.3726 17.7126 19.3198Z" fill="black"/>
<path d="M29.0289 18.894C29.633 19.0337 29.9311 19.2132 30.313 19.7188C30.7889 20.3491 30.8701 21.0055 30.691 21.768C30.462 22.7436 29.6455 23.3443 28.8497 23.858C28.7945 23.8936 28.7527 23.909 28.6925 23.8934C28.6057 23.6644 28.6597 23.1772 28.6387 22.9216C28.591 22.3371 28.511 21.3141 27.9742 20.9581C27.868 20.9588 27.7179 20.9555 27.6157 20.9664C27.4389 21.0841 27.382 21.1398 27.2562 21.3216L27.2148 21.293C27.2798 21.0133 27.3442 20.7379 27.4112 20.4539C27.5153 20.0129 27.4766 19.5599 27.9176 19.2927C28.2912 19.0664 28.6274 19.0143 29.0289 18.894Z" fill="#FBFBFA"/>
<path d="M20.0496 27.7C20.2929 27.6884 20.538 27.6894 20.7818 27.6877C20.8852 27.7694 20.9673 27.8239 20.9794 27.9627C21.0134 28.357 20.1966 28.3983 19.9641 28.4174C19.6714 28.428 18.9335 28.4868 18.8762 28.0869C18.8064 27.6009 19.7023 27.7158 20.0496 27.7Z" fill="#FBFBFA"/>
<path d="M27.2146 21.2932L27.2559 21.3218C27.1988 21.4601 27.1284 21.7571 27.0937 21.9095L27.043 21.9369C27.0602 21.8189 27.1742 21.4046 27.2146 21.2932Z" fill="#FBFBFA"/>
</svg>
