<svg width="390" height="250" viewBox="0 0 390 250" fill="none" xmlns="http://www.w3.org/2000/svg">
<path d="M82.0844 207.009C83.6256 206.949 86.7398 207.186 88.0212 208.102C88.4383 208.889 88.3298 208.582 88.1887 209.612C87.0018 209.845 83.2696 209.407 82.2627 208.629C81.881 207.804 82.0049 208.034 82.0844 207.009Z" fill="#6EACFE"/>
<path d="M88.9042 214.455C89.6948 214.586 89.9615 214.688 90.0425 215.464C89.4219 216.746 86.7254 218.182 85.3918 219C84.9299 218.805 84.9496 218.738 84.5507 218.382C84.1186 216.68 87.5596 215.185 88.9042 214.455Z" fill="#6EACFE"/>
<path d="M295.958 230.009C294.417 229.949 291.303 230.186 290.021 231.102C289.604 231.889 289.713 231.582 289.854 232.612C291.041 232.845 294.773 232.407 295.78 231.629C296.161 230.804 296.038 231.034 295.958 230.009Z" fill="#BFEECF"/>
<path d="M289.138 237.455C288.348 237.586 288.081 237.688 288 238.464C288.621 239.746 291.317 241.182 292.651 242C293.113 241.805 293.093 241.738 293.492 241.382C293.924 239.68 290.483 238.185 289.138 237.455Z" fill="#BFEECF"/>
<path d="M283.62 62.2581C285.185 62.5666 288.151 64.3031 289.183 65.6285C289.641 66.2165 289.407 66.4784 289.223 67.1885C287.612 66.9183 284.456 65.2075 283.435 63.7465C283.101 63.2664 283.411 62.8111 283.62 62.2581Z" fill="#CFAAFB"/>
<path d="M277.896 66.4727C278.206 66.4773 278.631 66.4619 278.886 66.6252C280.273 67.5182 281.118 72.2321 280.563 73.4727L279.848 73.5139C278.327 72.7336 277.614 67.9596 277.896 66.4727Z" fill="#CFAAFB"/>
<path d="M290.439 55C291.071 55.0119 291.201 55.3466 291.43 55.797C291.223 57.5861 287.352 57.5027 285.807 57.6724C285.552 57.6775 285.44 57.552 285.147 57.3978C284.709 56.6557 284.725 57.01 284.854 56.3223C285.858 55.3618 288.936 55.1879 290.439 55Z" fill="#CFAAFB"/>
<g filter="url(#filter0_ddd_14293_1567)">
<path d="M124 70C124 61.1634 131.163 54 140 54H252C260.837 54 268 61.1634 268 70V184C268 192.837 260.837 200 252 200H140C131.163 200 124 192.837 124 184V70Z" fill="white"/>
<path d="M140 54.5H252C260.56 54.5 267.5 61.4396 267.5 70V184C267.5 192.56 260.56 199.5 252 199.5H140C131.44 199.5 124.5 192.56 124.5 184V70C124.5 61.4396 131.44 54.5 140 54.5Z" stroke="#F7F7F5"/>
</g>
<rect x="298.5" y="95.5" width="66" height="66" rx="11.5" stroke="#EDECEB"/>
<path d="M339.798 120.768H324.767V135.799H339.798V120.768Z" fill="white"/>
<path d="M339.787 142.555L346.555 135.788H339.787V142.555Z" fill="#EA4335"/>
<path d="M346.555 120.768H339.787V135.799H346.555V120.768Z" fill="#FBBC04"/>
<path d="M339.798 135.788H324.767V142.555H339.798V135.788Z" fill="#34A853"/>
<path d="M318 135.788V140.293C318 141.544 319.011 142.555 320.256 142.555H324.762V135.788H318Z" fill="#188038"/>
<path d="M346.554 120.767V116.255C346.554 115.011 345.543 114 344.298 114H339.792V120.767H346.554Z" fill="#1967D2"/>
<path d="M339.787 114H320.256C319.011 114 318 115.011 318 116.256V135.793H324.767V120.768H339.799L339.787 114Z" fill="#4285F4"/>
<path d="M327.846 132.423C327.28 132.046 326.898 131.492 326.681 130.756L327.988 130.219C328.108 130.67 328.314 131.018 328.605 131.269C328.902 131.515 329.256 131.635 329.673 131.635C330.096 131.635 330.467 131.509 330.77 131.246C331.078 130.984 331.232 130.652 331.232 130.253C331.232 129.847 331.072 129.51 330.747 129.248C330.421 128.99 330.016 128.859 329.531 128.859H328.777V127.569H329.45C329.867 127.569 330.221 127.455 330.506 127.226C330.792 127.004 330.935 126.689 330.935 126.301C330.935 125.947 330.809 125.673 330.552 125.467C330.295 125.262 329.97 125.154 329.581 125.154C329.199 125.154 328.896 125.256 328.668 125.462C328.445 125.668 328.273 125.924 328.176 126.216L326.886 125.679C327.057 125.194 327.371 124.765 327.828 124.394C328.291 124.029 328.879 123.834 329.593 123.834C330.124 123.834 330.598 123.937 331.015 124.142C331.432 124.348 331.769 124.634 332.009 124.988C332.249 125.348 332.369 125.759 332.369 126.21C332.369 126.672 332.254 127.055 332.032 127.38C331.809 127.7 331.535 127.946 331.209 128.117V128.197C331.626 128.368 331.992 128.654 332.26 129.019C332.534 129.385 332.665 129.825 332.665 130.333C332.665 130.847 332.54 131.298 332.277 131.698C332.02 132.097 331.66 132.411 331.204 132.64C330.747 132.869 330.233 132.989 329.662 132.989C329.016 132.989 328.405 132.8 327.846 132.423ZM335.852 125.953L334.419 126.992L333.705 125.907L336.269 124.057H337.257V132.795H335.852V125.953Z" fill="#4285F4"/>
<rect x="25.5" y="95.5" width="66" height="66" rx="11.5" stroke="#EDECEB"/>
<path fill-rule="evenodd" clip-rule="evenodd" d="M49.1552 117.456C50.1283 118.243 50.4802 118.181 52.3021 118.056L69.4654 117.021C69.8381 117.021 69.5275 116.649 69.4033 116.607L66.5462 114.558C66.0079 114.143 65.2626 113.647 63.8755 113.771L47.2712 114.992C46.6708 115.054 46.5465 115.365 46.795 115.593L49.1552 117.456ZM50.1904 121.452V139.505C50.1904 140.478 50.6666 140.83 51.7638 140.768L70.6248 139.671C71.7221 139.609 71.8463 138.946 71.8463 138.16V120.23C71.8463 119.444 71.5358 119.009 70.8733 119.071L51.1634 120.23C50.4388 120.292 50.1904 120.665 50.1904 121.452ZM68.8029 122.425C68.9271 122.963 68.8029 123.522 68.2646 123.584L67.3537 123.771V137.104C66.5669 137.518 65.8423 137.766 65.2212 137.766C64.2481 137.766 63.9997 137.456 63.275 136.545L57.3331 127.207V136.234L59.2171 136.648C59.2171 136.648 59.2171 137.746 57.7058 137.746L53.5237 137.994C53.3994 137.746 53.5237 137.145 53.9377 137.021L55.035 136.71V124.785L53.5237 124.661C53.3994 124.123 53.71 123.336 54.5588 123.274L59.0515 122.963L65.2419 132.404V124.061L63.6684 123.874C63.5442 123.212 64.0411 122.715 64.6415 122.653L68.8029 122.425ZM45.884 113.336L63.1715 112.073C65.2833 111.887 65.8423 112.011 67.1673 112.984L72.6745 116.856C73.5854 117.518 73.896 117.704 73.896 118.429V139.692C73.896 141.017 73.4198 141.803 71.7221 141.928L51.6603 143.149C50.3767 143.211 49.7763 143.025 49.1138 142.176L45.0352 136.897C44.3106 135.924 44 135.199 44 134.35V115.448C44 114.351 44.4969 113.46 45.884 113.336Z" fill="black"/>
<circle cx="265.5" cy="214.5" r="24.5" fill="#BFEECF"/>
<path d="M265.983 198.003C266.742 197.968 266.946 198.215 267.431 198.753C267.858 198.378 267.921 198.336 268.443 198.087C269.711 198.302 269.167 198.994 270.414 198.102C270.749 197.861 271.185 198.487 271.524 198.723C272.16 198.749 272.655 197.92 273.28 198.633C274.389 199.9 274.33 197.876 275.796 199.559C276.382 199.599 277.111 198.932 277.695 199.548C278.464 200.358 277.641 200.658 277.659 201.296C278.142 202.198 277.829 202.172 277.357 202.854C277.454 203.012 277.547 203.173 277.635 203.336C278.195 204.386 277.235 204.402 277.04 205.037C277.253 206.011 277.174 206.077 276.516 206.783C277.035 207.648 276.742 207.958 276.124 208.592C277.192 209.738 276.279 209.69 276.204 210.599C276.114 211.697 276.511 211.393 275.868 212.501C277.318 213.265 277.94 214.344 277.497 216.005C277.072 217.603 275.848 218.514 274.483 219.289C274.449 220.273 274.425 221.223 274.285 222.201C273.923 224.721 272.51 228.619 269.316 228.037C268.267 229.874 267.027 230.292 265.073 229.562C263.739 230.793 262.024 230.859 261.001 229.219C260.601 229.144 260.205 229.04 259.81 228.943C257.816 228.096 258.764 227.444 258.018 226.42C257.065 225.11 256.11 225.354 256.46 222.926C254.92 220.564 256.208 218.628 256.535 216.141C256.567 215.897 256.433 213.114 256.453 213.13C254.828 211.764 253.588 215.113 254.588 216.36C254.937 216.795 255.978 217.52 255.995 217.918C254.967 218.439 253.134 215.529 253.651 214.319C253.998 213.508 253.775 213.184 254.666 212.513C255.422 211.944 255.959 212.427 256.375 212.274C255.945 211.343 256.217 211.786 256.324 211.071C255.521 210.331 255.751 210.241 256.038 209.349C255.619 208.318 255.215 208.626 256.015 207.481C255.512 206.729 255.166 206.733 255.794 205.795C255.986 205.508 254.956 204.739 255.504 204.125C255.938 203.639 255.084 203.326 254.945 202.768C254.703 202.422 255.367 201.379 255.299 201.235C254.754 200.088 254.891 198.657 256.473 198.626C256.702 198.622 257.43 199.02 257.656 198.853C258.765 198.033 259.151 197.681 260.139 198.99C260.598 198.551 261.242 197.934 261.845 198.371C263.336 199.451 263.053 197.408 264.852 198.882C265.313 198.433 265.45 198.319 265.983 198.003Z" fill="black"/>
<path d="M262.358 205.112C264.927 204.882 267.772 205.385 270.307 205.587C270.483 206.847 270.679 208.103 270.896 209.356C271.315 209.379 271.979 209.349 272.414 209.342C272.469 210.376 272.675 211.328 272.87 212.341C271.297 212.037 268.096 212.095 266.345 211.981C265.26 212.249 265.657 212.836 264.836 213.011C264.548 212.823 264.549 212.42 264.262 212.215C263.652 211.779 258.987 211.75 258.141 211.91C257.596 212.014 257.42 212.443 257.141 212.872C257.49 210.516 258.93 206.781 260.85 205.273C261.333 205.194 261.868 205.158 262.358 205.112Z" fill="#BFEECF"/>
<path d="M259.788 210.12C259.933 210.116 260.078 210.117 260.223 210.125C261.03 210.177 262.727 210.597 263.306 211.26C263.48 211.458 263.414 211.575 263.378 211.8C262.778 211.739 262.176 211.368 261.572 211.152C260.948 210.929 260.433 210.774 259.797 210.593C259.668 210.38 259.708 210.452 259.788 210.12Z" fill="black"/>
<path d="M269.525 210.474C269.847 210.498 270.038 210.465 270.2 210.763C269.972 211.082 268.05 211.501 267.377 211.759C267.078 211.859 266.888 211.966 266.661 211.692C266.873 210.751 268.708 210.547 269.525 210.474Z" fill="black"/>
<path d="M257.045 213.381C258.125 213.669 256.537 216.606 259.316 216.556C260.072 216.543 262.251 216.677 263.133 216.716L263.077 216.818C262.171 218.476 262.259 219.79 264.599 219.267C264.742 219.235 264.723 219.186 264.775 219.059C264.447 218.516 263.407 219.033 263.088 218.586C262.518 217.785 264.662 215.986 264.654 215.062L264.57 215.008C264.404 215.118 264.273 215.204 264.099 215.302C264.156 214.921 264.433 214.003 264.801 213.873C265.603 214.098 265.571 216.096 266.136 216.646C266.44 216.942 268.195 216.898 268.709 216.926C269.886 216.981 271.15 217.065 272.319 216.999C271.73 217.631 271.635 218.03 271.496 218.847C270.602 219.198 270.475 219.331 269.8 220.022C268.816 220.205 268.775 220.168 268.091 220.984C267.302 220.463 266.327 220.008 265.386 220.137C264.647 220.239 264.665 220.377 263.982 220.021C262.712 220.144 262.419 220.244 261.37 220.942C261.055 220.601 260.171 220.107 260.167 220.1C259.676 219.292 259.63 219.286 258.658 218.942C258.482 218.396 257.381 216.285 257.023 215.905C257.005 215.085 257.034 214.205 257.045 213.381Z" fill="#BFEECF"/>
<path d="M266.011 212.534C266.972 212.488 272.28 212.549 272.763 213.066C272.875 213.779 272.379 215.307 272.155 216.038C272.076 216.162 271.823 216.509 271.698 216.516C270.672 216.579 267.477 216.521 266.634 216.265C266.16 215.743 265.591 213.179 266.011 212.534Z" fill="#BFEECF"/>
<path d="M267.13 212.701C268.059 212.871 270.426 213.584 270.492 214.747L270.371 214.858C269.966 214.832 270.042 214.799 269.649 214.549C269.382 214.349 269.423 214.313 269.143 214.288C268.774 214.58 268.792 214.781 268.546 215.162C268.46 215.287 268.296 215.392 268.139 215.362C267.27 215.199 267.515 214.126 267.619 213.521C267.34 213.448 267.321 213.458 267.074 213.292C266.991 213.068 267.062 212.935 267.13 212.701Z" fill="black"/>
<path d="M258.392 212.329C260.084 212.246 262.098 212.557 263.814 212.598C264.55 212.617 263.366 215.533 263.234 215.928C262.93 216.332 259.003 216.084 258.453 215.887C257.947 215.237 257.971 213.696 257.997 212.883C258.006 212.607 258.207 212.468 258.392 212.329Z" fill="#BFEECF"/>
<path d="M262.279 212.809C262.647 212.779 262.698 212.775 263.058 212.83C263.313 213.025 263.234 212.902 263.309 213.21C263.108 213.403 263.027 213.348 262.676 213.392C262.365 213.661 262.866 214.944 262.152 215.202C261.351 215.492 261.214 214.869 261.024 214.281L261.044 214.091C260.623 214.192 260.327 214.868 259.926 214.779C259.752 214.533 259.786 214.664 259.808 214.376C260.253 213.628 261.457 213.04 262.279 212.809Z" fill="black"/>
<path d="M274.71 212.963C276.305 212.812 277.132 214.092 276.88 215.56C276.673 216.757 275.936 217.521 274.978 218.166C274.688 218.323 274.8 218.338 274.58 218.28C274.232 217.468 274.742 215.319 273.643 215.022C273.471 215.074 273.341 215.107 273.166 215.146C273.149 214.808 273.462 213.825 273.588 213.467C274.072 213.189 274.19 213.142 274.71 212.963Z" fill="#BFEECF"/>
<path d="M264.014 221.983C264.259 221.978 264.504 221.98 264.748 221.99C265.167 222.01 265.657 222 265.934 222.307C265.853 222.552 265.822 222.509 265.572 222.695C265.028 222.769 264.045 222.889 263.674 222.422C263.733 222.133 263.72 222.222 264.014 221.983Z" fill="#BFEECF"/>
<circle cx="120" cy="199" r="21" fill="#95CBFB"/>
<path d="M122.953 187.044C125.152 186.711 127.394 188.3 128.154 190.315C128.889 192.261 129.062 194.3 129.586 196.307C130.225 198.754 131.394 201.039 131.668 203.576C132.027 206.943 130.289 210.66 126.313 209.239C125.139 208.819 124.455 207.652 123.993 206.532C123.877 206.759 123.758 206.983 123.635 207.206C121.916 210.273 118.795 211.648 115.597 209.814C112.904 208.175 112.036 204.984 111.847 202.029C111.484 202.051 111.12 202.069 110.841 202.314C109.977 203.071 110.608 204.553 111.417 205.092C111.597 205.211 111.807 205.293 111.94 205.455L111.88 205.531C111.651 205.571 111.401 205.561 111.206 205.423C110.073 204.622 109.688 203.265 110.385 202.078C108.532 201.328 108.499 199.497 108.758 197.766C109.076 195.604 110.251 193.661 112.019 192.376C114.134 190.825 116.854 190.661 119.364 191.047C118.603 188.335 120.647 187.275 122.953 187.044Z" fill="black"/>
<path d="M117.126 194.959C117.214 195.064 117.046 195.909 117.144 196.226C117.303 196.739 117.848 198.275 118.449 198.287C118.589 198.088 118.437 197.779 118.379 197.551C118.144 196.63 118.274 195.79 118.574 194.906C118.841 197.302 120.112 199.387 122.559 199.908C122.738 199.946 123.36 200.196 123.498 200.187C123.867 200.163 124.313 199.83 124.727 199.946C125.608 200.13 126.168 201.133 125.962 201.994C125.717 203.018 124.934 203.536 124.105 204.065L124.094 204.132C123.726 206.335 122.819 208.094 120.98 209.394C119.954 210.077 118.699 210.324 117.491 210.08C115.957 209.769 114.701 208.799 113.847 207.509C112.415 205.311 111.915 202.635 112.457 200.069C112.923 197.836 113.853 196.316 115.746 195.08C115.195 195.863 114.907 196.67 115.195 197.645C115.235 197.781 115.269 197.887 115.393 197.943C115.817 196.674 115.99 195.737 117.126 194.959Z" fill="#95CBFB"/>
<path d="M117.387 201.283C117.774 201.428 117.978 201.98 118.014 202.365C118.11 203.385 117.854 204.292 117.216 205.099C117.391 205.406 117.719 205.766 117.49 206.051C117.192 205.754 117.022 205.425 116.841 205.054C118.518 203.032 117.18 201.868 117.387 201.283Z" fill="black"/>
<path d="M115.5 201.832C115.806 201.815 116.499 201.997 116.633 202.289L116.566 202.375C116.245 202.395 116.372 202.227 116.058 202.196C116.035 202.57 116.11 203.166 115.641 203.209C115.436 203.13 115.404 203.083 115.247 202.936C115.192 202.718 115.225 202.345 115.155 202.248C114.65 202.233 114.162 202.713 113.77 202.306L113.789 202.213L114.168 202.183C114.542 202.155 115.044 201.93 115.5 201.832Z" fill="black"/>
<path d="M121.707 201.212C121.796 201.203 121.751 201.195 121.839 201.251C121.488 201.796 120.636 201.399 120.403 201.632C120.597 202.061 120.444 202.643 119.915 202.599C119.695 202.477 119.695 202.455 119.571 202.224C119.579 202.068 119.579 202.02 119.564 201.865L119.461 201.831C119.352 201.891 119.244 201.952 119.136 202.015C118.868 201.06 121.19 201.346 121.707 201.212Z" fill="black"/>
<path d="M119.321 206.563C119.542 206.635 119.469 206.567 119.565 206.754C119.45 207.573 118.351 207.786 117.66 207.311C117.547 207.149 117.491 207.059 117.54 206.863C117.765 206.794 118.24 207.06 118.471 207.173C118.809 207.147 119.064 206.816 119.321 206.563Z" fill="black"/>
<path d="M114.689 200.132C114.942 200.106 115.035 200.084 115.236 200.228L115.229 200.352C114.951 200.669 114.802 200.674 114.403 200.783C114.177 200.838 114.067 200.872 113.876 200.739V200.616C114.147 200.249 114.257 200.26 114.689 200.132Z" fill="black"/>
<path d="M120.221 199.391C120.542 199.378 121.133 199.367 121.336 199.665C121.298 199.882 121.342 199.779 121.146 199.958C120.798 199.946 120.197 199.949 119.972 199.67C120.035 199.478 120.019 199.536 120.221 199.391Z" fill="black"/>
<path d="M120.838 191.302C120.98 191.284 121.11 191.382 121.131 191.524C121.152 191.665 121.056 191.797 120.915 191.821C120.821 191.837 120.727 191.8 120.667 191.727C120.608 191.653 120.593 191.552 120.628 191.464C120.664 191.376 120.744 191.314 120.838 191.302Z" fill="#95CBFB"/>
<g opacity="0.3">
<path d="M104.394 126.096C105.21 125.893 106.037 126.382 106.253 127.194C106.469 128.006 105.994 128.842 105.185 129.071C104.651 129.223 104.075 129.074 103.681 128.682C103.286 128.291 103.134 127.717 103.282 127.181C103.429 126.645 103.855 126.23 104.394 126.096Z" fill="#37352F"/>
<path d="M110.722 126.056C111.512 125.838 112.334 126.278 112.591 127.056C112.848 127.834 112.448 128.677 111.683 128.971C111.154 129.175 110.556 129.071 110.127 128.7C109.698 128.329 109.508 127.753 109.632 127.2C109.757 126.646 110.176 126.207 110.722 126.056Z" fill="#37352F"/>
<path d="M98.2507 126.031C99.0798 125.878 99.8761 126.425 100.031 127.254C100.185 128.083 99.6387 128.88 98.8101 129.036C97.9799 129.191 97.1808 128.644 97.0261 127.814C96.8715 126.983 97.4201 126.185 98.2507 126.031Z" fill="#37352F"/>
<path d="M117.157 126.038C117.978 125.915 118.745 126.473 118.881 127.292C119.016 128.111 118.469 128.887 117.652 129.034C117.113 129.132 116.563 128.931 116.214 128.509C115.864 128.088 115.768 127.51 115.964 126.998C116.159 126.487 116.615 126.12 117.157 126.038Z" fill="#37352F"/>
</g>
<path d="M279.394 126.096C280.21 125.893 281.037 126.382 281.253 127.194C281.469 128.006 280.994 128.842 280.185 129.071C279.651 129.223 279.075 129.074 278.681 128.682C278.286 128.291 278.134 127.717 278.282 127.181C278.429 126.645 278.855 126.23 279.394 126.096Z" fill="#14832B"/>
<path d="M285.722 126.056C286.512 125.838 287.334 126.278 287.591 127.056C287.848 127.834 287.448 128.677 286.683 128.971C286.154 129.175 285.556 129.071 285.127 128.7C284.698 128.329 284.508 127.753 284.632 127.2C284.757 126.646 285.176 126.207 285.722 126.056Z" fill="#14832B"/>
<path d="M273.251 126.031C274.08 125.878 274.876 126.425 275.031 127.254C275.185 128.083 274.639 128.88 273.81 129.036C272.98 129.191 272.181 128.644 272.026 127.814C271.872 126.983 272.42 126.185 273.251 126.031Z" fill="#14832B"/>
<path d="M292.157 126.038C292.978 125.915 293.745 126.473 293.881 127.292C294.016 128.111 293.469 128.887 292.652 129.034C292.113 129.132 291.563 128.931 291.214 128.509C290.864 128.088 290.768 127.51 290.964 126.998C291.159 126.487 291.615 126.12 292.157 126.038Z" fill="#14832B"/>
<circle cx="256" cy="45" r="26" fill="#E8D9FB"/>
<path d="M258.901 26.0933C260.494 26.0609 261.136 26.3396 262.404 27.2166C264.289 26.2115 267.183 27.9781 267.558 29.9757C267.64 30.4169 267.636 30.8665 267.636 31.314C269.159 31.2129 270.606 31.7923 270.626 33.5057L270.518 33.6064C269.76 33.2499 269.291 31.8692 268.104 32.0577L268.099 32.2223C268.46 32.8526 268.64 33.275 268.574 34.0143C268.26 37.555 264.864 37.8075 262.211 37.6286C263.284 38.2711 265.748 39.5955 266.877 38.0423C267.015 37.8521 267.001 37.8175 267.196 37.6499C267.528 37.643 267.392 37.5926 267.635 37.7454C267.855 38.3596 267.239 39.0951 266.697 39.3342C265.648 39.7968 264.574 39.5097 263.553 39.1567C263.929 40.1193 263.97 40.5802 263.972 41.602C265.003 43.2637 265.483 44.5168 264.599 46.4513C267.013 49.1513 265.136 51.9459 262.186 52.854C260.538 56.7544 257.365 59.9317 252.907 59.9178C250.606 59.5622 249.203 58.9651 247.571 57.1859C245.465 54.89 244.533 51.5333 244.557 48.4705C244.565 47.4445 244.764 46.2889 244.818 45.2247C244.483 44.7626 243.508 45.035 243.131 45.3211C242.618 45.7118 242.477 46.5283 242.403 47.1153C242.276 48.1349 242.812 48.7083 243.444 49.4071C243.617 49.6085 243.838 49.855 243.817 50.1091C243.731 50.1453 243.651 50.2039 243.569 50.1631C241.658 49.2091 241.048 45.7065 243.084 44.5582C243.734 44.1913 244.31 44.3436 244.919 44.5229C245.205 42.0772 246.367 37.1855 249.392 36.9099C250.321 35.4877 250.742 35.1397 252.461 35.0586C251.736 34.6401 249.934 33.4367 250.537 32.4372C251.578 32.557 251.626 34.7616 255.007 34.6493C253.602 32.5516 253.282 29.449 255.963 28.2025C256.083 28.0173 256.208 27.8356 256.34 27.6574C257.073 26.6753 257.697 26.2651 258.901 26.0933Z" fill="black"/>
<path d="M250.531 39.2803L250.607 39.3647C250.242 42.2576 253.242 40.2786 254.336 39.5867L254.319 39.6489L254.293 39.7529C253.645 42.265 255.706 41.7347 257.216 41.1696C257.208 43.8117 258.49 43.577 260.255 42.3684C260.22 44.1387 260.438 45.4088 261.833 46.6585C262.606 46.5143 263.069 46.4004 263.838 46.7438C264.356 46.9713 264.759 47.3982 264.957 47.9277C265.841 50.2955 263.367 51.6625 261.556 52.2973C260.828 54.02 260.524 54.647 259.326 56.0837C258.842 56.667 258.28 57.1826 257.658 57.6167C253.933 60.2671 249.68 59.5104 247.116 55.7089C244.494 51.8187 244.498 46.4187 246.468 42.2555C246.617 41.9414 246.94 41.3575 247.216 41.169C247.286 41.1851 247.584 41.2506 247.632 41.2468C248.53 41.1742 249.841 39.8454 250.531 39.2803Z" fill="#E9D9FA"/>
<path d="M250.43 45.8129C250.707 45.7913 251.197 45.7253 251.433 45.8918C252.193 46.4265 252.015 47.704 251.497 48.3436C251.312 48.5709 251.152 48.597 250.882 48.6103C250.189 48.2755 250.619 46.9766 250.71 46.3859L250.498 46.3521C248.937 46.8472 249.329 47.0056 248.152 47.9293C248.063 47.9995 248.019 47.9468 247.898 47.8962L247.841 47.7367C248.327 46.608 249.273 46.0565 250.43 45.8129Z" fill="black"/>
<path d="M256.645 46.5454C259.997 46.2237 258.344 49.6367 257.305 48.9935C257.008 48.4683 257.165 47.7237 257.321 47.1658L257.354 47.0532C256.167 47.1675 255.759 47.8285 254.728 48.4908L254.642 48.4491C254.478 47.6315 256.005 46.7905 256.645 46.5454Z" fill="black"/>
<path d="M252.941 45.1418C253.21 45.2199 253.098 45.1523 253.292 45.3464C253.259 45.666 253.082 46.2165 252.986 46.5355C252.456 48.2901 252.07 50.0503 251.682 51.8399C252.227 51.8652 252.864 51.8095 253.236 52.1589L253.24 52.4012C252.791 52.4513 251.599 52.4689 251.249 52.1684C251.035 51.1699 252.566 46.1327 252.941 45.1418Z" fill="black"/>
<path d="M256.099 44.4873C256.589 44.4573 256.878 44.4458 257.352 44.6152C257.902 44.8121 259.032 45.374 259.128 45.9856L258.962 46.0061C258.493 45.8512 258.16 45.5225 257.77 45.2048C255.665 44.2075 255.474 45.4604 254.29 45.4731L254.247 45.3457C254.557 44.7836 255.506 44.5997 256.099 44.4873Z" fill="black"/>
<path d="M249.975 54.3994C250.406 54.4673 251.163 55.3056 251.889 55.6034C253.493 56.2617 254.769 54.8394 255.425 54.8071L255.53 54.9962C254.213 56.0227 252.885 56.391 251.254 55.7074C250.77 55.5039 250.15 54.9005 249.975 54.3994Z" fill="black"/>
<path d="M249.558 43.5867C250.597 43.5324 251.859 43.9286 252.455 44.8309C252.579 45.0187 252.623 45.0065 252.587 45.2143C252.106 45.198 251.622 44.5696 250.996 44.2033C248.889 43.3403 248.692 44.5603 247.528 44.5328L247.512 44.4306C247.931 43.9069 248.917 43.708 249.558 43.5867Z" fill="black"/>
<path d="M263.036 27.65C263.87 27.5976 264.732 27.7612 265.435 28.2336C266.112 28.6864 266.579 29.3932 266.729 30.1943C266.988 31.5894 266.31 32.7487 265.542 33.8224L265.482 33.8382L265.45 33.7593C265.595 33.5304 265.731 33.2963 265.859 33.0572C266.716 31.4836 266.997 30.2116 265.463 28.97C264.654 28.3148 264.007 28.1868 263.177 27.7298L263.036 27.65Z" fill="#FEFEFE"/>
<path d="M255.738 29.0818C255.87 29.1557 255.831 29.1903 255.765 29.2795C254.636 30.7775 255.148 32.6625 256.374 33.9211C256.626 34.179 256.951 34.4138 257.203 34.6742L257.298 34.7738C255.191 33.9921 253.81 30.8502 255.738 29.0818Z" fill="#FEFEFE"/>
<path d="M259.027 26.9906C261.44 26.9517 262.681 28.2756 263.768 30.2187C263.521 29.9842 263.319 29.7305 263.1 29.4705C261.628 27.6759 260.466 27.0744 258.17 27.4116L258.225 27.2851C258.571 27.0975 258.637 27.0889 259.027 26.9906Z" fill="#FEFEFE"/>
<path d="M267.592 33.1917C267.798 33.4732 267.833 34.0653 267.754 34.3991C267.529 35.36 266.85 35.9198 266.068 36.4399L265.953 36.3724C267.068 35.3496 267.431 34.6951 267.592 33.1917Z" fill="#FEFEFE"/>
<path d="M109.108 55.3233C111.244 55.2554 118.115 54.4234 118.449 56.8923C118.079 57.7332 118.044 57.6843 117.346 58.3121C115.179 58.2595 108.975 58.8864 108 56.9951C108.161 56.069 108.412 55.9573 109.108 55.3233Z" fill="#FEC218"/>
<path d="M115.379 40.439C117.424 40.7173 121.315 45.3502 122.337 47.3104C122.727 48.0592 122.031 48.7108 121.634 49.2843C119.671 48.7044 115.62 44.2113 114.683 42.4104C114.643 41.2532 114.664 41.6051 115.379 40.439Z" fill="#FEC218"/>
<path d="M130.189 34C130.452 34.1396 130.946 34.4769 131.213 34.6491C131.802 35.9386 131.92 38.6015 131.877 40.0232C131.811 42.1679 132.287 43.5057 130.786 45.094C127.954 43.8444 128.363 35.9588 130.189 34Z" fill="#FEC218"/>
<path d="M158 71.5V183" stroke="#EDECEB"/>
<circle cx="158" cy="87.5" r="2" fill="#005BAB"/>
<path d="M168 81C168 77.6863 170.686 75 174 75H238C241.314 75 244 77.6863 244 81V94C244 97.3137 241.314 100 238 100H174C170.686 100 168 97.3137 168 94V81Z" fill="#E6F3FE"/>
<rect opacity="0.8" x="175" y="83.5" width="8" height="8" rx="2" fill="#005BAB"/>
<g opacity="0.3">
<rect x="191" y="83" width="30" height="3" rx="1.5" fill="#005BAB"/>
<rect x="191" y="89" width="20" height="3" rx="1.5" fill="#005BAB"/>
</g>
<circle cx="158" cy="126.5" r="2" fill="#14832B"/>
<path d="M168 120C168 116.686 170.686 114 174 114H238C241.314 114 244 116.686 244 120V133C244 136.314 241.314 139 238 139H174C170.686 139 168 136.314 168 133V120Z" fill="#D0F4D8"/>
<path d="M168 120C168 116.686 170.686 114 174 114H238C241.314 114 244 116.686 244 120V133C244 136.314 241.314 139 238 139H174C170.686 139 168 136.314 168 133V120Z" fill="white" fill-opacity="0.4"/>
<rect opacity="0.8" x="175" y="122.5" width="8" height="8" rx="2" fill="#14832B"/>
<g opacity="0.3">
<rect x="191" y="122" width="30" height="3" rx="1.5" fill="#14832B"/>
<rect x="191" y="128" width="20" height="3" rx="1.5" fill="#14832B"/>
</g>
<circle cx="158" cy="165.5" r="2" fill="#E89D01"/>
<path d="M168 159C168 155.686 170.686 153 174 153H238C241.314 153 244 155.686 244 159V172C244 175.314 241.314 178 238 178H174C170.686 178 168 175.314 168 172V159Z" fill="#FFE4AF"/>
<path d="M168 159C168 155.686 170.686 153 174 153H238C241.314 153 244 155.686 244 159V172C244 175.314 241.314 178 238 178H174C170.686 178 168 175.314 168 172V159Z" fill="white" fill-opacity="0.4"/>
<rect opacity="0.8" x="175" y="161.5" width="8" height="8" rx="2" fill="#E89D01"/>
<g opacity="0.3">
<rect x="191" y="161" width="30" height="3" rx="1.5" fill="#E89D01"/>
<rect x="191" y="167" width="20" height="3" rx="1.5" fill="#E89D01"/>
</g>
<rect x="144" y="87" width="5" height="1" rx="0.5" fill="#EDECEB"/>
<rect x="137" y="87" width="5" height="1" rx="0.5" fill="#EDECEB"/>
<rect x="144" y="126" width="5" height="1" rx="0.5" fill="#EDECEB"/>
<rect x="137" y="126" width="5" height="1" rx="0.5" fill="#EDECEB"/>
<rect x="144" y="165" width="5" height="1" rx="0.5" fill="#EDECEB"/>
<rect x="137" y="165" width="5" height="1" rx="0.5" fill="#EDECEB"/>
<defs>
<filter id="filter0_ddd_14293_1567" x="84" y="24" width="224" height="226" filterUnits="userSpaceOnUse" color-interpolation-filters="sRGB">
<feFlood flood-opacity="0" result="BackgroundImageFix"/>
<feColorMatrix in="SourceAlpha" type="matrix" values="0 0 0 0 0 0 0 0 0 0 0 0 0 0 0 0 0 0 127 0" result="hardAlpha"/>
<feOffset dy="2"/>
<feGaussianBlur stdDeviation="1"/>
<feComposite in2="hardAlpha" operator="out"/>
<feColorMatrix type="matrix" values="0 0 0 0 0.372549 0 0 0 0 0.356863 0 0 0 0 0.341176 0 0 0 0.1 0"/>
<feBlend mode="normal" in2="BackgroundImageFix" result="effect1_dropShadow_14293_1567"/>
<feColorMatrix in="SourceAlpha" type="matrix" values="0 0 0 0 0 0 0 0 0 0 0 0 0 0 0 0 0 0 127 0" result="hardAlpha"/>
<feOffset dy="8"/>
<feGaussianBlur stdDeviation="6"/>
<feComposite in2="hardAlpha" operator="out"/>
<feColorMatrix type="matrix" values="0 0 0 0 0.372549 0 0 0 0 0.356863 0 0 0 0 0.341176 0 0 0 0.1 0"/>
<feBlend mode="normal" in2="effect1_dropShadow_14293_1567" result="effect2_dropShadow_14293_1567"/>
<feColorMatrix in="SourceAlpha" type="matrix" values="0 0 0 0 0 0 0 0 0 0 0 0 0 0 0 0 0 0 127 0" result="hardAlpha"/>
<feOffset dy="10"/>
<feGaussianBlur stdDeviation="20"/>
<feComposite in2="hardAlpha" operator="out"/>
<feColorMatrix type="matrix" values="0 0 0 0 0.372549 0 0 0 0 0.356863 0 0 0 0 0.341176 0 0 0 0.08 0"/>
<feBlend mode="normal" in2="effect2_dropShadow_14293_1567" result="effect3_dropShadow_14293_1567"/>
<feBlend mode="normal" in="SourceGraphic" in2="effect3_dropShadow_14293_1567" result="shape"/>
</filter>
</defs>
</svg>
