<svg width="24" height="39" viewBox="0 0 24 39" fill="none" xmlns="http://www.w3.org/2000/svg">
<path fill-rule="evenodd" clip-rule="evenodd" d="M10.9876 0.839153C16.2156 0.373467 19.1371 4.11101 19.0716 9.02372C18.9918 14.9881 20.5394 23.0887 12.8958 24.5325C5.2563 25.0734 4.63113 19.293 4.76689 13.3968C4.89185 7.97531 4.32675 2.24747 10.9876 0.839153ZM11.6663 2.07353C9.00382 2.45869 6.9881 3.98709 6.42216 6.76591C5.84686 9.59121 6.11608 12.6737 6.0706 15.5433C6.04423 19.9327 7.32023 23.513 12.472 23.2513C15.8409 22.7106 17.3546 20.7481 17.6507 17.4544C17.9382 14.2541 18.0019 10.5333 17.6282 7.34599C17.2734 4.32157 14.8304 1.87106 11.6663 2.07353Z" fill="#002A4F"/>
<path d="M10.9876 0.839153L10.9166 0.0423084L10.8689 0.0465553L10.8221 0.0564568L10.9876 0.839153ZM19.0716 9.02372L19.8715 9.03442L19.8715 9.03439L19.0716 9.02372ZM12.8958 24.5325L12.9523 25.3305L12.9986 25.3272L13.0443 25.3186L12.8958 24.5325ZM4.76689 13.3968L3.9671 13.3783L3.9671 13.3784L4.76689 13.3968ZM11.6663 2.07353L11.6152 1.27516L11.5834 1.2772L11.5518 1.28177L11.6663 2.07353ZM6.42216 6.76591L5.63826 6.60626L5.63825 6.60629L6.42216 6.76591ZM6.0706 15.5433L5.27066 15.5306L5.27062 15.5384L6.0706 15.5433ZM12.472 23.2513L12.5126 24.0502L12.5559 24.048L12.5987 24.0412L12.472 23.2513ZM17.6507 17.4544L18.4475 17.526L18.4475 17.526L17.6507 17.4544ZM17.6282 7.34599L18.4228 7.25283L18.4228 7.25278L17.6282 7.34599ZM10.9876 0.839153L11.0586 1.636C13.4543 1.4226 15.2382 2.1695 16.4268 3.45717C17.632 4.76277 18.3024 6.7097 18.2716 9.01306L19.0716 9.02372L19.8715 9.03439C19.9063 6.42504 19.1486 4.04683 17.6025 2.3719C16.0398 0.679052 13.7489 -0.20998 10.9166 0.0423084L10.9876 0.839153ZM19.0716 9.02372L18.2716 9.01302C18.2517 10.5039 18.3339 12.2046 18.3479 13.7673C18.3622 15.3741 18.3083 16.9254 18.0351 18.3194C17.7624 19.7102 17.2804 20.8956 16.4742 21.8097C15.6777 22.7129 14.51 23.4135 12.7473 23.7464L12.8958 24.5325L13.0443 25.3186C15.1034 24.9297 16.6086 24.0762 17.6742 22.8681C18.73 21.6709 19.2993 20.1876 19.6052 18.6272C19.9104 17.07 19.9624 15.3877 19.9478 13.753C19.9328 12.0743 19.8516 10.5258 19.8715 9.03442L19.0716 9.02372ZM12.8958 24.5325L12.8393 23.7345C11.0266 23.8629 9.70649 23.6106 8.73765 23.1325C7.77959 22.6598 7.10547 21.9372 6.62612 21.0109C5.63745 19.1004 5.49846 16.3779 5.56668 13.4152L4.76689 13.3968L3.9671 13.3784C3.89955 16.3119 4.00526 19.4277 5.20512 21.7463C5.82003 22.9345 6.72613 23.9241 8.02965 24.5673C9.3224 25.2052 10.9452 25.4726 12.9523 25.3305L12.8958 24.5325ZM4.76689 13.3968L5.56668 13.4152C5.63124 10.6143 5.52657 7.99621 6.19056 5.84942C6.51273 4.80781 7.00678 3.92336 7.76655 3.22013C8.52628 2.51695 9.60004 1.95021 11.1531 1.62185L10.9876 0.839153L10.8221 0.0564568C9.04473 0.432251 7.69131 1.10961 6.67972 2.04591C5.66819 2.98216 5.04679 4.13258 4.66201 5.37664C3.9121 7.80122 4.02751 10.7578 3.9671 13.3783L4.76689 13.3968ZM11.6663 2.07353L11.5518 1.28177C10.1023 1.49145 8.78231 2.01933 7.73749 2.91461C6.68613 3.81549 5.95439 5.054 5.63826 6.60626L6.42216 6.76591L7.20607 6.92556C7.45587 5.699 8.01496 4.7839 8.77857 4.12958C9.54871 3.46967 10.5678 3.04076 11.7808 2.86529L11.6663 2.07353ZM6.42216 6.76591L5.63825 6.60629C5.04329 9.52812 5.31431 12.7794 5.2707 15.5306L6.0706 15.5433L6.8705 15.5559C6.91786 12.568 6.65043 9.65431 7.20608 6.92554L6.42216 6.76591ZM6.0706 15.5433L5.27062 15.5384C5.25716 17.7782 5.5682 19.9743 6.66799 21.5913C7.81799 23.2822 9.72243 24.192 12.5126 24.0502L12.472 23.2513L12.4314 22.4523C10.0698 22.5723 8.76034 21.8227 7.991 20.6915C7.17145 19.4865 6.85767 17.6978 6.87059 15.5481L6.0706 15.5433ZM12.472 23.2513L12.5987 24.0412C14.4174 23.7493 15.8293 23.0558 16.8195 21.9077C17.802 20.7686 18.2904 19.273 18.4475 17.526L17.6507 17.4544L16.8539 17.3828C16.7149 18.9295 16.2985 20.062 15.6079 20.8627C14.925 21.6545 13.8955 22.2126 12.3452 22.4614L12.472 23.2513ZM17.6507 17.4544L18.4475 17.526C18.7382 14.2899 18.8048 10.511 18.4228 7.25283L17.6282 7.34599L16.8337 7.43915C17.199 10.5556 17.1382 14.2183 16.8539 17.3828L17.6507 17.4544ZM17.6282 7.34599L18.4228 7.25278C18.0268 3.87782 15.2726 1.04113 11.6152 1.27516L11.6663 2.07353L11.7174 2.8719C14.3882 2.70099 16.52 4.76533 16.8337 7.4392L17.6282 7.34599Z" fill="#002A4F"/>
<path d="M22.1418 17.6732C22.6491 17.822 22.9283 18.0337 22.9384 18.5864C22.9841 21.0578 21.9366 23.9243 20.421 25.8083C18.2344 28.5267 15.7607 29.336 12.4933 29.6776C12.4229 31.6735 12.4766 33.7532 12.5008 35.7565C13.6665 35.8075 18.0277 35.9787 18.6848 36.7959C18.742 37.2588 18.7727 37.0394 18.5704 37.4751C18.0664 37.7842 17.5034 37.6593 16.9612 37.5316C12.9725 36.5917 9.39552 37.3159 5.46923 37.7971C5.2391 37.8252 5.07707 37.6172 4.96501 37.4351C5.22897 36.0557 9.85468 35.8969 11.1739 35.7935L11.1695 30.9506L11.1729 29.723C6.99437 29.2449 3.33994 27.7487 1.65857 23.4995C1.21422 22.3767 0.0477471 18.2547 1.52381 17.7145C2.43677 18.1992 2.14899 21.1119 2.58188 22.2949C4.01321 26.2062 6.85337 28.0143 10.9873 28.3573C15.4888 28.7307 19.8076 26.3024 21.0946 21.7293C21.4269 20.5487 21.5486 19.4185 21.7359 18.2093C21.7746 17.9826 21.9702 17.8249 22.1418 17.6732Z" fill="#002A4F" stroke="#002A4F" stroke-width="1.6"/>
</svg>
