<svg width="318" height="272" viewBox="0 0 318 272" fill="none" xmlns="http://www.w3.org/2000/svg">
<path d="M99.9714 22.1269C100.39 22.1067 100.836 22.088 101.255 22.1021C103.899 22.1874 106.394 23.3448 108.167 25.3081C111.199 28.6695 111.314 35.9885 111.838 40.4579L114.126 60.0595C114.866 66.3468 115.571 72.6385 116.241 78.9337C116.753 83.5547 117.48 87.8436 117.123 92.5033C116.918 95.1812 116.855 97.9763 116.713 100.668C116.3 107.593 115.971 114.523 115.727 121.457C112.253 123.998 106.856 124.206 102.645 124.784C97.0436 125.57 91.4384 126.327 85.8295 127.057L46.9115 132.377L35.8306 133.836C32.7614 134.237 29.3418 134.872 26.2965 134.535C18.0317 132.561 18.4827 124.885 17.6281 117.98L15.3475 98.4123L8.91297 45.706C8.4816 41.9079 8.29736 39.0767 10.8469 35.8206C11.9931 34.3568 14.4978 32.6908 16.265 32.3624C19.2967 31.7993 22.9177 31.4707 26.0194 31.113L43.9495 28.9632L81.4704 24.3712C87.5303 23.6315 93.9251 22.7358 99.9714 22.1269Z" fill="#95CBFB"/>
<path d="M74.7743 41.1461C81.421 40.1394 88.1979 44.9428 90.4973 51.0337C92.7179 56.9158 93.2423 63.0785 94.8268 69.1474C96.7572 76.5422 100.29 83.4517 101.118 91.1197C102.205 101.297 96.9512 112.533 84.9309 108.237C81.3821 106.969 79.3137 103.441 77.9181 100.057C77.5678 100.741 77.2071 101.42 76.836 102.093C71.6411 111.365 62.2049 115.519 52.5371 109.976C44.3987 105.022 41.7743 95.3769 41.2032 86.4439C40.1057 86.5112 39.0061 86.5656 38.1603 87.3061C35.5497 89.5924 37.458 94.0735 39.9038 95.7027C40.4454 96.0634 41.0817 96.3113 41.4841 96.7992L41.3009 97.0302C40.6092 97.1516 39.8551 97.1197 39.2661 96.7036C35.8395 94.2828 34.6751 90.1797 36.7814 86.5906C31.1802 84.3242 31.0827 78.7882 31.8642 73.5572C32.825 67.0209 36.3786 61.1472 41.7229 57.2628C48.1162 52.5757 56.3386 52.0785 63.9257 53.2453C61.6249 45.0489 67.8046 41.8423 74.7743 41.1461Z" fill="black"/>
<path d="M57.1617 65.0721C57.4274 65.3877 56.9172 67.9433 57.2137 68.9003C57.6941 70.4512 59.3443 75.0953 61.1587 75.1323C61.5843 74.5306 61.1234 73.5966 60.9474 72.9054C60.2389 70.1238 60.6305 67.5844 61.5368 64.9097C62.3449 72.1551 66.1876 78.4561 73.5844 80.0306C74.1264 80.146 76.0046 80.9016 76.4235 80.8749C77.537 80.8036 78.8857 79.7963 80.1382 80.1453C82.8022 80.7018 84.4929 83.7346 83.8708 86.3363C83.1306 89.4322 80.7626 90.999 78.2564 92.5985L78.2239 92.8007C77.1112 99.4598 74.3689 104.776 68.8101 108.706C65.7107 110.772 61.9161 111.519 58.2649 110.781C53.628 109.84 49.8298 106.91 47.2488 103.007C42.919 96.3653 41.4072 88.2745 43.0465 80.517C44.4559 73.7693 47.2661 69.1723 52.9886 65.4382C51.3236 67.8054 50.4536 70.2424 51.3239 73.1909C51.4451 73.6012 51.5484 73.921 51.9205 74.0915C53.2042 70.2561 53.725 67.4242 57.1617 65.0721Z" fill="#95CBFB"/>
<path d="M57.9487 84.189C59.1192 84.628 59.7374 86.2949 59.8459 87.4588C60.1338 90.5428 59.3619 93.2839 57.4316 95.7224C57.9613 96.6518 58.9526 97.7389 58.2616 98.6025C57.3615 97.7041 56.8462 96.7082 56.2986 95.5868C61.3681 89.4739 57.3248 85.9554 57.9487 84.189Z" fill="black"/>
<path d="M52.2438 85.846C53.1703 85.7953 55.2653 86.3466 55.671 87.2291L55.4681 87.489C54.4982 87.5502 54.8801 87.0416 53.9327 86.9487C53.8631 88.0779 54.0898 89.8786 52.6702 90.0091C52.05 89.7705 51.954 89.6298 51.4796 89.184C51.3149 88.524 51.4123 87.3975 51.2011 87.1033C49.6748 87.059 48.2016 88.5091 47.0139 87.2803L47.0732 86.9984L48.2191 86.9077C49.3495 86.8249 50.8661 86.1423 52.2438 85.846Z" fill="black"/>
<path d="M71.0098 83.9752C71.2771 83.9471 71.1404 83.9236 71.4093 84.091C70.3458 85.7404 67.7708 84.5394 67.0674 85.2429C67.6525 86.541 67.1919 88.2983 65.5917 88.1679C64.9276 87.7984 64.9255 87.7321 64.5514 87.0337C64.5755 86.5612 64.5755 86.4177 64.5305 85.948L64.2206 85.8467C63.8898 86.0261 63.5623 86.2116 63.2382 86.4027C62.4279 83.5157 69.4449 84.3798 71.0098 83.9752Z" fill="black"/>
<path d="M63.7967 100.15C64.4646 100.368 64.2442 100.162 64.5343 100.728C64.1873 103.202 60.8643 103.845 58.775 102.409C58.4331 101.92 58.2636 101.649 58.4129 101.056C59.0936 100.848 60.5272 101.652 61.2253 101.993C62.2479 101.913 63.0203 100.915 63.7967 100.15Z" fill="black"/>
<path d="M49.7924 80.7073C50.5599 80.629 50.8384 80.5647 51.4471 80.9982L51.4254 81.3738C50.5865 82.3325 50.1347 82.3481 48.93 82.6781C48.2467 82.8438 47.9136 82.9446 47.3362 82.5437V82.1716C48.1568 81.0634 48.4872 81.0958 49.7924 80.7073Z" fill="black"/>
<path d="M66.5172 78.4702C67.4857 78.4289 69.2738 78.3965 69.8863 79.2971C69.773 79.9538 69.9055 79.6423 69.3128 80.1825C68.2593 80.1475 66.4454 80.1562 65.7637 79.3137C65.9537 78.7312 65.9063 78.9084 66.5172 78.4702Z" fill="black"/>
<path d="M68.3815 54.0174C68.81 53.9619 69.2038 54.2597 69.2672 54.687C69.3308 55.1142 69.0403 55.5137 68.6143 55.5852C68.3317 55.6325 68.0453 55.5235 67.8657 55.3002C67.6859 55.0767 67.641 54.7737 67.7479 54.5077C67.8549 54.2417 68.0972 54.0542 68.3815 54.0174Z" fill="#95CBFB"/>
<path d="M260.218 140.9C265.28 140.974 269.724 144.019 270.655 149.289C271.185 152.294 271.197 156.006 271.364 159.092L272.388 177.369L274.059 206.884C274.432 213.104 274.804 219.351 275.104 225.579C275.263 228.859 274.494 231.567 272.185 233.989C270.686 235.586 268.73 236.681 266.585 237.123C264.626 237.533 258.749 237.684 256.428 237.816C249.544 238.261 242.656 238.657 235.766 239.003C217.86 239.893 199.437 241.255 181.549 241.797C178.461 241.927 176.298 241.406 173.844 239.36C169.849 236.03 170.161 230.463 169.868 225.726L169.052 211.417L166.134 159.526C174.254 157.84 179.441 153.214 181.239 144.974C188.706 144.929 198.703 144.105 206.227 143.699C224.219 142.674 242.216 141.742 260.218 140.9Z" fill="#FED57D"/>
<path d="M218.08 156.494C223.675 156.326 230.008 159.383 235.407 160.898C239.292 161.988 242.954 162.964 247.014 163.252C247.852 163.31 249.53 163.488 250.055 164.141C250.068 165.731 246.677 170.098 245.559 171.54C251.117 175.48 249.822 181.905 248.26 187.521C254.517 192.981 250.507 200.131 244.428 203.309C243.828 205.672 243 207.972 241.958 210.176C236.406 221.791 225.938 226.979 213.924 221.239C202.52 214.574 199.749 203.842 199.809 191.393C193.532 190.57 193.167 196.464 196.115 200.531C196.849 201.544 199.241 202.743 199.323 203.58C195.413 204.8 188.651 192.743 196.826 189.926C195.236 185.516 193.91 180.716 196.006 176.251C197.831 172.362 200.777 171.205 204.506 173.094C202.583 168.858 204.208 164.972 207.116 161.646C210.026 158.317 213.689 156.765 218.08 156.494Z" fill="black"/>
<path d="M243.647 187.816C248.425 187.497 250.799 191.192 249.661 195.686C248.749 199.285 245.731 200.672 242.766 202.332C240.282 216.478 226.102 228.072 212.417 218.593C206.078 214.202 202.959 207.506 201.62 200.07C201.144 196.817 201.144 194.836 201.103 191.551C202.588 192.147 202.923 192.418 204.05 193.463C204.078 194.904 204.035 196.452 204.268 197.875C204.438 198.91 204.746 199.972 205.648 200.605C207.8 202.115 216.729 200.45 217.192 200.781C217.077 201.115 216.916 201.58 217 201.935C217.231 202.908 218.923 206.337 220.051 206.104C220.124 205.088 218.719 202.56 218.203 201.523C218.952 199.69 220.004 197.491 220.385 195.559C220.591 194.514 219.987 191.626 220.378 190.81L220.669 190.886C222.51 192.615 221.399 196.116 222.023 198.529C222.176 199.114 222.339 200.075 222.973 200.334C225.487 201.359 232.592 200.735 235.107 200.339C238.776 199.761 236.694 193.491 238.719 190.913C240.291 188.911 241.199 188.38 243.647 187.816Z" fill="#FED57D"/>
<path d="M220.38 211.061C223.088 210.929 224.558 213.421 222.116 215.448C221.756 215.52 221.562 215.553 221.197 215.522C220.563 215.469 219.982 215.141 219.607 214.627C218.639 213.297 219.19 211.971 220.38 211.061Z" fill="black"/>
<path d="M207.608 206.87C207.944 206.92 208.09 206.963 208.421 207.05C208.577 207.285 208.697 207.509 208.698 207.799C208.707 209.151 209.272 212.132 208.482 213.172C206.81 212.085 206.973 208.526 207.608 206.87Z" fill="black"/>
<path d="M210.563 210.283C210.873 210.41 211.24 210.495 211.314 210.888C211.559 212.195 212.272 215.544 211.9 216.68L211.36 216.578C210.177 215.769 210.088 211.542 210.563 210.283Z" fill="black"/>
<path d="M219.725 207.918C220.075 208.132 219.999 208.087 220.294 208.382C220.376 209.219 219.783 210.298 218.947 210.576C218.399 210.285 218.645 210.488 218.323 209.779L217.951 209.894C217.494 210.634 217.389 210.734 216.735 211.311C216.567 211.265 216.436 211.183 216.277 211.1C216.044 210.141 217.158 208.42 218.075 208.182C218.512 208.499 218.373 208.403 218.532 209.085C218.733 209.066 219.518 208.141 219.725 207.918Z" fill="black"/>
<path d="M222.036 215.82C223.204 216.212 224.678 220.406 224.279 221.542C222.982 220.882 222.455 218.951 222.008 217.647C221.73 216.834 221.629 216.572 222.036 215.82Z" fill="black"/>
<path d="M213.086 213.016C213.737 213.099 213.476 212.965 213.924 213.368C214.34 214.451 215.093 217.289 214.669 218.369C214.143 218.401 214.374 218.463 213.944 218.213C213.212 217.044 212.853 214.338 213.086 213.016Z" fill="black"/>
<path d="M225.232 215.606L225.77 215.738C226.495 216.302 227.71 219.478 227.358 220.429C225.629 220.119 224.819 217.073 225.232 215.606Z" fill="black"/>
<path d="M216.155 214.763C217.141 215.381 217.298 216.734 217.658 217.866C217.958 218.816 218.004 219.07 217.555 219.827C216.032 219.015 215.283 216.178 216.155 214.763Z" fill="black"/>
<path d="M237.599 205.819C237.995 205.918 238.295 205.894 238.427 206.312C238.833 207.601 239.263 209.814 238.78 211.03C238.317 210.957 238.466 211.01 238.073 210.789C237.474 209.589 237.213 207.056 237.599 205.819Z" fill="black"/>
<path d="M218.937 216.449L219.432 216.518C220.347 217.19 221.468 220.108 221.062 221.26C219.591 220.967 218.728 217.791 218.937 216.449Z" fill="black"/>
<path d="M235.34 208.725C235.799 208.783 235.777 208.761 236.152 209.023C236.872 210.226 236.824 212.41 236.694 213.789C236.401 213.74 236.008 213.676 235.871 213.435C235.294 212.403 235.11 209.81 235.34 208.725Z" fill="black"/>
<path d="M232.973 210.977C233.434 210.984 233.446 210.941 233.825 211.184C234.584 212.377 234.605 214.446 234.428 215.824C233.998 215.755 234.116 215.781 233.713 215.609C232.999 214.634 232.855 212.151 232.973 210.977Z" fill="black"/>
<path d="M230.536 213.03C230.856 213.082 231.254 213.123 231.431 213.385C232.108 214.384 232.611 216.562 232.416 217.735C230.848 217.574 230.373 214.29 230.536 213.03Z" fill="black"/>
<path d="M228.4 214.307C229.312 214.848 229.72 216.696 229.963 217.703C230.106 218.293 229.963 218.408 229.655 218.864C228.719 218.252 228.015 216.552 227.917 215.45C227.862 214.833 228.03 214.747 228.4 214.307Z" fill="black"/>
<path d="M239.336 202.759C240.526 203.347 240.976 206.622 240.239 207.731C239.113 207.157 238.735 203.69 239.336 202.759Z" fill="black"/>
<path d="M240.68 199.309C241.217 199.489 241.335 199.4 241.52 199.844C241.978 200.937 242.175 202.552 241.808 203.676C241.422 203.561 241.259 203.602 241.088 203.338C240.485 202.404 240.541 200.37 240.68 199.309Z" fill="black"/>
<path d="M215.741 208.6C217.086 209.059 214.995 211.395 214.525 212.055C214.272 211.968 214.272 211.932 214.047 211.767C213.814 210.615 214.995 209.39 215.741 208.6Z" fill="black"/>
<path d="M224.908 207.87C226.186 208.146 226.76 210.242 226.699 211.386C225.439 211.044 224.615 209.102 224.908 207.87Z" fill="black"/>
<path d="M204.897 204.438C205.255 204.529 205.581 204.526 205.701 204.875C206.014 205.798 205.946 207.175 205.57 208.026C205.19 207.882 205.212 207.87 204.917 207.582C204.472 206.351 204.681 205.717 204.897 204.438Z" fill="black"/>
<path d="M223.231 207.875C224.433 208.079 224.938 209.603 224.722 210.669C223.461 210.376 223.007 209.042 223.231 207.875Z" fill="black"/>
<path d="M221.679 207.887C222.962 208.298 222.885 209.145 222.47 210.183C221.231 209.808 221.329 208.888 221.679 207.887Z" fill="black"/>
<path d="M208.326 172.64C211.038 175.245 211.871 176.714 215.615 178.45C222.978 181.862 228.743 181.465 236.121 179.028C236.903 182.822 237.607 184.693 239.926 187.816C239.484 188.181 238.816 188.841 238.295 188.922C237.587 188.615 237.277 187.845 236.769 187.324C235.708 186.234 232.81 186.179 231.381 186.089C232.204 185.763 234.36 185.187 234.365 184.298C233.187 183.65 232.975 184.663 231.688 184.728L231.21 184.157C230.281 183.926 227.405 184.287 226.473 184.575C225.854 184.25 225.888 184.241 225.201 184.203C224.392 184.611 223.413 185.189 222.911 185.948C222.82 186.63 222.801 186.366 223.191 187.06C222.476 187.94 222.013 188.286 221.768 189.437C221.754 189.501 221.535 189.964 221.552 189.967C220.423 189.724 220.2 189.684 219.225 190.101C218.735 190.008 217.024 185.288 214.601 184.918C214.248 185.391 214.383 185.31 213.924 185.619C213.014 185.196 213.341 184.546 212.035 184.555L211.83 184.786L211.888 185.657C211.123 185.418 211.027 184.747 209.975 184.438C209.492 184.556 209.651 184.418 209.418 184.779C209.588 185.41 210.236 185.941 210.716 186.43C209.747 186.34 209.177 185.132 207.989 185.542C207.924 185.808 207.864 186.073 207.805 186.34C206.817 186.089 206.991 185.945 206.323 186.287L206.27 186.582L206.65 187.021C206.602 187.564 205.502 187.82 204.955 188.723C204.421 189.602 204.29 190.128 203.972 191.084C202.835 190.581 202.337 190.433 201.135 190.106C202.035 183.585 203.992 177.693 208.326 172.64Z" fill="#FED57D"/>
<path d="M229.168 187.347C230.575 187.338 234.707 187.338 235.583 188.087C237.004 189.304 236.31 197.367 235.369 198.768C234.161 199.532 232.012 199.486 230.517 199.583C229.004 199.623 225.228 199.822 223.917 199.518C222.846 198.723 223.014 195.77 222.956 194.524C222.647 187.876 222.659 187.729 229.168 187.347Z" fill="#FED57D"/>
<path d="M229.449 190.224C230.853 190.181 234.476 190.358 235.403 191.409L235.378 191.811C234.262 192.744 232.471 191.395 230.785 191.741C230.714 192.193 230.601 192.639 230.445 193.071C230.204 193.762 229.89 193.873 229.256 194.19C227.252 193.601 228.102 192.924 227.556 192.116C226.774 192.62 225.276 193.684 224.436 193.798L224.282 193.642C224.719 191.59 227.631 190.572 229.449 190.224Z" fill="black"/>
<path d="M212.398 187.854C217.134 187.54 217.955 188.4 217.578 192.867C215.596 191.436 213.581 190.789 211.092 191.269C209.963 191.485 207.648 191.953 207.048 192.915C207.247 193.463 207.077 193.245 207.608 193.561C208.035 193.535 210.407 192.724 211.166 192.527C211.284 193.705 211.396 194.832 212.844 195.081C214.128 194.807 214.284 193.778 214.302 192.675L214.501 192.514L215.331 192.733C215.924 193.115 216.71 193.794 217.281 194.253C216.285 198.762 218.239 200.157 211.963 200.056C210.164 200.027 207.831 200.433 206.138 199.621C204.94 198.173 204.88 190.894 206.193 189.211C207.101 188.046 210.897 187.956 212.398 187.854Z" fill="#FED57D"/>
<path d="M219.053 192.351C219.538 193.892 219.021 195.743 218.448 197.201L218.395 197.206C218.159 196.668 218.904 193.177 219.053 192.351Z" fill="#FED57D"/>
<path d="M231.866 25.6865C235.681 25.4596 238.877 26.1929 242.627 26.7967L250.553 27.9974L286.558 33.5545L302.184 35.9688C304.858 36.3601 307.948 36.6064 310.52 37.26C314.796 38.315 318.373 43.1378 317.969 47.5531C317.566 51.9451 316.832 56.5648 316.181 60.9498L312.496 85.6355C311.005 96.1267 309.458 106.61 307.857 117.085C307.197 121.418 306.678 126.513 305.605 130.69C304.878 133.52 302.465 135.766 299.879 137.092C298.77 137.577 296.923 138.119 295.718 138.026C291.212 137.685 286.469 136.804 281.989 136.16C271.903 134.785 261.834 133.299 251.782 131.704L230.137 128.456C227.506 128.068 224.867 127.673 222.236 127.29C219.321 126.866 216.695 126.559 214.525 124.328C214.517 121.954 214.784 118.97 214.935 116.563L215.728 103.495C216.164 96.0645 216.484 88.5772 216.937 81.155C217.11 78.3289 217.927 74.0325 218.359 71.1644L220.753 54.6412L222.601 41.4935C223.573 34.4574 223.518 27.7135 231.866 25.6865Z" fill="#E9D9FA"/>
<path d="M271.889 45.2532C275.212 45.1857 276.551 45.767 279.197 47.5962C283.127 45.4999 289.164 49.1846 289.946 53.3511C290.117 54.2714 290.109 55.209 290.109 56.1424C293.286 55.9316 296.302 57.1402 296.345 60.7139L296.119 60.924C294.539 60.1804 293.56 57.3004 291.084 57.6938L291.075 58.037C291.828 59.3517 292.203 60.2326 292.066 61.7747C291.411 69.16 284.326 69.6865 278.794 69.3134C281.031 70.6536 286.17 73.4159 288.525 70.1763C288.813 69.7795 288.784 69.7074 289.19 69.3578C289.882 69.3435 289.6 69.2383 290.107 69.5571C290.565 70.8382 289.281 72.3722 288.15 72.8709C285.961 73.8358 283.721 73.237 281.593 72.5007C282.376 74.5085 282.462 75.4698 282.467 77.6011C284.618 81.067 285.618 83.6808 283.774 87.7158C288.81 93.3473 284.893 99.1762 278.741 101.07C275.303 109.206 268.686 115.833 259.387 115.804C254.588 115.062 251.661 113.817 248.257 110.106C243.864 105.317 241.921 98.3157 241.971 91.9274C241.988 89.7873 242.402 87.377 242.516 85.1572C241.816 84.1934 239.782 84.7615 238.997 85.3582C237.926 86.1733 237.633 87.8762 237.479 89.1006C237.213 91.2274 238.33 92.4233 239.648 93.8808C240.01 94.301 240.471 94.815 240.428 95.3451C240.248 95.4205 240.08 95.5429 239.911 95.4577C235.924 93.4679 234.651 86.1622 238.898 83.7671C240.255 83.0019 241.456 83.3195 242.726 83.6934C243.323 78.5922 245.746 68.3893 252.055 67.8144C253.993 64.848 254.871 64.122 258.458 63.9528C256.944 63.08 253.186 60.5701 254.444 58.4852C256.615 58.7351 256.715 63.3335 263.767 63.0992C260.836 58.7239 260.17 52.2525 265.76 49.6526C266.012 49.2663 266.273 48.8872 266.547 48.5157C268.077 46.4671 269.378 45.6116 271.889 45.2532Z" fill="black"/>
<path d="M254.432 72.7581L254.59 72.9341C253.829 78.9681 260.086 74.8404 262.367 73.3971L262.333 73.5269L262.278 73.7439C260.926 78.9835 265.226 77.8774 268.376 76.6988C268.359 82.2097 271.032 81.72 274.714 79.1993C274.64 82.8918 275.096 85.5408 278.006 88.1476C279.619 87.8466 280.583 87.6091 282.188 88.3255C283.267 88.7999 284.109 89.6904 284.522 90.7948C286.364 95.7335 281.206 98.5848 277.427 99.9089C275.908 103.502 275.274 104.81 272.777 107.806C271.766 109.023 270.595 110.098 269.298 111.004C261.527 116.532 252.657 114.954 247.309 107.025C241.839 98.9106 241.847 87.6473 245.957 78.9638C246.267 78.3086 246.941 77.0906 247.517 76.6975C247.662 76.7311 248.285 76.8678 248.384 76.8598C250.257 76.7084 252.992 73.9368 254.432 72.7581Z" fill="#E9D9FA"/>
<path d="M254.221 86.3839C254.799 86.3388 255.82 86.2012 256.314 86.5484C257.899 87.6636 257.527 90.3283 256.446 91.6623C256.06 92.1365 255.728 92.1908 255.164 92.2186C253.719 91.5202 254.615 88.8112 254.805 87.5791L254.362 87.5085C251.107 88.5412 251.925 88.8717 249.47 90.7982C249.284 90.9445 249.191 90.8347 248.939 90.7291L248.821 90.3965C249.834 88.0423 251.808 86.8919 254.221 86.3839Z" fill="black"/>
<path d="M267.185 87.9122C274.175 87.2412 270.727 94.3599 268.561 93.0185C267.94 91.923 268.268 90.37 268.593 89.2063L268.662 88.9713C266.187 89.2099 265.335 90.5885 263.185 91.97L263.006 91.8829C262.664 90.1777 265.85 88.4234 267.185 87.9122Z" fill="black"/>
<path d="M259.459 84.9844C260.019 85.1472 259.786 85.0061 260.19 85.4109C260.122 86.0776 259.752 87.2259 259.551 87.8912C258.448 91.5509 257.642 95.2223 256.833 98.9552C257.969 99.0078 259.298 98.8916 260.074 99.6205L260.083 100.126C259.145 100.23 256.66 100.267 255.928 99.6404C255.483 97.5575 258.675 87.0511 259.459 84.9844Z" fill="black"/>
<path d="M266.045 83.619C267.066 83.5563 267.669 83.5325 268.658 83.8857C269.806 84.2963 272.163 85.4684 272.362 86.744L272.017 86.7869C271.039 86.4638 270.345 85.7781 269.531 85.1155C265.14 83.0353 264.74 85.6487 262.272 85.6751L262.182 85.4095C262.828 84.237 264.807 83.8533 266.045 83.619Z" fill="black"/>
<path d="M253.272 104.294C254.171 104.436 255.75 106.184 257.263 106.805C260.61 108.178 263.27 105.212 264.64 105.144L264.857 105.539C262.112 107.68 259.34 108.448 255.94 107.022C254.929 106.598 253.637 105.339 253.272 104.294Z" fill="black"/>
<path d="M252.401 81.7407C254.569 81.6274 257.201 82.4538 258.444 84.3358C258.703 84.7275 258.795 84.7022 258.72 85.1356C257.717 85.1015 256.706 83.7908 255.402 83.0269C251.006 81.2267 250.596 83.7714 248.168 83.7142L248.135 83.501C249.008 82.4086 251.064 81.9938 252.401 81.7407Z" fill="black"/>
<path d="M280.514 48.5002C282.254 48.3911 284.052 48.7321 285.517 49.7176C286.931 50.6619 287.904 52.1361 288.216 53.8071C288.756 56.717 287.344 59.1351 285.742 61.3745L285.616 61.4076L285.55 61.2431C285.851 60.7656 286.136 60.2772 286.403 59.7786C288.189 56.4963 288.777 53.8433 285.577 51.2535C283.889 49.8869 282.538 49.6199 280.809 48.6668L280.514 48.5002Z" fill="#FEFEFE"/>
<path d="M265.293 51.4863C265.567 51.6406 265.486 51.7127 265.347 51.8987C262.994 55.0232 264.062 58.9549 266.619 61.5801C267.143 62.1181 267.822 62.6077 268.348 63.1508L268.545 63.3587C264.151 61.7282 261.27 55.1748 265.293 51.4863Z" fill="#FEFEFE"/>
<path d="M272.151 47.1248C277.185 47.0437 279.772 49.805 282.04 53.8579C281.526 53.3688 281.104 52.8397 280.647 52.2975C277.577 48.5543 275.154 47.2996 270.365 48.003L270.48 47.739C271.2 47.3478 271.339 47.3298 272.151 47.1248Z" fill="#FEFEFE"/>
<path d="M290.017 60.0586C290.447 60.6458 290.519 61.8807 290.356 62.5771C289.885 64.5812 288.469 65.7489 286.839 66.8337L286.599 66.693C288.925 64.5596 289.681 63.1944 290.017 60.0586Z" fill="#FEFEFE"/>
<path d="M67.4504 138.492C69.1757 138.338 74.0077 138.821 75.927 138.977L91.0389 140.209L146.093 144.53C146.643 147.128 147.293 149.301 148.741 151.577C151.276 155.533 155.277 158.321 159.864 159.33C159.439 166.738 158.579 174.971 157.871 182.387L156.24 201.076L154.755 218.661C154.466 222.137 154.234 225.692 153.75 229.142C153.001 234.484 149.853 237.731 144.741 238.938C142.719 239.138 138.314 238.682 136.132 238.506L121.906 237.377L80.7861 234.191L68.2783 233.231C66.0267 233.068 62.7048 232.922 60.5284 232.609C59.1008 232.408 57.7405 231.875 56.5581 231.049C50.484 226.869 52.1639 220.118 52.6689 213.823L54.4159 192.683L56.7258 163.557C57.1431 158.302 57.4906 153.034 58.1152 147.798C58.7289 142.653 62.331 139.112 67.4504 138.492Z" fill="#A6E3B0"/>
<path d="M104.404 155.041C106.005 154.967 106.435 155.488 107.46 156.623C108.358 155.831 108.492 155.743 109.592 155.217C112.266 155.671 111.119 157.13 113.748 155.248C114.455 154.741 115.374 156.061 116.09 156.559C117.431 156.612 118.474 154.864 119.792 156.369C122.131 159.041 122.007 154.773 125.099 158.321C126.333 158.407 127.87 157 129.103 158.299C130.724 160.006 128.988 160.64 129.027 161.985C130.044 163.886 129.386 163.831 128.391 165.269C128.594 165.603 128.79 165.942 128.977 166.287C130.158 168.499 128.132 168.534 127.721 169.872C128.17 171.927 128.003 172.066 126.617 173.555C127.711 175.379 127.094 176.032 125.79 177.37C128.041 179.787 126.117 179.686 125.959 181.602C125.769 183.917 126.606 183.276 125.25 185.612C128.308 187.223 129.619 189.499 128.686 193.002C127.788 196.372 125.209 198.293 122.329 199.926C122.258 202.001 122.206 204.005 121.911 206.067C121.148 211.381 118.168 219.601 111.433 218.374C109.221 222.249 106.606 223.13 102.487 221.591C99.6739 224.185 96.0572 224.324 93.8987 220.866C93.0565 220.708 92.2213 220.489 91.3886 220.285C87.1825 218.499 89.1815 217.124 87.6084 214.963C85.5988 212.202 83.5853 212.716 84.324 207.597C81.0761 202.615 83.7917 198.533 84.4817 193.288C84.5492 192.774 84.2675 186.904 84.3088 186.939C80.8826 184.059 78.2677 191.12 80.3762 193.749C81.112 194.668 83.3067 196.197 83.3432 197.036C81.1754 198.135 77.3107 191.998 78.4008 189.446C79.132 187.736 78.662 187.053 80.5402 185.638C82.1341 184.438 83.2661 185.456 84.1439 185.134C83.2369 183.17 83.8121 184.106 84.0368 182.597C82.3439 181.036 82.828 180.848 83.4335 178.966C82.55 176.793 81.6983 177.441 83.386 175.027C82.3248 173.44 81.5958 173.449 82.9192 171.471C83.325 170.866 81.1519 169.245 82.3082 167.949C83.222 166.924 81.422 166.265 81.1294 165.089C80.6189 164.359 82.0189 162.158 81.8751 161.855C80.7258 159.437 81.0148 156.42 84.3519 156.354C84.8347 156.345 86.3686 157.185 86.8457 156.832C89.1832 155.102 89.9992 154.362 92.081 157.121C93.0489 156.196 94.4067 154.895 95.6783 155.817C98.8239 158.093 98.2256 153.786 102.019 156.893C102.991 155.947 103.281 155.706 104.404 155.041Z" fill="black"/>
<path d="M96.7615 170.032C102.179 169.545 108.178 170.606 113.523 171.033C113.895 173.689 114.308 176.339 114.764 178.981C115.648 179.029 117.048 178.966 117.965 178.951C118.083 181.131 118.516 183.139 118.927 185.275C115.61 184.634 108.862 184.757 105.169 184.515C102.88 185.081 103.718 186.32 101.986 186.689C101.378 186.293 101.382 185.443 100.776 185.009C99.4889 184.09 89.6517 184.029 87.8679 184.366C86.7186 184.586 86.3483 185.491 85.7603 186.396C86.4946 181.427 89.532 173.55 93.5817 170.371C94.6 170.205 95.727 170.128 96.7615 170.032Z" fill="#A6E3B0"/>
<path d="M91.3417 180.592C91.6474 180.582 91.9537 180.586 92.2593 180.603C93.9604 180.712 97.5391 181.598 98.7597 182.995C99.1256 183.413 98.9881 183.66 98.9115 184.135C97.6462 184.005 96.3766 183.223 95.1036 182.767C93.7882 182.298 92.7008 181.97 91.3602 181.59C91.0886 181.139 91.1727 181.292 91.3417 180.592Z" fill="black"/>
<path d="M111.873 181.338C112.552 181.389 112.956 181.319 113.297 181.948C112.816 182.62 108.764 183.504 107.344 184.049C106.713 184.26 106.312 184.484 105.835 183.907C106.282 181.922 110.151 181.492 111.873 181.338Z" fill="black"/>
<path d="M85.5579 187.468C87.8346 188.075 84.4857 194.269 90.3467 194.164C91.9397 194.137 96.5348 194.42 98.3943 194.502L98.2761 194.716C96.3669 198.212 96.5527 200.984 101.486 199.882C101.788 199.813 101.747 199.71 101.858 199.443C101.166 198.296 98.9736 199.388 98.3003 198.444C97.0975 196.755 101.62 192.963 101.602 191.014L101.426 190.899C101.075 191.131 100.798 191.312 100.431 191.52C100.553 190.716 101.136 188.779 101.913 188.505C103.604 188.98 103.536 193.194 104.728 194.354C105.369 194.978 109.069 194.886 110.153 194.944C112.636 195.061 115.301 195.237 117.765 195.098C116.524 196.43 116.322 197.273 116.03 198.995C114.145 199.734 113.877 200.015 112.453 201.472C110.379 201.859 110.293 201.78 108.849 203.501C107.187 202.403 105.13 201.443 103.146 201.715C101.587 201.93 101.625 202.221 100.184 201.47C97.5076 201.729 96.8889 201.94 94.6769 203.412C94.0122 202.694 92.1495 201.652 92.1395 201.636C91.1047 199.933 91.0083 199.921 88.9577 199.194C88.5873 198.044 86.2662 193.592 85.5101 192.791C85.4724 191.062 85.5329 189.206 85.5579 187.468Z" fill="#A6E3B0"/>
<path d="M104.464 185.683C106.49 185.585 117.684 185.713 118.702 186.803C118.938 188.308 117.893 191.53 117.42 193.071C117.253 193.333 116.719 194.065 116.456 194.08C114.294 194.212 107.555 194.091 105.778 193.549C104.777 192.449 103.579 187.042 104.464 185.683Z" fill="#A6E3B0"/>
<path d="M106.823 186.035C108.782 186.394 113.774 187.897 113.913 190.349L113.659 190.584C112.803 190.527 112.964 190.459 112.136 189.931C111.571 189.509 111.659 189.434 111.069 189.381C110.289 189.998 110.328 190.421 109.809 191.223C109.627 191.487 109.283 191.71 108.951 191.646C107.118 191.302 107.636 189.04 107.854 187.763C107.267 187.61 107.225 187.631 106.706 187.281C106.531 186.808 106.68 186.527 106.823 186.035Z" fill="black"/>
<path d="M88.3982 185.251C91.9648 185.074 96.2119 185.731 99.8317 185.818C101.383 185.857 98.8863 192.007 98.608 192.84C97.9679 193.691 89.6856 193.169 88.5253 192.752C87.4583 191.383 87.5092 188.133 87.5646 186.418C87.5832 185.837 88.0083 185.542 88.3982 185.251Z" fill="#A6E3B0"/>
<path d="M96.5945 186.262C97.37 186.198 97.4769 186.19 98.2365 186.306C98.7755 186.718 98.6076 186.457 98.7651 187.108C98.3414 187.515 98.1707 187.398 97.4317 187.491C96.7762 188.06 97.8324 190.764 96.3263 191.309C94.6361 191.921 94.348 190.606 93.9468 189.365L93.9903 188.966C93.1027 189.179 92.478 190.605 91.6326 190.416C91.2659 189.898 91.3371 190.174 91.3824 189.566C92.3219 187.989 94.8599 186.748 96.5945 186.262Z" fill="black"/>
<path d="M122.809 186.588C126.171 186.269 127.916 188.968 127.383 192.063C126.948 194.588 125.392 196.199 123.372 197.56C122.761 197.89 122.998 197.921 122.534 197.8C121.801 196.087 122.876 191.554 120.558 190.929C120.194 191.038 119.921 191.109 119.551 191.191C119.516 190.478 120.176 188.404 120.443 187.65C121.462 187.064 121.712 186.965 122.809 186.588Z" fill="#A6E3B0"/>
<path d="M100.253 205.609C100.769 205.597 101.285 205.602 101.801 205.622C102.684 205.665 103.717 205.643 104.3 206.291C104.131 206.807 104.064 206.716 103.538 207.11C102.391 207.266 100.317 207.518 99.5361 206.534C99.6594 205.924 99.6323 206.111 100.253 205.609Z" fill="#A6E3B0"/>
<path d="M130.838 29.811C132.681 29.6554 137.428 30.0703 139.51 30.2045C144.564 30.5353 149.62 30.839 154.678 31.1159L205.975 33.7388C212.863 34.1307 217.074 38.3689 216.789 45.4427C216.693 47.8162 216.548 50.231 216.422 52.6065L215.447 70.509C214.558 88.3803 213.572 106.247 212.489 124.107C212.265 127.338 211.298 129.74 208.818 131.93C205.252 135.083 201.022 134.324 196.638 134.016C190.962 133.834 184.967 133.429 179.27 133.152C178.067 130.955 176.418 129.034 174.428 127.514C170.655 124.654 165.897 123.416 161.206 124.073C156.226 124.818 152.249 127.546 149.304 131.549C147.139 131.177 144.079 131.173 141.796 131.075L131.497 130.543C128.732 130.404 126.058 130.482 123.475 129.348C120.745 128.278 118.135 124.867 117.838 121.876C117.515 118.638 117.937 114.344 118.119 110.983L119.161 91.3362L120.772 57.0872C121.058 51.1791 121.288 45.289 121.759 39.3913C122.179 34.1446 125.73 30.6453 130.838 29.811Z" fill="#FE8679"/>
<path d="M154.221 52.8845C154.993 52.8377 155.573 52.8024 156.204 53.2593C157.866 54.4621 157.784 52.9472 159.477 52.9138C160.228 52.6833 161.369 54.2189 161.715 54.2689C163.623 54.544 164.783 53.5381 165.647 56.0019C165.801 56.4398 167.09 56.2904 167.611 56.4724C168.482 56.7773 168.286 57.1932 168.874 57.6935C169.251 57.299 169.633 56.9087 170.021 56.523C170.357 56.4218 170.713 56.3754 171.025 56.5017C172.477 57.1128 171.949 55.3699 173.234 54.8302C174.346 54.3632 174.742 54.8192 175.882 55.004C178.612 52.5803 178.033 53.5851 180.504 54.6247C180.722 54.7159 182.696 53.4459 183.628 53.9366C184.424 54.3556 184.453 54.3286 184.914 55.2167C185.757 56.943 186.379 55.0398 187.959 55.5665C188.883 55.8746 189.228 57.241 189.613 58.2143C191.545 58.5004 195.096 56.7884 193.879 61.2317C196.7 61.7467 200.589 62.7371 197.402 66.081C199.298 66.9369 202.602 68.3977 201.38 70.9916L200.991 71.8348C201.73 73.3917 206.971 74.4875 202.983 77.4879C203.086 77.5744 203.187 77.6625 203.288 77.7522C205.19 79.4603 206.129 80.9815 204.213 83.0116C206.302 85.3342 206.229 86.5974 203.966 88.4771C203.972 89.5204 206.577 92.5941 203.262 93.5516C203.262 93.5516 202.859 93.6481 202.842 93.6683C202.314 94.2732 203.389 95.9111 203.159 96.7496C202.948 97.895 201.913 99.2049 200.611 98.911C200.205 98.8191 200.41 98.8395 199.987 98.8484C199.348 100.539 200.679 104.674 196.576 104.178L196.261 104.138C194.539 105.955 196.383 108.669 191.353 108.057C190.446 108.726 190.427 110.914 188.573 111.016C187.995 111.047 186.78 110.297 186.431 110.725C184.401 113.212 184.396 112.895 182.064 111.192C181.661 111.693 181.344 112.139 180.974 112.665C179.073 113.997 178.432 113.836 176.706 112.39C172.984 116.628 173.011 113.288 171.462 112.858C170.722 113.074 170.47 113.888 169.813 114.334C168.608 115.153 167.41 113.87 166.865 113.575C166.247 113.24 165.342 115.036 163.789 114.377C162.776 113.948 162.473 113.232 161.88 112.736C161.491 112.409 160.13 114.243 159.02 113.887C157.82 113.503 157.15 112.489 156.603 111.478C152.359 114.913 152.829 110.716 151.029 110.351C148.504 112.071 147.852 111.01 146.716 108.565C143.912 110.576 143.335 108.022 142.204 105.986C138.343 106.775 138.993 103.675 137.902 101.725C134.207 101.965 134.586 99.8955 134.388 96.8129C133.767 96.0057 132.357 97.0631 131.809 95.3436C131.245 93.5739 131.806 92.6123 132.506 91.0882C131.916 90.5295 131.252 90.9415 130.388 90.2148C129.13 88.1771 131.304 87.0077 131.235 85.6666L131.115 85.5643C128.708 83.4875 129.717 82.2972 131.822 80.3927C129.578 78.381 131.064 76.5926 132.996 75.1348C130.611 72.4849 133.269 70.7873 135.523 69.5056C135.442 69.3981 135.363 69.2888 135.286 69.1777C133.266 66.2186 137.033 64.9807 138.785 63.9289C139.439 62.7993 135.989 59.3941 143.576 59.4267C143.076 55.9872 145.164 55.8383 147.91 56.5788C149.033 53.7911 149.758 53.468 152.346 54.867L152.433 54.7496L152.581 54.5562C153.251 53.6699 153.323 53.5532 154.221 52.8845Z" fill="black"/>
<path d="M168.581 64.425C168.867 64.7928 169.355 65.5425 169.852 65.6246C172.401 66.0467 170.156 71.5765 174.048 69.5878C174.295 72.1241 174.151 74.1666 177.09 74.7108C176.749 77.3401 176.401 79.6284 178.802 80.1823C179.793 80.4108 178.593 83.5843 179.279 84.6299C180.074 85.8455 180.225 85.5131 181.555 86.0438C181.976 86.8625 182.797 89.9006 183.399 91.3538C181.681 95.274 179.993 98.6528 176.492 101.284C168.992 106.918 161.618 104.888 156.169 97.8996C154.28 95.2375 153.362 92.985 152.531 89.8773C153.172 88.4043 153.712 86.6541 153.96 85.2544C154.196 83.9216 156.817 86.2987 157.018 82.2516C157.866 81.7613 158.161 81.3092 158.925 81.9263C159.084 82.4921 159.144 83.0326 159.575 83.3862C161.542 84.0347 161.612 82.4902 162.13 81.2783C163.121 81.2931 163.246 82.3546 164.24 81.5179C164.764 79.8949 160.824 79.2939 159.669 79.5571C158.776 79.7607 157.41 80.522 156.656 80.2355L156.639 79.9498C157.242 79.1102 157.791 79.1876 158.781 78.9369C159.559 78.2567 159.585 77.5658 159.758 76.5499C161.107 76.8633 165.247 78.1994 165.978 76.8956C165.253 75.2206 160.863 75.3003 159.616 74.1207C160.07 73.4352 160.848 74.163 161.82 72.7971C162.63 71.656 162.231 70.1578 163.133 69.3071C165.926 69.4781 165.816 67.9776 166.144 65.6062C167.517 65.4878 167.657 65.4388 168.581 64.425Z" fill="#FE8679"/>
<path d="M172.615 79.8551C174.751 79.6537 177.669 80.1111 178.612 82.33L178.513 82.5532C177.741 82.7295 176.869 82.309 176.187 81.9828L175.978 81.8819C175.618 82.087 175.644 82.3576 175.462 82.8771C174.872 83.6704 174.439 84.1265 173.505 83.7165C172.991 83.1122 172.852 82.4238 172.603 81.6543C171.53 81.4591 171.167 82.5487 169.988 81.7914V81.4791C170.674 80.5826 171.589 80.2075 172.615 79.8551Z" fill="black"/>
<path d="M165.993 77.7935L166.533 77.9715C166.764 78.5482 165.011 89.3598 164.833 90.8717C165.796 90.785 166.569 90.5151 167.503 90.7127C167.9 91.1487 167.792 90.8971 167.822 91.4996C166.697 91.8304 165.138 91.7519 163.976 91.6911C163.952 88.2833 165.038 81.1884 165.993 77.7935Z" fill="black"/>
<path d="M174.043 75.0843C174.962 75.0855 176.326 74.8815 176.684 75.8317L176.523 76.1455C175.25 77.0425 172.134 77.3352 170.521 77.5122C169.541 77.5633 168.394 77.5703 167.818 76.6634L168.009 76.3263C169.587 75.3814 172.221 75.2101 174.043 75.0843Z" fill="black"/>
<path d="M164.54 94.9871C165.892 95.1094 165.851 95.8815 166.848 96.2318C167.764 96.5526 169.015 94.7949 170.158 95.1994C170.331 95.7069 170.279 95.4433 170.11 96.0647C168.111 98.4546 164.545 97.9719 164.54 94.9871Z" fill="black"/>
<path d="M214.337 0C214.542 0.0824353 214.93 0.189036 214.991 0.341738C215.744 2.2153 215.351 3.48884 216.385 5.40731C217.61 7.68413 221.262 8.57824 221.968 9.61596L221.883 9.94074C220.858 10.5982 219.089 10.471 217.668 11.2151C214.847 12.6925 214.148 15.0072 213.156 17.7455C212.901 17.6809 212.685 17.5925 212.436 17.5028C211.805 16.577 211.84 14.3391 211.451 13.3202C210.462 10.7324 208.074 9.64493 205.636 8.85674C205.331 8.75802 205.312 8.63205 205.248 8.3671C205.867 7.50024 208.247 7.58113 209.555 6.995C213.045 5.43027 213.149 2.89038 214.337 0Z" fill="black"/>
<path d="M214.285 3.99731C214.511 4.21291 214.803 4.85337 214.962 5.16101C216.169 7.49336 216.738 7.99843 218.875 9.34807C215.93 10.206 214.65 11.3401 213.187 13.9586C213.063 13.8688 212.153 11.9198 211.853 11.4749C210.892 10.0485 210.105 9.56435 208.664 8.71052C211.608 7.7602 212.842 6.63353 214.285 3.99731Z" fill="#FEFEFE"/>
<path d="M174.223 257.093C175.284 257.533 175.674 260.387 176.768 261.54C177.767 262.594 181.375 263.079 181.544 264.109C181.027 264.66 179.368 264.954 178.442 265.587C176.094 267.189 175.866 269.309 175.246 271.75L174.84 271.712C174.115 271.08 173.565 267.787 172.252 266.812C171.203 266.034 168.266 265.597 167.753 264.833C169.452 263.585 172.365 263.743 173.272 260.831C173.644 259.638 173.7 258.017 174.223 257.093Z" fill="black"/>
<path d="M174.651 260.215C176.147 262.505 176.405 262.921 178.924 263.977C178.693 264.105 178.461 264.237 178.232 264.373C176.321 265.494 175.462 266.579 174.914 268.712C173.642 266.52 172.992 265.77 170.698 264.825C173.105 263.627 173.659 262.594 174.651 260.215Z" fill="#FEFEFE"/>
<path d="M303.36 193.875C304.565 193.599 305.83 193.901 306.783 194.687C307.737 195.474 308.27 196.658 308.229 197.894C308.169 199.644 306.976 201.148 305.286 201.606C303.895 201.983 302.407 201.577 301.398 200.547C300.388 199.515 300.016 198.019 300.423 196.634C300.83 195.251 301.953 194.195 303.36 193.875Z" fill="#D0ACFA"/>
<path d="M163.463 134.58C164.293 134.658 164.226 134.628 164.663 135.073C165.174 136.557 164.715 139.171 164.632 140.924C166.171 140.977 169.887 140.859 170.872 141.836C170.977 142.429 170.994 142.124 170.672 142.758C169.904 143.306 165.849 142.902 164.576 142.881C164.411 144.534 164.397 147.449 164.022 148.861C163.316 149.048 163.193 149.041 162.679 148.588C162.152 147.406 162.6 144.204 162.679 142.734C161.11 142.689 157.57 142.936 156.613 141.704C156.661 141.065 156.548 141.337 156.951 140.849C158.005 140.405 161.4 140.797 162.764 140.852C162.87 139.21 162.865 135.93 163.463 134.58Z" fill="black"/>
<path d="M130.224 253.883C131.394 253.47 132.696 253.723 133.626 254.546C134.555 255.367 134.967 256.628 134.701 257.84C134.435 259.052 133.533 260.025 132.345 260.382C130.566 260.916 128.687 259.934 128.111 258.169C127.534 256.404 128.472 254.5 130.224 253.883Z" fill="#FE8679"/>
<path d="M264.736 260.896C266.537 260.515 268.311 261.653 268.715 263.451C269.118 265.249 268.002 267.036 266.211 267.463C265.243 267.694 264.223 267.485 263.424 266.892C262.626 266.299 262.131 265.382 262.071 264.39C261.971 262.726 263.104 261.24 264.736 260.896Z" fill="#FED57D"/>
<path d="M14.7805 150.439C17.7101 150.489 21.0586 151.783 23.4621 153.406C24.3587 154.011 27.6748 156.316 27.8875 157.356C27.5166 157.762 27.7417 157.605 27.1396 157.757C22.6165 154.797 19.0937 153.978 14.1123 152.379C13.7871 152.274 13.7462 151.741 13.7217 151.452C14.0343 150.849 14.212 150.797 14.7805 150.439Z" fill="black"/>
<path d="M20.8139 167.295C22.1841 167.236 25.6666 167.051 26.5948 168.188L26.4762 168.494C25.2316 169.218 19.8005 169.615 17.9237 169.872C16.2021 170.015 14.448 170.572 12.759 170.647C12.4065 170.662 12.1779 170.256 11.9769 169.987C11.7822 167.713 19.3091 167.355 20.8139 167.295Z" fill="black"/>
<path d="M309.765 149.462C310.546 149.333 312.269 149.306 313.055 149.453C313.562 149.836 313.439 149.597 313.545 150.122C312.985 150.83 310.915 150.922 309.927 151.131C307.369 151.673 305.531 152.441 303.346 153.873C302.429 154.442 302.018 154.828 300.988 154.703C300.476 154.358 300.645 154.585 300.452 154.007C300.945 150.716 307.081 149.716 309.765 149.462Z" fill="black"/>
<path d="M300.98 162.076C303.91 162.064 312.543 164.21 313.559 167.14C313.467 167.834 313.511 167.605 312.968 168.218C309.098 166.013 307.233 164.93 302.793 163.939C302.044 163.773 300.659 163.492 300.267 162.876C300.431 162.386 300.505 162.458 300.98 162.076Z" fill="black"/>
<path d="M293.645 168.712C296.044 169.348 299.432 174.928 300.413 177.242C300.598 177.681 300.205 178 299.958 178.298C298.282 177.319 293.83 171.718 293.108 169.775C292.959 169.371 293.415 168.975 293.645 168.712Z" fill="black"/>
<path d="M30.6602 176.966C31.3384 176.933 31.305 176.949 31.6721 177.237C32.1211 179.153 26.3969 183.062 24.8927 183.787C24.4051 183.83 24.4246 183.794 23.9773 183.566C22.9859 181.497 29.1755 177.804 30.6602 176.966Z" fill="black"/>
<path d="M1.49944 128.802C2.30681 128.48 3.22559 128.623 3.8969 129.175C4.56838 129.727 4.88561 130.601 4.72485 131.456C4.5641 132.31 3.95089 133.009 3.12465 133.28C1.90217 133.679 0.582541 133.037 0.143577 131.828C-0.295386 130.619 0.30478 129.28 1.49944 128.802Z" fill="#A6E3B0"/>
<path d="M181.531 16.5256C182.614 16.2177 183.745 16.8329 184.076 17.9099C184.405 18.9869 183.813 20.13 182.742 20.4817C182.031 20.7158 181.248 20.5466 180.696 20.0397C180.144 19.5327 179.911 18.7671 180.082 18.0381C180.256 17.309 180.811 16.7306 181.531 16.5256Z" fill="#A6E3B0"/>
</svg>
