<svg preserveAspectRatio="none" width="100%" height="100%" overflow="visible" style="display: block;" viewBox="0 0 41.9637 66.1784" fill="none" xmlns="http://www.w3.org/2000/svg">
<g id="Group 10">
<path id="Vector" d="M17.0907 0.00619646C17.1279 0.00413299 17.165 0 17.2032 0C17.4291 0.00309521 17.6272 0.0835787 17.7696 0.266196C18.3319 0.990475 17.6695 5.94281 17.5808 7.07462C19.05 5.47853 20.5006 4.26417 22.462 3.28196C23.1058 2.79498 25.1672 2.29252 24.9299 3.75862C24.5161 6.32042 24.0622 9.24126 23.4163 11.7494C23.6216 12.0094 23.8115 12.2818 23.9858 12.5645C25.6284 15.2099 25.0527 17.7964 24.3923 20.5728C25.3065 22.7642 27.6836 24.5687 29.3189 26.3113C35.3979 32.7896 38.0587 40.2635 35.9199 49.0818C38.5622 50.064 40.9383 51.7653 41.7121 54.5386C43.172 60.4133 38.0113 63.8758 33.1342 65.3553C29.582 66.4325 18.8983 67.2393 17.7511 62.4655C17.586 61.7763 17.717 61.0499 18.1111 60.4608C19.8383 57.901 23.698 59.6447 26.2928 59.7025C28.4244 59.751 35.2328 59.2113 34.9016 55.7643C34.8469 55.202 33.9153 54.6882 33.419 54.4416C30.0287 58.5603 25.0103 56.8672 20.3273 57.1479C18.6311 57.249 16.871 57.606 15.213 57.313C14.6073 57.2057 14.2669 56.7042 13.9986 56.2131L13.9429 56.1089C13.1908 56.4143 12.3128 58.5634 10.3845 58.3891C9.492 58.7512 8.23226 57.2108 8.01456 57.2242C5.31348 57.3872 3.55126 55.5373 6.84766 52.5598C8.42519 44.8279 5.19585 37.4211 7.55956 29.7326C8.23122 27.5484 8.90288 25.4447 8.3963 23.1862C7.41512 22.3835 6.70425 21.9677 5.69521 20.9009C3.29436 18.3649 2.90024 14.0615 5.00705 11.2449C5.15665 11.0447 5.70553 11.0159 5.96037 11.0571C6.03878 11.1995 6.08211 11.2047 5.97172 11.4368C5.3145 12.809 4.7615 14.076 4.79142 15.6525C4.83888 17.8222 5.86029 19.6628 7.52139 21.0258C7.85361 21.2981 9.45176 22.4568 9.54049 22.7694C10.2957 25.4488 9.14431 28.024 8.55003 30.6127C8.26217 31.8549 8.05686 33.1156 7.93615 34.3857C7.36766 40.5648 9.47653 46.9234 7.78139 53.1592C7.13862 53.7308 5.11022 55.625 7.24798 56.1512C8.1394 56.3699 8.4613 55.0669 8.86161 54.5541C9.05248 54.3106 9.37645 54.0279 9.63335 53.7927C10.0595 52.3658 10.336 50.8976 10.4567 49.413C10.6599 47.7653 10.7105 46.1021 10.7301 44.4441C10.7425 43.3598 10.1544 40.9218 11.1191 40.2862C12.4232 41.0074 11.5225 51.9345 10.8456 53.6235C10.6723 54.0558 8.26526 56.7765 9.70557 57.0901C13.7386 57.9681 14.7972 49.4398 15.768 46.7542C16.1292 45.7534 16.1116 44.344 16.5934 43.1957C16.8658 42.9677 16.7142 43.0275 17.0618 43.0028L17.2651 43.1833C17.7366 44.4864 16.2437 49.2747 15.8341 50.7635L17.0319 52.2678C17.7727 52.015 17.9306 52.015 18.6889 51.9789C16.8276 46.5344 18.7209 41.1261 23.0738 37.4087C23.5288 37.0208 23.6216 36.3027 24.0508 35.7703C24.3614 35.63 24.3377 35.6238 24.6688 35.6888C24.7926 35.8343 24.8628 35.8755 24.8422 36.1139C24.6761 38.0577 23.3699 38.5261 22.3464 39.662C19.9641 42.3043 18.6239 46.3136 19.2233 49.8452C19.3606 50.6531 20.058 51.9118 20.0828 52.6557C19.6247 53.5368 16.8885 52.8105 15.6525 54.3302C14.9158 55.2371 14.7301 56.5711 16.2499 56.3194C20.3098 55.6488 24.1231 56.1223 28.1829 55.8861C30.4455 55.7385 31.6815 54.8089 33.0383 53.119C35.2338 53.7782 37.2632 55.429 35.5392 57.9227C34.2403 59.8025 31.1069 60.4742 28.9289 60.7848C29.8255 62.5088 29.6305 63.2166 28.7752 64.8426C31.5939 64.5547 32.7494 64.2514 35.3514 63.1897C41.3066 60.76 43.1565 54.0878 36.8206 50.7006C36.1995 50.3683 35.3174 50.1455 34.6251 49.8906C34.6272 49.5966 35.1637 46.9626 35.2503 46.4075C34.3403 46.2156 33.3963 46.0392 32.5121 45.7761C29.5644 44.897 28.0632 41.8369 29.0764 38.9511C29.8275 36.8113 31.3235 35.2895 33.3292 34.298C32.7597 32.9743 32.1046 31.8208 31.2028 30.6983C29.6109 30.8623 28.2624 31.4494 26.5569 31.3906C20.9278 31.1987 20.1911 25.6294 23.9879 22.3144C23.6144 21.7026 23.4937 21.3848 23.2254 20.7214C23.9673 17.6179 24.5987 14.7858 22.2525 12.1693C22.3103 11.4028 22.5703 10.2926 22.7116 9.50849C23.0439 7.66787 23.4328 5.83963 23.7 3.9856C22.2649 4.70059 21.3859 5.16488 20.1148 6.16876C19.3121 6.80224 18.1039 8.55826 17.3363 8.60881C17.0361 8.34056 17.1248 8.34159 17.0257 7.8412C14.757 6.6124 11.7175 6.83938 9.47756 8.03516C8.48296 8.56651 7.6844 9.32174 6.85798 10.0749L6.24203 9.12262C7.67305 7.58843 9.24026 6.60002 11.2955 6.12955C12.7131 3.62759 14.4402 1.28452 17.0907 0.00619646Z" fill="var(--fill-0, #37352F)"/>
<path id="Vector_2" d="M11.6575 9.05777C11.8959 9.1465 11.9155 9.1888 12.1321 9.3446C12.4881 10.4083 9.53009 11.4029 8.83883 11.6939C8.45812 11.8538 8.98636 12.1189 8.80271 12.7782C8.59327 13.0031 8.55098 12.9918 8.25796 13.0547L8.09804 13.0877C7.45733 13.227 7.38201 13.583 6.98686 14.1958C6.55043 14.0473 6.35647 14.0524 6.34615 13.5665C6.39568 13.4819 6.44314 13.3973 6.48957 13.3116C6.92186 12.5058 6.41322 12.4491 6.46481 11.6124C6.82385 10.9943 9.11431 10.7116 10.0129 10.1607C10.7114 9.7315 10.9333 9.60665 11.6575 9.05777Z" fill="var(--fill-0, #37352F)"/>
<path id="Vector_3" d="M15.1198 15.1238C16.5488 15.2404 20.099 15.9791 21.0636 17.0676C21.1606 17.4586 21.1431 17.3172 20.945 17.766C20.5849 17.7176 18.8877 17.0335 18.4688 16.8757C17.7332 16.5981 15.4788 16.1369 15.0744 15.7707C14.9661 15.4385 15.0073 15.5261 15.1198 15.1238Z" fill="var(--fill-0, #37352F)"/>
<path id="Vector_4" d="M14.1975 17.495C15.0291 17.9118 17.8839 20.3973 18.4235 21.1793C18.441 21.5693 18.4235 21.461 18.179 21.8603C17.628 21.6653 14.3873 18.7455 13.9107 18.1801C13.8839 17.8252 13.9458 17.8757 14.1975 17.495Z" fill="var(--fill-0, #37352F)"/>
<path id="Vector_5" d="M2.04674 7.06364C2.98458 7.14102 4.38568 8.55036 4.79528 9.37472C4.92322 9.63265 4.69521 9.90194 4.5714 10.1165L4.27426 10.0608C3.61189 9.43766 2.53578 8.54005 1.98277 7.79927C1.81047 7.56919 1.95594 7.3257 2.04674 7.06364Z" fill="var(--fill-0, #37352F)"/>
<path id="Vector_6" d="M0.388994 11.2976C1.21851 11.3853 3.12103 11.4235 3.53269 12.2231C3.50793 12.6131 3.51412 12.4934 3.25825 12.8607C2.4927 12.7431 1.16383 12.447 0.390027 12.2551C0.131061 12.1911 0.0701853 11.9951 2.71797e-05 11.799C0.130026 11.4224 0.0340765 11.5999 0.388994 11.2976Z" fill="var(--fill-0, #37352F)"/>
<path id="Vector_7" d="M13.3415 10.8102C13.5602 10.8865 13.6479 10.9381 13.8584 11.0413C14.4258 11.8729 13.5757 12.5456 12.9164 13.0098C12.6265 12.9407 12.6936 12.9459 12.4232 12.7828C11.9569 11.9729 12.7441 11.3002 13.3415 10.8102Z" fill="var(--fill-0, #37352F)"/>
<path id="Vector_8" d="M9.2381 8.43553C9.71683 8.55108 9.89738 8.61506 10.0109 9.10307C9.86127 9.7283 9.57032 9.89234 9.05651 10.2731C8.97398 10.2813 8.70779 10.2762 8.61596 10.2762C8.31366 10.075 8.40651 10.2091 8.31469 9.87068C8.45191 9.1887 8.74287 8.91528 9.2381 8.43553Z" fill="var(--fill-0, #37352F)"/>
<path id="Vector_9" d="M7.55017 15.9405C7.5512 15.9405 7.84214 16.053 7.84214 16.053C8.31571 16.411 8.83158 15.9643 9.33094 16.1768C9.4269 16.5183 9.43205 16.3429 9.23395 16.7133C9.17824 16.7587 9.12253 16.8031 9.06475 16.8464C8.51071 17.2612 7.87413 17.3509 7.42945 16.7401C7.34175 16.345 7.38612 16.3027 7.55017 15.9405Z" fill="var(--fill-0, #37352F)"/>
</g>
</svg>
