<svg width="176" height="170" viewBox="0 0 176 170" fill="none" xmlns="http://www.w3.org/2000/svg">
<path d="M13.5459 118.835C14.4986 117.866 21.6192 111.419 22.3267 111.293C22.5709 111.249 22.8094 111.282 22.9934 111.461C23.2466 111.707 23.2826 112.065 23.3212 112.394C22.5735 113.231 15.3351 119.692 14.6501 119.992C13.7574 119.951 13.686 119.658 13.5459 118.835Z" fill="#E89D01"/>
<path d="M159.038 37.2273C159.739 37.3106 160.106 37.4717 160.146 38.2325C159.726 39.1255 154.367 45.3739 153.446 46.3004C153.129 46.3046 152.814 46.3069 152.559 46.0797C152.343 45.8863 152.286 45.6669 152.307 45.384C152.357 44.7123 158.093 38.005 159.038 37.2273Z" fill="#E89D01"/>
<path d="M9.69968 107.022C9.77318 106.866 9.97779 106.432 10.0886 106.394C11.2374 106.007 19.2224 104.046 19.9574 104.231C20.3151 104.444 20.3567 104.657 20.5274 105.042C20.4381 105.254 20.286 105.652 20.0417 105.72C17.0465 106.543 13.9749 107.194 10.9374 107.859C10.1684 108.027 9.97791 107.624 9.69968 107.022Z" fill="#E89D01"/>
<path d="M168.634 48.1536C169.06 48.2841 169.127 48.3235 169.401 48.6363C169.462 48.8957 169.518 49.037 169.376 49.2891C168.859 50.2076 162.828 52.4307 161.464 52.9959C161.054 52.8614 160.865 52.7041 160.674 52.3358C160.672 52.1409 160.642 52.0203 160.733 51.8412C161.196 50.9154 167.382 48.5288 168.634 48.1536Z" fill="#E89D01"/>
<path d="M15.2205 33.2888C15.4011 33.29 15.5895 33.2877 15.7649 33.3322C16.2616 33.4579 16.5917 33.8296 16.7913 34.2861C17.0719 34.9264 17.1238 35.6903 17.2452 36.3767C17.5798 38.2612 18.1103 40.1125 19.1846 41.7188C21.4453 45.0981 26.6093 45.6136 27.7287 47.6072C27.9829 48.0606 27.9665 48.6221 27.8076 49.1066C27.3492 50.5017 25.4246 50.9844 24.249 51.6315C23.586 51.9964 22.9331 52.4407 22.3241 52.8903C19.3833 55.0619 17.2402 58.0266 15.7909 61.3596C15.4168 62.2208 15.2481 63.2144 14.7929 64.0287C14.5318 64.4964 14.2358 64.7206 13.7642 64.9606C13.0399 64.9516 12.4662 64.7537 12.1661 64.027C11.7765 63.0838 11.7205 61.9955 11.4411 61.0076C10.9669 59.3323 10.342 57.7341 9.51451 56.2019C8.49604 54.3001 7.15537 52.5909 5.55177 51.1488C5.0085 50.669 4.38516 50.2076 3.78378 49.7951C2.99143 49.2518 1.885 48.917 1.42225 48.0033C1.20137 47.5667 1.18077 47.1795 1.32922 46.7257C1.446 46.3669 1.81716 45.9021 2.14965 45.75C3.83501 44.9787 5.44292 44.8344 7.19181 44.0062C10.3583 42.5073 12.0791 40.1418 13.2416 36.8955C13.5168 36.1273 13.707 35.395 13.9665 34.6329C14.226 33.871 14.5164 33.6064 15.2205 33.2888Z" fill="#005BAB"/>
<path d="M15.3789 34.5413C15.5839 34.622 15.7096 34.676 15.76 34.9056C15.8648 35.3834 15.9313 35.8736 16.0128 36.3569C16.1417 37.1249 16.3047 37.8866 16.5019 38.6399C17.955 43.9867 21.2244 45.4362 25.8526 47.4732C26.4741 47.747 27.0653 48.5829 26.3318 49.132C25.4705 49.8157 24.2462 50.1396 23.3375 50.7221C19.4017 53.2446 16.3271 56.664 14.607 61.0519C14.3103 61.8095 13.9817 63.1414 13.5626 63.7048L13.3926 63.6383C13.0747 63.3 13.0659 62.8401 12.9901 62.4324C11.8694 56.4127 8.32731 50.6822 2.82166 47.7739C2.64428 47.6801 2.5262 47.4333 2.46588 47.2379C2.523 46.9241 2.73536 46.8282 3.05643 46.7205C5.25118 45.9889 7.46902 45.5168 9.43163 44.1863C11.8314 42.5592 13.4658 40.0558 14.399 37.3378C14.6988 36.4664 14.8912 35.3157 15.3789 34.5413Z" fill="white"/>
<path opacity="0.5" d="M23.5844 57.9871C24.2196 58.2496 24.1772 59.254 24.3655 59.912C24.7455 61.2372 25.5141 61.2576 26.5744 61.8794C26.7644 61.9909 26.8589 62.0425 26.9181 62.2539C26.1868 62.8162 24.9585 62.5742 24.2616 63.7497C23.835 64.4702 23.7662 65.2073 23.3967 65.7718C23.333 65.7637 23.0839 65.7117 23.0667 65.6822C22.6867 65.0282 22.7445 64.0011 22.2877 63.2822C21.7908 62.5009 20.4902 62.2992 20.0248 61.7428L20.0703 61.6127C20.8568 61.1061 21.7377 61.2895 22.4359 60.5152C23.1737 59.697 23.1265 58.887 23.5844 57.9871Z" fill="#005BAB"/>
<path opacity="0.5" d="M4.31087 61.243C4.69636 61.1449 5.10404 61.2627 5.37785 61.5498C5.65242 61.837 5.75089 62.25 5.63577 62.6296C5.51983 63.0098 5.20878 63.2981 4.82102 63.3845C4.23353 63.5156 3.65041 63.1503 3.51071 62.5653C3.37107 61.9795 3.72759 61.3912 4.31087 61.243Z" fill="#005BAB"/>
<path opacity="0.5" d="M2.87762 38.1915C3.14023 38.1336 3.41275 38.224 3.58888 38.4273C3.76425 38.6305 3.81483 38.9137 3.71982 39.1651C3.62482 39.4164 3.39921 39.5953 3.13273 39.6311C2.7442 39.6835 2.38306 39.42 2.31493 39.0338C2.24604 38.6476 2.49457 38.2761 2.87762 38.1915Z" fill="#005BAB"/>
<path opacity="0.5" d="M21.8487 29.5885C22.0378 29.554 22.2305 29.6252 22.3521 29.7743C22.4737 29.9235 22.5044 30.1268 22.4327 30.3053C22.3609 30.4837 22.1971 30.6089 22.0065 30.6319C21.7233 30.666 21.4641 30.4689 21.4211 30.1868C21.3789 29.9048 21.5682 29.6397 21.8487 29.5885Z" fill="#005BAB"/>
<path opacity="0.3" d="M159.831 135.768C160.403 136.26 160.667 136.847 160.772 137.59C160.913 138.582 160.529 139.173 159.934 139.913C158.076 142.221 156.185 144.504 154.306 146.795C151.229 150.585 148.13 154.357 145.009 158.111L140.85 163.151C140.215 163.924 139.517 164.854 138.833 165.556C138.056 166.353 136.293 166.426 135.405 165.747C133.894 164.592 132.474 163.348 130.998 162.157L119.017 152.339C117.918 151.315 117.75 149.699 118.696 148.517C120.19 146.649 121.721 144.815 123.24 142.967L132.026 132.258L137.398 125.687C137.989 124.967 139.419 123.144 140.016 122.58C140.422 122.201 140.939 121.962 141.491 121.897C143.121 121.709 144.042 122.796 145.199 123.756C146.189 124.581 147.183 125.401 148.182 126.216L159.831 135.768Z" fill="#7237AE"/>
<path d="M159.088 137.055C159.461 137.482 159.471 138.294 159.122 138.733C158.086 140.037 156.969 141.292 155.915 142.582C153.355 145.756 150.772 148.91 148.166 152.046L141.165 160.538C140.105 161.827 139.083 163.153 137.985 164.408C137.335 165.152 136.578 164.836 135.913 164.307C134.13 162.886 132.384 161.415 130.62 159.969L119.823 151.142C119.361 150.593 119.342 149.972 119.786 149.403C120.457 148.542 121.164 147.707 121.859 146.865L126 141.829L139.263 125.636C139.748 125.044 141.271 122.967 141.857 123.258C143.777 124.21 147.253 127.323 148.791 128.59L159.088 137.055Z" fill="white"/>
<path d="M139.136 140.461C140.778 142.078 136.898 142.077 136.087 142.231C135.568 142.33 133.261 142.601 132.913 142.363C132.533 141.755 132.581 140.853 132.546 140.109C132.52 139.861 132.4 138.895 132.546 138.745C134.013 137.24 134 140.582 134.054 141.094C135.698 140.848 137.483 140.606 139.136 140.461Z" fill="#7237AE"/>
<path d="M133.435 147.66C133.664 147.984 133.731 148.248 133.586 148.633C133.199 149.083 127.609 149.826 127.068 149.543C126.656 148.956 126.678 147.911 126.624 147.16C126.564 146.576 126.462 145.796 127.073 145.46C128.122 145.574 128.07 147.423 128.116 148.228C129.182 148.079 132.574 147.526 133.435 147.66Z" fill="#7237AE"/>
<path d="M145.181 133.498C145.34 133.819 145.405 133.905 145.371 134.266C145.309 134.39 145.173 134.63 145.051 134.659C143.965 134.915 139.605 135.588 138.799 135.298C138.424 134.75 138.423 133.622 138.366 132.914C138.363 132.876 138.36 132.84 138.357 132.802L138.346 132.627C138.304 131.994 138.389 131.574 138.969 131.22C139.899 131.235 139.812 133.322 139.863 134.028C140.967 133.864 144.253 133.321 145.181 133.498Z" fill="#7237AE"/>
<path d="M151.649 141.782C152.244 142.382 151.626 143.439 150.503 142.629C149.889 142.186 149.271 141.679 148.682 141.188L145.568 138.604C145.321 138.35 145.267 138.204 145.305 137.853C146.031 136.591 147.604 138.403 148.357 139.03L151.649 141.782Z" fill="#7237AE"/>
<path d="M139.946 155.868L140.156 156.091C140.304 156.564 140.228 156.9 139.759 157.118C138.99 157.174 134.937 153.57 134.012 152.802C133.529 152.381 133.473 151.891 134.112 151.589C134.698 151.594 135.09 151.822 135.537 152.19C137.012 153.408 138.479 154.64 139.946 155.868Z" fill="#7237AE"/>
<path d="M145.606 148.61C145.891 148.85 145.897 148.834 146.051 149.162C146.072 149.884 145.501 150.217 144.918 149.821C144.315 149.413 143.734 148.897 143.17 148.43L140.06 145.856C139.95 145.765 139.525 145.363 139.527 145.254C139.575 143.429 141.502 145.163 142.071 145.637C143.254 146.621 144.433 147.614 145.606 148.61Z" fill="#7237AE"/>
<path d="M160.557 101.089C160.451 100.241 161.568 97.9965 162.089 96.6211C163.687 92.4011 164.598 87.9014 164.817 83.3963C164.892 81.8655 164.352 73.6373 164.518 73.2609L165.182 73.0126C165.226 73.1346 165.299 73.3362 165.328 73.4746C167.281 82.454 166.08 92.0562 161.81 100.213C161.435 100.929 161.144 100.966 160.557 101.089Z" fill="#05210B"/>
<path d="M65.6142 160.662C66.4033 160.335 68.864 160.816 70.3284 160.953C74.821 161.372 79.4013 161.055 83.8026 160.069C85.2984 159.735 93.0874 157.028 93.4943 157.088L93.9102 157.663C93.8043 157.738 93.6293 157.861 93.5037 157.927C85.3657 162.195 75.7893 163.587 66.7909 161.638C66.0019 161.467 65.8888 161.195 65.6142 160.662Z" fill="#05210B"/>
<path d="M167.157 96.2426C166.865 95.3736 167.756 92.9353 168.013 91.837C168.338 90.4929 168.594 89.1337 168.78 87.7644C168.955 86.4298 168.929 83.3093 169.694 82.4236C170.78 84.6235 169.358 95.0085 167.157 96.2426Z" fill="#05210B"/>
<path d="M72.0394 165.738C72.7997 165.226 75.3871 165.437 76.5142 165.393C77.8964 165.35 79.2745 165.235 80.644 165.05C81.9772 164.864 84.9787 164.01 86.0358 164.513C84.2035 166.144 73.8139 167.532 72.0394 165.738Z" fill="#05210B"/>
<g clip-path="url(#clip0_21006_4071)">
<path d="M25.0305 128.946C27.1524 128.886 29.3658 129.434 31.2452 128.259C31.639 128.013 31.9516 127.956 32.2747 127.578C31.9867 127.278 30.8944 127.151 30.3384 126.934C28.9404 126.389 27.8953 125.191 27.1386 123.94L27.1437 123.815C27.7916 123.864 28.6344 125.096 29.6309 125.392C30.9211 125.775 31.8361 125.952 33.1592 125.432C34.3473 124.966 35.7534 120.666 36.0664 119.482C36.6663 117.213 37.5341 113.339 37.7057 110.966C37.8708 108.685 37.7502 106.298 38.1583 103.89C39.0077 98.8798 39.9995 93.9165 40.6834 88.873L42.7033 73.9833C43.4415 68.753 44.2237 63.2545 45.92 58.2376C47.2466 54.314 48.2357 50.9273 49.1175 46.8866C50.2971 41.4808 53.1998 36.7992 56.3481 32.3651C60.0089 27.2093 63.6701 22.8167 69.3932 19.8013C74.5533 17.0625 81.5612 14.6784 87.1341 17.5011C91.6843 15.0791 97.0189 14.5945 101.931 16.157C105.078 17.1327 110.08 20.2398 111.474 23.1783C113.087 26.5745 114.338 27.2873 116.512 30.0358C121.962 36.9242 124.987 46.047 128.406 54.0473C132.63 63.7097 136.918 73.4056 141.024 83.1131C142.81 87.3376 143.97 90.2111 144.707 94.6936C145.606 100.163 145.746 102.782 143.131 107.781C141.397 111.096 140.564 113.896 136.682 115.402C137.293 114.89 137.796 114.438 138.387 113.908C138.376 112.898 138.538 112.606 138.912 111.681C136.781 113.629 131.037 117.625 128.047 115.971C128.871 115.637 131.543 115.265 131.734 114.847C131.189 114.42 128.858 114.749 127.704 114.517C128.17 114.256 128.644 113.982 129.123 113.749C129.047 113.206 129.083 113.025 129.157 112.475C127.186 114.221 121.938 116.429 119.252 116.157C118.569 116.088 117.537 116.021 116.875 116.229L116.595 116.948C116.984 116.993 117.524 117.152 117.892 117.176C118.527 117.218 118.826 117.161 119.482 117.285L119.553 117.448C119.125 117.776 117.049 118.006 116.445 118.017C113.018 118.076 111.63 117.352 108.894 115.503C107.714 114.705 107.334 114.947 105.915 113.62C106.52 113.704 107.213 113.871 107.817 114L107.774 113.334C107.14 113.23 106.843 113.186 106.206 113.183C103.182 111.328 104.369 107.629 105.601 104.982C101.411 108.728 94.9359 113.254 89.9047 115.395C82.7677 118.434 75.3844 113.819 70.1605 109.31C69.8988 109.084 68.8607 108.21 68.6063 108.229C68.1501 109.26 69.1403 113.249 69.2103 114.529C69.2846 115.889 69.4949 117.998 69.4479 119.305C69.1648 127.184 61.6261 137.484 54.3175 140.258C51.9067 141.172 48.2537 141.493 45.755 140.776L45.6166 140.594L45.1312 140.24C44.0806 140.304 42.0446 140.211 41.1191 139.727L41.1343 139.571C41.7306 139.383 42.64 139.373 43.3139 139.312L43.8003 138.693L43.7276 138.534C41.5943 138.647 38.3675 138.108 36.4363 137.23C35.2816 136.704 34.396 136.216 33.1588 135.74C36.0666 135.357 36.1357 135.516 38.6904 134.037L38.416 133.741C38.3831 133.306 38.6944 133.056 39.0067 132.642C38.5798 132.816 38.0465 133.116 37.6261 133.216C33.9976 134.074 30.6145 132.337 27.3863 131.066C29.8091 130.914 30.8104 130.816 33.1131 130.016L34.1961 129.111C31.4167 129.992 27.7402 130.172 25.0305 128.946ZM54.1055 103.464C53.9797 103.95 54.0686 103.902 53.7476 104.2C53.5935 105.554 52.5218 113.459 52.7447 114.27C53.1481 113.253 54.0366 105.671 54.2565 104.132L54.1055 103.464ZM55.4708 111.851L55.0481 111.582C55.0881 111.96 55.0506 112.282 55.2555 112.53C55.4261 112.239 55.4303 112.189 55.4708 111.851ZM133.991 87.6014L134.102 87.1037L133.746 86.4787L133.427 85.9762L133.324 85.9989C133.407 86.3263 133.434 86.4209 133.584 86.7226C133.7 86.9705 133.896 87.3589 133.991 87.6014ZM78.0092 36.5148C76.7402 36.1919 73.068 35.0425 71.9714 35.9837C72.3039 36.4676 73.1365 36.366 73.1049 36.7074C72.4149 37.0069 71.2118 37.3024 70.7477 37.5423C69.0412 38.4247 67.4624 40.9115 66.7919 42.6676C65.3789 46.3679 65.2213 50.3605 64.7703 54.2548C64.5771 55.9232 64.2795 57.595 64.2734 59.2612C66.2412 57.5093 67.354 57.4647 69.9309 57.6227C71.4099 57.7133 72.7006 57.8781 74.151 58.1519C77.2693 58.7405 78.5739 59.003 80.1018 61.9974L80.0955 62.2828L79.6246 62.5757C77.0606 61.8885 74.1969 60.9965 71.5745 60.6313C69.6198 60.3591 66.2606 59.5544 64.5957 60.8074C63.5401 61.602 63.4168 63.076 63.2589 64.2792C63.7345 64.5873 64.7253 65.4716 65.0711 65.5012C65.1415 65.1567 64.695 64.0641 64.5582 63.6084L64.6392 63.4589C65.2236 63.6794 65.138 64.3743 65.7631 64.2486C65.7899 64.0316 65.8154 63.8143 65.8396 63.5969C67.286 63.5874 66.4919 62.8889 67.3113 62.3728L67.5283 62.4222L67.7949 63.3342C68.1 63.7136 67.6411 64.0197 67.9606 64.0901L68.2066 63.8162C70.755 62.799 70.7806 62.814 73.6162 63.0017L74.0617 63.0693C74.6369 63.229 75.2899 63.2104 75.5098 63.284C75.8498 63.5212 76.0033 63.5961 76.3714 63.7739L76.2091 64.2519C76.7837 64.892 77.3659 64.9416 77.9572 65.4618C78.3258 66.608 78.5182 67.1852 79.2259 68.2005C78.8221 68.1135 77.0028 67.7778 76.8253 67.5719C77.2605 67.2863 77.3043 67.3606 77.4584 66.9613C77.3235 66.3466 76.6604 65.9802 76.1538 65.6548C74.8026 67.9379 73.6795 69.3115 70.8062 67.7998C70.0291 67.3909 70.3677 66.1783 69.8916 65.5871C69.2418 65.524 68.4945 65.8419 68.164 66.4196C68.1794 67.0749 68.5017 67.1496 69.0459 67.4655C68.0391 67.7333 65.5075 68.8853 65.1124 68.7657C65.2038 68.3112 65.6015 68.2669 65.9879 67.7136L65.8731 67.6201C65.088 67.7688 63.9142 68.296 63.3505 68.2909L63.1274 68.0851C63.4013 67.4717 64.8361 67.3899 65.1092 66.6071C64.7314 66.1448 63.9964 65.8594 63.4323 66.1928C63.7072 66.6468 64.1355 66.5035 64.3299 66.8974C63.5302 67.3431 62.6596 66.3581 62.5584 67.3195C62.3683 69.1234 62.2437 70.7738 61.9626 72.5774C61.6876 74.3605 61.371 76.1369 61.0131 77.905C60.277 81.5834 59.6667 83.2412 61.306 86.8817C61.2509 87.0521 61.2103 87.2254 61.1074 87.3692C60.4438 86.1502 60.1668 85.5154 59.658 84.2407C59.7006 86.2353 59.7068 87.8875 60.1174 89.8724C61.3769 95.9603 65.7042 101.234 70.0507 105.475C73.8067 109.141 79.503 113.516 84.9929 113.415C86.3793 113.391 87.7483 113.103 89.0268 112.566C93.1321 110.819 101.986 103.817 105.182 100.523C108.077 97.5397 111.077 92.2183 111.967 88.1465C112.316 86.5509 112.681 84.7144 113.081 83.1347C112.288 83.9444 111.813 84.666 111.214 85.6285L110.902 85.5384C111.967 83.0327 113.18 80.7089 113.707 77.9965C113.981 76.334 114.659 73.2958 114.359 71.6384C113.53 67.0639 111.833 62.1563 110.675 57.6484C109.024 51.2156 108.442 41.8426 102.249 38.0852C101.723 37.766 99.5185 37.5217 99.2455 37.094C99.8391 36.9172 100.738 36.8984 101.415 36.8103C99.4968 36.2191 98.539 36.2632 96.5726 36.302C96.1793 36.3098 95.7401 36.3958 95.3927 36.3798L95.3665 36.1954C95.8141 35.6364 96.6226 36.0466 96.9644 35.2567C96.1116 34.9373 91.4779 37.1036 90.8472 36.694C90.9969 36.3825 92.6148 35.497 93.0473 35.2454L93.2328 34.9317C91.1088 35.6179 89.1635 37.0743 87.2997 38.2604C87.1163 38.3772 87.2182 38.3927 87.0453 38.3243L86.9036 38.4434C87.8199 37.3927 88.1146 37.219 89.2583 36.4172C89.5825 36.21 89.6711 36.1618 89.9347 35.8589L89.9181 35.6641C89.5415 35.6743 89.3513 35.9063 89.0481 36.1621C88.5985 36.428 86.9678 37.4585 86.5973 37.4578C85.2651 37.4549 86.069 37.3937 85.0939 38.1622L84.9994 37.982C85.2761 37.4135 85.3112 37.2997 85.1053 36.7229L84.9634 36.6839C84.8013 37.0169 84.7168 37.2049 84.4934 37.5107C84.1087 37.3016 83.6381 35.4993 83.0949 35.0913C82.992 35.223 83.1656 36.8362 83.1451 37.39C81.8328 35.9338 82.0168 35.695 80.0938 34.8718C80.5897 35.4509 81.3222 36.1783 81.8597 36.7507C80.2002 36.1998 78.3381 34.4295 77.4687 34.5182L76.4862 34.8432C75.4069 34.5665 74.3208 34.395 73.2034 34.422C75.1126 35.039 76.3723 35.3157 78.0092 36.5148ZM121.798 94.4993L122.068 94.4633C122.084 93.4072 122.135 92.6236 121.825 91.5985C121.7 91.9935 121.787 93.9797 121.798 94.4993ZM85.1831 19.8988C86.0383 20.2116 86.6174 20.5277 87.3722 21.0526L87.3828 20.7984C85.6275 18.9811 81.2697 18.3787 78.8902 18.7602C78.2566 18.8617 77.4729 19.0334 76.8397 19.1724C75.464 19.4136 74.9875 19.3621 73.9193 20.2089L73.9618 20.3027C74.9938 20.1039 75.867 19.6705 76.7928 19.4622C79.3254 18.8922 82.7378 19.0175 85.1831 19.8988ZM84.7441 17.8841C85.1732 18.042 85.6892 18.2894 86.1215 18.2067L86.0439 18.1939C85.8766 17.9181 84.5751 17.6328 84.2042 17.5268C82.8066 17.1273 79.4568 17.0094 78.124 17.5541C76.976 17.8947 76.3731 18.121 75.2933 18.6646C78.9804 18.0359 80.8606 17.408 84.7441 17.8841ZM63.3308 47.2667C63.4233 46.5879 63.449 45.8148 63.4886 45.1243C63.2239 46.0168 63.1419 46.4992 63.053 47.416C62.7818 48.8602 61.1438 60.6115 61.2402 60.9077L61.4193 60.9421C62.1457 59.9675 62.5176 49.3481 63.3308 47.2667ZM89.2325 22.3025C89.1094 21.8805 89.0927 21.8185 88.811 21.4651C88.8086 23.1181 88.8326 24.7761 88.296 26.3601C88.2084 26.6187 87.8694 27.4319 87.8596 27.6363C88.7758 27.1906 89.3179 23.329 89.2325 22.3025ZM42.1118 83.4321C42.0595 83.8077 41.9611 84.048 42.0842 84.3589C42.2269 84.0083 42.2854 83.8785 42.3528 83.4925L42.3868 83.3873C42.6139 82.6628 43.3893 78.419 43.0947 77.8711L43.1745 77.6707L43.2051 77.8043L43.1162 77.7908L43.1054 77.7762L43.1891 77.9331L43.1856 77.9185L43.0472 77.9723C42.6846 79.4742 42.3812 81.8286 42.1118 83.4321ZM47.3939 103.853C47.453 103.003 48.0169 97.9651 47.8717 97.6127C47.6906 98.6413 46.7176 103.195 47.3939 103.853ZM52.4653 116.978C52.5989 116.408 52.9423 115.026 52.6343 114.536C52.4434 115.197 52.1311 116.341 52.4653 116.978ZM126.471 85.2339C126.309 84.8374 126.064 84.1376 125.681 83.9436C125.668 84.3489 126.057 85.0148 126.251 85.4081L126.471 85.2339ZM47.0857 115.625C47.3106 114.791 47.219 109.781 46.7783 109.222C46.6801 109.751 46.8774 115.254 47.0857 115.625ZM88.532 19.8134L88.5766 19.8328L88.6863 19.7795L88.6213 18.8764C88.4579 18.4237 88.3104 18.3223 87.9574 17.9974L87.8734 18.0733C88.0671 18.7255 88.4109 19.3493 88.532 19.8134ZM126.863 62.664L126.614 63.1075C127.417 64.5529 127.764 65.0721 128.678 66.4328C128.639 65.9997 127.199 63.4537 126.863 62.664ZM32.7202 131.811C33.2786 132.052 34.4 131.855 34.9496 131.612C34.3122 131.316 33.4164 131.624 32.7202 131.811ZM46.7066 134.821C47.5956 135.191 48.1811 135.395 49.1462 135.559L49.2542 135.267C48.3103 135.059 47.6639 134.932 46.7066 134.821ZM52.7799 48.7197L52.3332 48.6043C51.9809 49.9056 51.6387 51.1447 51.3646 52.4675C51.6395 52.2537 52.5891 49.2911 52.7799 48.7197ZM92.6393 16.8271L92.5172 16.5972C92.1526 16.6737 91.9055 16.649 91.7171 16.8832C92.0961 16.9813 92.2668 16.9141 92.6393 16.8271ZM46.6616 87.3108C46.7901 86.9263 46.9854 86.4766 46.9356 86.0916L46.8322 85.981C46.6573 86.3589 46.4356 86.7114 46.4979 87.1103L46.6616 87.3108ZM110.326 23.193C110.655 23.6837 111.135 24.4954 111.588 24.821L111.639 24.6708L111.616 24.8214L111.41 24.707L111.554 24.4369C111.355 23.9938 110.798 23.2625 110.483 22.8782L110.326 23.193ZM71.8824 26.5247L71.381 26.3752C70.7564 26.6032 70.2559 26.6886 69.828 27.1663L69.702 27.1666C70.265 27.1641 71.2827 26.7257 71.8824 26.5247ZM64.0484 109.123L64.4278 109.215C64.2506 108.718 64.1285 108.286 63.8013 107.867C63.7296 108.172 63.9523 108.771 64.0484 109.123ZM97.0393 30.8049C97.6478 30.9406 98.1549 31.0672 98.782 31.1133L99.2647 30.7056C98.4946 30.7635 97.8113 30.7891 97.0393 30.8049ZM123.982 62.8977C123.929 63.3401 124.01 63.2665 123.756 63.4982C123.953 64.0926 125.723 67.0641 126.138 67.6295C126.038 67.0352 124.364 63.8984 123.982 62.8977ZM124.211 73.2524L124.106 73.595C124.598 74.1856 125.331 75.0407 125.975 75.4493C125.683 74.8719 124.682 73.7829 124.211 73.2524ZM61.33 61.3968C61.141 62.15 60.8294 63.2864 61.2078 64.0128C61.3342 63.3739 61.6254 61.9518 61.33 61.3968ZM131.667 90.9703L131.882 90.612C131.358 89.7091 131.026 89.2125 130.398 88.378C130.723 89.2958 131.201 90.1175 131.667 90.9703ZM133.201 94.5043C133.265 95.9086 133.968 97.5353 134.458 98.8852L134.725 99.0839C134.465 97.488 133.875 95.963 133.201 94.5043ZM102.165 23.4979L101.827 23.7485C102.827 24.3199 103.433 24.6606 104.532 25.0009C103.757 24.4784 102.968 23.9772 102.165 23.4979ZM59.6295 116.928C59.4692 115.622 59.2655 113.729 58.8732 112.523C58.8517 113.416 59.1347 115.642 59.198 116.704L59.6295 116.928ZM59.7062 100.872L60.1106 101.055C59.9511 100.096 59.7582 98.853 59.4398 97.9516C59.5075 98.9268 59.5963 99.9004 59.7062 100.872ZM57.4788 92.6298C57.7892 92.966 57.8125 93.3176 57.9018 93.7694C57.908 93.2269 57.7031 90.6276 57.5262 90.1352C57.5495 91.114 57.3636 91.4026 57.4788 92.6298ZM117.717 34.6562L118.001 34.4955C117.348 33.3266 116.78 32.3102 115.89 31.3069C115.904 31.6727 117.452 34.0368 117.717 34.6562Z" fill="black"/>
<path d="M53.7475 104.201C54.0685 103.902 53.9796 103.95 54.1054 103.464L54.2564 104.132C54.0365 105.671 53.148 113.253 52.7446 114.27C52.5217 113.46 53.5934 105.554 53.7475 104.201Z" fill="#EBEBEC" fill-opacity="0.976471"/>
<path d="M121.797 94.4994C121.786 93.9797 121.7 91.9936 121.825 91.5985C122.135 92.6236 122.084 93.4072 122.068 94.4634L121.797 94.4994Z" fill="#CBCBCB" fill-opacity="0.968627"/>
<path d="M55.048 111.582L55.4708 111.851C55.4302 112.189 55.426 112.239 55.2554 112.531C55.0505 112.282 55.088 111.96 55.048 111.582Z" fill="#F9F9FA" fill-opacity="0.988235"/>
<path d="M133.746 86.4789L134.102 87.1039L133.991 87.6015C133.896 87.3591 133.7 86.9706 133.584 86.7227L133.746 86.4789Z" fill="#A6A6A8" fill-opacity="0.984314"/>
<path d="M133.584 86.7226C133.434 86.4209 133.407 86.3263 133.324 85.9989L133.427 85.9762L133.746 86.4787L133.584 86.7226Z" fill="#61606E" fill-opacity="0.980392"/>
<path d="M58.9051 54.3402C59.3285 53.8441 59.4261 53.3629 59.6078 52.7537C59.6764 53.3035 59.6589 53.6319 59.772 54.1897L59.7353 54.3228C58.9064 57.3558 55.038 80.4667 55.5878 82.1453C55.5116 82.2283 55.4365 82.3123 55.3626 82.3974C55.8059 83.0597 55.175 84.0545 55.5343 84.783C55.0389 88.4155 54.6793 92.1067 54.1759 95.7563C53.9279 97.5545 53.2753 101.711 53.2504 103.371L53.3427 103.459C53.7861 102.547 53.8885 101.72 54.1944 100.823C55.1455 98.0317 55.6175 94.5747 56.4909 91.8592C56.7618 96.3539 56.6946 100.863 56.2899 105.347C56.0766 107.507 55.643 109.805 55.4707 111.851L55.048 111.582C55.0075 109.064 54.9243 107.575 54.6592 105.081C54.5528 104.671 54.5255 104.461 54.2564 104.132L54.1054 103.464C53.9796 103.95 54.0685 103.902 53.7475 104.2L53.5041 104.212C53.1876 104.836 52.7732 107.723 52.5135 108.636C51.8775 110.874 51.5881 113.257 50.9824 115.494C49.5708 120.709 47.0162 125.955 43.4619 130.038C42.6523 130.968 39.8625 133.731 38.6903 134.037L38.4159 133.74C38.383 133.306 38.6943 133.056 39.0066 132.642C39.1094 132.604 39.5133 132.241 39.6611 132.146C41.0841 131.241 44.221 128.282 44.9348 126.858C43.6021 128.092 43.1461 128.504 41.5501 129.355L41.2675 129.225L41.165 128.848C47.683 125.699 50.1245 118.404 51.0973 111.762C51.1425 111.453 51.2802 111.074 51.1102 110.831C50.9207 111.038 49.9714 113.243 49.6553 113.793C47.073 118.289 45.8135 120.61 41.5786 123.541L40.9869 123.387C41.1759 123.281 41.3622 123.169 41.5456 123.053C44.6007 121.115 45.2777 119.737 47.1778 116.943C52.396 109.268 52.5266 100.867 53.6234 92.0485C53.8997 89.8267 53.994 87.404 54.4851 85.208C54.5651 85.0155 54.3493 83.9183 54.3072 83.6125C55.2706 80.0197 54.9895 74.4878 55.9678 70.8212L55.9964 70.716L55.8272 70.6366L55.5989 70.1756C55.6095 69.8151 56.1474 68.1909 56.2603 67.6811C57.2377 63.2615 58.0146 58.7805 58.9051 54.3402Z" fill="#F9F9FA"/>
<path d="M54.1055 103.464L54.2138 103.1L54.3509 103.108C54.5193 103.601 54.6645 104.557 54.6593 105.081C54.5529 104.671 54.5256 104.461 54.2564 104.132L54.1055 103.464Z" fill="#19241D"/>
<path d="M59.7355 54.3227C59.9231 54.3496 60.1702 54.3717 60.3386 54.4368C59.9344 61.6246 58.6157 75.8699 55.588 82.1452C55.0382 80.4667 58.9066 57.3557 59.7355 54.3227Z" fill="black"/>
<path d="M62.1601 37.2555C62.2025 37.1771 62.2452 37.099 62.2883 37.021C64.1217 33.7089 67.4321 29.8117 71.2222 28.7227L71.7419 29.2076C70.929 29.739 70.0023 30.3149 69.3481 31.0296C69.3261 31.2973 69.2914 31.1811 69.4471 31.3917C69.3765 31.614 69.3554 31.646 69.3816 31.8864C68.824 32.4261 67.3662 33.7423 66.9446 34.2854C63.9773 38.1086 62.6923 42.5508 61.9017 47.2409C61.7829 47.9459 61.2649 51.566 61.107 52.0519C60.8283 51.7956 60.7818 51.2204 60.7245 50.8526L60.5063 50.7129L59.822 50.4548C59.832 50.2351 60.2563 48.6942 60.3484 48.3839C61.5654 44.2861 62.9625 40.103 64.9409 36.3045C65.364 35.492 65.7769 34.6657 66.2395 33.8766C66.553 33.3418 66.9442 32.9951 67.1792 32.4154L67.0611 32.3744C65.7213 33.0042 63.2299 36.1013 62.4282 37.4123L62.1601 37.2555Z" fill="#919192"/>
<path d="M121.797 94.4992L122.068 94.4632C121.842 99.9477 120.625 103.082 117.545 107.626C117.247 108.066 116.137 109.206 116.106 109.415C116.68 109.348 117.356 108.576 117.702 108.14C118.054 107.691 118.401 107.239 118.743 106.782L119.288 106.972C117.324 109.982 114.417 113.352 110.731 114.067C109.731 114.26 108.78 114.39 107.817 114L107.774 113.334C108.252 113.152 108.817 113.089 109.33 112.938C110.812 112.502 112.309 111.714 113.504 110.721C119.153 106.029 120.952 101.455 121.797 94.4992Z" fill="#F9F9FA"/>
<path d="M51.7161 87.0382C52.6669 85.0863 52.848 82.9343 53.2663 80.821C53.4292 79.9977 53.3285 79.2518 53.7218 78.505L53.8209 78.5592C53.9806 79.1378 53.4817 83.6963 53.3527 84.5201L53.6778 84.9566L53.5664 85.2485L53.7344 85.5587C53.6814 85.9934 53.7398 85.825 53.4248 86.2123C52.7014 87.1912 51.4534 94.4372 51.0069 96.1681C49.0688 103.683 47.0743 108.847 42.2163 114.938L41.8615 114.739C47.9255 106.054 50.295 98.3497 51.9646 88.0598C52.2753 87.5431 52.0418 87.4454 51.7161 87.0382Z" fill="#F9F9FA"/>
<path d="M53.425 86.2123C53.1504 85.4628 53.245 85.304 53.3528 84.5201L53.678 84.9567L53.5665 85.2485L53.7346 85.5587C53.6815 85.9934 53.74 85.8251 53.425 86.2123Z" fill="#18191B"/>
<path d="M134.102 87.1036C137.614 93.3254 143.134 101.317 141.532 109.066C141.258 110.392 139.537 113.221 138.387 113.908C138.376 112.897 138.538 112.606 138.912 111.681C139.356 111.105 140.49 109.371 140.648 108.659C141.839 103.293 138.208 96.6254 135.946 91.9594C135.19 90.3982 134.695 89.0209 133.991 87.6012L134.102 87.1036Z" fill="#F9F9FA"/>
<path d="M60.5063 50.7128L60.7245 50.8525C60.7818 51.2203 60.8283 51.7955 61.107 52.0517C60.0411 61.0644 60.1175 70.2609 57.3146 78.9689C56.6549 81.0182 55.7687 82.6133 55.5344 84.783C55.1752 84.0544 55.806 83.0597 55.3627 82.3974C55.4366 82.3122 55.5117 82.2282 55.588 82.1453C58.6156 75.8699 59.9343 61.6246 60.3385 54.4368C60.1702 54.3717 59.923 54.3496 59.7354 54.3227L59.7721 54.1897C59.9398 53.2744 60.0896 52.6568 60.3451 51.7611C60.405 51.5113 60.4664 50.988 60.5063 50.7128Z" fill="#EBEBEC"/>
<path d="M60.3452 51.7611C60.9061 52.5112 60.2512 53.5355 60.3386 54.4368C60.1703 54.3717 59.9231 54.3496 59.7355 54.3227L59.7722 54.1897C59.9399 53.2744 60.0897 52.6568 60.3452 51.7611Z" fill="#18191B"/>
<path d="M62.1601 37.2555L62.4282 37.4123C61.5658 39.0332 60.8353 40.7209 60.2439 42.459C60.1242 42.8097 59.9884 43.1359 60.1426 43.4468C60.5234 43.2336 61.3188 40.9521 61.8761 40.4045C61.5671 42.0627 60.8282 43.4454 60.2908 44.9722C59.1851 48.1133 57.8047 51.1193 56.6649 54.2311C56.7917 50.1846 60.0234 40.8621 62.1601 37.2555Z" fill="#8C8C8D"/>
<path d="M45.1314 140.24C46.052 139.771 47.4343 139.469 48.3221 139.007C50.7324 137.754 52.0898 137.215 54.7548 136.673L55.1283 137.153C51.7004 139.708 49.8713 140.35 45.6168 140.594L45.1314 140.24Z" fill="#F9F9FA"/>
<path d="M71.2223 28.7227C75.4296 26.5788 81.6301 26.9446 84.1533 31.5491C84.8519 32.824 84.8343 35.0797 84.8616 36.525C84.0185 33.3435 84.3225 31.0607 81.0791 29.0492C78.7385 27.5976 73.8815 27.4547 71.742 29.2076L71.2223 28.7227Z" fill="#EBEBEC"/>
<path d="M49.3799 82.6424C49.6577 81.8252 50.1905 80.9038 50.686 80.1996C52.8655 77.1025 53.9219 73.4786 55.5989 70.1757L55.8272 70.6367C55.3382 71.7175 54.9334 72.9802 54.4382 74.1072C53.0805 77.1345 51.3834 79.9978 49.3799 82.6424Z" fill="#CBCBCB"/>
<path d="M110.225 115.442C112.384 115.558 114.716 115.928 116.875 116.229L116.595 116.947C114.35 117.362 112.181 116.481 110.225 115.442Z" fill="#EBEBEC"/>
<path d="M40.8261 125.865C38.4859 128.421 36.4038 129.356 33.113 130.016L34.196 129.111C34.857 128.613 37.0502 127.877 37.9412 127.459C39.0678 126.931 39.7584 126.516 40.8261 125.865Z" fill="#EBEBEC"/>
<path d="M132.013 108.882L132.447 109.195C131.856 110.424 130.369 113.099 129.123 113.749C129.046 113.206 129.083 113.025 129.157 112.475C129.812 111.521 131.198 109.977 132.013 108.882Z" fill="#EBEBEC"/>
<path d="M43.7274 138.534C46.1269 138.061 48.0393 137.282 50.2126 136.839C48.0972 138.308 45.912 139.263 43.3138 139.312L43.8002 138.693L43.7274 138.534Z" fill="#EBEBEC"/>
<path d="M47.0047 94.0379C47.7742 92.653 48.6552 91.7738 49.5659 90.5039C50.3283 89.4408 51.0344 88.1679 51.7162 87.0382C52.0418 87.4454 52.2754 87.5431 51.9647 88.0598C51.3592 88.5567 50.0922 90.4561 49.5043 91.1794C48.6742 92.2009 47.8932 93.0622 47.0047 94.0379Z" fill="#CBCBCB"/>
<path d="M59.8221 50.4547L60.5064 50.7128C60.4665 50.9881 60.405 51.5113 60.3451 51.7612C60.0896 52.6568 59.9398 53.2745 59.7721 54.1897C59.6591 53.6319 59.6766 53.3035 59.608 52.7537C59.4263 53.3629 59.3287 53.8442 58.9053 54.3403C59.1148 53.2159 59.5314 51.5716 59.8221 50.4547Z" fill="#CBCBCB"/>
<path d="M37.8229 130.046C39.159 129.659 39.8848 129.407 41.1652 128.848L41.2677 129.225L41.5503 129.355C40.0746 129.772 39.3457 129.962 37.8229 130.046Z" fill="#CBCBCB"/>
<path d="M118.743 106.782C119.263 106.001 120.24 104.813 120.92 104.151C120.372 105.172 119.905 105.993 119.288 106.972L118.743 106.782Z" fill="#CBCBCB"/>
<path d="M38.4059 124.565C38.9193 124.248 40.3701 123.656 40.9871 123.388L41.5787 123.541C40.3219 124.187 39.8017 124.378 38.4059 124.565Z" fill="#CBCBCB"/>
<path d="M54.3073 83.6124C54.3494 83.9183 54.5651 85.0155 54.4852 85.208C54.1774 85.2616 54.0025 85.3973 53.7345 85.5586L53.5664 85.2484L53.6779 84.9565C53.8912 84.621 54.1399 83.9965 54.3073 83.6124Z" fill="#EBEBEC"/>
<path d="M69.4472 31.3917C70.1828 30.837 70.9735 30.3594 71.8069 29.9664C70.9337 30.7757 69.9855 31.326 69.3817 31.8864C69.3555 31.646 69.3767 31.614 69.4472 31.3917Z" fill="#A6A6A8"/>
<path d="M41.8617 114.739L42.2165 114.938C41.6507 115.681 41.3187 116.113 40.6594 116.767C41.0862 115.927 41.326 115.513 41.8617 114.739Z" fill="#CBCBCB"/>
<path d="M54.7548 136.673C55.3804 136.378 56.0002 136.097 56.599 135.75C56.138 136.216 55.6373 136.751 55.1283 137.153L54.7548 136.673Z" fill="#EBEBEC"/>
<path d="M132.013 108.882C132.368 108.373 132.785 107.737 133.165 107.26C133.004 107.7 132.627 108.821 132.447 109.195L132.013 108.882Z" fill="#CBCBCB"/>
<path d="M73.2838 82.6472L73.5394 82.6624L73.5715 82.815C72.8368 83.8286 71.3374 85.0618 70.3314 85.8372C69.9619 86.1219 68.9153 86.806 68.6842 87.105C69.7437 89.1124 77.7933 87.8823 80.052 88.1301C83.1907 88.4745 86.6788 88.4067 89.8614 88.5675C91.9135 88.6713 97.9306 89.9344 99.3904 88.3229C99.7933 86.8284 95.6504 85.0739 96.182 83.5745L96.3936 83.603C97.6511 85.2502 101.18 86.4719 102.432 88.172C102.213 89.4204 101.311 91.1892 100.366 91.9974L100.166 91.9688L100.243 91.7034C100.535 91.1074 101.113 89.6443 100.105 89.4703C98.9569 89.8505 96.1442 93.4839 95.2491 94.5312C91.7187 98.6627 87.2781 100.685 81.8634 99.8007C76.2126 98.8775 73.8077 94.3478 70.352 90.3597C69.484 89.3598 68.438 88.8821 67.5976 87.7132C67.6448 88.2211 67.9644 89.412 67.6292 89.755C67.2712 89.6521 66.9817 89.2316 66.7289 88.9313C67.2806 85.1175 70.5377 84.8998 73.2838 82.6472ZM75.7486 93.158C79.9024 95.1133 82.5595 95.4659 87.2744 95.0092C88.0718 94.932 88.7523 94.6661 89.4907 94.5593C89.7231 94.4226 90.0986 93.9007 90.2852 93.6651C90.5836 93.1758 90.9915 92.1232 90.8791 91.544C90.3063 90.7272 89.6286 91.2071 88.8444 91.5231L87.4202 90.833C86.659 90.882 85.4673 91.1959 84.7915 91.1533C83.3867 91.0646 82.1416 90.529 80.5811 90.2687C79.6434 92.3064 79.5852 90.1497 78.2557 90.1248C77.5018 90.4968 77.241 91.0569 76.8893 91.7721C76.343 90.1412 76.1291 89.913 74.3169 90.3281C74.5067 90.7137 75.587 92.9749 75.7486 93.158Z" fill="black"/>
<path d="M75.3525 94.0383C75.6193 94.1331 75.9435 94.3146 76.2179 94.424C80.6184 96.1803 85.0697 96.3463 89.6804 95.4498C90.8925 95.2142 91.9821 95.1184 93.1536 94.6622L91.6095 95.9066C91.2221 96.1878 90.8244 96.4815 90.4232 96.7409C85.7476 99.7632 78.4996 98.8442 75.3525 94.0383Z" fill="#F9F9FA"/>
<path d="M90.2853 93.665L90.7349 93.6187C91.58 93.1314 91.1625 91.6827 91.8494 90.9031C92.2411 90.4586 92.8561 90.4875 93.4408 90.439L93.6649 90.4437C94.1862 90.425 94.2662 90.421 94.7572 90.5875C94.9073 90.7438 95.0732 90.8626 95.0202 91.0891C94.4594 93.4878 91.3749 94.3576 89.4908 94.5593C89.7232 94.4225 90.0987 93.9006 90.2853 93.665Z" fill="#F9F9FA"/>
<path d="M93.4406 90.439L93.6647 90.4437C93.7204 91.0025 93.6836 91.4468 93.4845 91.9656L93.3369 92.0237C93.177 91.5852 93.3558 90.9227 93.4406 90.439Z" fill="#18191B"/>
<path d="M72.3577 89.4417C73.1984 89.627 73.7732 89.6532 74.317 90.328C74.5068 90.7136 75.5871 92.9748 75.7487 93.1579C74.0067 92.5002 73.2674 90.9866 72.3577 89.4417Z" fill="#EBEBEC"/>
<path d="M94.7724 63.6785C97.2376 62.4138 99.631 62.2566 102.346 62.698C103.318 62.8559 105.084 63.2525 105.849 63.8609C105.653 64.3864 105.228 64.0981 105.396 64.5111C106.151 64.8536 107.208 64.6611 107.685 64.9506L107.644 65.1299C107.371 65.2664 106.892 65.4497 106.753 65.6649C107.02 65.9511 108.118 66.0628 108.539 66.1167C108.234 66.3356 108.064 66.398 107.717 66.5052L107.523 66.849C107.759 67.4435 108.387 67.5728 108.951 67.7333C108.96 68.1294 108.852 68.4013 108.737 68.7787C108.29 68.94 107.863 68.9789 107.402 68.854C105.418 68.3154 103.189 69.5147 101.37 68.6401C101.197 68.6776 101.024 68.7123 100.85 68.7443C99.5673 68.9883 98.5051 69.1991 97.3257 68.3961C97.139 67.7849 96.7862 66.2638 96.3356 65.9429C95.3825 65.8604 92.9482 67.2717 93.6127 68.3011L93.7028 68.4345C93.1829 68.6261 92.8097 68.5566 92.3889 68.7214C92.8533 65.5853 97.0287 63.824 99.8657 63.6903C100.305 63.6697 100.745 63.6489 101.185 63.6344C101.758 63.6737 102.148 63.7733 102.605 63.4816C102.248 63.2539 102.144 63.3268 101.657 63.3015C99.7303 62.9374 97.7399 63.1363 95.9237 63.8745C95.4726 63.8132 95.324 63.7207 94.7724 63.6785ZM101.224 68.4598C101.978 68.4099 102.706 68.3827 103.447 68.2265C103.846 68.1286 104.356 68.0629 104.587 67.7497C104.55 67.0814 103.226 66.2491 102.67 66.012C102.173 67.1665 102.062 67.4939 101.224 68.4598Z" fill="black"/>
<path d="M99.4294 64.8043C99.6952 64.6066 100.071 64.6611 100.27 64.9263C100.468 65.1916 100.415 65.5675 100.15 65.767C99.8845 65.9673 99.5065 65.9137 99.307 65.6472C99.1074 65.3808 99.1623 65.0029 99.4294 64.8043Z" fill="#EBEBEC"/>
<path d="M93.1008 61.3524C94.3397 60.1429 94.752 59.1992 96.5386 58.7502C100.144 57.8439 105.32 57.5828 108.518 59.7379C108.849 60.4736 108.888 60.4441 108.978 61.2532C108.939 61.3235 108.886 61.4351 108.833 61.4851C108.142 61.3066 107.349 61.0524 106.654 60.955C102.263 60.3919 97.6419 61.9488 93.4596 63.132C92.5873 63.3789 91.2336 63.527 90.5858 64.0575L90.4117 64.029C90.0376 62.1507 91.4846 60.4971 92.749 59.3689C92.3448 60.0957 91.9485 60.5842 91.5909 61.3806C91.4524 61.803 91.3391 61.8892 91.4549 62.2436C91.7625 62.0971 91.8594 61.7823 91.9623 61.4554C92.2501 61.0789 93.138 59.8355 93.5181 59.756C93.6412 60.172 93.2679 60.9479 93.1008 61.3524Z" fill="black" fill-opacity="0.988235"/>
<path d="M76.4889 80.3628C76.6569 80.6209 76.7452 80.8114 77.0067 80.97C77.3834 83.8353 79.7062 82.0483 81.482 82.541C82.418 82.8007 83.1342 83.7041 83.9432 84.1896L85.4642 83.7545C86.4698 82.6376 88.7262 80.5303 90.2363 82.0107L90.2427 82.181C89.1494 82.7262 87.965 82.0989 87.4957 83.2066L87.5951 83.3834C90.6473 83.2379 92.6252 84.283 91.6886 80.3782L92.3948 80.1114C93.3605 81.7774 93.7483 83.5527 91.5336 84.297C90.4369 84.6654 89.2258 84.5732 88.1558 84.9703C87.0359 85.3857 86.0711 86.3995 84.789 86.4241C83.3885 86.4744 82.5888 86.2114 81.905 84.9631C81.6753 84.6659 81.4282 84.0445 81.0386 83.9382C78.026 83.1166 76.549 84.3394 76.4889 80.3628Z" fill="black" fill-opacity="0.980392"/>
<path d="M67.5201 68.4279C68.8429 68.1146 70.1737 69.5423 71.5501 69.7019C71.8772 69.7398 72.3159 69.8736 72.6438 69.9592C71.3248 70.6727 68.4814 69.4625 67.5201 68.4279Z" fill="black" fill-opacity="0.929412"/>
<path d="M97.7229 70.6082C98.6816 70.5249 99.7091 70.9382 100.643 70.9299C101.401 70.9231 103.135 70.4329 103.853 70.6511L103.902 70.8724C102.713 71.1976 98.4126 71.7944 97.7229 70.6082Z" fill="black"/>
<path d="M108.518 59.738C109.176 60.0816 111.22 61.6436 111.024 62.4812C110.79 62.4721 109.608 61.7237 108.833 61.4852C108.886 61.4352 108.939 61.3236 108.979 61.2533C108.888 60.4443 108.849 60.4737 108.518 59.738Z" fill="black" fill-opacity="0.929412"/>
<path d="M90.3665 64.3328C90.518 64.6499 90.3042 65.8507 90.2151 66.1803C89.9591 67.128 90.1542 69.8308 89.7014 70.4809C89.1779 69.7042 89.7853 65.157 90.3665 64.3328Z" fill="black" fill-opacity="0.886275"/>
<path d="M80.625 65.4226C81.8201 66.0986 81.169 69.0276 80.5998 70.0563L80.506 70.0888C80.3364 69.5925 80.7961 68.811 80.7968 68.2471C80.7981 67.2047 80.5604 66.4962 80.625 65.4226Z" fill="black" fill-opacity="0.921569"/>
<path d="M92.4773 65.9176C93.2101 64.6973 93.5274 64.2696 94.7726 63.6783C95.3242 63.7206 95.4727 63.8131 95.9239 63.8744C94.756 64.2935 93.5432 65.2533 92.4773 65.9176Z" fill="black" fill-opacity="0.937255"/>
<path d="M89.897 77.4561C90.7376 78.2731 91.6065 79.2398 92.3946 80.1115L91.6885 80.3783C90.9338 79.3542 90.4678 78.583 89.897 77.4561Z" fill="black" fill-opacity="0.878431"/>
<path d="M76.4889 80.3628C76.8893 79.2918 77.5396 78.7077 78.308 77.8746C77.8256 78.8812 77.2795 79.8944 77.0067 80.9701C76.7452 80.8115 76.6569 80.621 76.4889 80.3628Z" fill="black" fill-opacity="0.835294"/>
<path d="M108.951 67.7331C109.477 67.4909 109.838 67.1887 110.321 67.3374L110.056 67.3042L110.14 67.6231C109.799 67.9177 109.088 68.568 108.737 68.7785C108.852 68.4011 108.96 68.1292 108.951 67.7331Z" fill="black" fill-opacity="0.905882"/>
<path d="M93.6126 68.3011C94.2048 68.1634 94.817 68.01 95.4187 68.1751C94.7105 68.4587 93.1523 68.8323 92.3888 68.7214C92.8096 68.5566 93.1828 68.6261 93.7027 68.4345L93.6126 68.3011Z" fill="black" fill-opacity="0.913725"/>
<path d="M108.539 66.1166L108.93 65.8143L109.131 65.8405C109.081 66.6232 108.131 66.739 107.523 66.8489L107.717 66.5051C108.064 66.3978 108.234 66.3355 108.539 66.1166Z" fill="black" fill-opacity="0.972549"/>
<path d="M101.657 63.3015C102.144 63.3267 102.248 63.2538 102.605 63.4815C102.148 63.7733 101.758 63.6736 101.185 63.6343L101.657 63.3015Z" fill="black" fill-opacity="0.12549"/>
<path d="M91.5911 61.3808L91.9625 61.4555C91.8596 61.7825 91.7627 62.0973 91.4551 62.2437C91.3393 61.8894 91.4526 61.8032 91.5911 61.3808Z" fill="black" fill-opacity="0.494118"/>
<path d="M94.3909 27.8558C98.4149 26.1704 99.284 27.1003 103.005 27.8937L103.282 28.1083C103.669 28.0484 103.573 27.9077 103.942 27.6305C103.87 27.6011 103.767 27.4891 103.704 27.4288L103.817 27.1903L104.138 26.7676C107.17 28.2316 110.849 30.4156 112.857 33.1966C117.713 39.2672 120.794 49.3619 124.019 56.4998C124.593 57.7703 126.154 61.708 126.863 62.664L126.614 63.1075C124.193 59.5886 122.251 56.6774 120.044 53.0383C120.458 55.1689 123.009 60.6843 123.982 62.8976C123.929 63.34 124.01 63.2665 123.756 63.4982C122.962 62.4745 121.991 60.5303 121.343 59.3211C116.19 49.7083 114.816 36.3751 105.222 29.8593C102.506 28.0149 97.858 27.5726 94.8345 28.2032L94.3909 27.8558Z" fill="#F9F9FA"/>
<path d="M104.138 26.7677C107.17 28.2316 110.85 30.4156 112.857 33.1966L112.643 33.4894C113.505 34.6624 114.477 35.9868 115.104 37.2996C117.07 41.4178 118.462 45.8266 120.069 50.0958C120.302 50.7132 120.522 51.3381 120.701 51.9712L120.485 52.2324C115.64 45.0804 111.53 31.838 103.942 27.6306C103.87 27.6012 103.767 27.4892 103.704 27.4289L103.818 27.1904L104.138 26.7677Z" fill="black"/>
<path d="M104.138 26.7675C107.17 28.2315 110.849 30.4155 112.857 33.1965L112.643 33.4893C110.948 31.5015 106.315 27.6674 103.817 27.1903L104.138 26.7675Z" fill="#CBCBCB"/>
<path d="M120.701 51.971C120.893 52.349 121.2 52.8407 121.186 53.2386C120.875 53.0334 120.674 52.5761 120.485 52.2323L120.701 51.971Z" fill="#19241D"/>
<path d="M118.001 34.4956C120.268 38.1993 122.258 43.0884 123.969 47.1071C125.963 51.7585 127.983 56.3988 130.029 61.0273C131.869 65.1342 133.76 69.2175 135.704 73.2763C137.549 77.1708 139.612 81.6213 140.882 85.7504C141.557 87.9435 141.199 91.8797 140.859 94.1254C142.054 91.649 141.931 88.8945 141.377 86.2679C143.691 90.5425 145.494 99.055 144.085 103.797C143.848 104.6 143.527 105.376 143.127 106.112C142.679 103.637 142.022 101.253 141.562 98.8304C142.349 99.823 143.389 101.571 144.066 102.319C143.518 100.76 142.85 99.2445 142.07 97.7872C141.721 97.1411 140.583 95.5003 140.445 94.9082C140.039 93.1667 140.243 91.1023 140.073 89.3023C139.563 83.9273 137.227 78.9263 134.956 74.111C133.024 70.0153 131.11 65.9794 129.315 61.8378C127.348 57.3792 125.473 52.8803 123.692 48.3438C122.383 45.0338 121.139 41.6948 119.634 38.4671C119.2 37.5362 118.275 35.4601 117.717 34.6564L118.001 34.4956Z" fill="#F9F9FA"/>
<path d="M99.2648 30.7056C108.579 31.6448 111.284 39.8622 114.397 47.3428C116.028 51.2607 117.97 55.0648 119.767 58.9243C124.231 68.5138 129.844 78.0596 138.084 84.8938C138.231 85.0163 138.609 85.4493 138.662 85.614C137.709 85.5797 134.055 82.0447 133.325 81.2622C127.665 75.1953 123.51 67.9232 119.457 60.7367C116.885 56.2554 115.541 51.1848 113.113 46.7685C113.529 48.6119 114.104 50.3252 114.642 52.1461C116.345 57.903 118.461 63.9672 121.346 69.2484C122.101 70.6289 123.37 71.9813 124.211 73.2525L124.106 73.595C120.513 69.2442 118.63 65.8769 116.535 60.569C113.376 52.5599 112.43 41.7875 107.023 35.0576C104.639 32.0909 102.354 31.4052 98.782 31.1133L99.2648 30.7056Z" fill="#F9F9FA"/>
<path d="M117.982 76.0366C118.656 76.6669 119.472 78.8906 120.369 79.9104C120.206 80.4489 119.985 81.1631 119.752 81.6664C119.365 82.5 118.167 82.1785 117.71 83.1375L117.821 83.2483C118.443 83.3418 118.916 83.2416 119.533 83.1527C118.695 84.9322 118.242 91.2329 114.724 89.4561C113.584 88.2298 113.692 84.4968 114.651 83.4066C116.536 81.2622 116.463 80.9621 116.926 78.2578C117.147 79.2551 117.67 81.0311 118.776 81.3295C119.39 80.4357 118.135 77.434 117.992 76.1358L117.982 76.0366Z" fill="#F9F9FA"/>
<path d="M114.5 85.0645C115.694 85.1852 116.424 85.4527 117.454 86.0205C117.3 87.2586 117.329 88.154 116.354 88.943C115.967 89.0182 115.563 89.1527 115.226 88.9731C115.264 88.563 115.985 88.5947 116.319 87.8857C116.376 86.8493 115.079 86.4549 114.5 85.0645Z" fill="black"/>
<path d="M57.4788 92.6297C57.7892 92.9659 57.8125 93.3175 57.9018 93.7694C59.2107 103.273 58.6139 113.366 55.0257 122.297C54.5019 123.6 53.482 124.866 53.0827 126.177C54.1714 124.852 56.0046 122.837 56.7941 121.449L57.0565 121.844C54.9463 126.39 50.2643 132.298 44.8164 132.613C44.549 132.488 44.6573 132.579 44.4935 132.317C46.1536 132.069 48.6583 130.567 49.8585 129.344C57.1053 121.953 57.5089 109.475 57.6664 99.7075C57.7066 97.2107 57.433 95.0087 57.4788 92.6297Z" fill="#F9F9FA"/>
<path d="M124.265 103.956C125.183 102.979 126.031 102.104 126.427 100.782C127.379 97.6024 126.908 94.0159 125.999 90.883C125.736 89.9788 125.166 88.7711 125.114 87.8797C126.991 91.0231 128.187 97.4369 128.415 101.079C128.591 103.877 127.848 107.15 126.456 109.606C126.742 108.257 127.125 106.655 127.172 105.291C127.225 103.705 127.015 102.886 127.258 101.27L127.132 101.264C126.728 102.035 126.615 103.483 126.338 104.365C125.507 107.015 124.146 109.212 122.524 111.423L121.989 111.424C123.287 109.128 123.418 108.12 123.598 105.577C123.288 106.026 122.975 106.473 122.659 106.918L122.17 106.773L124.628 100.562C124.619 101.954 124.469 102.599 124.265 103.956Z" fill="#F9F9FA"/>
<path d="M52.3332 48.6044C55.0098 38.5749 57.5456 32.9265 65.4066 25.9556L65.733 26.2117C64.6081 27.3618 61.3665 30.8039 60.4447 32.0537L60.611 32.4329C61.4124 31.6545 62.1158 30.8902 62.8696 30.0701C62.4217 30.9872 60.2805 34.549 59.584 35.2119C59.5904 35.2753 59.6415 35.7838 59.6415 35.7838C59.3345 36.4831 56.286 41.6005 55.8091 41.7282C54.9051 42.4779 53.2167 47.431 52.78 48.7198L52.3332 48.6044Z" fill="#969596"/>
<path d="M55.8092 41.7281C55.9039 39.8628 58.2424 36.583 59.5841 35.2118C59.5904 35.2751 59.6415 35.7837 59.6415 35.7837C59.3345 36.483 56.286 41.6004 55.8092 41.7281Z" fill="#3B3B3D"/>
<path d="M60.4449 32.0537L60.6111 32.4329C60.3267 32.6922 60.3561 32.7609 60.0472 32.7559C60.0975 32.3281 60.1089 32.4314 60.4449 32.0537Z" fill="#3B3B3D"/>
<path d="M91.4728 20.1864C92.6106 19.165 93.7316 17.9672 95.1965 17.46C96.6608 16.9529 100.536 18.1299 101.846 18.8584C100.729 18.6394 97.4567 18.1299 96.5106 19.0236C96.6766 19.2913 96.8232 19.2654 97.1868 19.3946C97.3412 19.5556 97.4775 19.735 97.6703 19.8214C98.8906 20.6358 100.564 20.9351 102.221 22.0492C98.8057 21.0719 97.1457 20.9129 93.772 22.5722L93.8525 22.8592L92.8615 23.2541L92.6587 22.9991C92.306 22.213 94.2197 22.0833 94.462 21.3386C93.6035 21.2147 92.4815 21.6594 91.6898 21.9526C92.7519 20.7823 94.177 20.0651 95.5362 19.2251C94.0032 19.6325 93.0383 19.8913 91.4728 20.1864Z" fill="#F9F9FA"/>
<path d="M92.6586 22.999C93.1152 22.7814 93.2866 22.7078 93.7719 22.5721L93.8524 22.8591L92.8614 23.254L92.6586 22.999Z" fill="#3B3B3D"/>
<path d="M126.471 85.2339C128.294 87.853 129.85 91.81 130.81 94.8481C131.152 95.9312 131.284 97.4484 131.511 98.5912C131.912 100.603 132.131 102.081 131.682 104.117C131.3 101.811 130.981 99.7528 130.363 97.4985C130.1 100.232 130.798 102.663 130.604 105.434C130.196 104.813 130.136 102.215 129.928 101.2C129.141 97.344 128.649 94.7047 127.162 91.0324C128.429 92.5642 128.942 94.5692 130.299 96.1149C129.573 94.0675 129.004 91.9784 128.312 89.9552C127.902 88.7539 126.834 86.6043 126.251 85.4081L126.471 85.2339Z" fill="#F9F9FA"/>
<path d="M53.3831 50.7699C54.3489 47.0182 55.7034 44.3609 57.8871 41.1795C58.4786 40.3179 60.1328 37.9466 60.532 37.103L60.6715 37.1561C60.6117 37.5998 60.5067 37.6768 60.3479 38.0501C58.3954 42.6406 55.8347 48.4073 54.8564 53.2702L54.3283 53.0588C54.5453 52.0573 54.8261 51.1552 55.1228 50.1784L54.8256 49.9732C54.7266 50.1973 54.3526 51.0872 54.2404 51.2335C53.6769 51.1135 53.7308 51.1515 53.3831 50.7699Z" fill="#8A8A8A"/>
<path d="M54.8256 49.9731C54.9825 49.6239 55.0352 49.3329 55.3098 49.1586C55.3901 49.5168 55.2426 49.8305 55.1228 50.1782L54.8256 49.9731Z" fill="#3B3B3D"/>
<path d="M131.882 90.612C134.706 94.5921 137.259 97.9352 138.03 102.933C138.702 107.284 137.824 109.975 134.348 112.853C134.67 112.377 134.992 111.9 135.302 111.416C139.706 104.536 135.005 97.0993 131.667 90.9703L131.882 90.612Z" fill="#F9F9FA"/>
<path d="M112.182 52.8732C112.575 53.4475 113.929 58.3925 114.413 59.6207C117.421 67.1122 120.961 75.6946 127.393 80.8678C128.906 82.0842 130.629 82.3639 132.035 83.2962C131.628 83.3543 131.044 83.1884 130.65 83.0529C124.551 80.9565 120.953 74.8892 118.051 69.5365C116.025 65.8014 114.498 62.0526 113.37 57.9823C112.87 56.1766 112.359 54.7431 112.182 52.8732Z" fill="#F9F9FA"/>
<path d="M53.383 50.77C53.7308 51.1516 53.6769 51.1136 54.2404 51.2336C52.7833 54.459 51.7953 61.6971 50.9158 65.3799C49.7303 70.3448 48.4141 75.0423 46.7459 79.8878C46.2939 81.2005 45.4563 84.4037 44.9193 85.3264L44.7695 85.3622C44.6582 85.0455 46.5877 78.8467 46.8402 78.0439C49.0454 71.0297 50.9654 64.041 51.8963 56.7309C52.1555 54.696 52.9056 52.7645 53.383 50.77Z" fill="#EBEBEC"/>
<path d="M59.1982 116.704L59.6297 116.928C60.621 123.158 61.783 134.449 53.1766 135.666C51.7216 135.872 50.5895 135.852 49.1464 135.559L49.2544 135.267C61.0365 136.222 59.9321 124.75 59.1982 116.704Z" fill="#F9F9FA"/>
<path d="M36.6837 121.653C37.7688 120.752 38.3808 120.004 39.363 119.034C39.6018 120.413 36.5619 124.046 35.1006 124.528L34.9959 124.362C35.0586 123.967 35.1632 123.701 35.3287 123.338C36.7327 120.255 37.6016 117.062 38.3568 113.778C38.8379 114.203 38.7119 114.168 38.9161 114.872C39.5314 118.807 37.8636 118.63 36.7074 121.591L36.6837 121.653Z" fill="#F9F9FA"/>
<path d="M90.1636 28.0043C92.1929 26.0108 93.9143 24.5636 96.9233 24.6073C98.9655 24.637 102.228 25.897 104.138 26.7676L103.817 27.1904L103.704 27.4289C103.767 27.4891 103.87 27.6012 103.942 27.6306C103.573 27.9077 103.669 28.0485 103.282 28.1084L103.005 27.8938C102.27 26.8672 99.7695 26.0539 98.5356 25.8632C95.4186 25.3812 93.1588 26.1737 90.6582 28.0292L90.1636 28.0043Z" fill="#EBEBEC"/>
<path d="M92.5172 16.5971C98.0541 15.6065 102.043 16.2264 106.922 19.3536C108.074 20.0921 109.687 21.7602 110.483 22.8781L110.325 23.193C110.094 22.924 109.853 22.6625 109.605 22.4093C104.447 17.1724 99.5835 16.8812 92.6392 16.8271L92.5172 16.5971Z" fill="#F9F9FA"/>
<path d="M64.0486 109.123L64.428 109.216C65.0453 110.318 65.1934 111.586 65.5141 112.788C66.8225 117.695 68.1346 124.725 65.0626 129.244C66.8227 122.128 66.333 116.069 64.0486 109.123Z" fill="#F9F9FA"/>
<path d="M59.7062 100.872L60.1105 101.055C61.0365 107.804 62.1978 114.209 63.2811 120.917C61.4402 116.576 59.8937 105.729 59.7062 100.872Z" fill="#F9F9FA"/>
<path d="M42.2038 89.2468L42.3937 89.4012C42.398 89.8374 42.0837 91.2797 41.9992 91.8374C41.3493 96.121 40.0458 100.276 39.1174 104.499C38.8224 105.841 38.8632 107.376 38.5809 108.794C38.5213 108.733 38.4756 108.687 38.4418 108.607C37.5234 106.433 41.3287 92.0415 42.2038 89.2468Z" fill="#F9F9FA"/>
<path d="M55.5418 34.4768L55.654 34.5394C55.5728 34.9229 54.3014 37.2577 53.9993 38.0345C52.6391 41.5317 50.9893 45.2608 49.8564 48.8184C49.8185 48.812 49.7148 48.7155 49.6763 48.6841C49.4448 46.5862 51.9035 40.5841 52.9794 38.5534C53.708 37.178 54.6271 35.7537 55.5418 34.4768Z" fill="#EDEDEE"/>
<path d="M93.8524 22.859C96.8085 21.768 99.4424 21.6283 102.165 23.4978L101.827 23.7484C96.8769 21.8153 93.0986 23.0055 89.3695 26.7353L89.2818 26.7146C89.3679 25.5653 91.941 23.8245 92.8613 23.2539L93.8524 22.859Z" fill="#F0EFF0"/>
<path d="M42.1269 99.33C42.5524 100.715 41.3313 111.605 40.8763 113.346C39.7966 112.181 41.9719 101.041 42.1269 99.33Z" fill="#F9F9FA"/>
<path d="M72.6734 25.7685C77.4228 24.2399 80.9124 25.2266 84.2987 28.8657C80.0005 26.0435 78.3565 25.2688 73.1762 26.2237L71.8823 26.5246L71.3809 26.3751C71.8457 26.177 72.2229 25.9978 72.6734 25.7685Z" fill="#EBEBEC"/>
<path d="M72.6734 25.7687C73.0583 26.067 73.2356 26.0268 73.7009 26.012L73.1762 26.2239L71.8824 26.5248L71.381 26.3753C71.8457 26.1772 72.2229 25.9979 72.6734 25.7687Z" fill="#EBEBEC"/>
<path d="M47.8723 56.2408C48.06 57.0587 45.3209 65.2799 44.951 66.5499C44.7776 67.1456 44.1402 69.7015 43.9346 70.1581L43.8656 70.0217C44.2306 66.8365 46.2348 58.9183 47.8723 56.2408Z" fill="#EBEBEC"/>
<path d="M46.5927 87.6306C46.6687 87.7503 46.7337 88.0096 46.7148 88.1491C46.1077 92.6422 45.8241 97.1682 45.3829 101.679C45.2977 102.551 45.2378 103.701 44.985 104.526C44.9331 104.457 44.8327 104.325 44.8317 104.244C44.8067 102.143 45.9036 88.8917 46.5927 87.6306Z" fill="#F9F9FA"/>
<path d="M51.4516 55.7792C51.573 55.8854 51.5373 55.8729 51.6056 56.0449C51.1035 58.1638 48.9398 62.7159 48.0069 64.9864C47.1444 67.086 45.8446 70.7965 44.9014 72.6948L44.8656 72.7282C45.8913 68.9253 47.9054 64.2941 49.3508 60.5934C49.7633 59.5368 50.9282 56.6405 51.4516 55.7792Z" fill="#CBCBCB"/>
<path d="M45.2557 112.13L45.4397 112.346C45.3399 115.207 43.1025 119.944 41.0498 121.969L40.9766 121.934C40.9274 121.653 41.5643 120.682 41.7474 120.298C42.8952 117.89 44.6457 114.668 45.2557 112.13Z" fill="#EBEBEC"/>
<path d="M117.551 95.1311C117.567 95.2115 117.605 95.4257 117.593 95.4975C116.849 100.001 115.053 104.21 111.679 107.322C111.593 107.001 112.812 105.341 113.074 105.049C115.679 102.148 116.086 98.3558 117.551 95.1311Z" fill="#EBEBEC"/>
<path d="M75.541 20.8811C78.5609 19.8968 83.3524 19.8224 86.0399 21.7377C85.6392 21.7849 84.6688 21.4433 84.2281 21.3127C81.6953 20.638 78.2557 20.6345 75.7088 21.2454C74.9914 21.4175 73.8356 21.9542 73.2291 21.9705L73.2103 21.8193C73.7882 21.3745 74.8448 21.0667 75.541 20.8811Z" fill="#EBEBEC"/>
<path d="M77.7956 22.7054C81.1079 22.1693 82.8273 23.2248 85.4915 25.1038C85.6621 25.2241 85.7241 25.2798 85.8582 25.4484C82.7556 24.3039 81.5799 23.3881 77.8613 23.2395C77.9072 23.075 77.8366 22.8807 77.7956 22.7054Z" fill="#EBEBEC"/>
<path d="M76.8398 19.1723C77.4729 19.0333 78.2566 18.8617 78.8902 18.7601C81.2697 18.3786 85.6276 18.9811 87.3828 20.7984L87.3722 21.0525C86.6174 20.5276 86.0383 20.2115 85.1831 19.8988C82.7378 19.0174 79.3255 18.8922 76.7929 19.4621C75.867 19.6705 74.9938 20.1039 73.9618 20.3027L73.9193 20.2089C74.9875 19.3621 75.4641 19.4135 76.8398 19.1723Z" fill="#CBCBCB" fill-opacity="0.984314"/>
<path d="M97.1868 19.3944C98.8957 18.9723 103.142 20.403 104.677 21.4445C106.316 22.5564 107.925 23.4782 109.169 25.0565C106.851 23.2747 104.459 21.4139 101.61 20.5806C100.902 20.3737 98.2709 19.6812 97.6703 19.8212C97.4775 19.7348 97.3412 19.5554 97.1868 19.3944Z" fill="#CBCBCB"/>
<path d="M78.1241 17.5541C79.4569 17.0095 82.8067 17.1274 84.2043 17.5269C84.5752 17.6328 85.8767 17.9181 86.044 18.1939L86.1216 18.2067C85.6893 18.2895 85.1733 18.042 84.7442 17.8842C80.8607 17.4081 78.9805 18.036 75.2934 18.6646C76.3732 18.1211 76.9761 17.8947 78.1241 17.5541Z" fill="#CBCBCB" fill-opacity="0.988235"/>
<path d="M93.2328 34.9317C93.4828 34.6344 94.3113 34.2175 94.6824 34.0517C97.8115 32.6542 101.502 32.3901 104.501 34.2524C104.644 34.3412 104.778 34.6001 104.761 34.7708C99.9265 32.1197 97.6848 33.3883 93.0473 35.2453L93.2328 34.9317Z" fill="#CBCBCB"/>
<path d="M67.795 63.3342C69.0257 61.317 72.8674 61.6472 74.7647 62.5037L74.0619 63.0694L73.6163 63.0018C73.7205 62.8979 73.6865 62.9244 73.741 62.771C73.0333 62.0298 68.5232 62.4761 68.2067 63.8163L67.9607 64.0901C67.6412 64.0198 68.1001 63.7137 67.795 63.3342Z" fill="black" fill-opacity="0.980392"/>
<path d="M108.07 106.336L108.545 106.52C107.58 108.945 107.171 110.412 109.204 112.257C108.263 111.986 107.336 111.79 107.01 110.731C106.573 109.312 107.461 107.579 108.07 106.336Z" fill="#F9F9FA"/>
<path d="M63.0531 47.4161L63.3309 47.2668C62.5176 49.3482 62.1457 59.9676 61.4193 60.9422L61.2403 60.9078C61.1439 60.6116 62.7818 48.8603 63.0531 47.4161Z" fill="#CBCBCB" fill-opacity="0.984314"/>
<path d="M67.0648 22.147L67.3414 22.1077C67.1342 22.3724 66.8443 22.5665 66.5705 22.7606C64.6213 24.1423 62.7867 25.572 60.9745 27.1282L60.7468 27.1338C62.1361 25.295 64.8589 23.0104 67.0648 22.147Z" fill="#CBCBCB"/>
<path d="M80.1018 61.9973L80.4735 61.8561C80.8013 60.897 79.5683 60.3758 79.5221 59.5867L79.6899 59.4338C80.317 59.6888 81.6858 62.0632 81.6405 62.8238C81.2702 63.4045 80.2867 62.7791 79.6245 62.5756L80.0954 62.2827L80.1018 61.9973Z" fill="black" fill-opacity="0.917647"/>
<path d="M71.331 25.0401C73.4711 23.6273 75.2864 22.995 77.7957 22.7054C77.8368 22.8807 77.9073 23.075 77.8614 23.2395C74.5408 23.6769 74.2486 24.2174 71.331 25.0401Z" fill="#CBCBCB"/>
<path d="M65.4065 25.9556C66.7577 24.7816 71.3729 21.0461 72.8723 20.649C72.3814 21.085 70.7393 22.1356 70.0389 22.6514C68.4441 23.8256 67.2182 24.9683 65.7329 26.2117L65.4065 25.9556Z" fill="#919192"/>
<path d="M86.8439 28.9746C86.9211 29.2714 86.6861 30.0829 86.5987 30.4201C86.0969 32.3566 85.9299 34.2786 85.7331 36.264C84.8884 35.0262 86.0403 30.2343 86.8439 28.9746Z" fill="#EBEBEC"/>
<path d="M57.6775 124.405L57.8195 124.647C57.3098 126.561 56.1481 130.347 54.7103 131.702L54.632 131.607C56.0472 129.108 56.7207 127.1 57.6775 124.405Z" fill="#CBCBCB"/>
<path d="M68.2068 63.8162C68.5232 62.476 73.0334 62.0298 73.741 62.771C73.6865 62.9243 73.7205 62.8979 73.6163 63.0017C70.7807 62.814 70.7551 62.799 68.2068 63.8162Z" fill="black" fill-opacity="0.0352941"/>
<path d="M62.8649 128.311C62.9567 128.392 63.0023 128.396 62.9955 128.478C62.8077 130.725 61.3986 132.768 60.103 134.348L60.0292 134.322C59.9455 134.083 60.3944 133.594 60.5971 133.297C61.675 131.715 62.2711 130.112 62.8649 128.311Z" fill="#CBCBCB"/>
<path d="M88.8109 21.4651C89.0926 21.8185 89.1094 21.8805 89.2324 22.3025C89.3179 23.329 88.7757 27.1905 87.8596 27.6363C87.8693 27.4319 88.2083 26.6187 88.2959 26.3601C88.8326 24.7761 88.8086 23.1181 88.8109 21.4651Z" fill="#CBCBCB" fill-opacity="0.988235"/>
<path d="M42.1118 83.4322C42.3812 81.8286 42.6846 79.4742 43.0473 77.9724L43.1856 77.9185L43.1891 77.9331L43.1054 77.7762L43.1162 77.7908L43.2051 77.8043L43.1745 77.6707L43.0947 77.8711C43.3893 78.4191 42.6139 82.6628 42.3868 83.3873L42.3528 83.4925L42.1118 83.4322Z" fill="#CBCBCB" fill-opacity="0.984314"/>
<path d="M54.3283 53.0587L54.8564 53.2701C54.5358 54.4738 54.2263 56.2529 53.9844 57.5026L53.8128 57.5173L53.8792 57.7415C53.6695 57.0174 54.1985 53.9392 54.3283 53.0587Z" fill="#A6A6A8"/>
<path d="M46.7784 109.222C47.219 109.781 47.3106 114.791 47.0857 115.625C46.8774 115.254 46.6801 109.751 46.7784 109.222Z" fill="#CBCBCB" fill-opacity="0.968627"/>
<path d="M47.8718 97.6126C48.017 97.965 47.4531 103.003 47.394 103.853C46.7178 103.195 47.6907 98.6412 47.8718 97.6126Z" fill="#EBEBEC" fill-opacity="0.984314"/>
<path d="M123.982 62.8977C124.364 63.8984 126.038 67.0352 126.138 67.6295C125.723 67.0641 123.953 64.0926 123.756 63.4982C124.01 63.2665 123.929 63.34 123.982 62.8977Z" fill="#CBCBCB" fill-opacity="0.980392"/>
<path d="M134.458 98.8852C133.969 97.5353 133.265 95.9086 133.201 94.5044C133.875 95.9631 134.466 97.488 134.725 99.0839L134.458 98.8852Z" fill="#CBCBCB" fill-opacity="0.980392"/>
<path d="M76.4861 34.8432L77.4686 34.5183C77.9075 34.9725 78.7486 35.6123 79.0426 35.9756L78.9198 36.4494C78.2003 35.871 77.3193 35.2344 76.4861 34.8432Z" fill="black" fill-opacity="0.933333"/>
<path d="M59.1981 116.704C59.1348 115.642 58.8518 113.416 58.8733 112.523C59.2656 113.729 59.4693 115.622 59.6296 116.928L59.1981 116.704Z" fill="#A6A6A8" fill-opacity="0.968627"/>
<path d="M52.3331 48.6044L52.7799 48.7198C52.589 49.2911 51.6395 52.2537 51.3646 52.4675C51.6387 51.1447 51.9809 49.9057 52.3331 48.6044Z" fill="#A6A6A8" fill-opacity="0.988235"/>
<path d="M126.614 63.1076L126.863 62.6641C127.199 63.4538 128.639 65.9998 128.678 66.4329C127.764 65.0722 127.417 64.553 126.614 63.1076Z" fill="#CBCBCB" fill-opacity="0.984314"/>
<path d="M117.717 34.6562C117.453 34.0367 115.904 31.6726 115.89 31.3069C116.78 32.3102 117.348 33.3266 118.001 34.4955L117.717 34.6562Z" fill="#CBCBCB" fill-opacity="0.980392"/>
<path d="M109.821 103.619C109.398 104.576 108.949 105.558 108.545 106.52L108.07 106.336C108.657 105.295 109.055 104.539 109.821 103.619Z" fill="#CBCBCB"/>
<path d="M91.6377 29.1514C92.5545 28.6193 93.407 28.2389 94.3907 27.8558L94.8344 28.2033C93.7029 28.5826 92.8092 28.8796 91.6377 29.1514Z" fill="#CBCBCB"/>
<path d="M61.8997 87.8449C62.2399 88.2508 62.7061 88.9706 63.0201 89.4294C62.1824 89.0243 61.9545 88.6392 61.3669 87.9226L61.8997 87.8449Z" fill="black" fill-opacity="0.611765"/>
<path d="M57.4789 92.6297C57.3637 91.4025 57.5496 91.1138 57.5263 90.1351C57.7032 90.6275 57.9081 93.2268 57.9019 93.7693C57.8126 93.3175 57.7893 92.9659 57.4789 92.6297Z" fill="#CBCBCB" fill-opacity="0.984314"/>
<path d="M58.2729 118.745C57.8621 120.077 57.6518 120.592 57.0567 121.843L56.7943 121.449C57.2746 120.498 57.8181 119.644 58.2729 118.745Z" fill="#CBCBCB"/>
<path d="M59.7063 100.871C59.5964 99.9002 59.5076 98.9267 59.4399 97.9515C59.7583 98.8528 59.9512 100.096 60.1106 101.055L59.7063 100.871Z" fill="#CBCBCB" fill-opacity="0.980392"/>
<path d="M76.3715 63.774C77.3577 64.0176 77.867 64.2755 78.6918 64.8714C77.8919 64.6674 77.0089 64.4231 76.2092 64.252L76.3715 63.774Z" fill="black" fill-opacity="0.937255"/>
<path d="M124.211 73.2525C124.682 73.783 125.683 74.872 125.975 75.4494C125.33 75.0408 124.598 74.1857 124.105 73.595L124.211 73.2525Z" fill="#A6A6A8" fill-opacity="0.988235"/>
<path d="M88.6213 18.8765C88.9134 20.001 89.1178 21.1464 89.2325 22.3026C89.1095 21.8806 89.0927 21.8186 88.811 21.4652C88.6875 20.8677 88.6019 20.4263 88.532 19.8135L88.5767 19.8329L88.6863 19.7796L88.6213 18.8765Z" fill="#A6A6A8"/>
<path d="M102.165 23.4978C102.968 23.9771 103.757 24.4783 104.532 25.0008C103.433 24.6605 102.827 24.3198 101.827 23.7484L102.165 23.4978Z" fill="#CBCBCB" fill-opacity="0.988235"/>
<path d="M110.483 22.8781C110.798 23.2624 111.355 23.9937 111.554 24.4368L111.41 24.7069L111.616 24.8213L111.639 24.6707L111.588 24.8209C111.135 24.4953 110.655 23.6836 110.326 23.193L110.483 22.8781Z" fill="#CBCBCB" fill-opacity="0.968627"/>
<path d="M74.7646 62.5036C75.2708 62.7509 75.3542 62.6924 75.5098 63.2839C75.29 63.2103 74.6369 63.2289 74.0618 63.0692L74.7646 62.5036Z" fill="black" fill-opacity="0.027451"/>
<path d="M131.667 90.9702C131.201 90.1174 130.723 89.2956 130.398 88.3779C131.026 89.2123 131.358 89.709 131.882 90.6119L131.667 90.9702Z" fill="#CBCBCB" fill-opacity="0.988235"/>
<path d="M61.3299 61.3969C61.6254 61.9519 61.3342 63.374 61.2077 64.0129C60.8294 63.2864 61.141 62.1501 61.3299 61.3969Z" fill="#CBCBCB" fill-opacity="0.976471"/>
<path d="M38.3567 113.778C38.4416 113.21 38.5249 112.523 38.6324 111.97C38.7648 112.748 38.9408 114.085 38.916 114.872C38.7118 114.168 38.8378 114.203 38.3567 113.778Z" fill="#EBEBEC"/>
<path d="M88.532 19.8135C88.4108 19.3493 88.067 18.7255 87.8734 18.0733L87.9573 17.9974C88.3103 18.3224 88.4578 18.4238 88.6212 18.8765L88.6862 19.7796L88.5766 19.8329L88.532 19.8135Z" fill="#F9F9FA" fill-opacity="0.988235"/>
<path d="M88.7313 29.9934C89.0015 29.3394 89.7005 28.5602 90.1636 28.0043L90.6582 28.0292C90.0312 28.7059 89.3849 29.3431 88.7313 29.9934Z" fill="#A6A6A8"/>
<path d="M52.6344 114.536C52.9424 115.025 52.599 116.407 52.4654 116.978C52.1312 116.341 52.4434 115.197 52.6344 114.536Z" fill="#CBCBCB" fill-opacity="0.984314"/>
<path d="M134.458 98.8853L134.725 99.0839C134.898 100.004 135.051 100.666 135.033 101.603C134.816 100.966 134.581 99.5887 134.458 98.8853Z" fill="#19241D"/>
<path d="M71.8824 26.5247C71.2828 26.7256 70.2651 27.1641 69.702 27.1665L69.8281 27.1663C70.256 26.6885 70.7565 26.6032 71.381 26.3752L71.8824 26.5247Z" fill="#737573" fill-opacity="0.988235"/>
<path d="M122.524 111.423C122.212 111.882 121.693 112.549 121.206 112.808C121.206 112.511 121.786 111.743 121.989 111.424L122.524 111.423Z" fill="#CBCBCB"/>
<path d="M46.7065 134.821C47.6639 134.932 48.3103 135.059 49.2542 135.267L49.1462 135.559C48.1811 135.395 47.5956 135.191 46.7065 134.821Z" fill="#CBCBCB" fill-opacity="0.980392"/>
<path d="M32.7201 131.811C33.4164 131.624 34.3122 131.316 34.9495 131.612C34.3999 131.855 33.2786 132.052 32.7201 131.811Z" fill="#919192" fill-opacity="0.87451"/>
<path d="M121.113 108.547L122.17 106.773L122.659 106.918C122.167 107.521 121.664 108.002 121.113 108.547Z" fill="#CBCBCB"/>
<path d="M126.252 85.4082C126.057 85.0148 125.669 84.349 125.681 83.9437C126.064 84.1377 126.309 84.8375 126.471 85.234L126.252 85.4082Z" fill="#A6A6A8" fill-opacity="0.988235"/>
<path d="M44.8164 132.613C44.4782 132.685 43.584 132.762 43.274 132.605C43.5826 132.377 44.0907 132.365 44.4935 132.317C44.6573 132.579 44.549 132.488 44.8164 132.613Z" fill="#737573"/>
<path d="M61.3059 86.8818L61.8995 87.8449L61.3668 87.9226L61.1072 87.3693C61.2101 87.2256 61.2508 87.0523 61.3059 86.8818Z" fill="black" fill-opacity="0.847059"/>
<path d="M63.053 47.416C63.1418 46.4992 63.2239 46.0168 63.4886 45.1243C63.4489 45.8147 63.4233 46.5879 63.3308 47.2667L63.053 47.416Z" fill="#3B3B3D" fill-opacity="0.976471"/>
<path d="M97.0393 30.8049C97.8113 30.7892 98.4946 30.7636 99.2647 30.7056L98.782 31.1133C98.1549 31.0672 97.6478 30.9407 97.0393 30.8049Z" fill="#CBCBCB" fill-opacity="0.968627"/>
<path d="M64.0484 109.123C63.9522 108.771 63.7295 108.172 63.8012 107.867C64.1284 108.286 64.2505 108.718 64.4277 109.216L64.0484 109.123Z" fill="#CBCBCB" fill-opacity="0.980392"/>
<path d="M89.0481 36.162C89.3513 35.9063 89.5415 35.6742 89.9181 35.664L89.9347 35.8588C89.6711 36.1618 89.5825 36.2099 89.2583 36.4172L89.0481 36.162Z" fill="black" fill-opacity="0.235294"/>
<path d="M72.0567 21.9614L72.3924 21.9764L72.5029 22.1198L72.0333 22.6426L71.7105 22.6112L71.6398 22.4783L72.0567 21.9614Z" fill="#737573"/>
<path d="M46.8322 85.9811L46.9356 86.0917C46.9854 86.4767 46.7901 86.9264 46.6616 87.3108L46.4979 87.1104C46.4356 86.7115 46.6573 86.359 46.8322 85.9811Z" fill="#A6A6A8" fill-opacity="0.988235"/>
<path d="M79.0426 35.9756C79.4165 36.4311 79.451 36.3227 79.4635 36.8021C79.136 36.7542 79.1878 36.717 78.9198 36.4494L79.0426 35.9756Z" fill="black" fill-opacity="0.670588"/>
<path d="M110.902 85.5384L111.214 85.6285C111.18 85.7391 111.023 85.9941 110.957 86.1093L110.751 86.1554C110.661 85.8306 110.686 85.9392 110.902 85.5384Z" fill="black" fill-opacity="0.631373"/>
<path d="M92.6393 16.8271C92.2668 16.9141 92.0961 16.9813 91.7172 16.8832C91.9055 16.649 92.1526 16.6737 92.5173 16.5971L92.6393 16.8271Z" fill="#919192" fill-opacity="0.984314"/>
<path d="M42.3527 83.4925C42.2854 83.8785 42.2269 84.0083 42.0842 84.3589C41.961 84.048 42.0595 83.8077 42.1117 83.4321L42.3527 83.4925Z" fill="#737573" fill-opacity="0.94902"/>
</g>
<defs>
<clipPath id="clip0_21006_4071">
<rect width="127" height="137.914" fill="white" transform="translate(5.56104 20.9844) rotate(-9.51066)"/>
</clipPath>
</defs>
</svg>
