<svg width="112" height="84" viewBox="0 0 112 84" fill="none" xmlns="http://www.w3.org/2000/svg">
<g clip-path="url(#clip0_21008_4318)">
<path d="M0 16C0 9.37258 5.37258 4 12 4H100C106.627 4 112 9.37258 112 16V72C112 78.6274 106.627 84 100 84H12C5.37258 84 0 78.6274 0 72V16Z" fill="#F7F7F5"/>
<path d="M27.1079 4.05418C29.8218 3.6655 32.6492 5.39887 32.8661 8.26509C32.8999 8.71113 32.832 9.39228 32.9204 9.81175C33.1352 10.8626 34.6759 10.3835 35.3782 10.1796C37.7147 9.50135 40.0376 10.6104 40.6053 13.1652C40.8767 14.3946 40.6433 15.6817 39.9576 16.737C38.7849 18.5798 36.9832 19.3226 34.9556 19.7707C36.0779 23.2374 36.4 25.8074 36.742 29.3827C38.8375 31.3515 41.0841 33.3459 42.6572 35.793C43.0325 36.4114 43.3628 37.1377 43.3961 37.8705C43.5474 41.2051 39.2443 41.4429 36.9398 41.5312C36.8912 42.4167 36.6718 44.0324 36.3268 44.8334C35.8407 45.9624 34.0906 45.7494 33.035 45.5753C31.4416 45.3122 29.7143 44.6391 28.2355 43.8777C28.5134 46.299 29.9428 48.0803 31.9919 49.3126C32.4951 49.6154 33.4616 50.0311 33.7298 50.5093C34.0246 51.1381 33.6036 52.1685 33.4172 52.7453C31.8747 57.5215 28.5417 60.0902 23.4586 58.9877C22.0625 58.685 21.0566 58.3693 19.691 57.8775L17.3122 61.6915C18.483 63.252 19.1874 65.1203 19.6656 66.9972C19.7832 67.4591 19.8826 68.06 19.8708 68.5271C19.8586 69.0026 19.1803 69.1546 18.9931 68.6323C18.7849 68.0515 18.7498 67.4441 18.5881 66.8575C18.1714 65.3549 17.5416 63.9198 16.7178 62.5965C16.1481 63.4813 14.9429 65.5088 14.1556 66.3033C13.9019 66.56 13.2273 66.137 13.6338 65.5166C15.3755 62.8583 17.0162 60.0837 18.7952 57.4513C17.5945 56.8452 13.9183 54.7631 13.6799 53.5126C13.7498 53.2319 13.6857 53.3573 13.9051 53.1364C13.9738 53.113 14.1374 53.0559 14.1999 53.0819C14.6234 53.2547 15.2816 53.8731 15.6297 54.1648C17.9883 56.1404 21.1851 57.5163 24.2075 58.0003C26.0735 58.2985 27.8624 58.1809 29.4308 57.0323C31.0811 55.8227 32.5233 52.9305 32.8156 50.9679C29.9077 49.4867 27.4651 47.4293 27.2413 43.8855C27.1526 42.4823 27.9165 42.6064 28.983 43.0754C30.7407 43.8479 33.2819 44.9841 35.2312 44.5228C35.9161 44.1311 35.689 40.7887 36.3408 40.625C37.7706 40.2664 40.6208 40.5308 41.8301 39.3088C43.8696 37.2482 38.8322 32.8188 37.3688 31.4012C35.7814 29.8026 35.7446 30.2663 35.5378 27.7934C35.3149 25.1281 34.6646 22.4312 33.9319 19.865C33.2763 19.8711 31.0923 19.6641 30.5146 19.4192C27.2189 18.0218 28.1795 18.8394 25.411 20.2571C24.726 20.6096 23.9987 20.8727 23.2468 21.0399C21.5894 21.4056 19.9984 21.2682 18.3632 20.9205C17.9862 20.8404 17.5824 20.767 17.1986 20.8182C16.877 21.0153 16.7946 21.4386 16.8036 21.7929C16.8401 23.226 17.1536 24.7113 17.2944 26.1334C17.5702 28.9176 17.5846 32.3093 15.3596 34.3529C14.7289 34.9322 13.3289 35.5721 12.4884 35.1471C12.1615 34.9818 11.8907 34.4281 11.6684 34.1333C10.3661 31.974 7.51743 30.4015 5.09414 31.7035C4.52956 32.0223 3.91615 32.5801 3.59541 33.1488C1.57996 36.722 4.11485 42.2218 8.53485 41.8203C9.04281 41.7742 10.1288 41.0063 10.4673 41.7092C10.3531 42.7194 8.52006 42.8695 7.75017 42.8864C7.69142 43.0202 7.62897 43.1527 7.56282 43.2827C6.41155 45.5376 4.69408 46.9389 2.32203 47.7132C1.51323 49.8116 0.509169 51.296 -1.08969 52.8538C0.146532 55.8493 3.75922 59.5802 6.12933 61.7487C7.10557 62.6446 8.11365 63.504 9.15156 64.3265C9.51939 64.6156 11.1812 65.7265 11.1959 66.1156C11.2474 67.4876 9.51018 66.0006 9.09268 65.6823C6.57867 63.7704 4.24234 61.635 2.11224 59.3022C0.984708 58.0594 -2.00776 54.5533 -2.21444 52.6401C-2.18084 52.3809 -1.91678 52.1945 -1.74201 52.0483C-0.35767 50.89 0.594251 49.0606 1.37679 47.4962C1.13133 46.9993 0.895541 46.2704 0.686727 45.7351C0.366371 44.9243 -0.00897646 44.1369 -0.436722 43.3775C-2.96539 38.8917 -6.1753 35.6052 -6.87573 30.0761C-7.44394 25.5901 -6.13172 20.5749 -1.52425 18.8177C-0.820825 18.5495 0.472334 18.4057 1.00974 18.0443C1.25584 17.8787 1.20818 16.434 1.24599 16.0002C1.27919 15.6493 1.33937 15.3014 1.42601 14.9598C1.65739 14.0623 2.07301 13.223 2.64621 12.4954C4.75057 9.81006 8.68614 8.96657 11.9089 9.42047C13.9577 9.70904 15.8598 10.2249 17.8603 9.38611C18.9967 8.9096 19.8861 8.1935 20.7879 7.36553C22.755 5.59104 24.4273 4.37393 27.1079 4.05418Z" fill="#242320"/>
<path d="M30.0386 23.0515C30.5521 23.0089 30.9086 23.0724 31.2588 23.4528C32.4047 24.6836 30.6972 25.3109 29.6817 25.5022C28.3923 25.745 27.4187 26.5794 26.4284 27.3723C25.5415 27.7573 25.1574 27.3597 24.9199 26.5274C25.4532 24.6081 28.1707 23.2876 30.0386 23.0515Z" fill="#242320"/>
<path d="M51.0563 24C51.6932 24.1274 51.7714 24.8908 52.008 25.4845C52.5106 26.743 54.2187 25.3966 54.6 26.3207C54.4608 26.8159 53.3797 27.0553 53.0058 27.4335C52.2174 28.2322 53.2393 29.4588 52.494 30.16C51.971 30.0203 51.7566 29.0457 51.541 28.538C51.0544 27.3903 49.2465 28.6197 49 27.7312C49.1889 27.1797 50.3362 27.021 50.7082 26.5467C51.3495 25.7294 50.4545 24.7534 51.0563 24Z" fill="#E89D01"/>
<path d="M7.01394 33.6828C9.73776 33.5617 11.7993 37.7009 10.5423 38.1571C10.0244 38.0014 9.75848 36.4676 8.83562 38.0211L8.79352 38.0928L8.78765 39.0831C8.58354 39.2693 8.5177 39.297 8.26865 39.2727C7.7015 38.9579 7.87775 37.9554 8.11741 37.445C8.43684 36.7647 8.84755 36.5251 9.47769 36.3186C8.95572 35.5659 8.16841 34.676 7.2404 34.7956C6.78918 34.8538 6.17539 35.1221 5.87988 34.5732C5.89648 34.0174 6.60584 33.7474 7.01394 33.6828Z" fill="#242320"/>
<path d="M30.2577 30.3242C31.2947 30.247 31.5783 31.3298 31.6245 32.2152C31.674 33.1639 31.6534 34.2802 30.7836 34.7999C29.2897 34.8355 29.3093 32.7373 29.4763 31.6209C29.5632 31.0392 29.7897 30.6401 30.2577 30.3242Z" fill="#242320"/>
<path fill-rule="evenodd" clip-rule="evenodd" d="M57.054 33.5563C57.9582 33.3662 58.8455 33.9417 59.0413 34.8444C59.237 35.747 58.6669 36.6385 57.7659 36.8395C56.8567 37.0424 55.956 36.4663 55.7581 35.5563C55.561 34.6458 56.1427 33.7482 57.054 33.5563ZM56.9232 34.6559C56.6241 34.7041 56.3883 34.8572 56.3089 35.0553C56.2295 35.2538 56.3189 35.4647 56.5423 35.6061C56.7657 35.747 57.0864 35.7963 57.3792 35.7331C57.8081 35.6404 58.0507 35.3379 57.929 35.0485C57.8061 34.759 57.3622 34.5855 56.9232 34.6559Z" fill="#E89D01"/>
<path d="M49.253 45.2805C50.193 45.2515 53.2207 46.6928 54.2713 47.0279C54.776 47.1894 54.621 47.7164 54.3289 48.0797C53.6698 48.1044 50.0247 46.6378 49.2166 46.2208C49.0695 46.1454 49.0344 45.9838 49 45.8237C49.0411 45.5415 49.0815 45.5161 49.253 45.2805Z" fill="#E89D01"/>
<path d="M14.729 68.4072C15.3409 68.3308 15.8876 68.8855 15.9536 69.6496C16.0197 70.4144 15.5804 71.1021 14.9696 71.1906C14.3517 71.2805 13.7936 70.7238 13.7268 69.9502C13.66 69.1773 14.11 68.4842 14.729 68.4072Z" fill="#242320"/>
<path d="M54.4563 40.8125C54.605 40.791 54.7342 40.7879 54.8685 40.8816C55.0029 40.9744 55.1314 41.1555 55.1542 41.342C55.1757 41.5169 55.1385 41.6834 55.0361 41.8139C54.7074 42.2298 51.0369 42.4109 50.3273 42.4746C50.0078 42.4884 49.6582 42.5114 49.5715 42.0479C49.5382 41.863 49.5786 41.6696 49.681 41.5238C49.9582 41.1363 53.8035 40.8793 54.4563 40.8125Z" fill="#E89D01"/>
<path d="M97.9083 35.0046C95.7878 26.6757 104.826 21.1614 111.833 25.5425C119.183 30.1381 118.017 40.4926 109.85 43.2914C112.739 46.9393 113.772 51.2093 113.714 55.7959C113.692 57.5329 113.532 59.4723 113.926 61.1579C114.799 64.8981 116.988 67.516 116.499 71.6302C116.265 73.6145 115.243 75.4199 113.664 76.6364C112.133 77.8224 108.067 79.4294 106.886 77.1335C104.105 79.2101 100.856 79.8425 97.457 79.3877C90.349 78.4353 88.8005 72.1403 93.3016 66.9669C93.8106 66.0281 94.5589 64.3074 95.9817 64.7595C96.4888 65.2897 95.2347 65.7946 94.8333 66.2175L94.7671 66.2884C95.3929 66.4569 95.9927 66.5571 96.6451 66.4992C96.7566 66.4582 97.3805 66.3443 97.5374 66.3137C99.1625 65.8278 100.338 64.7361 101.149 63.2905C103.552 59.0175 100.086 54.2212 95.4681 57.4392C94.1031 58.3904 93.9124 60.0565 92.6602 57.6624C91.6116 55.6567 91.3017 54.0136 91.0805 51.802C90.364 51.3975 89.5942 50.9914 88.912 50.5384C86.1424 48.6982 83.8273 46.0997 82.2178 43.1892C82.0505 42.8869 81.8916 42.5591 81.7101 42.2671C82.6912 45.8994 84.302 48.7664 87.6546 50.7591C88.0658 51.0037 88.7123 51.1865 88.8576 51.6024C88.7784 51.8655 88.8439 51.746 88.6163 51.9504C88.0716 52.086 86.8149 51.4154 86.3518 51.1234C82.8961 48.9439 80.773 44.8575 80.5143 40.8323C76.7226 43.3622 75.1903 47.514 74.3324 51.819C74.106 52.9532 74.156 54.3819 73.1067 55.0939C72.1133 55.7686 69.3774 56.9702 69.1141 58.1223C69.0226 58.5231 69.1102 58.9193 69.3333 59.2602C69.8682 60.0773 71.352 60.6602 71.6263 61.3557C71.898 62.0434 71.5588 63.7121 71.5257 64.5117C71.3014 69.9095 72.7682 74.4525 78.622 75.5057C79.81 75.7198 81.0136 75.7373 82.2159 75.6593C82.7133 75.6267 83.2612 75.5292 83.756 75.5591C83.9551 75.5708 84.0686 75.5773 84.2002 75.7523C84.3519 75.9546 84.4427 76.2031 84.5121 76.4439C84.8571 77.6409 86.3538 84.9521 86.1761 85.9455C86.1437 86.1277 86.0905 86.2422 85.9783 86.3873C85.3804 86.6527 85.1885 85.5214 85.1314 85.157L85.099 84.9488C84.4991 85.2553 82.5135 86.2045 83.0446 87.168C83.243 87.5284 84.0005 87.7184 84.3818 87.7632C88.2713 88.2056 92.7906 85.7315 96.0731 83.8656C97.1263 83.2678 98.9491 82.1559 99.9037 81.4722C99.7669 81.1866 99.5587 80.7715 99.466 80.4644C99.3402 80.0481 99.9698 79.9127 100.292 80.0045C100.591 80.3857 100.972 81.2822 101.02 81.7695C100.712 82.625 94.0888 86.2493 92.9365 86.7737C90.4963 87.8836 85.894 89.7325 83.3196 88.6122C79.928 87.1361 83.1127 84.7589 84.92 83.9756C84.4732 81.4533 84.0459 79.1353 83.5115 76.6371C80.0967 76.9338 76.5041 76.868 73.7332 74.5156C70.0531 71.3921 70.2911 66.142 70.6853 61.7662C69.2918 60.8229 66.9793 59.0104 68.4974 57.058C69.4513 55.8304 71.5484 54.9287 72.846 53.9926C73.274 51.9488 73.595 50.248 74.1871 48.243C71.0608 44.1618 74.855 39.3526 78.7225 37.6236C79.9041 37.0955 80.8891 36.3407 82.0583 35.7963C87.1106 33.3971 92.6498 33.401 97.9083 35.0046Z" fill="#242320"/>
<path d="M93.2406 67.1176C93.7429 66.1969 94.4814 64.5093 95.8853 64.9528C96.3857 65.4727 95.1481 65.9678 94.752 66.3826L94.6868 66.4521C95.3043 66.6173 95.8962 66.7156 96.5399 66.6588C96.65 66.6186 97.2656 66.507 97.4204 66.477C97.7263 67.3715 97.8191 68.3515 97.382 69.1815C96.362 71.1192 93.7916 70.8359 93.2809 68.6794C93.1248 68.0216 93.2438 67.7096 93.2406 67.1176Z" fill="#E89D01"/>
<path d="M94.9062 66C95.5723 66.1842 96.2107 66.2938 96.905 66.2305C97.2191 67.2782 97.3578 68.8069 96.0947 69.2877C95.3286 69.5801 94.5432 68.9413 94.372 68.1702C94.1939 67.3707 94.4962 66.6651 94.9062 66Z" fill="#242320"/>
<path d="M80.1575 64.3198C81.7098 64.3811 80.3412 66.7639 79.9215 67.394C78.9121 68.9098 76.9173 70.7512 74.9404 69.5125C74.7375 69.3305 74.5586 69.127 74.4072 68.9046C74.0803 68.4141 73.0172 66.5017 74.0218 66.2257C74.7436 66.0281 75.6664 65.9955 76.4143 65.7959C77.7244 65.4463 78.9307 64.8645 80.1575 64.3198Z" fill="#242320"/>
<path d="M98.067 58.7257C98.5014 58.7001 99.2262 58.7403 99.3599 59.2619C99.208 59.6743 98.7851 59.6987 98.4106 59.6829C97.5322 59.6445 96.9786 60.2026 96.4093 60.7917C98.1529 61.2767 98.3011 63.5639 97.001 63.1502C96.9411 62.703 96.9701 61.6161 96.1836 61.5899C95.6845 61.5728 95.7275 62.4471 95.1957 62.3947C94.5296 61.8939 95.071 61.1719 95.4183 60.6297C96.0644 59.6219 96.8848 58.9767 98.067 58.7257Z" fill="#242320"/>
<path d="M78.2689 52.5598C79.5316 52.776 79.2455 54.8142 78.9301 55.7718C78.7216 56.4052 78.4869 56.7697 77.932 57.0398C76.529 56.8628 76.9489 54.5947 77.3282 53.6097C77.542 53.0555 77.7624 52.7648 78.2689 52.5598Z" fill="#242320"/>
<path d="M78.5933 46.4029C80.1798 46.333 81.491 47.5127 82.271 48.8235C82.6388 49.4414 82.7451 49.9586 82.0482 50.3199C81.3385 49.9048 81.1811 48.7631 80.1457 48.0645C79.3535 47.5299 78.4789 47.7281 78.1315 47.3035C77.9721 46.8094 78.1996 46.6467 78.5933 46.4029Z" fill="#242320"/>
</g>
<path d="M75.8559 0C75.3087 0.0318052 72.1717 0.812152 71.8047 1.1734C71.7063 1.67032 72.1401 3.22964 72.273 3.79542C71.3609 4.0759 67.648 5.00914 67.2587 5.57889C67.0928 6.27846 67.5575 8.86904 67.7298 9.71645C68.2814 12.509 69.3744 15.1644 70.9465 17.5329C71.2869 18.0413 71.664 18.6601 72.1688 18.9933C72.6098 19.0871 75.509 18.1647 76.1453 17.9865C78.7393 17.0951 81.5064 16.4085 84.1213 15.5539C84.6398 15.3844 85.2229 15.3332 85.4341 14.7973C85.2969 14.4144 85.1303 14.0812 84.9364 13.7264C83.7636 11.5808 82.8544 9.32195 82.3618 6.91961C82.132 5.80174 81.9158 4.70767 81.8052 3.56492C81.7528 3.0269 81.6802 2.35892 81.4454 1.87348C80.9147 1.57894 77.1687 2.52098 76.3744 2.71087C76.281 2.13585 76.0405 0.451908 75.8559 0Z" fill="#090909"/>
<path d="M81.1538 2.5332C79.6088 2.79995 78.074 3.12102 76.5522 3.49581C76.639 3.91918 76.8385 4.67711 76.8168 5.08158C76.4575 5.37972 73.4905 6.16135 72.9584 6.18937C72.6468 5.96235 72.5145 5.01548 72.4249 4.59521C70.8604 4.98028 69.3769 5.453 67.8515 5.96523C68.3662 10.2808 68.9316 12.89 71.1828 16.6912C71.5458 17.2674 71.9759 17.8198 72.3844 18.3665C74.0508 17.9556 75.8307 17.3967 77.4841 16.9082L84.8062 14.7472C84.5763 14.2874 84.3073 13.829 84.0659 13.3721C82.3257 10.0774 81.3808 6.249 81.1538 2.5332Z" fill="#FDFBF7"/>
<path d="M79.7562 6.9668C79.1762 7.0472 79.2482 7.35917 79.1034 7.37766C78.618 7.43876 78.1093 6.87754 77.549 7.11152C77.0578 7.31735 76.9865 7.99275 76.4938 8.11416C76.028 8.22914 75.8417 7.7837 75.4153 7.94209C75.1948 8.19054 75.2006 8.38592 75.1358 8.74613C74.5456 8.66733 73.7415 8.38913 73.2233 8.71316C72.5167 9.88303 72.3173 9.22855 71.6871 9.57107C71.583 9.84686 71.6121 9.69731 71.6805 10.0535C72.981 10.4041 72.762 9.51237 73.8441 9.11196C74.0872 9.02191 74.5682 9.31458 74.8462 9.34272C75.3578 9.39337 75.3767 8.88362 75.7217 8.681C76.1059 8.45587 76.4843 8.82091 76.8045 8.73648C77.196 8.63437 77.5053 7.96943 77.7018 7.60681C78.4514 7.75636 80.0015 8.59979 79.7562 6.9668Z" fill="#090909"/>
<path d="M80.1903 10.1335C80.0093 10.2158 79.8206 10.4137 79.6704 10.5525C76.4037 9.76017 77.7922 11.0353 76.5138 11.3489C75.9462 11.4883 75.3877 11.0972 74.8615 11.187C74.2672 11.289 73.4863 11.963 72.9335 12.2507L72.8752 12.2806C72.8921 12.5105 72.897 12.4486 73.0675 12.6669C73.8701 12.5145 74.0771 12.2343 74.6517 11.6855C75.8361 11.8766 76.6366 12.3493 77.4968 11.2203L77.8694 10.7334C78.545 10.8136 80.0248 11.34 80.4106 10.5865C80.3664 10.2872 80.3959 10.3933 80.1903 10.1335Z" fill="#090909"/>
<path d="M75.3109 0.633789C74.4758 0.898881 73.1699 1.15395 72.2469 1.39648L73.0589 5.06667C73.2911 5.08644 75.6685 4.45251 76.0146 4.36321C75.7652 3.47087 75.3945 1.52511 75.3109 0.633789Z" fill="#FDCF3F"/>
<defs>
<clipPath id="clip0_21008_4318">
<path d="M0 16C0 9.37258 5.37258 4 12 4H100C106.627 4 112 9.37258 112 16V72C112 78.6274 106.627 84 100 84H12C5.37258 84 0 78.6274 0 72V16Z" fill="white"/>
</clipPath>
</defs>
</svg>
