<svg width="41" height="41" viewBox="0 0 41 41" fill="none" xmlns="http://www.w3.org/2000/svg">
<path d="M10.6359 6.73864C10.9318 6.53672 11.4017 6.21257 11.7549 6.11787C11.8324 6.14522 11.8335 6.16161 11.8937 6.14027C11.8732 6.07488 11.8863 6.10558 11.8304 6.0517C11.9655 6.00156 12.102 5.95958 12.2397 5.91725L12.3031 5.96212L12.3501 5.95182C12.3727 5.90297 12.3759 5.89375 12.3896 5.84164C12.552 5.76885 12.7696 5.84831 12.9447 5.66232C13.0227 5.57941 13.2499 5.61785 13.2886 5.59925C13.6354 5.4324 14.1977 5.38947 14.5553 5.3111L14.6013 5.36594L14.6483 5.35648L14.6532 5.33586L14.6246 5.29428C14.8214 5.23708 15.4951 5.21584 15.7408 5.20137C15.7537 5.18106 15.7665 5.16076 15.7793 5.14045C15.8836 5.16195 16.0632 5.21086 16.1622 5.20825C16.2486 5.20598 16.3755 5.11949 16.4307 5.11794C16.5993 5.11322 16.8112 5.16559 16.9773 5.16707C17.0917 5.16809 17.1116 5.09333 17.2716 5.1211L17.3603 5.19234C17.5184 5.17312 17.365 5.12063 17.4631 5.12152C17.5611 5.12242 17.8163 5.15125 17.9041 5.16292C17.9195 5.18453 17.9349 5.20613 17.9503 5.22774C18.0641 5.19682 18.094 5.13858 18.1515 5.15844L18.1428 5.21496C18.1886 5.23366 18.5685 5.23266 18.6661 5.24083C18.8193 5.25261 18.9716 5.27526 19.1217 5.30863C20.2921 5.56473 21.4329 5.94107 22.5258 6.43166C22.8465 6.5762 23.1694 6.71701 23.4773 6.88688C23.5243 6.91277 23.5507 6.89529 23.5938 6.87869C23.5889 6.83351 23.5971 6.83683 23.5611 6.81634C23.3735 6.70972 23.2314 6.54023 23.0573 6.42169C22.6865 6.16947 21.9339 5.97369 21.867 5.46806C21.7814 4.82192 22.5624 4.97724 22.9418 5.06065C23.1937 5.11604 23.4161 5.17654 23.6607 5.24972L23.6476 5.29331C23.8098 5.36197 24.1003 5.35014 24.3113 5.53399C24.4161 5.62533 24.7191 5.69168 24.8079 5.83105C24.9372 6.0056 25.1179 5.9753 25.2647 6.09364C25.6757 6.42813 26.0698 6.78244 26.4463 7.1553C26.6781 7.38652 26.6423 7.57103 26.9226 7.67291C26.9348 7.73854 26.9334 7.71343 26.9193 7.78087C27.2841 8.27445 27.4772 8.62519 27.7677 9.16087L27.7383 9.20898L27.7551 9.23982C27.8893 9.49124 27.9434 9.63752 28.01 9.92066C28.0504 10.0918 28.0782 10.298 28.1612 10.4496C28.1634 10.036 28.0552 9.61523 27.9873 9.21755C27.9632 9.04694 27.7147 8.48687 27.9023 8.35392C28.2177 8.13053 28.5686 8.56719 28.7381 8.78974C29.3867 9.64218 29.7999 11.0386 29.6187 12.1048C29.6002 12.2129 29.5679 12.3182 29.5229 12.4182C30.294 12.3931 30.8317 12.6806 31.4064 13.184C31.584 13.3395 31.6741 13.506 31.8321 13.6841C32.3556 14.2737 32.0976 15.4278 31.1526 15.0354C31.0848 15.0073 30.9853 14.8553 30.9169 14.811C30.5562 14.5196 30.142 14.2608 29.6544 14.3702C28.8405 14.5528 28.9661 15.0228 29.1195 15.6437L29.1903 15.6437C29.2384 15.6941 29.2373 15.6862 29.2718 15.7458C29.2199 15.8237 29.2256 15.7844 29.24 15.8653C29.2956 15.9309 29.4284 16.0484 29.4309 16.0988L29.3744 16.1303C29.4785 16.3723 29.5847 16.5984 29.7087 16.8298C29.741 16.9793 29.6796 17.0436 29.7796 17.1827C29.801 17.2129 29.9014 17.4152 29.9052 17.4472C29.9469 17.8164 29.8915 17.8943 30.1011 18.2094L30.104 18.2032L30.0956 18.3623C30.1347 18.4324 30.2005 18.5242 30.193 18.5982C30.1554 18.6059 30.1499 18.6056 30.1166 18.6258C30.1912 18.6977 30.2552 18.7167 30.2587 18.7816L30.2069 18.8355C30.2676 19.0375 30.3316 18.9666 30.2898 19.1326C30.3459 19.1569 30.3121 19.1474 30.3598 19.147C31.147 19.1254 31.7575 19.556 32.283 20.1025C33.5247 21.394 33.3735 23.377 32.351 24.7423C31.763 25.5271 30.8169 26.1989 29.9425 26.6242C29.8988 26.6454 29.9177 27.1333 29.8078 27.2311L29.7531 27.2015L29.7253 27.2241C29.7697 27.345 29.786 27.3293 29.7275 27.4525C29.6783 27.556 29.5779 27.6961 29.5395 27.7999C29.5037 27.8968 29.535 28.0351 29.4889 28.1389C29.4541 28.1386 29.4227 28.1296 29.4123 28.1519C29.2726 28.45 29.434 28.4858 29.1645 28.7032C29.1585 28.7337 29.1543 28.7606 29.1543 28.7917C29.1532 29.0479 28.2797 30.5145 28.0762 30.7305C28.0308 30.7787 27.9645 30.8162 27.9087 30.8515L27.901 30.8848L27.9394 30.9159C27.6845 31.388 26.8145 32.2386 26.4093 32.6491C26.3333 32.7261 26.0828 32.8658 25.9959 32.9466C25.9069 33.0291 26.0557 32.9625 25.954 33.0594C25.8981 33.0309 25.9239 33.0479 25.8849 32.9866C25.7957 33.0391 25.871 33.0998 25.7818 33.1689C25.5439 33.3527 24.8304 33.8418 24.5761 33.932C24.5216 33.8989 24.5075 33.8773 24.453 33.8764L24.4223 33.9056C24.4411 33.9501 24.4411 33.9488 24.472 33.9865C24.3647 34.0669 23.9164 34.2768 23.807 34.2913C23.7304 34.2441 23.7681 34.2487 23.6933 34.2587C23.6821 34.3094 23.6867 34.2865 23.7163 34.3507C23.6609 34.3659 23.6053 34.3803 23.5494 34.394L23.5013 34.3313C23.4724 34.375 23.4814 34.356 23.477 34.4132C23.4064 34.458 23.2389 34.5182 23.1533 34.5242C23.144 34.5065 23.1345 34.4889 23.1252 34.4712L23.1107 34.55C22.991 34.6105 22.4876 34.7023 22.3415 34.7166L22.2488 34.7263L22.2387 34.7967C22.1773 34.8111 22.1954 34.8067 22.1294 34.8012C22.0937 34.7601 22.1069 34.7835 22.1007 34.7243L22.0648 34.7279C22.0431 34.7692 22.0389 34.7802 22.0242 34.8243C21.4938 34.8788 20.7578 34.9387 20.2246 34.8874C16.2472 34.5061 13.2207 31.1722 11.9892 27.5549C11.9265 27.3708 11.6458 26.6235 11.6381 26.4732C11.3136 26.4655 10.9155 26.3212 10.6166 26.2027C10.5707 26.1967 10.4216 26.204 10.3675 26.2055C10.2394 26.1254 10.1027 26.0566 9.97595 25.9742C9.06163 25.3821 8.4126 24.4847 8.17404 23.4194C8.14041 23.2691 8.11849 23.0751 8.12134 22.9206L8.14502 22.9131L8.18347 23.0438L8.19675 23.0162C8.19384 22.9328 8.17 22.9098 8.12445 22.8337L8.10781 22.8063C8.10159 21.9637 8.42368 20.9685 9.14292 20.4545C9.28962 20.3499 9.41749 20.3152 9.58871 20.2819C9.60555 20.2623 9.62241 20.2426 9.63927 20.223C9.71288 20.2069 9.71433 20.2261 9.80153 20.2649C9.93457 20.1124 9.8238 19.684 9.8997 19.5269C9.92305 19.4783 9.92329 19.4706 9.93989 19.4183C9.79381 19.0774 9.97381 19.1165 9.95949 18.9127L9.90738 18.879L9.90392 18.8466L9.99491 18.8477C10.0097 18.7907 10.0293 18.7445 10.0145 18.6893C9.96613 18.6773 9.98145 18.6853 9.94084 18.6585L10.0403 18.5623C10.0755 18.4801 10.0603 18.4701 10.0546 18.3892C10.0622 18.2842 10.1673 18.1788 10.1754 18.0645C10.1801 17.9997 10.2156 17.9447 10.2328 17.8785C10.3229 17.8079 10.3733 17.5582 10.4532 17.3912C10.3114 17.5689 10.2703 17.689 10.159 17.8825C10.1203 17.9253 9.79398 18.603 9.76086 18.7264C9.42789 19.9672 8.28402 19.3722 8.30474 18.3459C8.30653 18.2568 8.38346 18.0937 8.38532 17.996C8.35672 17.7997 8.30284 17.8568 8.3864 17.6392L8.47358 17.6161L8.46398 17.5941L8.40238 17.5704C8.40304 17.5111 8.41326 17.5106 8.44071 17.462C8.53414 17.2967 8.38819 17.0825 8.54928 16.9247C8.6101 16.8651 8.66848 16.8323 8.68865 16.7462C8.65645 16.697 8.67029 16.7107 8.62427 16.679C8.63906 16.5485 8.80595 16.1521 8.89205 16.0351C8.86784 15.9883 8.88077 16.0089 8.85477 15.9725C8.97605 15.8037 9.18911 15.5157 9.21065 15.3089L9.19198 15.277C8.83316 15.3908 8.83449 15.8627 8.34628 15.8508L8.31425 15.8772L8.32847 15.9386C8.27475 15.9141 8.28223 15.9161 8.23374 15.8804C8.09545 15.9287 8.22023 16.0311 7.99234 15.9383C7.74454 15.8373 7.6842 15.6565 7.50686 15.4983L7.50534 15.4663L7.56241 15.4234C7.52763 15.2728 7.28042 15.3207 7.49598 15.0658C7.51984 14.8957 7.54496 14.5731 7.63558 14.4349C7.70371 14.3311 7.77892 14.3385 7.74902 14.2552L7.70799 14.2216L7.73149 14.2001L7.83169 14.2308L7.8433 14.1997L7.82315 14.1866C7.79876 14.1705 7.78393 14.1593 7.76126 14.1415C7.79135 14.0814 7.76043 14.13 7.80688 14.089C7.92231 13.987 8.07236 13.5335 8.20251 13.4672L8.2708 13.4838C8.34718 13.3346 8.36788 13.0948 8.46442 13.0373C8.67508 12.912 8.76457 12.6258 8.9557 12.4159C9.21045 12.1361 9.42873 11.9238 9.70921 11.6733C9.80831 11.5847 10.1717 11.3262 10.2164 11.2587L10.1991 11.2375C9.97361 11.2314 9.68489 11.3822 9.37931 11.3949C9.13078 11.2807 9.05128 11.2254 8.93758 10.9535C8.76225 10.5343 9.05921 9.84323 9.44722 9.63109C9.47739 9.57669 9.50723 9.52209 9.53676 9.46734C9.67741 9.38407 9.79701 9.28307 9.92407 9.18292C10.2376 8.93573 10.5642 8.75677 10.9332 8.60583C11.0105 8.5742 11.0792 8.44117 11.1748 8.44697L11.1975 8.47334C11.3594 8.36853 11.3403 8.33128 11.5382 8.2744C11.6473 8.24302 11.7635 8.22247 11.82 8.12795C11.8686 8.15152 11.8466 8.13607 11.8786 8.18502C11.9497 8.13311 11.9817 8.10892 12.0448 8.04841C12.0932 8.05701 12.0986 8.05867 12.1484 8.05328L12.1884 7.98617L12.1788 7.96564C12.0919 8.01109 12.0541 7.99921 11.9685 8.03229C11.9266 8.04849 11.918 8.0513 11.871 8.04717C11.7715 8.03876 11.7125 8.11089 11.6236 8.14196C11.3416 8.2405 10.8719 8.31958 10.5993 8.1835C10.5436 8.10076 10.5213 8.0524 10.4405 7.99855L10.4043 7.9948L10.3681 8.033C10.349 7.94393 10.3614 7.87666 10.3696 7.78635C10.3369 7.76838 10.3106 7.75174 10.283 7.72647C10.2753 7.66768 10.266 7.67001 10.2839 7.62371L10.3716 7.61299L10.3762 7.58154L10.3006 7.56174C10.2329 7.37397 10.3586 7.14223 10.4967 7.01471L10.4739 7.05388C10.6026 6.95022 10.5944 6.90279 10.6359 6.73864Z" fill="black"/>
<path d="M10.0761 20.8993C10.1524 20.9898 10.2111 21.0544 10.2714 21.1577C10.3471 21.1661 10.3822 21.1551 10.4266 21.1961L10.4207 21.257C10.4782 21.2365 10.4595 21.2467 10.5062 21.2089L10.5591 21.2456L10.5456 21.2879L10.5562 21.2897L10.5632 21.2551L10.5487 21.278L10.562 21.2902L10.5586 21.2685L10.5931 21.2908L10.7405 21.2875C10.7705 21.3347 10.7557 21.3149 10.7844 21.3486C10.887 21.3241 10.9351 21.282 11.0198 21.2941C11.0986 21.4484 10.9985 21.9648 11.0244 22.1602C11.0732 22.5276 11.0851 22.8946 11.1375 23.2623L11.0776 23.3107C11.0744 23.414 11.1307 23.3663 11.1275 23.4157C11.1131 23.6404 11.1593 23.8445 11.1865 24.0626C11.2573 24.632 11.3669 25.1983 11.4709 25.7624C11.5052 25.9516 11.6505 26.3316 11.6382 26.4735C11.3136 26.4658 10.9155 26.3215 10.6167 26.2029C10.6718 26.1897 10.6771 26.1928 10.7227 26.1612C10.8237 25.8695 10.8008 25.8105 10.5432 25.662C9.08638 24.822 8.23485 22.8214 9.27583 21.3347C9.42615 21.12 9.82202 20.9264 10.0761 20.8993Z" fill="#FBFBFA"/>
<path d="M30.4602 19.8072C30.5474 19.8036 30.731 19.865 30.8224 19.8954C31.4949 20.1183 31.9098 20.6233 32.2318 21.2329C32.5558 21.8466 32.5308 22.5575 32.3278 23.2068C32.2788 23.3633 32.1398 23.6787 32.0758 23.8508C32.0729 23.8581 32.0254 23.8868 32.0117 23.8895C31.9672 23.9091 31.8937 24.051 31.8661 24.0927C31.558 24.5582 31.1199 24.876 30.6619 25.1795C30.5673 25.2423 30.3702 25.3421 30.2995 25.4118L30.309 25.4772L30.2823 25.4966C30.2556 25.4946 30.2289 25.4931 30.2022 25.4924C30.0404 25.4891 29.6739 25.7859 29.515 25.8632C29.4635 25.8881 29.3051 25.895 29.2921 25.9265C29.1051 26.3814 29.0224 26.9042 28.8599 27.3706C28.7396 27.7162 28.5715 28.0539 28.4134 28.3834C28.3585 28.4979 28.415 28.6449 28.3049 28.7416C28.0581 28.9576 27.9575 29.3924 27.7686 29.6689C27.528 30.004 27.3102 30.3379 27.0886 30.6864C26.8941 30.7488 27.004 30.8477 26.9069 30.9614C26.8213 31.0616 26.6353 31.1529 26.5501 31.2659C26.5483 31.2931 26.5465 31.3202 26.5445 31.3476C26.2649 31.6065 26.0091 31.8921 25.7167 32.137C25.5344 32.2929 25.5172 32.2728 25.4117 32.4191C25.3698 32.4988 25.2126 32.5694 25.1248 32.6274C24.7761 32.8576 24.4249 33.1101 24.052 33.299C23.7911 33.4312 23.5351 33.5568 23.2795 33.6952L23.246 33.6665C23.1837 33.6574 23.144 33.6952 23.0742 33.7336C22.8558 33.8548 22.558 33.8943 22.308 33.9742L22.3025 34.0344L22.2727 34.0587C22.2654 34.0499 22.2111 33.9892 22.2047 33.9905C17.6928 34.9781 14.0411 31.4151 12.5875 27.4635C12.2453 26.533 11.9929 25.5778 11.8326 24.5992C11.7887 24.3311 11.7399 24.0662 11.7245 23.7948C11.6954 23.4463 11.6599 23.0718 11.6549 22.7228C11.6477 22.2221 11.6721 21.7372 11.6624 21.2344C11.7614 21.2534 11.8314 21.2686 11.928 21.2967C12.0124 21.4105 12.1885 23.2715 12.3387 23.575C12.5257 23.9524 12.512 24.0834 12.9704 24.3075C13.3253 24.4809 13.4939 24.4304 13.8696 24.4428C14.3252 24.4701 14.7646 24.4542 15.2172 24.4571L16.7782 24.4567C17.3128 24.4617 18.1229 24.5297 18.6214 24.3551C18.5543 24.5191 18.486 24.6835 18.4288 24.851C18.2473 25.3823 17.9849 26.0525 18.2176 26.6078C18.2717 26.7369 18.3571 26.8067 18.4318 26.9159C18.455 26.9497 18.4636 26.9932 18.4862 27.0261C18.5541 27.1249 18.9329 27.2205 19.0515 27.232C19.2303 27.249 19.4832 27.2267 19.6252 27.1033C19.6949 27.0428 19.725 26.9614 19.7309 26.8702C19.754 26.5109 19.0389 26.6946 18.81 26.4149C18.3642 25.8705 19.3387 23.8303 19.6046 23.2163C19.7115 22.9694 19.8979 22.6509 19.9155 22.3805C19.9198 22.3154 19.9196 22.2942 19.875 22.2463C19.7029 22.1984 19.6118 22.3377 19.5398 22.4756C19.3744 22.7926 19.2118 23.1132 19.0707 23.4414C19.1594 22.9766 19.4078 21.9312 19.5908 21.5158C19.6603 21.473 19.7587 21.4322 19.8347 21.3977C20.0438 21.4205 20.1888 21.432 20.2766 21.6535C20.5329 22.3165 20.7355 23.0007 20.9509 23.6796C21.0559 24.0111 21.3534 24.3059 21.7143 24.3317C22.0378 24.3549 22.3987 24.3271 22.7273 24.3293L25.1709 24.3311C25.5999 24.3311 27.2073 24.3739 27.5381 24.2527C27.6962 24.1949 27.8434 24.1095 27.9431 23.9705C28.219 23.586 28.5739 21.9894 28.6818 21.456C28.735 21.1934 28.7588 20.8683 28.8785 20.631C29.138 20.1157 29.948 19.9698 30.4602 19.8072Z" fill="#FBFBFA"/>
<path d="M22.6323 27.2407L22.6579 27.255C23.0186 27.1493 23.7352 27.3691 23.9791 27.6759C24.3726 28.1716 24.4723 28.9743 24.1397 29.5161C23.164 31.1058 21.0521 31.6328 19.3063 31.3996C19.0605 31.3806 18.6375 31.257 18.4066 31.159C17.6278 30.8282 17.1495 29.9789 17.5339 29.17C17.9886 28.2131 19.2792 28.4027 20.1236 28.1372C20.6222 27.9807 21.1453 27.6885 21.6376 27.5009C21.9583 27.3656 22.3291 27.3599 22.6323 27.2407Z" fill="black"/>
<path d="M22.8037 27.7831C22.9205 27.774 23.0494 27.7877 23.1661 27.7996C23.7024 27.8394 23.9043 28.5434 23.7856 28.9877C23.5695 29.7952 22.7578 30.3478 22.0229 30.6239C21.1288 30.9601 20.1167 31.1119 19.1858 30.8914C18.6257 30.7875 18.5132 30.7279 18.0635 30.3805C17.8271 29.7462 17.7951 29.2066 18.5741 28.9411C19.1135 28.7573 19.7233 28.7679 20.2707 28.595C20.8803 28.4026 21.4471 28.0731 22.0544 27.8753C22.203 27.8286 22.6389 27.7946 22.8037 27.7831Z" fill="#FBFBFA"/>
<path d="M20.7846 29.4022C20.9356 29.4887 20.9462 29.3742 21.0552 29.4572C21.2609 29.6137 21.1837 29.9107 21.0704 30.0782C20.9413 30.0098 20.8656 30.0877 20.7672 29.9802C20.5849 29.7816 20.6149 29.5909 20.7846 29.4022Z" fill="black"/>
<path d="M19.1615 29.5731L19.4473 29.6135C19.6628 29.8124 19.5911 30.0044 19.4763 30.2357C19.3952 30.2377 19.272 30.2032 19.1878 30.1845L19.0425 30.0245C19.0783 29.8543 19.1003 29.7349 19.1615 29.5731Z" fill="black"/>
<path d="M22.4147 28.8684C22.5544 28.8657 22.6292 29.3215 22.4899 29.4082C22.4016 29.4634 22.41 29.4435 22.3122 29.4382C22.1865 29.38 22.0763 29.2659 22.0794 29.1175C22.0801 29.0452 22.1088 28.9761 22.1593 28.9242C22.2255 28.8551 22.3182 28.8688 22.4147 28.8684Z" fill="black"/>
<path d="M23.6353 14.3375C23.7342 14.3655 23.8655 14.3362 23.9721 14.34C24.4599 14.3577 24.9873 14.4736 25.346 14.8284C25.4936 14.9745 25.6196 15.2037 25.7918 15.3183C25.8174 15.3353 25.9887 15.3514 26.0414 15.3657C25.9975 15.4586 25.9697 15.4963 25.9686 15.5956C26.0072 15.6865 26.0723 15.7623 26.1763 15.7045C26.2158 15.6399 26.2506 15.5972 26.2597 15.5227C26.231 15.4447 26.1703 15.411 26.1056 15.362L26.1643 15.3591L26.127 15.3795L26.135 15.3849L26.178 15.3604C26.3334 15.378 26.5506 15.3856 26.6828 15.4771C26.7423 15.5183 26.7377 15.6082 26.7578 15.6759C26.8933 15.7241 26.9498 15.6505 27.0136 15.5488L27.0273 15.5265C27.4636 15.4026 27.5205 15.9301 27.7869 15.5647C28.0741 15.5185 28.3276 15.8941 28.2793 16.1563C28.2537 16.295 28.2261 16.418 28.3972 16.4649L28.4857 16.3908L28.5188 16.4093C28.5731 16.51 28.5574 16.721 28.5841 16.7527C28.7565 16.9579 28.7739 16.9821 28.8361 17.2398L28.5437 17.368C28.5773 17.4617 28.5885 17.527 28.673 17.5766C28.7869 17.5843 28.8033 17.5533 28.9189 17.503L28.9518 17.5228C29.0749 17.7121 28.858 17.7348 29.1683 18.0286C29.1592 18.2169 29.1946 18.2244 29.2312 18.4038C29.129 18.4263 29.031 18.4401 28.9694 18.5266C28.9622 18.6295 29.0087 18.7264 29.1226 18.7318C29.2058 18.6946 29.2162 18.6464 29.2608 18.5594C29.3248 18.7631 29.3404 18.9006 29.3784 19.1104C29.2795 19.2238 29.1403 19.1475 29.0315 19.1917C28.9065 19.2425 28.5965 19.4624 28.4585 19.4153C28.4656 19.2994 28.4883 19.2581 28.393 19.1872C28.3281 19.1753 28.3113 19.164 28.2533 19.1927C28.2431 19.229 28.2327 19.2653 28.2224 19.3015C28.0403 19.3084 27.9012 19.2421 27.7465 19.2322C27.5631 19.2204 27.3243 19.2259 27.1381 19.2264L25.9708 19.2277C25.1127 19.2274 21.3288 19.1368 20.749 19.4198C20.2304 19.6731 20.3652 20.1684 20.1979 20.3019C20.0708 20.3275 19.7766 20.3527 19.6511 20.3341C19.5925 20.1011 19.5454 19.9903 19.4537 19.7711C19.2773 19.6402 18.9973 19.3276 18.7364 19.3632C18.3593 19.4147 18.0429 19.3829 17.6695 19.3796L15.4311 19.3694C15.326 19.3697 14.7492 19.3616 14.6839 19.3778C14.6765 19.3763 14.669 19.3747 14.6616 19.373C13.917 19.4295 12.9866 19.2961 12.3094 19.6588C12.0929 19.7746 12.0452 20.0185 11.9373 20.1002C11.9441 20.0057 11.9891 19.9605 12.0193 19.877C12.1834 19.4246 12.3861 18.9947 12.6058 18.566C12.6166 18.5448 12.5609 18.5113 12.604 18.4282C12.6708 18.4449 12.7333 18.5764 12.7999 18.6071C13.4787 18.9203 13.8833 18.316 14.1703 17.869C14.2134 18.0679 14.2364 18.346 14.5004 18.3262C14.5203 18.2903 14.5088 18.3067 14.5345 18.2765L14.5782 18.2867L14.6159 18.349C14.6858 18.3758 14.7177 18.2997 14.7466 18.3016C15.7581 18.3665 16.6775 18.7882 17.6034 19.1629C17.7721 19.2312 18.0248 19.1618 18.1804 19.0729C18.2164 18.9575 18.2069 18.9566 18.321 18.9061L18.3406 18.8977C18.3032 18.509 17.0869 18.0485 16.7522 17.9121L16.71 17.9377C16.6511 17.9304 16.6404 17.9079 16.597 17.8645L16.6168 17.8394C16.7023 17.845 16.7147 17.8268 16.774 17.7649C16.7928 17.6888 16.7955 17.6489 16.8461 17.5886L16.8995 17.6244C16.949 17.5637 16.977 17.4962 17.0231 17.4321C17.5964 16.6334 18.1193 15.9348 18.8245 15.2417C18.6799 15.6766 18.3546 16.136 18.3754 16.6248C18.3936 17.052 18.3425 17.1508 18.6088 17.43C18.7249 17.4583 18.8064 17.495 18.9317 17.5033C19.6341 17.5502 20.0602 16.8755 20.4537 16.4045C20.9558 15.8037 21.5519 15.2251 22.2215 14.8119C22.625 14.5629 23.178 14.4435 23.6353 14.3375Z" fill="#FBFBFA"/>
<path d="M24.6355 17.5631C24.7134 17.5571 24.8368 17.5473 24.9105 17.5555C25.0248 17.568 25.3704 17.7105 25.4338 17.7917C25.3603 17.9946 25.2512 18.2253 25.0129 18.2642C24.0204 18.4262 23.2941 18.6357 22.3656 19.028C21.9963 19.2121 21.9281 19.2715 21.6717 18.9307C21.6002 18.9039 21.6156 18.9194 21.5642 18.8719C21.6258 18.7667 21.6547 18.7106 21.7026 18.5986C22.513 18.0155 23.6494 17.6801 24.6355 17.5631Z" fill="black"/>
<path d="M27.8878 17.2303C27.9575 17.2275 27.9939 17.2196 28.0577 17.2485C28.1294 17.3467 28.1235 17.5354 28.0325 17.6069C27.9125 17.5537 27.8577 17.5475 27.8079 17.4369C27.8162 17.3441 27.8412 17.3146 27.8878 17.2303Z" fill="black"/>
<path d="M27.9293 18.7308C28.0023 18.758 28.1323 18.8456 28.2036 18.8902C28.1248 18.9761 28.1025 18.9994 28.0458 19.1001C27.9293 19.1001 27.8876 19.1138 27.8275 19.0018C27.8249 18.8761 27.8613 18.8436 27.9293 18.7308Z" fill="black"/>
<path d="M28.3288 16.8409C28.5307 16.9574 28.585 17.1049 28.3872 17.2599C28.3563 17.2575 28.2917 17.2089 28.2725 17.1847C28.1575 17.0402 28.2367 16.935 28.3288 16.8409Z" fill="black"/>
<path d="M26.8479 16.8678C26.9271 16.9218 26.9964 17.0213 26.9993 17.119C26.9585 17.2058 26.9618 17.1831 26.8669 17.2446C26.7786 17.2048 26.6945 17.1678 26.6663 17.0687C26.693 16.9568 26.7488 16.9383 26.8479 16.8678Z" fill="black"/>
<path d="M27.1395 15.7685C27.2757 15.7625 27.3719 15.7662 27.4068 15.9239C27.3801 16.0102 27.3858 15.9845 27.2993 16.0515C27.2083 16.1006 27.2229 16.1052 27.1499 16.0853C27.0603 15.9902 27.0558 15.8711 27.1395 15.7685Z" fill="black"/>
<path d="M28.4164 18.4073C28.4617 18.4527 28.4667 18.4579 28.5018 18.5112C28.502 18.6054 28.5034 18.6004 28.4575 18.6826C28.3972 18.7236 28.4277 18.7198 28.3672 18.7146C28.2771 18.7092 28.1573 18.7045 28.1443 18.5971C28.186 18.5226 28.1924 18.523 28.2557 18.4695C28.3332 18.4559 28.348 18.4474 28.4164 18.4073Z" fill="black"/>
<path d="M27.9531 15.7111C28.0611 15.7292 28.1226 15.8691 28.1747 15.9576L28.0134 16.097C27.8159 15.9783 27.7523 15.8914 27.9531 15.7111Z" fill="black"/>
<path d="M27.5341 16.1134C27.7945 16.1373 27.7932 16.3258 27.625 16.4808C27.5427 16.4841 27.5153 16.4545 27.4692 16.3905C27.4403 16.2561 27.4604 16.2296 27.5341 16.1134Z" fill="black"/>
<path d="M28.7506 18.7638C28.8389 18.8153 28.8453 18.8654 28.8864 18.963C28.8453 19.0296 28.8023 19.117 28.7345 19.1363C28.5017 19.0097 28.5008 18.8684 28.7506 18.7638Z" fill="black"/>
<path d="M27.1312 16.5145C27.2554 16.5172 27.2989 16.5011 27.3622 16.6182C27.3662 16.7179 27.3358 16.7562 27.2901 16.8496C27.1921 16.7745 27.0961 16.8354 27.0491 16.6847C27.0733 16.5903 27.0733 16.5946 27.1312 16.5145Z" fill="black"/>
<path d="M26.8566 16.1117C26.9352 16.1388 26.9831 16.2198 27.0365 16.2879C26.9877 16.3524 26.931 16.4178 26.8789 16.4803C26.8054 16.4827 26.8085 16.4773 26.7432 16.4399C26.6574 16.2966 26.7516 16.2092 26.8566 16.1117Z" fill="black"/>
<path d="M27.9438 16.5052C28.1991 16.5532 28.1402 16.7168 28.0431 16.8809C27.8474 16.8518 27.7851 16.6648 27.9438 16.5052Z" fill="black"/>
<path d="M27.503 17.6205C27.7385 17.6406 27.7985 17.8115 27.6465 17.9975C27.5524 17.9472 27.4935 17.9224 27.4516 17.8221C27.4461 17.7332 27.4666 17.7056 27.503 17.6205Z" fill="black"/>
<path d="M28.3098 17.6173C28.4158 17.6561 28.4844 17.6701 28.5237 17.785C28.5065 17.8886 28.5169 17.8525 28.4416 17.9413C28.3284 17.8933 28.2275 17.9322 28.1975 17.7832C28.2273 17.6937 28.2412 17.6872 28.3098 17.6173Z" fill="black"/>
<path d="M27.5074 16.8658C27.7034 16.8933 27.8162 17.0725 27.6666 17.2282C27.4242 17.1641 27.4125 17.0819 27.5074 16.8658Z" fill="black"/>
<path d="M26.4936 15.7533C26.5388 15.7588 26.5267 15.7584 26.5697 15.78C26.6699 15.9118 26.6107 16.0043 26.5121 16.1112C26.3839 16.0599 26.3324 16.0315 26.3448 15.8918C26.3923 15.8068 26.4059 15.8052 26.4936 15.7533Z" fill="black"/>
<path d="M26.3739 16.5558C26.497 16.5508 26.5105 16.5343 26.5842 16.6335C26.6049 16.7377 26.5866 16.7913 26.567 16.8946C26.4637 16.8223 26.3798 16.8194 26.3152 16.7423C26.3068 16.6514 26.3257 16.6534 26.3739 16.5558Z" fill="black"/>
<path d="M27.8867 18.0209C28.0109 18.0213 28.0683 18.0148 28.1098 18.1441C28.1018 18.2382 28.0614 18.2689 27.9985 18.3464C27.9248 18.3467 27.8897 18.3125 27.8436 18.2596C27.8129 18.1506 27.8374 18.1238 27.8867 18.0209Z" fill="black"/>
<path d="M27.5328 18.3805C27.6313 18.4146 27.6785 18.4281 27.7209 18.5275C27.703 18.6354 27.7017 18.6077 27.6165 18.7044C27.5831 18.7042 27.545 18.6995 27.5116 18.6965C27.4019 18.5987 27.4565 18.4824 27.5328 18.3805Z" fill="black"/>
<path d="M26.7923 17.6141C27.0617 17.658 26.9977 17.8168 26.8514 17.9632L26.8046 17.949C26.6885 17.804 26.6863 17.7677 26.7923 17.6141Z" fill="black"/>
<path d="M27.1995 17.3121C27.2922 17.309 27.3392 17.2931 27.3705 17.3886C27.3504 17.4797 27.3164 17.4964 27.2434 17.5635C27.1333 17.5535 27.0701 17.5128 27.0593 17.4023C27.1052 17.3275 27.0951 17.3503 27.1995 17.3121Z" fill="black"/>
<path d="M27.2162 18.0648C27.3892 18.0478 27.3967 18.2106 27.2846 18.3311C27.1897 18.304 27.0793 18.258 27.0608 18.1549C27.1067 18.0843 27.1153 18.1012 27.2162 18.0648Z" fill="black"/>
<path d="M28.6482 18.0013C28.7925 18.0457 28.9126 18.1483 28.8446 18.3081C28.7301 18.3081 28.6493 18.3364 28.6116 18.2215C28.6299 18.1396 28.6378 18.0849 28.6482 18.0013Z" fill="black"/>
<path d="M21.5219 19.7921C21.7825 19.7647 22.4769 19.8161 22.7821 19.8194L24.8417 19.8212C25.0416 19.8218 25.3663 19.8241 25.5782 19.8033C25.5993 19.8013 25.5949 19.8421 25.7035 19.8459L25.7452 19.7903C25.7759 19.8007 25.7982 19.8115 25.8262 19.8285C25.9079 19.8775 26.0661 19.7962 26.1646 19.798C26.3268 19.8007 26.4888 19.8282 26.6519 19.83C26.9825 19.8338 27.3771 19.7751 27.6978 19.8441C27.8218 19.8708 28.0306 19.9755 28.0933 20.0865C28.3093 20.4685 27.6708 22.6905 27.5459 23.2654C27.5269 23.3526 27.4861 23.3979 27.4278 23.463C27.3808 23.5259 27.1555 23.7455 27.08 23.7545C26.056 23.8748 24.8752 23.7876 23.8461 23.7991C23.2579 23.8055 22.303 23.8373 21.8104 23.7565C21.564 23.7161 21.237 22.3486 21.1328 22.1125C20.9712 21.6422 20.8715 20.7552 20.8518 20.2383C20.8494 20.1827 20.9538 19.9999 20.9838 19.9454C21.1648 19.8203 21.3138 19.8104 21.5219 19.7921Z" fill="#FBFBFA"/>
<path d="M23.2321 21.0363L23.263 21.0537C23.4488 21.0104 24.2862 21.1572 24.5305 21.1896C24.5031 21.1861 24.6777 21.2497 24.6746 21.2486C24.7688 21.2119 24.7801 21.2009 24.875 21.2181L24.916 21.2777C25.0092 21.2982 25.0341 21.2444 25.1376 21.2567L25.1648 21.3119C25.3144 21.3666 25.7084 21.3344 25.8787 21.2967C25.9527 21.2219 26.0626 21.1117 26.1681 21.1806C26.2076 21.3408 26.1771 21.4417 26.0301 21.5322C25.5982 21.7983 25.139 21.7218 24.6618 21.6785C24.391 21.654 24.1418 21.6324 23.8699 21.5796C23.9999 21.8429 24.0332 22.0374 24.0295 22.3262C23.8933 23.2382 22.99 23.4635 22.64 22.5578C22.5106 22.2232 22.6495 21.878 22.8139 21.5723C22.8 21.5794 22.7858 21.5867 22.7719 21.5937C22.4932 21.6864 22.1546 22.1029 21.9509 22.2031C21.8761 22.1974 21.9094 22.2104 21.8501 22.1565C21.8439 22.1362 21.8198 22.0592 21.8298 22.0413C22.0708 21.6134 22.4528 21.2488 22.9474 21.1451C23.0516 21.1232 23.169 21.093 23.2321 21.0363Z" fill="black"/>
<path d="M13.7924 20.0009L13.811 19.994C13.8206 20.0053 13.83 20.0163 13.8396 20.0276C15.0066 20.06 16.2457 20.0412 17.406 20.045C17.9731 20.0468 18.227 19.9667 18.7347 20.0819C18.8221 20.107 18.864 20.252 18.8978 20.3211C19.0415 20.6148 18.8736 20.9806 18.8141 21.3012C18.7035 21.8984 18.5443 22.5054 18.4013 23.0971C18.3776 23.1948 18.3343 23.4725 18.3039 23.5435L18.2481 23.5427C18.1011 23.8413 17.882 23.8066 17.5853 23.8344C17.4863 23.8399 17.0969 23.8205 16.969 23.8201L15.4254 23.8192C14.9225 23.8157 13.6835 23.8938 13.2969 23.7638C12.791 23.5939 12.6062 21.2635 12.5713 20.7682C12.5627 20.6469 12.6345 20.3809 12.6763 20.2973C12.8747 19.8998 13.5116 20.1123 13.7924 20.0009Z" fill="#FBFBFA"/>
<path d="M16.6228 21.1898L16.64 21.1779C17.1464 21.1893 17.8659 21.5714 18.1105 22.0351C18.1555 22.12 18.247 22.2853 18.1218 22.3363C17.9468 22.3089 17.7154 22.0174 17.5546 21.9121C17.4433 21.8393 17.3462 21.7832 17.2299 21.7181C17.3965 22.2268 17.4497 22.9117 16.873 23.1884C16.7268 23.2575 16.5584 23.2619 16.4088 23.2006C16.1638 23.0999 16.0552 22.8998 15.9643 22.6705C15.9532 22.6307 15.9433 22.5908 15.9348 22.5504C15.8692 22.235 15.9513 22.0015 16.1182 21.7431C15.6653 21.8247 15.1596 21.8466 14.6998 21.8777C14.4126 21.8969 13.8529 21.7197 13.8604 21.363C13.9027 21.3021 13.8741 21.3226 13.9545 21.3076C14.043 21.3315 14.0889 21.3895 14.1573 21.454C14.559 21.5193 14.7103 21.4526 15.0981 21.4319C15.283 21.256 15.2962 21.4204 15.5004 21.3628L15.5121 21.3028L15.5387 21.2867C15.7241 21.3544 16.1028 21.2185 16.3156 21.2059C16.4157 21.1999 16.5254 21.1986 16.6228 21.1898Z" fill="black"/>
<path d="M15.651 15.9547L15.702 15.9882C15.7291 16.079 15.5341 16.4257 15.4859 16.5783L15.5216 16.493C15.4127 16.8442 15.4364 16.8793 15.4438 17.2461C15.4982 17.2948 15.524 17.3092 15.548 17.3785C15.4742 17.5532 15.6054 17.4772 15.6067 17.6088C15.5096 17.6308 14.9092 17.592 14.7514 17.5916L14.741 17.5911C14.6954 17.6258 14.4713 17.6278 14.3997 17.6334C14.3732 17.6956 14.3626 17.7182 14.3273 17.7787L14.2822 17.7819C14.2836 17.5956 15.4884 16.1546 15.651 15.9547Z" fill="#FBFBFA"/>
</svg>
