<svg width="41" height="41" viewBox="0 0 41 41" fill="none" xmlns="http://www.w3.org/2000/svg">
<path d="M12.612 12.7487C12.4482 12.1008 12.246 11.9198 12.2494 11.1938C12.2639 8.09674 14.8639 6.00442 17.7415 5.54378C20.0673 5.12821 22.2244 6.01459 24.3649 6.78634C26.7286 7.63856 29.18 8.47342 31.6914 8.74814C31.9252 8.77371 33.0294 8.88167 33.1155 9.0746C33.0935 9.34957 32.5653 10.1617 32.389 10.4188L32.3603 10.4631C32.1777 10.8556 31.2723 12.1083 30.9428 12.3803C31.6221 12.752 32.2696 13.7701 32.4799 14.4961C32.9279 16.0435 32.4262 18.0356 32.0822 19.5897C32.9249 20.3447 33.335 20.9897 33.395 22.1418C33.4491 23.186 33.0377 24.247 32.3656 25.0476C31.9851 25.5008 31.2875 25.9981 30.8071 26.3583C30.6799 26.4538 30.0864 26.7126 30.0246 26.7762C30.1605 27.1087 29.6067 27.941 29.6154 28.078L29.6563 28.0932C29.6312 28.1724 29.6037 28.2509 29.5743 28.3287L29.5068 28.3136L29.4882 28.3331C29.4441 28.3793 29.4214 28.7023 29.3798 28.7859C29.3447 28.8564 29.2136 28.8933 29.2136 28.9468L29.282 28.9666C29.2825 28.9615 28.9704 29.611 28.9516 29.6498C28.6719 30.2264 28.3571 30.7163 27.9316 31.1971L27.9771 31.2256C27.9387 31.302 27.7693 31.5064 27.7059 31.5863C26.9497 32.5464 26.043 33.3778 25.0207 34.0478C24.8636 34.1486 24.6832 34.2684 24.5082 34.3396C24.4469 34.3646 24.4088 34.3373 24.3447 34.3141L24.3206 34.3633L24.3401 34.4135C24.2361 34.5198 23.8182 34.6946 23.6708 34.7304L23.5915 34.7063C23.4779 34.7726 23.5245 34.8208 23.4368 34.8514C23.4014 34.828 23.37 34.8066 23.3357 34.782C23.3263 34.8323 23.3298 34.8052 23.327 34.8633C23.2333 34.9072 23.0841 34.9834 22.984 34.974L22.9626 34.9223C22.9385 34.9676 22.9442 34.9483 22.9468 35.0025C22.7989 35.115 22.2368 35.151 22.0448 35.1753L22.0359 35.2511L22.0021 35.2559L21.9541 35.2134L21.9114 35.261C21.8907 35.2157 21.8967 35.2337 21.8958 35.1813L21.8581 35.185C21.8326 35.2323 21.8317 35.2373 21.8168 35.2892L21.7743 35.2904C21.3764 35.3021 21.0005 35.3599 20.5899 35.3625C16.4486 35.3893 13.0897 32.0443 11.6263 28.4015C11.3905 27.8147 11.183 27.1959 10.9947 26.5969C10.6677 26.5827 10.2782 26.4474 9.97696 26.3221C9.81588 26.323 9.73053 26.3248 9.58093 26.2564C8.83124 25.9141 7.5658 24.618 7.55531 23.78L7.48918 23.7405C7.45423 23.681 7.41308 23.4379 7.40188 23.3446C7.28544 22.3776 7.39373 21.3306 8.11756 20.6058C8.30727 20.4157 8.60716 20.1542 8.85728 20.1608C8.9478 20.0823 8.93432 20.0802 9.04086 20.1117C9.05829 20.0754 8.64254 18.7159 8.59055 18.4953C8.11037 16.4588 8.11689 13.5848 10.3293 12.5637C11.1856 12.1685 11.834 12.2413 12.612 12.7487Z" fill="black"/>
<path d="M9.97696 26.3224C10.1351 26.248 10.1478 26.0429 10.0678 25.8939C9.97273 25.7676 9.75023 25.7091 9.61439 25.6055C8.47905 24.7407 7.79166 23.4007 8.20429 21.9694C8.53864 20.8095 9.34509 20.64 10.3938 20.8515C10.362 20.9909 10.379 20.9711 10.3796 21.0878C10.3852 22.2206 10.4553 23.3573 10.5916 24.4828C10.6322 24.8171 10.6889 25.1491 10.7616 25.4779C10.8134 25.7116 11.0112 26.3926 10.9947 26.5972C10.6677 26.5829 10.2782 26.4477 9.97696 26.3224Z" fill="#FBFBFA"/>
<path d="M32.3603 10.4634C32.3376 10.3926 32.3165 10.1835 32.3718 10.1304C32.4049 10.2288 32.3927 10.314 32.389 10.4191L32.3603 10.4634Z" fill="black"/>
<path d="M18.4921 25.4968C18.554 25.3528 18.7069 25.0918 18.7907 24.9182C19.179 24.1134 19.545 23.1769 19.6053 22.2785C19.6202 22.0572 19.6482 21.1709 19.5139 20.9783C19.5389 21.0141 19.4545 20.906 19.4506 20.8995C20.3124 20.5813 20.1264 22.6996 20.1588 23.1356C20.1866 23.5066 20.1416 24.4549 20.3482 24.7703C20.7553 25.3909 21.4394 25.325 22.1227 25.3253C22.5911 25.3257 23.0596 25.3234 23.5278 25.3188C24.1477 25.3145 24.7542 25.3246 25.4031 25.2858C27.5918 25.1556 27.0729 23.3078 27.3271 21.7451C27.4304 21.111 28.0827 20.582 28.5833 20.2243C29.1688 19.806 29.9463 19.5928 30.657 19.6933C30.8634 19.7258 31.0703 19.8262 31.2719 19.8638L31.3153 19.8716L31.3358 19.9226C31.4205 20.003 31.5569 20.0287 31.6448 20.1129C32.4878 20.9191 32.8428 21.7036 32.5881 22.8369L32.6559 22.8869C32.6552 22.9783 32.559 23.0623 32.5307 23.1735C32.2928 24.1114 31.5009 24.8195 30.7075 25.3145C30.6168 25.3712 30.5082 25.4263 30.4295 25.4915L30.4407 25.5666L30.4083 25.5868C30.0584 25.5532 29.8848 25.8657 29.5806 25.972C29.5411 25.986 29.429 26.0141 29.3835 26.0267C29.2474 26.2926 28.992 27.2812 28.9486 27.5923C28.7477 27.7096 28.8024 27.8715 28.7121 28.0742C28.6285 28.2625 28.5126 28.4423 28.4451 28.6351C28.4609 28.7003 28.4715 28.7153 28.4524 28.7789C28.2072 28.9938 27.9721 29.6298 27.8005 29.9262C27.7277 30.052 27.0003 31.0252 26.9959 31.0604C26.9918 31.0921 27.0159 31.0985 27.0028 31.138L26.9204 31.143C26.8423 31.4165 26.7188 31.3474 26.5376 31.6064C26.5441 31.6539 26.5415 31.6413 26.5484 31.675L26.5528 31.6952L26.5034 31.67C26.4602 31.6858 26.1438 32.0401 26.086 32.0968C25.8458 32.3323 25.5939 32.5445 25.3388 32.7633C25.3376 32.8175 25.3404 32.7906 25.3305 32.8443C25.1652 32.8864 25.1186 32.935 24.9845 33.0358C24.3847 33.4879 23.7785 33.7639 23.1234 34.1126L23.102 34.0773C23.0146 34.0699 22.9163 34.1485 22.8249 34.1781C22.812 34.1999 22.7992 34.2217 22.7863 34.2433C22.6394 34.2798 22.2157 34.3452 22.1032 34.4022L22.1034 34.4614L22.0603 34.4685L22.0153 34.4074C21.627 34.4972 21.5064 34.5206 21.1089 34.542L21.0745 34.5971L21.0389 34.6047L20.9703 34.5436C20.7551 34.7045 20.3627 34.4667 20.1399 34.5932C20.1294 34.5994 20.119 34.6056 20.1085 34.6118C19.5223 34.4607 18.8548 34.4685 18.1987 34.2405C15.7645 33.4112 13.9485 31.4975 12.7433 29.2798C12.4719 28.7805 12.2271 28.1796 12.0145 27.6506C11.9583 27.5108 11.9306 27.3354 11.8154 27.2477C11.8115 26.9329 11.5311 26.203 11.4456 25.8517C11.1282 24.526 10.9861 23.1643 11.0231 21.8014C11.0279 21.5461 11.0078 21.2685 11.0499 21.0198C11.3308 21.1294 11.9192 21.3734 12.0973 21.6014C12.4549 22.059 12.0333 23.8928 12.5678 24.6739C12.7919 25.0015 13.184 25.1475 13.5577 25.2155C14.366 25.3625 15.661 25.3083 16.5009 25.2858C16.7686 25.2789 17.0469 25.2931 17.3119 25.2557C17.5341 25.2242 17.8006 25.1625 17.9834 25.0307C17.9918 25.0247 17.9999 25.0183 18.0081 25.0121L18.0217 25.0415C17.9239 25.1847 18.0343 25.4146 17.8963 25.6623C18.1045 26.1357 18.5279 27.0849 18.8427 27.5117C18.8595 27.5344 19.101 27.6405 19.1501 27.6626C19.2097 27.6492 19.2689 27.6343 19.3278 27.618C19.536 27.3156 18.7034 25.7743 18.4921 25.4968Z" fill="#FBFBFA"/>
<path d="M19.6608 29.6506C19.6847 29.7103 19.6853 29.7069 19.7303 29.7542C19.8059 29.7473 19.7907 29.7393 19.8619 29.6754C19.9639 29.6752 20.1391 29.826 20.225 29.8919L20.3026 29.8694C20.4344 30.0747 20.6038 30.3199 20.7021 30.5412C20.7625 30.6765 20.6566 31.0227 20.7317 31.1444C20.6197 31.2089 20.6454 31.1917 20.571 31.3207C20.4024 31.6128 20.2277 31.6536 19.9271 31.7441C19.4503 31.7078 19.0665 31.5235 18.8624 31.047C18.8719 31.0691 18.8965 30.9768 18.8908 30.9364L18.8353 30.9433C18.6597 30.4191 18.8963 29.8573 19.4572 29.7071C19.4769 29.7719 19.4579 29.7496 19.5013 29.7895C19.527 29.7455 19.5218 29.7422 19.5283 29.6908C19.5531 29.6979 19.5779 29.705 19.6026 29.7122L19.6608 29.6506Z" fill="black"/>
<path d="M14.1718 27.7397C14.4009 27.7616 14.2859 28.8097 14.2812 28.9883C14.2754 29.2138 14.2037 29.0829 14.3241 29.3247C14.2918 29.3901 14.2409 29.4858 14.2671 29.5598C14.3629 29.8302 14.4239 30.6983 13.9097 30.4185C13.824 30.3716 13.7877 30.3197 13.7626 30.2245C13.7335 30.1602 13.7487 30.1799 13.701 30.1303L13.6952 30.1765H13.7448L13.6928 30.1939L13.6756 30.2242C13.6168 30.168 13.5775 30.0692 13.5406 29.9935C13.6393 29.9347 13.5956 29.9248 13.5731 29.8268C13.4922 29.4512 13.5012 29.037 13.5333 28.6542C13.5655 28.2701 13.517 28.0616 13.8069 27.7831C13.9859 27.7845 13.9264 27.7583 14.0426 27.8738C14.1024 27.852 14.1321 27.7942 14.1718 27.7397Z" fill="black"/>
<path d="M15.3314 29.2961C15.3643 29.3308 15.4619 29.5583 15.4621 29.6008C15.4661 30.3133 15.5425 31.0126 15.6171 31.7198C15.6269 31.8123 15.601 32.0205 15.5664 32.1083L15.5046 32.1216C15.3088 32.0697 15.276 32.0256 15.136 31.8855C14.8575 31.6126 14.8396 29.9627 14.8958 29.5097C14.9241 29.2821 15.181 29.4208 15.3314 29.2961Z" fill="black"/>
<path d="M16.4515 30.4978C16.5217 30.6188 16.576 30.6969 16.6569 30.8101C16.668 31.3762 17.017 32.4712 16.8262 32.8633C16.7858 32.8888 16.7915 32.8833 16.7447 32.8982C16.6494 32.8796 16.6366 32.8819 16.5613 32.8261C16.5203 32.7963 16.2945 32.6452 16.2858 32.6223C16.0687 32.0556 16.0012 31.4001 16.0149 30.7954C16.016 30.7428 16.0794 30.7145 16.1172 30.6895L16.0742 30.6422C16.1219 30.5793 16.3369 30.5575 16.4515 30.4978Z" fill="black"/>
<path d="M20.1748 31.877C20.4692 31.9617 20.7514 33.2359 20.9041 33.534C20.9801 33.682 21.0735 33.9954 21.0949 34.1612C21.0382 34.2912 20.9518 34.4253 20.7883 34.3148C20.6871 34.2648 20.5929 34.2083 20.4956 34.1516C20.4409 34.0012 20.2923 33.6967 20.2588 33.5321C20.2512 33.4952 20.2976 33.5089 20.2843 33.3987L20.1966 33.3726C20.0657 33.1498 19.8983 32.4617 19.8492 32.1901C19.8122 31.9853 20.0804 31.9986 20.1748 31.877Z" fill="black"/>
<path d="M26.2925 28.8433C26.549 28.9376 26.6119 29.5045 26.608 29.7582C26.6018 30.1543 26.7433 30.9145 26.3715 31.1734C26.3343 31.1994 26.1977 31.1177 26.155 31.0949C26.1146 30.9503 26.1001 30.8603 25.9768 30.7893C25.9701 30.7333 26.0064 30.7221 26.0273 30.6288C25.9786 30.6364 26.0034 30.6339 25.9532 30.6357C25.9286 30.4449 26.0255 30.3611 26.0138 30.143C25.9913 30.1166 25.9509 30.0613 25.9506 30.0287C25.9479 29.7233 25.9205 29.4246 25.8918 29.1211C26.0781 28.835 26.116 29.0077 26.2925 28.8433Z" fill="black"/>
<path d="M17.624 31.342C17.666 31.4054 17.7303 31.4438 17.7928 31.4897C17.8867 31.7677 17.9297 32.1172 17.9996 32.409C18.0492 32.6161 18.3152 33.3632 18.1979 33.5028C18.0243 33.529 17.9069 33.4941 17.763 33.4068C17.3777 33.1389 17.2577 32.0531 17.2017 31.6045C17.377 31.2605 17.4457 31.4594 17.624 31.342Z" fill="black"/>
<path d="M27.3241 27.6084C27.6143 27.6697 27.8621 30.4384 27.2065 29.9058C27.1482 29.8047 26.9716 29.4787 26.9792 29.3875C27.0214 28.8912 26.8699 28.2012 26.9613 27.7356C27.0487 27.6279 27.1863 27.6286 27.3241 27.6084Z" fill="black"/>
<path d="M21.6037 31.7327C21.6574 31.7715 21.8386 31.9042 21.8533 31.9538C21.958 32.3078 22.586 33.5823 22.3943 33.8923C22.3332 33.8923 22.2721 33.8897 22.2113 33.8847C22.077 33.8718 21.9941 33.7878 21.9128 33.6875L21.8995 33.667C21.8871 33.6907 21.8834 33.7086 21.8779 33.7345L21.8508 33.7056C21.8515 33.6422 21.8586 33.6333 21.8294 33.5793C21.7798 33.5775 21.8053 33.5766 21.7525 33.5823L21.7752 33.4891C21.7036 33.4597 21.7259 33.4843 21.6912 33.4285L21.747 33.3791C21.6476 33.2184 21.3826 32.559 21.3624 32.3778L21.4094 32.3427C21.0747 31.9772 21.3952 31.9744 21.6037 31.7327Z" fill="black"/>
<path d="M18.9062 32.0369L19.1009 32.2114C19.2284 32.6485 19.3583 33.0689 19.5434 33.4852C19.622 33.6617 19.7699 34.0493 19.6053 34.1988C19.5017 34.21 19.4956 34.2279 19.4154 34.1914C19.3071 34.1108 19.2358 34.0716 19.1199 34.0068C18.945 33.7177 18.5346 32.6892 18.5449 32.3103C18.5468 32.2396 18.8154 32.0947 18.9062 32.0369Z" fill="black"/>
<path d="M25.2553 29.7612C25.3327 29.8163 25.4133 29.9387 25.473 30.0188C25.5067 30.6633 25.7106 31.3879 25.4507 31.9858L25.2036 31.8545C24.9811 31.6591 24.9699 31.4479 24.9565 31.1801C24.9375 30.7986 24.8684 30.408 24.8828 30.0241C24.9745 29.862 25.0927 29.8705 25.2387 29.7727L25.2553 29.7612Z" fill="black"/>
<path d="M27.9867 26.2454C28.1915 26.3884 28.2602 26.834 28.282 27.0692C28.316 27.4363 28.457 28.1639 28.1904 28.4451C28.0319 28.5069 27.9589 28.405 27.8788 28.2796C27.8099 28.1637 27.8386 28.1269 27.7934 28.0387L27.7421 28.089C27.6921 27.9354 27.8528 27.9774 27.7242 27.6781L27.7093 27.6432C27.7265 27.6055 27.749 27.5736 27.7738 27.5405C27.7208 27.4393 27.6806 27.3823 27.6772 27.265C27.6712 27.0666 27.724 26.8168 27.603 26.6476C27.5667 26.5971 27.6801 26.4224 27.7231 26.3925C27.8078 26.3335 27.8951 26.303 27.9867 26.2454Z" fill="black"/>
<path d="M24.0946 30.7332C24.1615 30.7334 24.2129 30.7866 24.2776 30.8316C24.4216 31.2417 24.8189 32.3768 24.5197 32.7571C24.4425 32.7176 24.4136 32.7033 24.3293 32.6873L24.296 32.7031C24.2154 32.6099 24.1403 32.5102 24.0586 32.4184C24.0508 32.4097 24.0423 32.4014 24.0343 32.3927C23.9585 32.3091 23.7541 31.1281 23.7638 30.9497C23.8492 30.8069 23.9385 30.7922 24.0946 30.7332Z" fill="black"/>
<path d="M22.8981 31.2935C22.9681 31.3394 23.0549 31.3931 23.0986 31.4677C23.254 31.7338 23.7537 32.9785 23.4196 33.1881C23.3346 33.1973 23.3174 33.1819 23.2407 33.1461C22.8198 32.8614 22.6706 32.1329 22.5622 31.6457C22.5133 31.4257 22.7874 31.4156 22.8981 31.2935Z" fill="black"/>
<path d="M28.7361 24.7432C29.0133 24.8715 29.1182 26.3221 28.9655 26.6233C28.8429 26.8646 28.8973 26.6045 28.6684 26.6977C28.6317 26.509 28.5233 26.5127 28.4884 26.4282C28.3309 26.05 28.3552 25.4425 28.3501 25.0352C28.3462 24.7372 28.6211 24.8559 28.7361 24.7432Z" fill="black"/>
<path d="M21.5832 28.3264C21.6298 28.328 21.783 28.4304 21.8438 28.4639C21.9926 28.9241 22.1575 29.2003 22.2273 29.7139C22.1975 29.8048 22.1906 29.8982 22.1003 29.9304L22.0014 29.8833C21.9825 29.901 21.9954 29.8934 21.9584 29.8962C21.8257 29.7986 21.7759 29.7538 21.6588 29.637C21.5981 29.2919 21.3568 28.9429 21.3189 28.5909C21.3042 28.4548 21.493 28.4137 21.5832 28.3264Z" fill="black"/>
<path d="M17.418 28.5747C17.5939 28.6457 17.5871 28.6461 17.719 28.782C17.6237 29.0628 17.4356 29.2337 17.2716 29.477C17.1378 29.6756 17.0327 29.928 16.8778 30.1045C16.7558 30.1004 16.6559 30.1075 16.5644 30.0356C16.4151 29.7096 17.1104 28.7526 17.418 28.5747Z" fill="black"/>
<path d="M18.4287 28.4209C18.5004 28.4423 18.5062 28.4625 18.5553 28.5265L18.5829 28.5628C18.6369 28.5674 18.6219 28.5639 18.6746 28.5809C18.6892 28.8319 18.1187 29.486 17.9421 29.7009C17.915 29.734 17.8178 29.7767 17.7745 29.7941C17.725 29.826 17.7514 29.8203 17.696 29.8146C17.6354 29.7172 17.5632 29.3503 17.6121 29.2596C17.7095 29.0789 18.0587 28.5222 18.2319 28.4462C18.3179 28.4484 18.3488 28.4514 18.4287 28.4209Z" fill="black"/>
<path d="M20.84 28.2727C20.9029 28.2938 21.0361 28.3983 21.0964 28.4421C21.2161 28.7902 21.5548 29.366 21.2195 29.6827L21.1784 29.6613C21.107 29.6413 20.9284 29.5258 20.8772 29.4521C20.7362 29.2496 20.6094 28.7989 20.5688 28.556C20.5451 28.4151 20.7504 28.3825 20.84 28.2727Z" fill="black"/>
<path d="M12.9403 26.7118C13.0273 26.9806 12.976 27.2621 12.9761 27.5443C12.9763 27.7677 13.0039 28.0342 12.8349 28.1998C12.2865 27.9736 12.4582 27.1133 12.6168 26.6736C12.7327 26.6649 12.8258 26.6902 12.9403 26.7118Z" fill="black"/>
<path d="M19.1339 28.3582C19.1656 28.3625 19.4292 28.4663 19.4774 28.4851C19.4772 28.5662 19.455 28.7191 19.4453 28.8052C19.1434 29.0839 19.2831 29.2965 18.7492 29.5918C18.7147 29.573 18.6729 29.4937 18.6491 29.4559L18.632 29.4462C18.5671 29.3052 18.6696 29.162 18.5503 29.0476L18.5516 29.018C18.6058 29.0006 18.6059 29.0077 18.6483 28.9755L18.6109 28.9202L18.6216 28.8757C18.8542 28.7953 18.7209 28.5519 19.1339 28.3582Z" fill="black"/>
<path d="M20.1586 28.3804C20.4064 28.4189 20.6023 29.178 20.4082 29.3481C20.3295 29.3224 20.3189 29.3153 20.2335 29.3295C20.1575 29.2561 20.0445 29.2342 19.9768 29.1284C19.8594 28.945 19.7896 28.7464 19.8858 28.5363C19.9359 28.4268 20.0503 28.4116 20.1586 28.3804Z" fill="black"/>
<path d="M14.3452 12.5103C14.4636 12.6145 14.774 13.0521 14.9385 13.2277C17.4176 15.8757 21.193 16.8705 24.7092 16.2032C25.4146 16.0693 26.0072 15.8422 26.6798 15.5993C26.7298 15.6311 26.691 15.7926 26.7041 15.8726C26.7404 16.0944 26.7677 16.3797 26.8201 16.5931C26.8518 16.7226 26.9197 16.8673 26.9592 17.0168L26.9165 17.0616C26.9216 17.1331 27.0086 17.1455 27.0139 17.1694C27.2134 18.0553 27.694 18.8657 28.2283 19.5786C27.8299 19.9128 27.8518 19.7459 27.4061 20.2556C27.378 20.0574 27.3434 19.8985 27.2759 19.7111C27.0816 19.6373 26.8688 19.1593 26.4283 19.0259C26.0412 18.9086 25.6074 18.8162 25.1996 18.7454C25.0699 18.7229 24.8513 18.7306 24.7551 18.6905L24.753 18.6568C24.8297 18.5707 25.5039 18.4447 25.6674 18.3387C25.8887 18.1952 25.8784 18.2321 25.9432 17.9676C25.6782 17.5862 24.7905 18.1237 24.4864 18.1269L24.4743 18.1055C24.5108 18.0716 24.5312 18.0538 24.5627 18.0155C24.5347 17.9528 24.3549 17.8581 24.2798 17.8092C23.9964 17.8399 23.7478 17.8548 23.5126 18.0097L23.4761 18.034L23.4499 18.0189C23.4835 17.9632 23.4876 17.9652 23.4945 17.9019C23.2669 17.4813 22.3135 18.0781 22.1944 18.0169C22.1613 17.8185 22.1831 17.848 21.9967 17.8142C21.7354 17.8116 21.5152 17.9161 21.303 18.073C21.1046 18.22 20.3705 18.6374 20.5886 18.9514C20.675 19.0757 20.773 19.0593 20.8977 19.0845C20.6428 19.3037 20.4644 19.3951 20.3227 19.7266L20.356 19.7857L20.3372 19.8292L20.2646 19.8207C20.1985 19.9229 20.1505 20.3143 20.1473 20.4441C19.6947 20.1842 19.4592 20.1157 19.0123 20.4402C18.8849 19.7631 18.846 19.5995 18.2858 19.158C18.2241 19.1093 18.1034 18.8422 18.0359 18.7732C17.7466 18.4774 17.3229 18.0323 16.9098 17.9268L16.688 18.2552C16.2647 17.9657 16.4081 17.872 15.8431 17.7768L15.6872 18.0802C15.7385 18.1711 15.8526 18.2765 15.8613 18.3495C15.7537 18.3092 15.1922 17.8657 15.0672 17.7706C14.9611 17.7582 14.7831 17.7238 14.6955 17.7684C14.5972 17.8871 14.661 18.2023 14.7574 18.2869C14.8791 18.3937 14.9127 18.3728 15.0165 18.529C14.7231 18.3732 13.7335 17.7871 14.0432 18.6417C13.9481 18.5807 13.8746 18.5294 13.7707 18.4832L13.7052 18.5232C13.5881 18.4362 13.5082 18.3564 13.3626 18.4086C13.2946 18.4871 13.2786 18.6016 13.2519 18.7067C13.3558 18.7843 13.4824 18.9128 13.579 19.0054C13.2714 19.0457 12.9655 19.2728 12.7674 19.5051C12.4933 19.8266 12.4066 20.2416 12.3247 20.6436C11.9627 20.4932 11.4512 20.2746 11.0781 20.2034C11.1684 19.9867 11.1929 19.602 11.1885 19.367C11.2026 19.3511 11.2558 19.2879 11.2584 19.271C11.6227 16.8784 12.7628 14.3283 14.3452 12.5103Z" fill="#FBFBFA"/>
<path d="M23.5194 19.281C23.6239 19.3304 23.8639 19.2976 23.9895 19.2913C24.1686 19.2824 24.1311 19.3772 24.2751 19.373L24.3033 19.3256C24.3851 19.3093 24.7231 19.3554 24.8244 19.3661C25.5105 19.4374 26.5419 19.4888 26.6129 20.385C26.6696 21.0983 26.541 21.8762 26.5008 22.5751C26.4622 23.2423 26.493 24.301 25.772 24.6208C25.5268 24.7294 24.5568 24.7315 24.257 24.7306L22.4416 24.7329C22.1169 24.7331 21.7963 24.7365 21.4719 24.7244C20.9959 24.7065 20.789 24.3919 20.7755 23.9437C20.7608 23.4597 20.7665 22.9588 20.7649 22.4723C20.7621 21.6951 20.6195 20.8777 20.8223 20.12C21.0404 19.3039 22.341 19.4018 23.0078 19.3286C23.1541 19.3126 23.3899 19.3361 23.5194 19.281Z" fill="#FBFBFA"/>
<path d="M23.9248 20.5388C24.5085 20.5301 25.6524 20.7386 26.2111 21.0125C26.2568 21.0442 26.277 21.0717 26.2818 21.1252C26.3036 21.3796 26.0905 21.3913 25.9454 21.5993C25.39 21.4483 24.674 21.2522 24.1027 21.2063C24.3861 21.8143 24.038 22.214 23.4148 22.2879L23.3852 22.2819C22.8531 22.1779 22.7064 21.966 22.7643 21.4377C22.5526 21.5424 22.3693 21.6455 22.17 21.7688C22.0061 21.87 21.6706 22.166 21.516 22.2098C21.1092 22.1378 21.3544 21.7022 21.5349 21.5229C22.2067 20.8557 22.9999 20.5857 23.9248 20.5388Z" fill="black"/>
<path d="M15.7061 19.4144C16.3391 19.376 17.3675 19.3492 17.9324 19.6478C18.1196 19.7467 18.2993 20.0018 18.3566 20.2047C18.2904 20.3209 18.3014 20.3028 18.3646 20.4036L18.3217 20.4724C18.3278 20.4823 18.3334 20.4924 18.34 20.5018C18.4067 20.5967 18.2593 21.1178 18.2791 21.282L18.329 21.3128C18.2192 21.4774 18.2525 21.3789 18.2365 21.597C18.2196 21.5897 18.0925 21.4312 18.0615 21.3968C17.9782 21.3034 17.8808 21.2237 17.7729 21.1603C16.7828 20.5746 15.1963 20.7645 14.1464 21.1403C13.968 21.2042 13.7002 21.3119 13.6045 21.4813C13.5601 21.4058 13.7052 21.656 13.6473 21.5385C13.7246 21.695 13.6302 21.7088 13.7514 21.8985C13.8009 21.9201 13.8143 21.9341 13.8719 21.9168C14.4147 21.7547 14.9074 21.5502 15.4814 21.5111C15.4597 21.6393 15.4278 21.7915 15.4474 21.9203C15.5041 22.2938 15.8741 22.6086 16.2595 22.5397C16.4914 22.4984 16.6153 22.3795 16.7538 22.2018C16.9019 22.0119 16.8683 21.8675 16.8351 21.6464C16.8265 21.5837 16.8136 21.5878 16.8226 21.5212L16.8758 21.53C17.143 21.6138 17.4621 21.7398 17.6892 21.9015C17.837 22.0066 17.9452 22.103 18.1037 22.2011L18.1296 22.2167C18.058 22.6561 17.9074 24.1598 17.7042 24.425C17.5626 24.61 17.2135 24.6644 16.9919 24.6839C16.3218 24.7427 15.5972 24.6989 14.9224 24.6984C14.5469 24.6982 13.8411 24.7432 13.4982 24.6757C13.3578 24.6479 13.2143 24.5478 13.107 24.4546C12.9131 24.2861 12.9084 23.7754 12.8937 23.5316C12.8419 22.6702 12.6891 20.5399 13.2771 19.9074C13.7754 19.3715 15.0324 19.4414 15.7061 19.4144Z" fill="#FBFBFA"/>
<path d="M18.9384 21.5283C19.0249 21.7595 18.8771 22.6428 18.831 22.9199C18.8059 23.0712 18.7 23.2792 18.6926 23.4751L18.6514 23.4769C18.6581 23.3123 18.7352 22.9936 18.7584 22.8136C18.8135 22.3863 18.8702 21.9533 18.9384 21.5283Z" fill="#FBFBFA"/>
<path d="M21.612 18.593L21.6554 18.6215C21.6673 18.6937 21.6652 18.7075 21.7146 18.7651L21.7355 18.7902C21.7408 18.7963 21.7461 18.8023 21.7514 18.8084C21.6744 18.889 21.5034 18.8464 21.3851 18.9001C21.2423 18.9597 21.2099 18.9742 21.0547 18.9997C21.2191 18.827 21.4069 18.7128 21.612 18.593Z" fill="#FBFBFA"/>
<path d="M22.8516 18.4133L22.8669 18.4228C22.858 18.47 22.8633 18.4517 22.8479 18.4969L22.8371 18.5284C22.8849 18.64 22.8708 18.6056 22.9914 18.6841C22.816 18.7023 22.6543 18.713 22.478 18.7228C22.4056 18.7405 22.3999 18.7438 22.3266 18.7442L22.3225 18.7189C22.4068 18.6496 22.7234 18.4904 22.8516 18.4133Z" fill="#FBFBFA"/>
<path d="M24.1891 18.4397L24.2061 18.439C24.2146 18.5052 24.2158 18.5566 24.2176 18.6227C24.1223 18.7003 23.9115 18.6478 23.7455 18.6584L23.7186 18.6603L23.6975 18.6474L23.7088 18.6123C23.8247 18.5423 24.0523 18.437 24.1891 18.4397Z" fill="#FBFBFA"/>
<path d="M31.3154 19.8716C31.3806 19.7439 31.3265 19.5886 31.4282 19.5227C31.447 19.6054 31.4165 19.7644 31.4061 19.8581L31.3359 19.9226L31.3154 19.8716Z" fill="black"/>
<path d="M15.0769 18.5306C15.1848 18.5272 15.2885 18.6223 15.3689 18.6911C15.2965 18.6696 15.1225 18.5902 15.0769 18.5306Z" fill="black"/>
</svg>
