<svg width="72" height="72" viewBox="0 0 72 72" fill="none" xmlns="http://www.w3.org/2000/svg">
<g filter="url(#filter0_ddd_14293_1509)">
<path d="M20 31C20 22.1634 27.1634 15 36 15C44.8366 15 52 22.1634 52 31C52 39.8366 44.8366 47 36 47C27.1634 47 20 39.8366 20 31Z" fill="white"/>
<path d="M39.834 22.0156C41.3376 21.9204 42.4888 22.3924 43.4672 23.5512C43.7632 23.9018 43.876 24.2675 43.4435 24.5728C42.9145 24.5485 42.6818 23.6734 42.2328 23.372C40.4909 22.2027 38.2041 22.7752 37.0562 24.4986C36.2321 25.7356 35.9194 27.1892 35.3235 28.5403C34.5066 30.3931 33.678 32.2525 32.8784 34.123C32.8406 34.2129 32.8566 34.1545 32.8675 34.3055C33.4377 34.6686 35.7403 34.1164 36.4498 34.4328C36.5684 34.5976 36.542 34.507 36.5235 34.7158C36.1023 35.3789 33.6054 35.1413 32.8705 35.1117C32.5098 35.0966 32.1471 35.0159 31.9692 34.6725C32.0312 33.773 34.2977 29.166 34.7258 28.0118C35.1069 27.0716 35.4185 26.1144 35.8253 25.1841C36.6387 23.3234 37.8348 22.3051 39.834 22.0156Z" fill="black"/>
<path d="M38.5566 36.3467C38.8282 36.4872 38.77 36.4104 38.9096 36.6441C38.9283 36.973 38.7349 37.279 38.5153 37.5127C36.4892 39.6695 33.8274 39.8868 31.6013 37.9841C31.3719 37.7011 31.2697 37.4792 31.5091 37.1615C31.9671 37.0807 32.5058 37.8351 32.9301 38.057C34.3845 38.8199 35.9382 38.6531 37.2207 37.6545C37.7331 37.2553 38.042 36.8266 38.5059 36.3933L38.5566 36.3467Z" fill="black"/>
<path d="M31.4837 22.0137C32.3499 21.948 34.4815 22.0859 34.6672 23.1685C34.4204 23.81 33.637 23.0155 33.1457 22.8888C31.8385 22.552 30.8463 22.8271 29.6797 23.4265C28.988 23.8566 28.699 24.2715 28.1706 24.8696C28.0201 25.0403 27.724 25.2071 27.5381 24.9904C27.4019 24.2433 28.438 23.3609 28.9983 22.9643C29.7531 22.4293 30.5773 22.1502 31.4837 22.0137Z" fill="black"/>
<path d="M39.22 25.3092C39.8404 25.2994 40.3542 25.7885 40.3751 26.4089C40.396 27.0294 39.9162 27.5513 39.2965 27.5835C38.8857 27.6052 38.4953 27.403 38.2757 27.055C38.056 26.707 38.0411 26.2678 38.2369 25.906C38.4327 25.5436 38.8086 25.3158 39.22 25.3092Z" fill="black"/>
<path d="M31.629 25.3095C32.0353 25.2721 32.4303 25.4559 32.6633 25.7907C32.8962 26.1256 32.9314 26.5602 32.7552 26.9279C32.579 27.2955 32.2187 27.5411 31.8117 27.5693C31.1918 27.6126 30.6525 27.1491 30.6024 26.5293C30.5523 25.9102 31.0102 25.3659 31.629 25.3095Z" fill="black"/>
</g>
<defs>
<filter id="filter0_ddd_14293_1509" x="0" y="0" width="72" height="72" filterUnits="userSpaceOnUse" color-interpolation-filters="sRGB">
<feFlood flood-opacity="0" result="BackgroundImageFix"/>
<feColorMatrix in="SourceAlpha" type="matrix" values="0 0 0 0 0 0 0 0 0 0 0 0 0 0 0 0 0 0 127 0" result="hardAlpha"/>
<feOffset dy="2"/>
<feGaussianBlur stdDeviation="1"/>
<feComposite in2="hardAlpha" operator="out"/>
<feColorMatrix type="matrix" values="0 0 0 0 0.372549 0 0 0 0 0.356863 0 0 0 0 0.341176 0 0 0 0.1 0"/>
<feBlend mode="normal" in2="BackgroundImageFix" result="effect1_dropShadow_14293_1509"/>
<feColorMatrix in="SourceAlpha" type="matrix" values="0 0 0 0 0 0 0 0 0 0 0 0 0 0 0 0 0 0 127 0" result="hardAlpha"/>
<feOffset dy="4"/>
<feGaussianBlur stdDeviation="4"/>
<feComposite in2="hardAlpha" operator="out"/>
<feColorMatrix type="matrix" values="0 0 0 0 0.372549 0 0 0 0 0.356863 0 0 0 0 0.341176 0 0 0 0.1 0"/>
<feBlend mode="normal" in2="effect1_dropShadow_14293_1509" result="effect2_dropShadow_14293_1509"/>
<feColorMatrix in="SourceAlpha" type="matrix" values="0 0 0 0 0 0 0 0 0 0 0 0 0 0 0 0 0 0 127 0" result="hardAlpha"/>
<feOffset dy="5"/>
<feGaussianBlur stdDeviation="10"/>
<feComposite in2="hardAlpha" operator="out"/>
<feColorMatrix type="matrix" values="0 0 0 0 0.372549 0 0 0 0 0.356863 0 0 0 0 0.341176 0 0 0 0.08 0"/>
<feBlend mode="normal" in2="effect2_dropShadow_14293_1509" result="effect3_dropShadow_14293_1509"/>
<feBlend mode="normal" in="SourceGraphic" in2="effect3_dropShadow_14293_1509" result="shape"/>
</filter>
</defs>
</svg>
