<svg width="41" height="41" viewBox="0 0 41 41" fill="none" xmlns="http://www.w3.org/2000/svg">
<path d="M9.6838 27.6207C9.47734 27.4909 9.25807 27.3638 9.0681 27.2127C8.50898 26.761 8.12002 26.1326 7.96503 25.4307C7.82449 24.7962 7.92691 24.0223 8.28614 23.4732C8.35506 23.368 8.37292 23.349 8.47964 23.2822L8.48803 23.2502C8.38636 23.1633 8.30571 23.1562 8.18898 23.0932C8.07167 23.0297 7.95649 22.9328 7.84865 22.8662C7.19623 22.4635 6.66746 21.3511 6.63449 20.5966C6.60409 19.901 6.6593 18.8727 6.73363 18.1635C6.7536 17.9731 6.84694 17.65 6.88311 17.4409C6.91573 17.2521 6.99112 16.9918 7.0582 16.8042C7.04275 16.7823 7.02729 16.7603 7.01185 16.7384C7.03769 16.7092 7.10171 16.6895 7.09381 16.7047C7.22297 16.4568 7.30134 16.1163 7.42523 15.8756C8.38632 14.0086 9.85061 12.271 11.6822 11.213C11.979 11.0416 12.8253 10.6827 13.1501 10.5952L13.1826 10.6333C13.2298 10.6209 13.2279 10.621 13.2656 10.5944C13.4338 10.4755 13.7507 10.4337 13.9519 10.3945C15.9186 10.0113 17.9802 10.1568 19.927 10.5887C20.0981 10.6267 20.2929 10.6886 20.4646 10.7059C20.4453 10.5263 20.2951 10.2775 20.2614 10.0737C19.8329 7.47781 22.0832 6.51616 24.1996 6.27322C28.5769 5.77075 31.2656 9.30432 31.6757 13.2949C31.7285 13.8085 31.8487 14.3582 31.8909 14.8934C32.0469 16.9192 32.3451 18.9317 32.7831 20.9158C32.9497 21.7008 33.2262 22.4577 33.4137 23.2238C33.6442 24.1667 33.7731 25.1908 33.9509 26.1473C34.2575 28.0109 34.0742 30.1104 33.2024 31.807C33.0296 32.1437 32.8133 32.6207 32.5952 32.9045C31.7216 34.0411 30.2869 34.5387 28.8886 34.4158C27.8788 34.3271 26.8622 33.937 26.0876 33.2677C25.2251 32.5262 24.6467 31.5085 24.4507 30.3882C24.4459 30.3606 24.4525 30.3112 24.4534 30.2817C24.4132 30.3342 24.4232 30.3418 24.3993 30.3859C23.7301 31.6095 22.7655 32.7148 21.6051 33.4946C21.4498 33.5989 21.2219 33.7489 21.0499 33.8086C21.02 33.7882 21.0175 33.7851 20.9807 33.7775C20.9541 33.8243 20.9772 33.8618 20.951 33.8738C20.6346 34.0171 20.2893 34.1935 19.9454 34.2534C19.8413 34.2716 19.8631 34.2816 19.7823 34.3377C19.5704 34.4134 19.27 34.4802 19.0514 34.4557C19.0286 34.501 19.0341 34.4846 19.0266 34.5338C18.1777 34.5751 17.6241 34.6332 16.7723 34.4402C13.7555 33.7564 11.4203 30.7942 10.7284 27.8498C10.5146 27.8223 10.1457 27.7598 9.97487 27.6331L9.6838 27.6207Z" fill="black"/>
<path d="M10.0249 27.2956C9.3469 26.9584 8.82944 26.3671 8.58504 25.6505C8.33713 24.9104 8.44701 23.6997 9.31186 23.4251C9.59383 23.3354 9.93327 23.3352 10.2204 23.3913C10.2576 23.4885 10.2353 24.2595 10.2501 24.4252C10.3015 25.0012 10.3049 25.5607 10.3861 26.138C10.4264 26.4248 10.457 26.6627 10.5175 26.9446C10.5467 27.0809 10.73 27.778 10.7284 27.8498C10.5146 27.8223 10.1457 27.7598 9.97485 27.6331C10.0104 27.5401 10.0227 27.395 10.0249 27.2956Z" fill="#FBFBFA"/>
<path d="M17.3611 15.3645L17.3784 15.3802C17.3788 15.4458 17.2429 15.7842 17.2133 15.8946C16.8603 17.2142 17.504 18.9132 18.4248 19.8706C18.5222 19.8367 18.6112 19.7949 18.7053 19.7529C18.6904 19.7148 18.6766 19.6763 18.6638 19.6375C18.5925 19.4216 18.571 19.159 18.5293 18.9338C18.3205 17.8066 18.4878 16.6028 19.0095 15.5713C19.0525 16.0055 19.0796 16.4734 19.1437 16.9041C19.1932 17.2528 19.311 17.5999 19.3807 17.9414C19.5222 18.634 19.8149 19.1932 20.1912 19.7884C20.895 20.9016 21.9807 21.7599 23.2215 22.1977C23.5272 22.3057 23.8185 22.3887 24.1383 22.4444C24.2051 22.4648 24.2319 22.585 24.2623 22.6405C24.3675 22.8424 24.6741 22.6694 24.8337 22.6137C25.8341 22.2651 26.7183 22.6969 27.1776 23.6318C27.4383 24.1627 27.443 24.6712 27.2622 25.2341C26.9034 26.3505 25.8051 26.9371 24.8252 27.4285C24.7067 27.6852 24.5894 28.2762 24.4758 28.5757C24.3974 28.8695 24.2273 29.1282 24.1145 29.4006C24.089 29.6007 24.002 29.689 23.9113 29.8563C23.3888 30.8183 22.756 31.7319 21.8977 32.4252C21.8289 32.4809 21.7759 32.5892 21.7084 32.6362C21.3397 32.89 20.9591 33.1265 20.5684 33.3448C20.3734 33.4371 19.3536 33.9039 19.2027 33.8667C19.0612 33.8314 18.626 33.941 18.4477 33.9572C17.7336 34.0222 16.8281 33.9414 16.1551 33.6776C15.6992 33.499 15.257 33.3022 14.8422 33.0396C13.3505 32.0955 12.2943 30.5607 11.6074 28.9633C11.1919 27.9971 10.899 26.8443 10.7931 25.7969C10.7345 25.2168 10.7322 24.6479 10.7413 24.0662C10.75 23.5177 10.7681 22.9697 10.8528 22.4269C10.9965 21.5336 11.2422 20.66 11.585 19.8227C12.3855 17.8383 13.5918 16.2474 15.5939 15.3902C14.839 16.0496 14.4091 17.4385 14.61 18.4077C14.6451 18.577 14.6715 18.94 14.8504 19.0111C14.8702 19.0034 14.8901 18.9957 14.9099 18.988C14.9922 18.8078 15.0836 18.4172 15.1483 18.2458C15.3823 17.6262 15.663 17.0331 16.0163 16.4791C16.4283 15.8331 16.7709 15.7396 17.3611 15.3645Z" fill="#FBFBFA"/>
<path d="M17.0197 23.2461C17.0829 23.2388 17.1502 23.2297 17.195 23.2829C17.4251 23.5565 17.5527 24.161 17.5889 24.4923C17.6883 25.403 17.432 26.2947 16.9762 27.0738C16.8229 27.3363 16.5786 27.5983 16.3872 27.8337C16.4991 28.1077 16.9159 28.6096 16.8417 28.864C16.783 28.9188 16.8075 28.9022 16.7094 28.9093L16.6481 28.8663C16.4877 28.8709 15.9981 27.8686 15.9207 27.6906C16.0275 27.5202 16.1655 27.4142 16.3009 27.27C16.6181 26.9323 16.7913 26.5951 16.9432 26.166C17.3313 25.0691 17.2671 24.4364 16.7936 23.4225C16.8783 23.3362 16.9199 23.3113 17.0197 23.2461Z" fill="black"/>
<path d="M20.0826 23.489C20.1001 23.4915 20.1178 23.4939 20.1356 23.4963C20.7296 23.5558 21.3213 23.6836 21.9146 23.7488C22.0422 23.7628 22.1955 23.562 22.3384 23.6192L22.354 23.6709C22.2204 24.2307 20.9603 24.0037 20.525 23.9429C20.6148 24.2061 20.6537 24.3702 20.6089 24.6502C20.5485 24.8699 20.4223 25.078 20.1893 25.1441C20.0593 25.1803 19.9201 25.1627 19.803 25.0957C19.3592 24.8437 19.4431 24.2975 19.6499 23.9172C19.3424 24.0627 19.1029 24.3924 18.9172 24.4208C18.8234 24.3671 18.8893 24.2653 18.9367 24.1879C19.2161 23.7328 19.5913 23.6157 20.0826 23.489Z" fill="black"/>
<path d="M14.7101 23.6144C15.0906 23.5842 16.1589 24.1719 15.916 24.5318C15.7524 24.5613 15.5037 24.1271 15.2289 24.0752C15.2091 24.1431 15.33 24.4342 15.2954 24.6381C15.1954 25.2269 14.6006 25.5177 14.2251 24.9433C14.0982 24.6199 14.1241 24.3592 14.2823 24.0546C13.8664 24.1231 13.2019 24.2165 12.7955 24.0989C12.6564 24.0586 12.4571 23.8842 12.5196 23.7178L12.5699 23.7034C12.6467 23.726 12.6593 23.7526 12.7109 23.8143L12.7286 23.836C13.3338 23.9146 14.0574 23.6239 14.7101 23.6144Z" fill="black"/>
<path d="M18.8301 29.8538C19.4887 29.9243 18.628 31.0159 17.6992 30.9635C17.3317 30.94 16.9877 30.7747 16.7395 30.5027C16.6684 30.4151 16.3378 29.9607 16.6485 29.895C16.8893 29.8442 17.2101 30.2713 17.4828 30.372C18.0779 30.5917 18.32 30.0805 18.8301 29.8538Z" fill="black"/>
<path d="M13.8526 21.3908C13.9352 21.3819 14.276 21.403 14.3332 21.4236C14.523 21.4915 14.4474 21.6872 14.4406 21.8307C14.4417 21.807 14.5021 21.9104 14.513 21.9379C14.3335 22.079 13.6781 22.171 13.4203 22.2183C12.9972 22.3006 13.0851 22.3104 12.7364 22.1211C12.7274 21.9685 12.7248 21.9407 12.6809 21.7921C13.1614 21.4651 13.2829 21.4706 13.8526 21.3908Z" fill="black"/>
<path d="M20.6059 21.303C20.9398 21.3522 21.5516 21.3194 21.8074 21.6094C21.8773 21.6888 21.8089 21.9652 21.7896 22.0815C21.6727 22.0919 21.5058 22.0906 21.384 22.0926C21.1448 22.0731 20.3454 21.8967 20.2158 21.7061C20.2329 21.5415 20.2744 21.632 20.2546 21.3933C20.2906 21.3411 20.5182 21.3192 20.6059 21.303Z" fill="black"/>
<path d="M22.2914 11.2043C22.5384 11.2379 22.65 11.3674 22.5007 11.6095C22.3859 11.7955 22.265 11.8305 22.0647 11.8694C21.5288 11.7793 21.8048 11.2901 22.2914 11.2043Z" fill="#FBFBFA"/>
<path d="M23.125 11.9539L23.1552 11.9535C23.591 11.9454 23.8049 12.3046 23.3205 12.5458C23.0709 12.6053 22.7614 12.5702 22.8426 12.1956C22.8699 12.0703 23.015 12.0072 23.125 11.9539Z" fill="#FBFBFA"/>
<path d="M21.2279 10.7124C21.3546 10.7158 21.515 10.747 21.5674 10.8712C21.6814 11.1418 21.4607 11.2839 21.2805 11.379C20.7582 11.3739 20.8283 10.9019 21.2279 10.7124Z" fill="#FBFBFA"/>
<path d="M24.0247 13.0178C24.3911 13.0606 24.4372 13.4108 24.0498 13.5745C23.9695 13.5748 23.8197 13.5073 23.788 13.433C23.6915 13.2068 23.8734 13.0997 24.0247 13.0178Z" fill="#FBFBFA"/>
</svg>
