<svg width="41" height="41" viewBox="0 0 41 41" fill="none" xmlns="http://www.w3.org/2000/svg">
<path d="M18.5889 13.111C17.9983 12.7632 17.6832 12.2753 17.4235 11.6651C17.2245 11.1975 17.0718 10.8962 17.0101 10.3676C16.9912 10.2056 17.0087 9.9892 16.9904 9.86563L16.9408 9.84535L16.9333 9.81519L17.0127 9.80015C17.0101 9.67113 16.976 9.38074 16.9829 9.27659L17.0304 9.28522L17.0438 9.27195C16.9976 9.22674 16.9883 9.22655 16.9682 9.16709C17.0146 9.13955 17.0018 9.15396 17.0318 9.11271C17.0394 8.9287 17.1255 8.84962 17.1252 8.72692L17.0804 8.72475C17.1388 8.58241 17.1942 8.44637 17.2469 8.30179C17.2985 8.2968 17.2711 8.29717 17.3296 8.30158C17.5315 7.68927 17.7357 7.51437 18.2842 7.18147C18.3388 7.14831 18.5117 7.0288 18.5313 6.98121C18.5933 6.83066 18.6304 6.64441 18.6929 6.4881C18.7372 6.37764 18.8284 6.35315 18.8748 6.2738C18.9653 6.1195 19.0532 5.98166 19.1554 5.83382C19.4077 5.46864 19.8543 5.11004 20.2678 4.95233C20.4348 4.8886 20.8606 4.75867 21.0274 4.72576C21.4807 4.63629 22.5482 4.59529 22.9663 4.78229L23.0941 4.88305C23.2119 4.97761 23.7166 5.23668 23.9505 5.40178C24.0064 5.38324 24.0948 5.3485 24.1487 5.34661C24.4878 5.10638 24.5736 5.07044 24.9668 4.96791C25.2381 4.89716 25.0289 4.796 25.4472 4.88953C25.4962 4.85463 25.4755 4.87524 25.5104 4.82818C25.7922 4.83658 26.1217 4.84189 26.3915 4.89362C27.2498 5.05818 28.1441 5.43665 28.6992 6.13736C28.8951 6.38473 29.1092 6.59285 29.2183 6.89476C29.2904 7.094 29.3307 7.30746 29.3827 7.51251C29.5756 7.64309 29.4156 8.39178 29.5726 8.44149C29.6852 8.41297 29.8114 8.36895 29.9226 8.34724C31.0425 8.12867 32.2883 8.6523 32.5876 9.82445C32.714 10.427 32.2338 10.2523 31.9392 10.0221C31.908 9.99762 31.8137 9.70051 31.7643 9.63953C31.3105 9.08067 30.5591 9.00896 29.9175 9.04485L29.9396 9.08475C30.0385 9.26046 30.0702 9.2924 30.2162 9.42985C30.2162 9.46203 30.216 9.49017 30.2151 9.52252C30.3144 9.56095 30.3107 9.54087 30.3576 9.61293L30.3515 9.72943C30.3869 9.7582 30.584 9.91453 30.5924 9.94412C30.7815 10.6113 30.8648 11.3109 30.6899 11.9925C30.6715 12.0647 30.6757 12.1594 30.6491 12.2315C30.518 12.5472 30.2965 12.9546 30.0744 13.2076C29.2955 14.0949 27.7661 14.7031 26.617 14.8117C26.2143 14.8536 25.8094 14.8738 25.4046 14.8724C25.5956 14.9995 25.9424 15.2047 26.1583 15.2789C26.7236 15.4729 27.7542 15.6971 28.3384 15.5782C28.7988 15.4846 29.3641 15.3445 29.6234 14.9326C29.7708 14.6982 29.8373 14.4443 29.9625 14.2032C30.2167 14.3293 30.292 14.3984 30.4816 14.6148C30.4655 15.8813 29.1001 16.3782 28.0359 16.346C27.6231 16.3336 27.2533 16.2492 26.851 16.2073C27.1754 16.6142 27.5595 17.7714 27.4582 18.2941C27.6887 18.6085 28.0429 19.0656 28.25 19.3855C28.6933 20.137 28.9277 21.0887 28.8769 21.9592C28.8694 22.0856 28.6602 22.6585 28.7374 22.7163C31.2225 24.5753 29.8643 27.6297 27.4755 28.7837C27.2145 28.9101 27.2117 28.8784 27.2197 29.1081C26.4505 31.5018 25.1193 33.7017 22.9484 35.0687C22.8124 35.1543 22.6743 35.2457 22.5482 35.2998C22.5113 35.2928 22.4747 35.2855 22.4383 35.2776L22.4003 35.3142L22.4353 35.3592C22.1093 35.5567 20.8891 35.9891 20.4436 36.0492C20.429 36.0513 20.363 36.0096 20.3452 35.9986C20.3289 36.028 20.3128 36.0523 20.2914 36.0786C15.8893 36.7089 12.4515 33.0798 11.3245 29.1452C11.2884 29.019 11.2147 28.9241 11.2001 28.7798C10.9928 28.752 10.5718 28.6702 10.4105 28.5424C10.15 28.5396 10.0707 28.5363 9.839 28.3999C8.36807 27.5338 7.59553 25.5858 8.50366 24.0383C8.56887 24.0045 8.58594 23.9998 8.62386 23.9352C8.77419 23.679 9.03648 23.4525 9.31261 23.3413C9.43052 23.2937 9.61933 23.2781 9.74702 23.2503C9.88018 23.2217 10.032 23.2011 10.1671 23.2049C10.352 23.2128 10.5032 23.2807 10.6929 23.2592C10.6843 23.2007 10.654 23.1753 10.6157 23.1223C10.6 22.603 10.6121 21.9233 10.6819 21.4081C10.6577 21.3935 10.6381 21.3806 10.6147 21.365L10.6118 21.3123C10.6515 21.2309 10.6213 21.2631 10.7159 21.2237L10.7298 21.1866L10.6477 21.1295L10.6639 21.0989L10.7426 21.1118C10.7188 20.9541 10.6948 21.1169 10.6535 20.9653L10.7072 20.9313C10.7742 20.6936 10.782 20.2163 10.8235 19.9598C10.8644 19.7073 11.0021 19.4572 11.0215 19.2115C11.0286 19.1215 11.0168 19.1414 11.0453 19.0475L11.0982 19.058L11.1164 19.0172C11.0757 18.7498 11.1345 18.8838 11.2057 18.844C11.1876 18.8066 11.1657 18.7728 11.1425 18.7384C11.2158 18.6505 11.2618 18.5857 11.2633 18.4699C11.264 18.4216 11.2748 18.3566 11.2981 18.3026C11.4043 18.0579 11.5116 17.8072 11.6265 17.5663C11.662 17.5507 11.6914 17.5377 11.7149 17.5274C11.9609 16.8937 12.5141 16.2754 13.1436 15.996C13.2054 15.9686 13.6899 15.903 13.6963 15.8791C14.0535 14.5366 14.9816 13.8782 16.3372 13.7805C15.543 13.5813 15.108 13.3972 14.5015 12.8089C14.2867 12.6006 13.6894 11.9255 14.0014 11.6349C14.0455 11.6399 14.0686 11.6485 14.1091 11.6665C14.1698 11.6212 14.2964 11.5164 14.375 11.5865C14.5582 11.75 14.7104 11.9539 14.8801 12.1327C15.6308 12.9242 16.7678 13.2329 17.8318 13.2111C18.0801 13.206 18.3374 13.1432 18.5889 13.111ZM28.0487 10.6161C27.9681 10.8126 27.7983 11.0862 27.7439 11.2387C28.8298 10.2458 29.1623 7.49014 27.9797 6.47579C27.8244 6.34264 27.7803 6.24712 27.5693 6.17019C27.0259 5.76941 26.3108 5.53214 25.6082 5.56994C25.4468 5.59067 25.0328 5.65377 24.9286 5.77545L24.926 5.78837C25.0811 5.76129 25.0561 5.80875 25.1968 5.84249C25.3892 5.88866 25.6201 5.86245 25.7966 5.95421C25.9039 6.00425 26.1378 6.05698 26.2721 6.09669C26.6327 6.20319 27.475 6.62564 27.712 6.89136C27.7166 6.92734 27.7208 6.95514 27.7271 6.99133L27.7514 6.99336C27.9195 7.00896 28.0464 7.06851 28.0632 7.25395C28.1215 7.27689 28.1537 7.28678 28.2143 7.30348C28.2922 7.41238 28.2883 7.53235 28.3351 7.64881C28.5065 8.07494 28.58 8.74408 28.504 9.19474C28.4564 9.47812 28.1828 10.3579 28.0487 10.6161ZM17.6984 9.34968C17.6012 9.70525 17.6424 10.119 17.7556 10.4674C17.7661 10.4997 17.8502 10.5703 17.8791 10.6285L17.9198 10.6255C18.3206 11.6295 19.4462 12.7022 20.54 12.874L20.5101 12.8493C20.2263 12.6115 19.564 12.3436 19.338 12.0643C18.8326 11.4401 18.2414 10.7851 18.0669 9.98283C17.9135 9.27771 18.2633 8.31664 18.6201 7.73875C18.5705 7.77471 18.5215 7.81162 18.4732 7.84949C18.0762 8.16313 17.7519 8.71339 17.709 9.21391L17.6984 9.34968ZM24.8519 7.06098C25.1641 7.27274 25.485 7.58337 25.7166 7.88146C25.5436 7.32001 25.1084 6.90257 24.6622 6.54234C23.818 5.86045 22.6034 5.39232 21.5078 5.50115C21.1841 5.53459 20.5057 5.73504 20.3644 6.06435L20.3793 6.08984C20.5292 6.06129 20.6325 5.98282 20.7774 5.93836C21.0188 5.86422 21.2839 5.82092 21.533 5.77759C21.7359 5.74229 21.9784 5.80229 22.1788 5.82521C23.0806 5.92837 23.7439 6.29199 24.4852 6.79717C24.61 6.88156 24.7322 6.96955 24.8519 7.06098ZM28.6306 13.4551C29.3139 12.9909 29.8834 12.4655 30.0425 11.6198C30.1381 11.1059 30.0483 10.5746 29.7892 10.1206C29.7673 10.0829 29.7433 10.0642 29.7116 10.0361C29.7008 10.1299 29.7062 10.137 29.7207 10.2251C29.8139 10.7905 29.7211 11.4012 29.5243 11.9361C29.4193 12.222 29.1969 12.5484 29.0329 12.8111C28.9142 13.0013 28.6542 13.3555 28.4921 13.4944L28.5014 13.5183C28.5725 13.4959 28.5702 13.498 28.6306 13.4551Z" fill="black"/>
<path d="M10.4105 28.5421C10.4203 28.4385 10.451 28.2823 10.4164 28.1928C10.2879 28.0696 10.0846 27.9841 9.92831 27.8542C9.21365 27.2677 8.75667 26.5364 8.74604 25.5943C8.73608 24.7124 9.12354 23.8682 10.1228 23.8377C10.1883 23.8358 10.6207 23.8839 10.6702 23.9074C10.7393 24.2045 10.6359 24.8183 10.704 25.1951C10.7529 25.4656 10.7507 26.0362 10.7732 26.3459C10.8242 26.9888 10.931 27.6261 11.0925 28.2506C11.1254 28.3828 11.1976 28.6512 11.2001 28.7795C10.9928 28.7517 10.5718 28.6699 10.4105 28.5421Z" fill="#FBFBFA"/>
<path d="M18.5217 17.6497L18.5294 17.6584C18.5247 17.7034 18.4076 18.0944 18.3822 18.217C18.423 18.3069 18.4524 18.3314 18.4452 18.4152L18.381 18.4464C18.3321 18.6583 18.5494 18.6679 18.4676 18.9119L18.5793 18.9925C18.5879 19.0275 18.5919 19.0612 18.594 19.0972L18.6264 19.1155L18.6833 19.0895C18.7756 19.1632 18.6576 19.164 18.7738 19.2617C18.8913 19.3609 18.9993 19.2689 19.1026 19.3249L19.0699 19.3761C19.1987 19.501 19.9387 19.3905 20.1049 19.2997C20.396 19.1408 20.7162 19.0349 21.0138 18.8894C21.1122 18.8412 21.2346 18.7018 21.3139 18.7027C21.254 19.5957 21.5327 20.5571 22.7034 20.5018C22.9751 20.489 24.0087 19.5645 24.2151 19.5416C24.2452 19.6094 24.269 20.0601 24.2888 20.1867C24.3522 20.5913 24.6326 21.3898 24.8205 21.734C25.0988 22.2428 25.3984 22.6339 25.8693 22.9685C25.9003 22.9904 26.0915 23.1553 26.1167 23.1583C26.3565 23.1881 26.6597 23.0258 26.8989 22.9862C27.2012 22.9363 27.6503 22.8878 27.9472 22.9899C29.0697 23.3766 29.7071 24.6698 29.3554 25.8024C29.0468 26.7963 28.3997 27.3459 27.5344 27.8258L27.5326 27.8895L27.4358 27.9305C27.2019 28.0289 26.9892 28.15 26.7686 28.2747C26.738 28.2722 26.7075 28.2698 26.6767 28.2673C26.6226 28.348 26.5717 28.538 26.5437 28.6362C26.3924 29.2 26.2317 29.7168 25.9915 30.2489C25.8357 30.5938 25.8156 30.7498 25.5715 31.0735C25.4507 31.2337 25.4057 31.5119 25.2296 31.7134C25.0502 31.9183 24.8921 32.2623 24.6955 32.4703C24.6321 32.551 24.5584 32.5836 24.584 32.6818C24.3422 32.9066 24.1183 33.1633 23.8842 33.4C23.4019 33.8874 23.0162 34.1952 22.4264 34.5429C21.5345 35.1168 19.9128 35.6466 18.7453 35.4764C18.5245 35.4442 18.352 35.4339 18.1478 35.4013C14.9065 34.8836 12.6674 31.8423 11.7784 28.8705C11.1038 26.6279 11.0185 24.2951 11.516 22.0133C11.6041 21.6092 11.7695 20.8977 11.9565 20.5379C12.0063 20.5428 11.9821 20.5428 12.0291 20.5389L12.0454 20.4887L12.037 20.4663C11.9698 20.2824 12.091 20.1317 12.1852 19.9249C12.3281 20.0018 12.3998 20.0112 12.5546 20.0401C13.7753 19.6538 14.2437 18.5217 15.1689 17.6575C14.8706 18.588 14.9933 19.2414 16.1328 19.1504C17.2172 19.0637 17.5846 18.1072 18.5217 17.6497Z" fill="#FBFBFA"/>
<path d="M16.2401 23.6409C16.4257 23.6192 16.9222 23.6159 16.9428 23.9193C16.9498 24.0222 17.1963 24.1201 17.2119 24.2054L17.1802 24.2502C17.3651 24.7614 17.3234 25.6482 16.9504 26.0903C16.9115 26.1363 16.7631 26.1904 16.7013 26.2142C15.6953 26.0633 16.0064 24.8616 16.1867 24.208C15.9905 24.2463 15.7429 24.3384 15.5594 24.4195C15.4562 24.4771 15.3527 24.5147 15.2562 24.5725C14.7226 24.8922 14.3754 25.3327 14.137 25.8979C14.0896 26.0103 13.8964 26.0255 13.7757 26.0458L13.6504 25.8033C13.8875 24.9078 14.6129 24.1819 15.4626 23.8419C15.6947 23.7489 15.9928 23.6934 16.2401 23.6409Z" fill="black"/>
<path d="M22.1737 23.5506C23.452 23.372 23.7292 25.0085 23.0354 25.7704C22.9296 25.8865 22.7929 25.907 22.6443 25.9343C22.5177 25.8636 22.3402 25.7659 22.2574 25.6519C22.1987 25.5712 22.0212 25.0675 22.0312 24.9836C22.0611 24.9628 22.079 24.95 22.1082 24.9269L22.0895 24.9041L22.0515 24.8926C22.0503 24.7604 22.0814 24.5939 22.0837 24.4867C22.0883 24.2647 22.1884 24.2782 22.2085 24.2073L22.1623 24.1572C22.0298 24.1301 21.8325 24.1956 21.6993 24.2334C21.1569 24.4575 20.7 24.8017 20.4062 25.3159C20.3346 25.4094 20.283 25.7221 20.1422 25.7338C19.5148 25.7783 19.9143 25.1408 20.0697 24.8828C20.5776 24.0387 21.2031 23.6602 22.1737 23.5506Z" fill="black"/>
<path d="M18.3099 22.9268C18.3584 23.0086 18.1904 24.0242 18.1635 24.2151C17.9916 25.4364 17.8807 26.6543 17.7573 27.8802C17.7178 28.272 17.7109 28.6285 17.6579 29.0266C17.9696 29.0161 18.2915 28.9638 18.6042 28.9466C18.8899 28.9307 19.1345 28.9368 19.1172 29.2898C19.0736 29.3551 19.0389 29.3766 18.9782 29.4246L18.9405 29.3831L18.9216 29.4106C18.763 29.4673 17.3951 29.5372 17.2868 29.4803C17.2045 29.3514 17.1923 29.1735 17.2016 29.0233C17.2837 27.706 17.3763 26.346 17.5428 25.0378C17.6377 24.345 17.7421 23.6534 17.8561 22.9634C18.0072 22.9489 18.1585 22.9368 18.3099 22.9268Z" fill="black"/>
<path d="M21.2781 31.2588C21.405 31.246 21.5085 31.2486 21.5466 31.388C21.5051 31.6257 21.1706 31.8269 20.9943 31.978C20.3894 32.4964 19.6319 32.7643 18.8352 32.7746C18.083 32.7841 17.0962 32.4022 16.5618 31.8719C16.4951 31.801 16.4407 31.7558 16.4053 31.6655C16.4214 31.5758 16.4055 31.6187 16.4706 31.5387C16.6906 31.4391 16.9779 31.7749 17.1565 31.8948C18.2666 32.641 19.6209 32.5733 20.6683 31.7471C20.8621 31.5942 21.0766 31.3899 21.2781 31.2588Z" fill="black"/>
<path d="M15.4438 21.7773C15.7758 21.789 16.1461 21.8401 16.4561 21.9641C16.7284 22.0728 17.7644 22.5735 17.5919 22.9601C17.5237 23.0328 17.449 23.0436 17.3512 23.0737C17.2041 22.965 17.057 22.8043 16.891 22.6894C16.2319 22.2325 15.8219 22.1481 15.061 22.17C14.4734 22.2258 14.1842 22.3536 13.6519 22.615C13.4237 22.7269 13.1277 23.1082 12.9406 23.0956C12.8175 23.0091 12.9147 22.8232 12.9944 22.7374C13.4307 22.2677 14.1181 21.9786 14.7291 21.8275C14.9361 21.7764 15.2257 21.7972 15.4438 21.7773Z" fill="black"/>
<path d="M21.2434 21.8027C21.8998 21.7589 22.7716 22.0723 23.3222 22.4237C23.4547 22.5083 23.9185 22.783 23.7924 22.9761C23.6814 23.0169 23.5561 23.0069 23.4349 23.0078C22.8416 22.5578 22.3709 22.2784 21.6025 22.2103L21.5817 22.2098C20.4828 22.1975 20.078 22.4088 19.3154 23.1503C19.0815 23.022 19.0278 22.9348 19.2361 22.7086C19.7575 22.142 20.4831 21.8542 21.2434 21.8027Z" fill="black"/>
<path d="M17.92 10.6254L17.8792 10.6284C17.8503 10.5703 17.7662 10.4996 17.7557 10.4674C17.6426 10.1189 17.6014 9.70518 17.6985 9.34961C17.7091 9.69704 17.7365 10.0078 17.8291 10.3447C17.8501 10.4212 17.9098 10.5668 17.92 10.6254Z" fill="black"/>
<path d="M23.8147 7.07507C24.2458 7.21375 24.4549 7.32081 24.8237 7.55664C24.7777 7.55825 24.7023 7.5879 24.6545 7.60372C24.4549 7.46283 24.0243 7.24175 23.9238 7.16106L23.8147 7.07507Z" fill="black"/>
</svg>
