<svg width="41" height="41" viewBox="0 0 41 41" fill="none" xmlns="http://www.w3.org/2000/svg">
<path d="M25.4386 7.54585C25.4858 7.48892 25.5359 7.43463 25.5889 7.38323C26.0838 6.90045 27.1359 6.81388 27.4607 7.54096C27.5045 7.63917 27.5594 7.88004 27.6232 7.9461C27.7153 7.9346 27.909 7.81764 27.9989 7.77101C28.6495 7.43364 29.1719 7.83945 29.3391 8.48022C29.3753 8.61854 29.4265 8.76681 29.4892 8.89915L29.5079 8.93845C30.0759 8.5788 31.2486 8.48938 31.4977 9.29002C31.5821 9.56139 31.5201 9.85841 31.3843 10.1007C32.0268 10.1395 33.0708 10.2964 33.482 10.8669C33.8667 11.4007 33.3649 11.803 32.9525 12.074C33.6573 12.3878 34.6974 12.8089 34.9764 13.5963C35.1047 13.9582 34.9686 14.4356 34.574 14.5616L34.5473 14.5699L34.5323 14.6024C34.6121 14.6769 34.8014 14.7201 34.8973 14.7778C35.3014 15.0207 35.8664 15.3661 36.0846 15.7941L36.1335 15.8887C36.151 15.9228 36.2121 16.0183 36.2142 16.0475C36.2297 16.2665 36.2135 16.508 36.0984 16.6995C35.9937 16.8737 35.8846 16.9713 35.6842 17.003C35.6148 17.0161 35.6123 17.0175 35.5696 17.0569L35.5961 17.1029C35.7896 17.1507 36.1333 17.4973 36.2707 17.6299C36.8127 18.1526 37.0318 18.9108 36.2958 19.3868C36.2269 19.4314 36.3404 19.5441 36.3839 19.5865C36.725 19.9183 37.0274 20.3728 37.0267 20.8649C37.0131 21.3533 36.6 21.7788 36.0991 21.7525C36.3678 22.0546 36.7071 22.5965 36.7712 23.0033C36.9001 23.8233 36.3876 24.0802 35.6995 24.168C35.7163 24.195 35.7322 24.2227 35.747 24.2508C36.1012 24.9198 36.3593 25.9515 35.5046 26.3813C35.2885 26.4899 34.9617 26.5236 34.7315 26.4417C34.6709 26.4201 34.6635 26.4097 34.5971 26.4226C34.5516 26.4913 34.657 26.8446 34.6686 26.9599C34.7638 27.9155 34.2832 29.3542 33.0473 28.7118C32.9827 29.2036 32.9202 29.6861 32.6292 30.0986C32.3515 30.492 31.9507 30.7872 31.45 30.6292C31.2752 30.5741 31.1749 30.5331 31.0256 30.421C30.9129 31.0431 30.6569 31.7066 29.9634 31.9026C29.617 32.0004 29.3063 31.8101 29.0181 31.6372C28.8795 32.1447 28.5896 32.6696 27.9482 32.6158C27.5598 32.5833 27.3216 32.2983 27.102 32.0057C26.9113 32.4012 26.8514 32.6747 26.4694 32.9525C25.847 33.4054 25.2547 33.2509 24.8209 32.6756C24.4526 33.0867 24.4155 33.2733 23.9019 33.5537C23.2801 33.764 22.7151 33.4651 22.5052 32.8529C22.0987 33.7541 20.9349 34.2503 20.3575 33.2002C20.2412 33.4303 20.1517 33.5973 19.9015 33.7077C19.2517 33.9944 18.488 33.5364 18.2294 32.9361C18.0844 33.1693 17.909 33.3037 17.7199 33.5023C17.0464 33.735 16.5538 33.4993 16.1453 32.9366C16.0659 32.8273 15.9815 32.6239 15.8845 32.5448L15.8507 32.5531L15.7906 32.6433C15.706 32.7699 15.4899 32.9622 15.3697 33.09C14.9426 33.2186 14.5795 33.1986 14.2106 32.9182C14.0125 32.7678 13.7656 32.4823 13.7219 32.2296C13.709 32.1553 13.7178 32.1475 13.687 32.0755C13.6164 32.0509 13.6455 32.0569 13.5887 32.1346C13.5027 32.2446 13.4433 32.3746 13.3182 32.4473C12.3856 32.989 11.8486 32.2257 11.6766 31.4257C11.0386 32.1272 10.2956 31.8805 9.87178 31.1315C9.72335 30.869 9.70444 30.6989 9.64427 30.4069C9.61715 30.3903 9.32032 30.4985 9.24998 30.5146C8.27637 30.7408 7.85272 29.7419 7.71903 28.9682C7.6964 28.8372 7.72641 28.7222 7.70279 28.5951C7.53624 28.6952 7.34263 28.8257 7.14514 28.8298C6.9038 28.8342 6.67156 28.7378 6.5042 28.5637C6.16511 28.2169 6.014 27.636 6.0385 27.1626C6.05053 26.9302 6.09163 26.697 6.09654 26.4634C6.03335 26.4526 5.76101 26.5633 5.54166 26.5492C4.38912 26.4761 4.5911 24.8372 5.08856 24.2075C5.13378 24.15 5.11579 24.2022 5.15549 24.0982C5.06388 24.0714 4.90367 24.118 4.79154 24.1081C4.00191 24.0285 3.7666 23.4405 3.99939 22.7408C4.14752 22.296 4.29556 22.2005 4.57397 21.8426C4.3341 21.7926 4.16763 21.752 3.98041 21.5742C3.80415 21.4061 3.70613 21.1721 3.71008 20.9285C3.71437 20.3138 4.16498 19.8544 4.56052 19.4626C4.56673 19.4139 4.49812 19.3851 4.45974 19.3554C4.25444 19.1966 4.11542 19.0593 4.0421 18.8022C3.96794 18.5422 4.01106 18.2926 4.14222 18.0589C4.2352 17.8932 4.87636 17.1966 5.02029 17.1593C5.05341 17.1507 5.07682 17.1356 5.10512 17.117L5.09197 17.0819C5.05987 17.0723 5.02119 17.061 4.98925 17.0506C4.70342 16.958 4.48827 16.5835 4.51218 16.2874C4.51237 16.285 4.51659 16.2025 4.51583 16.1993C4.46873 16.001 4.66018 15.8263 4.74788 15.6641C4.97232 15.3229 5.33648 15.0408 5.6918 14.8414C5.77667 14.7938 5.89798 14.6978 5.99253 14.6832C6.05259 14.6739 6.03767 14.6792 6.09302 14.6475L6.09491 14.6104L6.01338 14.5541C5.89998 14.4763 5.79198 14.3301 5.66832 14.2176C5.61415 13.9193 5.60262 13.6523 5.76922 13.3803C6.09297 12.8516 7.00294 12.2499 7.59576 12.1064C7.38714 11.9701 7.1561 11.7254 7.10451 11.4777C6.8737 10.37 8.59058 10.0716 9.35482 10.0394C9.09926 9.3354 9.30364 8.81325 10.0874 8.66966C10.5487 8.58514 10.7596 8.73508 11.1811 8.7866L11.2189 8.79107C11.3935 8.17073 11.8324 7.30441 12.61 7.6623C12.7674 7.73474 12.9172 7.84464 13.0639 7.93808C13.2693 7.8591 13.4408 7.28857 13.8507 7.13128C14.3161 6.95265 14.5879 7.05898 15.0307 7.22924L15.0418 7.24416C15.1323 7.36296 15.159 7.39149 15.2744 7.48654C15.6275 7.18344 15.8229 7.06703 16.2849 7.00735C16.516 6.98233 16.8931 7.134 17.046 7.31025C17.0738 7.33481 17.25 7.57461 17.2728 7.57013C18.1025 7.40779 18.8089 7.32281 19.0556 8.40269C19.2084 8.37048 19.4141 8.30718 19.5685 8.26461C19.8332 8.34168 20.1047 8.3982 20.2341 8.66576C20.2712 8.74221 20.3561 8.92862 20.4243 8.95952C20.5353 8.89021 20.6476 8.47667 20.9764 8.37511C21.2853 8.27978 21.4714 8.34555 21.7479 8.47815C21.857 8.10566 21.9764 7.75132 22.3738 7.59409C22.803 7.42416 23.1282 7.51394 23.5306 7.68465C23.6171 7.54431 23.7504 7.34447 23.8758 7.24217C24.0809 7.07185 24.3475 6.99425 24.612 7.02788C24.9921 7.07686 25.2206 7.25467 25.4386 7.54585Z" fill="black"/>
<path d="M20.403 11.8999L20.4295 11.9142C20.6528 12.3055 20.8956 12.5138 21.3808 12.4852C21.4203 12.4829 21.4389 12.4406 21.4666 12.4071C21.5065 12.4332 21.5321 12.4469 21.5321 12.5075C21.534 13.054 21.6034 14.0893 22.2826 14.2142C22.5316 14.26 22.7431 14.0976 22.9359 13.9562C22.9069 14.3065 22.956 14.7464 22.9931 15.1014C23.2007 15.1654 23.0309 15.2753 23.1034 15.4215C23.3845 15.9893 23.6262 16.2571 24.2904 16.174C24.2551 16.7573 24.0355 18.2665 24.8646 18.6183C25.0014 18.6764 25.2652 18.6636 25.4031 18.5816L25.4287 18.5899C25.2253 19.4843 25.0498 21.3079 26.4963 21.0635C26.542 21.1498 26.6137 21.6176 26.6501 21.7574C26.7945 22.3122 27.0182 22.8936 27.3408 23.3674C27.2954 23.5528 27.2689 23.8351 27.1835 23.9965C27.0097 24.3247 26.902 24.6722 26.7421 25.0045C26.613 25.2722 25.7039 26.8057 25.5434 26.8889C25.4719 26.9258 25.4516 26.96 25.4029 27.0227C25.1734 27.3181 24.8914 27.5851 24.6123 27.8328C23.4336 28.8774 21.9011 29.5127 20.3119 29.4099C18.3484 29.2826 16.9539 28.321 15.6926 26.8746C14.8277 25.7698 14.2101 24.6401 13.8342 23.2826C14.0242 22.7596 14.2339 22.3643 14.3149 21.7758C14.3431 21.5713 14.3085 21.1142 14.3919 20.9844C14.5216 20.9798 14.6507 21.0967 14.8188 21.0863C15.5904 21.0384 15.6748 20.4865 15.6505 19.8452C15.6447 19.8471 15.7306 19.8214 15.7226 19.8224C15.9333 19.796 16.3352 19.3536 16.522 19.537C16.2879 20.2919 17.6565 20.9733 17.8521 19.3957C18.0157 19.3263 18.4568 19.6794 18.6796 19.5477C19.3248 19.1664 18.1851 18.7205 17.9364 18.6616C17.0636 18.4549 16.3418 18.7458 15.6007 19.1624C15.5586 18.9784 15.5284 18.8048 15.4961 18.6187C16.3188 18.7584 16.7534 18.1862 16.7452 17.4223C17.4264 17.5282 18.8141 17.8018 19.4665 17.6824C19.4572 17.5977 19.4277 17.217 19.3868 17.1903C18.7785 16.7935 17.3431 16.6176 16.7004 16.5136C16.6921 16.3696 16.6671 16.1911 16.6503 16.0448L16.7839 16.0582C17.0848 16.0891 17.3183 15.9882 17.5292 15.7742C17.8529 15.4456 17.8957 14.9868 17.9576 14.554C17.9811 14.3895 18.0188 14.1986 18.0125 14.0337C18.1784 14.1023 18.3411 14.1714 18.524 14.1739C19.5371 14.1877 19.2909 12.4748 19.4004 12.3924C19.4659 12.3432 19.9053 12.3738 20.0501 12.2789C20.1862 12.1899 20.266 12.0327 20.3827 11.9193L20.403 11.8999Z" fill="#FBFBFA"/>
<path d="M22.8036 18.5342C22.9392 18.5322 22.8149 18.6037 22.8986 18.5808C22.9745 18.5601 23.0411 18.5278 23.1274 18.5247C23.1555 18.5498 23.1786 18.5689 23.2083 18.5922C23.6269 18.4551 24.6174 18.8592 24.9129 19.2038C25.34 19.7023 24.7833 19.8224 24.4069 19.6905C24.2019 19.6187 24.1043 19.4924 23.8495 19.4243L23.8167 19.4159C23.7745 19.6906 23.7282 19.7742 23.5663 19.988C23.3391 20.2301 23.0312 20.3445 22.7674 20.0668C22.5568 19.8452 22.5462 19.5778 22.5506 19.2895C22.4337 19.3265 21.9881 19.4596 21.9332 19.5375C21.6982 19.8701 21.2349 19.3577 21.4505 19.115C21.8101 18.7099 22.2948 18.6122 22.8036 18.5342Z" fill="black"/>
<path d="M19.8035 17.8455L19.8393 17.8489C19.8848 17.9494 19.5116 20.6004 19.473 20.9493C19.3881 21.7165 19.3457 22.714 19.2545 23.4716C19.6372 23.4596 20.0167 23.377 20.3951 23.3855C20.56 23.3892 20.5935 23.6205 20.5656 23.7483C20.51 23.7981 20.5351 23.7879 20.4692 23.8059C20.2544 23.861 19.0744 23.9657 18.91 23.88C18.8403 23.7755 18.8258 23.6371 18.8314 23.5142C18.8799 22.4569 18.9785 21.3982 19.0769 20.3448C19.1539 19.5215 19.3404 18.7064 19.4184 17.8892L19.8035 17.8455Z" fill="black"/>
<path d="M23.3313 16.4688C23.5686 16.5155 24.1304 16.4003 24.1391 16.7864C24.1447 17.0268 23.7731 17.1592 23.5773 17.2082C22.7971 17.4033 21.933 17.5837 21.1265 17.586C20.8267 17.5843 20.6858 17.5494 20.4051 17.4537C20.3689 17.357 20.3297 17.2776 20.2856 17.185C20.8221 16.6814 22.5833 16.5009 23.3313 16.4688Z" fill="black"/>
<path d="M21.5006 25.2661C21.6069 25.3049 21.7529 25.3697 21.7136 25.4946C21.472 26.2635 20.3887 26.6375 19.7106 26.1857C19.5125 26.0538 19.4832 26.0612 19.3466 25.8913C19.2497 25.746 19.2152 25.6874 19.1423 25.5295C19.2646 24.9414 19.8034 25.6482 20.0686 25.7654C20.7139 26.0508 20.9823 25.4262 21.4699 25.2753L21.5006 25.2661Z" fill="black"/>
</svg>
